<?xml version="1.0" encoding="UTF-8"?>
<svg id="Layer_2" data-name="Layer 2" xmlns="http://www.w3.org/2000/svg" viewBox="0 0 340.16 155.91">
  <defs>
    <style>
      .cls-1, .cls-2, .cls-3, .cls-4 {
        stroke-linecap: round;
        stroke-width: 70%;
      }

      .cls-1, .cls-2, .cls-3, .cls-4, .cls-5, .cls-6 {
        fill: none;
        stroke-miterlimit: 10;
      }

      .cls-1, .cls-4 {
        stroke: #f0543b;
      }

      .cls-2 {
        stroke: #1c75bc;
      }

      .cls-3 {
        stroke: #006838;
      }

      .cls-7 {
        letter-spacing: 0em;
      }

      .cls-4 {
        stroke-dasharray: 0 0 2 4;
      }

      .cls-8, .cls-9, .cls-10, .cls-11 {
        fill: #231f20;
        font-size: 12px;
      }

      .cls-8, .cls-12 {
        font-family: TimesNewRomanPSMT, 'Times New Roman';
      }

      .cls-13 {
        letter-spacing: 0em;
      }

      .cls-9, .cls-14 {
        font-family: TimesNewRomanPS-ItalicMT, 'Times New Roman';
        font-style: italic;
      }

      .cls-5 {
        stroke-width: 70%;
      }

      .cls-5, .cls-6 {
        stroke: #231f20;
      }

      .cls-15 {
        opacity: .5;
      }

      .cls-10 {
        font-family: MyriadPro-Regular, 'Myriad Pro';
      }

      .cls-16 {
        fill: #1c75bc;
      }

      .cls-16, .cls-17, .cls-18 {
        stroke-width: 70%;
      }

      .cls-17 {
        fill: #f0543b;
      }

      .cls-18 {
        fill: #006838;
      }
    </style>
  </defs>
  <g id="Layer_1-2" data-name="Layer 1">
    <path class="cls-6" d="m54.14,103.26c5.98,6.34,9.64,14.89,9.64,24.3"/>
    <path class="cls-6" d="m42.52,103c8.47,4.9,14.17,14.06,14.17,24.55"/>
    <path class="cls-6" d="m65.18,106.3c3.62,6.25,5.69,13.52,5.69,21.26"/>
    <path class="cls-6" d="m234.11,100.17c12.1,3.23,21.01,14.27,21.01,27.39"/>
    <path class="cls-6" d="m251.83,102.5c6.41,6.41,10.38,15.27,10.38,25.05"/>
    <path class="cls-6" d="m263.6,106.3c3.62,6.25,5.69,13.52,5.69,21.26"/>
    <g class="cls-15">
      <g>
        <line class="cls-4" x1="89.72" y1="92.13" x2="112.77" y2="52.2"/>
        <polygon class="cls-17" points="118.07 43.03 115.88 59 112.37 52.89 105.32 52.9 118.07 43.03"/>
      </g>
    </g>
    <text class="cls-10" transform="translate(198.43 10.04)"><tspan x="0" y="0">(</tspan><tspan class="cls-7" x="3.41" y="0">b</tspan><tspan class="cls-13" x="10.2" y="0">)</tspan></text>
    <text class="cls-10" transform="translate(0 10.04)"><tspan x="0" y="0">(a)</tspan></text>
    <line class="cls-5" x1="0" y1="127.56" x2="141.73" y2="127.56"/>
    <line class="cls-5" x1="28.35" y1="155.91" x2="28.35" y2="0"/>
    <g>
      <line class="cls-2" x1="28.35" y1="127.56" x2="80.55" y2="97.42"/>
      <polygon class="cls-16" points="89.72 92.13 79.84 104.87 79.86 97.82 73.75 94.31 89.72 92.13"/>
    </g>
    <text class="cls-9" transform="translate(136.41 139.89)"><tspan x="0" y="0">x</tspan></text>
    <g>
      <line class="cls-1" x1="28.35" y1="127.56" x2="51.4" y2="87.63"/>
      <polygon class="cls-17" points="56.69 78.46 54.51 94.44 51 88.32 43.95 88.34 56.69 78.46"/>
    </g>
    <text class="cls-9" transform="translate(89.72 100.62)"><tspan x="0" y="0">z</tspan></text>
    <text class="cls-8" transform="translate(94.39 104.61) scale(.58)"><tspan x="0" y="0">1</tspan></text>
    <g>
      <line class="cls-3" x1="28.35" y1="127.56" x2="110.36" y2="50.29"/>
      <polygon class="cls-18" points="118.06 43.03 111.38 57.7 109.78 50.83 103.02 48.83 118.06 43.03"/>
    </g>
    <text class="cls-9" transform="translate(43.87 77.24)"><tspan x="0" y="0">z</tspan></text>
    <text class="cls-8" transform="translate(48.54 81.24) scale(.58)"><tspan x="0" y="0">2</tspan></text>
    <text class="cls-9" transform="translate(107.21 38.92)"><tspan x="0" y="0">z</tspan></text>
    <text class="cls-8" transform="translate(111.88 42.92) scale(.58)"><tspan x="0" y="0">1</tspan></text>
    <text class="cls-11" transform="translate(115.38 38.92)"><tspan class="cls-12" x="0" y="0">+</tspan><tspan class="cls-14" x="6.77" y="0">z</tspan></text>
    <text class="cls-8" transform="translate(126.82 42.92) scale(.58)"><tspan x="0" y="0">2</tspan></text>
    <line class="cls-5" x1="198.43" y1="127.56" x2="340.16" y2="127.56"/>
    <line class="cls-5" x1="226.77" y1="155.91" x2="226.77" y2="0"/>
    <g>
      <line class="cls-2" x1="226.77" y1="127.56" x2="278.97" y2="97.42"/>
      <polygon class="cls-16" points="288.14 92.13 278.27 104.87 278.29 97.82 272.17 94.31 288.14 92.13"/>
    </g>
    <text class="cls-9" transform="translate(334.83 139.89)"><tspan x="0" y="0">x</tspan></text>
    <g>
      <line class="cls-1" x1="226.77" y1="127.56" x2="259.37" y2="94.96"/>
      <polygon class="cls-17" points="266.86 87.47 260.62 102.34 258.81 95.52 252 93.71 266.86 87.47"/>
    </g>
    <text class="cls-9" transform="translate(288.14 100.62)"><tspan x="0" y="0">z</tspan></text>
    <text class="cls-8" transform="translate(292.81 104.61) scale(.58)"><tspan x="0" y="0">1</tspan></text>
    <g>
      <line class="cls-3" x1="226.77" y1="127.56" x2="257.05" y2="14.58"/>
      <polygon class="cls-18" points="259.79 4.35 261.81 20.34 256.84 15.34 250.03 17.18 259.79 4.35"/>
    </g>
    <text class="cls-9" transform="translate(255.12 83.37)"><tspan x="0" y="0">z</tspan></text>
    <text class="cls-8" transform="translate(259.79 87.37) scale(.58)"><tspan x="0" y="0">2</tspan></text>
    <text class="cls-9" transform="translate(266.86 10.4)"><tspan x="0" y="0">z</tspan></text>
    <text class="cls-8" transform="translate(271.53 14.39) scale(.58)"><tspan x="0" y="0">1</tspan></text>
    <text class="cls-11" transform="translate(275.03 10.4)"><tspan class="cls-12" x="0" y="0">∙</tspan><tspan class="cls-14" x="3" y="0">z</tspan></text>
    <text class="cls-8" transform="translate(282.7 14.39) scale(.58)"><tspan x="0" y="0">2</tspan></text>
    <text class="cls-9" transform="translate(14.29 24.15)"><tspan x="0" y="0">y</tspan></text>
    <text class="cls-9" transform="translate(212.72 24.15)"><tspan x="0" y="0">y</tspan></text>
  </g>
</svg>