<?xml version="1.0" encoding="UTF-8"?>
<svg id="Layer_2" data-name="Layer 2" xmlns="http://www.w3.org/2000/svg" viewBox="0 0 297.64 170.08">
  <defs>
    <style>
      .cls-1 {
        letter-spacing: 0em;
      }

      .cls-2 {
        font-family: TimesNewRomanPSMT, 'Times New Roman';
      }

      .cls-2, .cls-3, .cls-4 {
        fill: #231f20;
        font-size: 12px;
      }

      .cls-5 {
        letter-spacing: 0em;
      }

      .cls-6 {
        stroke-dasharray: 0 0 1.96 1.96;
      }

      .cls-6, .cls-7, .cls-8, .cls-9, .cls-10, .cls-11, .cls-12, .cls-13, .cls-14, .cls-15, .cls-16, .cls-17, .cls-18, .cls-19, .cls-20 {
        fill: none;
        stroke-miterlimit: 10;
      }

      .cls-6, .cls-7, .cls-8, .cls-10, .cls-13, .cls-14, .cls-15, .cls-16, .cls-17, .cls-18, .cls-19, .cls-20 {
        stroke: #1c75bc;
      }

      .cls-7 {
        stroke-dasharray: 0 0 1.96 1.96;
      }

      .cls-8 {
        stroke-dasharray: 0 0 1.96 1.96;
      }

      .cls-3 {
        font-family: TimesNewRomanPS-ItalicMT, 'Times New Roman';
        font-style: italic;
      }

      .cls-9 {
        stroke-width: 70%;
      }

      .cls-9, .cls-11 {
        stroke: #414042;
      }

      .cls-12 {
        stroke: #6d6e71;
      }

      .cls-13 {
        stroke-dasharray: 0 0 1.97 1.97;
      }

      .cls-14 {
        stroke-dasharray: 0 0 1.97 1.97;
      }

      .cls-15 {
        stroke-dasharray: 0 0 1.97 1.97;
      }

      .cls-16 {
        stroke-dasharray: 0 0 1.97 1.97;
      }

      .cls-4 {
        font-family: MyriadPro-Regular, 'Myriad Pro';
      }

      .cls-21 {
        fill: #1c75bc;
        stroke-width: 70%;
      }

      .cls-17 {
        stroke-dasharray: 0 0 1.97 1.97;
      }

      .cls-18 {
        stroke-dasharray: 0 0 1.97 1.97;
      }

      .cls-19 {
        stroke-dasharray: 0 0 1.97 1.97;
      }

      .cls-20 {
        stroke-dasharray: 0 0 1.97 1.97;
      }
    </style>
  </defs>
  <g id="Layer_1-2" data-name="Layer 1">
    <text class="cls-4" transform="translate(0 10.04)"><tspan x="0" y="0">(a)</tspan></text>
    <line class="cls-9" x1="0" y1="85.04" x2="141.73" y2="85.04"/>
    <line class="cls-9" x1="70.87" y1="170.08" x2="70.87" y2="0"/>
    <text class="cls-3" transform="translate(31.41 29.53)"><tspan x="0" y="0">ζ</tspan></text>
    <text class="cls-2" transform="translate(36.26 33.52) scale(.58)"><tspan x="0" y="0">3</tspan></text>
    <circle class="cls-12" cx="70.87" cy="85.04" r="56.69"/>
    <text class="cls-2" transform="translate(132.24 97.37)"><tspan x="0" y="0">1</tspan></text>
    <text class="cls-3" transform="translate(61.86 24.67)"><tspan x="0" y="0">i</tspan></text>
    <text class="cls-3" transform="translate(57.87 151.71)"><tspan x="0" y="0">-i</tspan></text>
    <text class="cls-2" transform="translate(1.88 97.37)"><tspan x="0" y="0">-1</tspan></text>
    <circle class="cls-21" cx="127.56" cy="85.04" r="2.83"/>
    <circle class="cls-21" cx="42.52" cy="35.94" r="2.83"/>
    <circle class="cls-21" cx="42.52" cy="134.14" r="2.83"/>
    <g>
      <line class="cls-10" x1="42.52" y1="35.94" x2="43.39" y2="36.44"/>
      <line class="cls-7" x1="45.09" y1="37.42" x2="125.84" y2="84.05"/>
      <line class="cls-10" x1="126.69" y1="84.54" x2="127.56" y2="85.04"/>
    </g>
    <g>
      <line class="cls-10" x1="42.52" y1="134.14" x2="42.52" y2="133.14"/>
      <line class="cls-8" x1="42.52" y1="131.17" x2="42.52" y2="37.92"/>
      <line class="cls-10" x1="42.52" y1="36.94" x2="42.52" y2="35.94"/>
    </g>
    <g>
      <line class="cls-10" x1="42.52" y1="134.14" x2="43.39" y2="133.64"/>
      <line class="cls-6" x1="45.09" y1="132.66" x2="125.84" y2="86.03"/>
      <line class="cls-10" x1="126.69" y1="85.54" x2="127.56" y2="85.04"/>
    </g>
    <text class="cls-3" transform="translate(26.45 141.73)"><tspan x="0" y="0">ζ</tspan></text>
    <text class="cls-2" transform="translate(31.3 145.73) scale(.58)"><tspan x="0" y="0">3</tspan><tspan x="6" y="-13.71">2</tspan></text>
    <text class="cls-4" transform="translate(155.91 10.04)"><tspan x="0" y="0">(</tspan><tspan class="cls-1" x="3.41" y="0">b</tspan><tspan class="cls-5" x="10.2" y="0">)</tspan></text>
    <line class="cls-9" x1="155.91" y1="85.04" x2="297.64" y2="85.04"/>
    <line class="cls-9" x1="226.77" y1="170.08" x2="226.77" y2="0"/>
    <text class="cls-3" transform="translate(271.61 42.11)"><tspan x="0" y="0">ζ</tspan></text>
    <text class="cls-2" transform="translate(276.47 46.11) scale(.58)"><tspan x="0" y="0">8</tspan></text>
    <circle class="cls-12" cx="226.77" cy="85.04" r="56.69"/>
    <text class="cls-2" transform="translate(288.14 97.37)"><tspan x="0" y="0">1</tspan></text>
    <text class="cls-3" transform="translate(217.77 24.67)"><tspan x="0" y="0">i</tspan></text>
    <text class="cls-3" transform="translate(213.77 151.71)"><tspan x="0" y="0">-i</tspan></text>
    <text class="cls-2" transform="translate(157.79 97.37)"><tspan x="0" y="0">-1</tspan></text>
    <circle class="cls-21" cx="283.46" cy="85.04" r="2.83"/>
    <circle class="cls-21" cx="186.68" cy="44.95" r="2.83"/>
    <g>
      <line class="cls-10" x1="266.86" y1="44.95" x2="267.24" y2="45.88"/>
      <line class="cls-18" x1="268" y1="47.7" x2="282.71" y2="83.21"/>
      <line class="cls-10" x1="283.08" y1="84.12" x2="283.46" y2="85.04"/>
    </g>
    <g>
      <line class="cls-10" x1="186.68" y1="125.13" x2="186.3" y2="124.2"/>
      <line class="cls-20" x1="185.55" y1="122.38" x2="170.84" y2="86.87"/>
      <line class="cls-10" x1="170.46" y1="85.96" x2="170.08" y2="85.04"/>
    </g>
    <g>
      <line class="cls-10" x1="266.86" y1="125.13" x2="267.25" y2="124.21"/>
      <line class="cls-15" x1="268" y1="122.39" x2="282.71" y2="86.87"/>
      <line class="cls-10" x1="283.08" y1="85.96" x2="283.46" y2="85.04"/>
    </g>
    <line class="cls-11" x1="186.68" y1="44.95" x2="226.77" y2="85.04"/>
    <circle class="cls-21" cx="186.68" cy="125.13" r="2.83"/>
    <line class="cls-11" x1="186.68" y1="125.13" x2="226.77" y2="85.04"/>
    <circle class="cls-21" cx="266.86" cy="44.95" r="2.83"/>
    <line class="cls-11" x1="266.86" y1="44.95" x2="226.77" y2="85.04"/>
    <circle class="cls-21" cx="266.86" cy="125.13" r="2.83"/>
    <line class="cls-11" x1="266.86" y1="125.13" x2="226.77" y2="85.04"/>
    <circle class="cls-21" cx="226.77" cy="28.35" r="2.83"/>
    <circle class="cls-21" cx="170.08" cy="85.04" r="2.83"/>
    <circle class="cls-21" cx="226.77" cy="141.73" r="2.83"/>
    <g>
      <line class="cls-10" x1="266.86" y1="44.95" x2="265.94" y2="44.57"/>
      <line class="cls-17" x1="264.11" y1="43.81" x2="228.61" y2="29.11"/>
      <line class="cls-10" x1="227.7" y1="28.73" x2="226.77" y2="28.35"/>
    </g>
    <g>
      <line class="cls-10" x1="186.68" y1="44.95" x2="187.6" y2="44.57"/>
      <line class="cls-13" x1="189.43" y1="43.81" x2="224.94" y2="29.11"/>
      <line class="cls-10" x1="225.85" y1="28.73" x2="226.77" y2="28.35"/>
    </g>
    <g>
      <line class="cls-10" x1="186.68" y1="44.95" x2="186.3" y2="45.87"/>
      <line class="cls-14" x1="185.54" y1="47.69" x2="170.84" y2="83.2"/>
      <line class="cls-10" x1="170.46" y1="84.12" x2="170.08" y2="85.04"/>
    </g>
    <g>
      <line class="cls-10" x1="186.68" y1="125.13" x2="187.61" y2="125.51"/>
      <line class="cls-19" x1="189.43" y1="126.26" x2="224.94" y2="140.97"/>
      <line class="cls-10" x1="225.85" y1="141.35" x2="226.77" y2="141.73"/>
    </g>
    <g>
      <line class="cls-10" x1="266.86" y1="125.13" x2="265.94" y2="125.51"/>
      <line class="cls-16" x1="264.12" y1="126.27" x2="228.61" y2="140.97"/>
      <line class="cls-10" x1="227.7" y1="141.35" x2="226.77" y2="141.73"/>
    </g>
    <text class="cls-3" transform="translate(231.12 22.27)"><tspan x="0" y="0">ζ</tspan></text>
    <text class="cls-2" transform="translate(235.98 26.26) scale(.58)"><tspan x="0" y="0">8</tspan><tspan x="6" y="-13.71">2</tspan></text>
    <text class="cls-3" transform="translate(174.37 38.78)"><tspan x="0" y="0">ζ</tspan></text>
    <text class="cls-2" transform="translate(179.22 42.77) scale(.58)"><tspan x="0" y="0">8</tspan><tspan x="6" y="-13.71">3</tspan></text>
    <text class="cls-3" transform="translate(158.01 78.18)"><tspan x="0" y="0">ζ</tspan></text>
    <text class="cls-2" transform="translate(162.87 82.17) scale(.58)"><tspan x="0" y="0">8</tspan><tspan x="6" y="-13.71">4</tspan></text>
    <text class="cls-3" transform="translate(174.37 136.97)"><tspan x="0" y="0">ζ</tspan></text>
    <text class="cls-2" transform="translate(179.22 140.97) scale(.58)"><tspan x="0" y="0">8</tspan><tspan x="6" y="-13.71">5</tspan></text>
    <text class="cls-3" transform="translate(231.12 152.73)"><tspan x="0" y="0">ζ</tspan></text>
    <text class="cls-2" transform="translate(235.98 156.72) scale(.58)"><tspan x="0" y="0">8</tspan><tspan x="6" y="-13.71">6</tspan></text>
    <text class="cls-3" transform="translate(271.61 136.97)"><tspan x="0" y="0">ζ</tspan></text>
    <text class="cls-2" transform="translate(276.47 140.97) scale(.58)"><tspan x="0" y="0">8</tspan><tspan x="6" y="-13.71">7</tspan></text>
  </g>
</svg>