<?xml version="1.0" encoding="UTF-8"?>
<svg id="Layer_2" data-name="Layer 2" xmlns="http://www.w3.org/2000/svg" xmlns:xlink="http://www.w3.org/1999/xlink" viewBox="0 0 427.43 130.94">
  <defs>
    <style>
      .cls-1, .cls-2, .cls-3, .cls-4, .cls-5, .cls-6, .cls-7 {
        font-size: 12px;
      }

      .cls-1, .cls-3, .cls-4, .cls-5, .cls-6 {
        font-family: MyriadPro-SemiboldIt, 'Myriad Pro';
        font-style: italic;
        font-weight: 600;
      }

      .cls-1, .cls-8, .cls-9 {
        fill: #3951a2;
      }

      .cls-10 {
        clip-path: url(#clippath);
      }

      .cls-11, .cls-12, .cls-13, .cls-14, .cls-15, .cls-16, .cls-17 {
        fill: none;
      }

      .cls-11, .cls-9, .cls-18, .cls-19, .cls-20 {
        stroke-width: 70%;
      }

      .cls-2 {
        font-family: TimesNewRomanPSMT, 'Times New Roman';
      }

      .cls-2, .cls-5, .cls-7, .cls-19 {
        fill: #231f20;
      }

      .cls-3, .cls-21 {
        fill: #010101;
      }

      .cls-22 {
        clip-path: url(#clippath-1);
      }

      .cls-23 {
        clip-path: url(#clippath-4);
      }

      .cls-24 {
        clip-path: url(#clippath-3);
      }

      .cls-25 {
        clip-path: url(#clippath-2);
      }

      .cls-26 {
        clip-path: url(#clippath-7);
      }

      .cls-27 {
        clip-path: url(#clippath-8);
      }

      .cls-28 {
        clip-path: url(#clippath-6);
      }

      .cls-29 {
        clip-path: url(#clippath-5);
      }

      .cls-30 {
        clip-path: url(#clippath-9);
      }

      .cls-31 {
        clip-path: url(#clippath-12);
      }

      .cls-32 {
        clip-path: url(#clippath-10);
      }

      .cls-33 {
        clip-path: url(#clippath-11);
      }

      .cls-8, .cls-21 {
        font-family: MyriadPro-Regular, 'Myriad Pro';
        font-size: 7px;
      }

      .cls-12 {
        stroke: #3951a2;
      }

      .cls-12, .cls-13, .cls-14, .cls-15 {
        stroke-linecap: round;
        stroke-width: 70%;
      }

      .cls-12, .cls-13, .cls-14, .cls-15, .cls-16, .cls-17 {
        stroke-miterlimit: 10;
      }

      .cls-13 {
        stroke: #f1553c;
      }

      .cls-14 {
        stroke: #1c75bc;
      }

      .cls-15, .cls-16, .cls-17 {
        stroke: #231f20;
      }

      .cls-4, .cls-20 {
        fill: #f1553c;
      }

      .cls-6, .cls-18 {
        fill: #1c75bc;
      }

      .cls-16 {
        stroke-dasharray: 0 0 3 3;
      }

      .cls-7 {
        font-family: KozGoPr6N-Regular-83pv-RKSJ-H, 'Kozuka Gothic Pr6N';
      }
    </style>
    <clipPath id="clippath">
      <rect class="cls-11" x=".06" width="427.37" height="130.94"/>
    </clipPath>
    <clipPath id="clippath-1">
      <rect class="cls-11" x=".06" width="427.37" height="130.94"/>
    </clipPath>
    <clipPath id="clippath-2">
      <rect class="cls-11" x=".06" width="427.37" height="130.94"/>
    </clipPath>
    <clipPath id="clippath-3">
      <rect class="cls-11" x=".06" width="427.37" height="130.94"/>
    </clipPath>
    <clipPath id="clippath-4">
      <rect class="cls-11" x=".06" width="427.37" height="130.94"/>
    </clipPath>
    <clipPath id="clippath-5">
      <rect class="cls-11" x=".06" width="427.37" height="130.94"/>
    </clipPath>
    <clipPath id="clippath-6">
      <rect class="cls-11" x=".06" width="427.37" height="130.94"/>
    </clipPath>
    <clipPath id="clippath-7">
      <rect class="cls-11" x=".06" width="427.37" height="130.94"/>
    </clipPath>
    <clipPath id="clippath-8">
      <rect class="cls-11" x=".06" width="427.37" height="130.94"/>
    </clipPath>
    <clipPath id="clippath-9">
      <rect class="cls-11" x=".06" width="427.37" height="130.94"/>
    </clipPath>
    <clipPath id="clippath-10">
      <rect class="cls-11" x=".06" width="427.37" height="130.94"/>
    </clipPath>
    <clipPath id="clippath-11">
      <rect class="cls-11" x=".06" width="427.37" height="130.94"/>
    </clipPath>
    <clipPath id="clippath-12">
      <rect class="cls-11" x=".06" width="427.37" height="130.94"/>
    </clipPath>
  </defs>
  <g id="Layer_1-2" data-name="Layer 1">
    <g class="cls-10">
      <line class="cls-12" x1="268" y1="130" x2="268" y2="7.06"/>
    </g>
    <polyline class="cls-9" points="268 0 272.07 9.95 268 7.59 263.93 9.95 268 0"/>
    <g class="cls-22">
      <line class="cls-15" x1="263" y1="130" x2="263" y2="37.06"/>
    </g>
    <polyline class="cls-19" points="263 30 267.07 39.95 263 37.59 258.93 39.95 263 30"/>
    <g class="cls-25">
      <line class="cls-13" x1="263" y1="30" x2="263" y2="7.06"/>
    </g>
    <polyline class="cls-20" points="263 0 267.07 9.95 263 7.59 258.93 9.95 263 0"/>
    <g class="cls-24">
      <line class="cls-12" x1="318" y1="130" x2="318" y2="67.06"/>
    </g>
    <polyline class="cls-9" points="318 60 322.07 69.95 318 67.59 313.93 69.95 318 60"/>
    <g class="cls-23">
      <line class="cls-15" x1="313" y1="130" x2="313" y2="37.06"/>
    </g>
    <polyline class="cls-19" points="313 30 317.07 39.95 313 37.59 308.93 39.95 313 30"/>
    <line class="cls-13" x1="318" y1="30" x2="318" y2="52.94"/>
    <polyline class="cls-20" points="318 60 313.93 50.05 318 52.41 322.06 50.05 318 60"/>
    <g class="cls-29">
      <line class="cls-12" x1="363" y1="130" x2="379.14" y2="38.47"/>
    </g>
    <polyline class="cls-9" points="380.36 31.52 382.64 42.02 379.05 38.99 374.63 40.61 380.36 31.52"/>
    <g class="cls-28">
      <line class="cls-15" x1="363" y1="130" x2="363" y2="37.06"/>
    </g>
    <polyline class="cls-19" points="363 30 367.07 39.95 363 37.59 358.93 39.95 363 30"/>
    <line class="cls-13" x1="363" y1="30" x2="373.33" y2="30.9"/>
    <polyline class="cls-20" points="380.36 31.52 370.1 34.7 372.8 30.86 370.81 26.6 380.36 31.52"/>
    <g class="cls-26">
      <line class="cls-12" x1="413" y1="130" x2="423.93" y2="68.02"/>
    </g>
    <polyline class="cls-9" points="425.15 61.06 427.43 71.57 423.84 68.54 419.42 70.16 425.15 61.06"/>
    <g class="cls-27">
      <line class="cls-15" x1="413" y1="130" x2="413" y2="37.06"/>
    </g>
    <polyline class="cls-19" points="413 30 417.07 39.95 413 37.59 408.93 39.95 413 30"/>
    <g class="cls-30">
      <line class="cls-13" x1="413" y1="30" x2="422.58" y2="54.49"/>
    </g>
    <polyline class="cls-20" points="425.15 61.06 417.74 53.28 422.39 54 425.31 50.32 425.15 61.06"/>
    <text class="cls-3" transform="translate(248.54 85)"><tspan x="0" y="0">v</tspan></text>
    <text class="cls-21" transform="translate(254.37 89)"><tspan x="0" y="0">0</tspan></text>
    <text class="cls-1" transform="translate(273 85)"><tspan x="0" y="0">v</tspan></text>
    <text class="cls-8" transform="translate(278.83 89)"><tspan x="0" y="0">1</tspan></text>
    <text class="cls-4" transform="translate(251.52 18.52)"><tspan x="0" y="0">a</tspan></text>
    <g class="cls-32">
      <line class="cls-15" x1="3" y1="78.67" x2="75.94" y2="78.67"/>
    </g>
    <polyline class="cls-19" points="83 78.67 73.05 82.73 75.41 78.67 73.05 74.6 83 78.67"/>
    <g class="cls-33">
      <line class="cls-16" x1="33" y1="26.71" x2="33" y2="78.5"/>
      <line class="cls-14" x1="3" y1="78.67" x2="29.47" y2="32.82"/>
    </g>
    <polyline class="cls-18" points="33 26.71 31.55 37.35 29.21 33.28 24.5 33.29 33 26.71"/>
    <text class="cls-5" transform="translate(62.73 74.67)"><tspan x="0" y="0">b</tspan></text>
    <text class="cls-6" transform="translate(7.6 54.02)"><tspan x="0" y="0">a</tspan></text>
    <g class="cls-31">
      <line class="cls-17" x1="3.5" y1="88.67" x2="32.5" y2="88.67"/>
    </g>
    <rect class="cls-19" x="3" y="85.42" width="1" height="6.5"/>
    <rect class="cls-19" x="32" y="85.42" width="1" height="6.5"/>
    <text class="cls-5" transform="translate(0 99.23)"><tspan x="0" y="0">a</tspan></text>
    <text class="cls-7" transform="translate(6.48 99.23)"><tspan x="0" y="0">·</tspan></text>
    <text class="cls-5" transform="translate(9.12 99.23)"><tspan x="0" y="0">b / |b|</tspan></text>
    <line class="cls-15" x1="123" y1="31.77" x2="195.94" y2="31.77"/>
    <polyline class="cls-19" points="203 31.77 193.05 35.84 195.41 31.77 193.05 27.71 203 31.77"/>
    <line class="cls-15" x1="123" y1="31.77" x2="139.47" y2="60.3"/>
    <polyline class="cls-19" points="143 66.41 134.5 59.83 139.21 59.84 141.54 55.76 143 66.41"/>
    <line class="cls-14" x1="123" y1="31.77" x2="123" y2="104.71"/>
    <polyline class="cls-18" points="123 111.77 118.93 101.82 123 104.18 127.06 101.82 123 111.77"/>
    <polyline class="cls-17" points="203 31.77 223 66.41 143 66.41"/>
    <text class="cls-5" transform="translate(141.4 53.27)"><tspan x="0" y="0">b</tspan></text>
    <text class="cls-5" transform="translate(159.76 28.27)"><tspan x="0" y="0">a</tspan></text>
    <text class="cls-6" transform="translate(131.27 102.63)"><tspan x="0" y="0">a×b</tspan></text>
    <text class="cls-2" transform="translate(115 10.04)"><tspan x="0" y="0">(b)</tspan></text>
    <text class="cls-2" transform="translate(3 10.04)"><tspan x="0" y="0">(a)</tspan></text>
    <text class="cls-2" transform="translate(241 10.04)"><tspan x="0" y="0">(c)</tspan></text>
    <text class="cls-2" transform="translate(290 10.04)"><tspan x="0" y="0">(d)</tspan></text>
    <text class="cls-2" transform="translate(339 10.04)"><tspan x="0" y="0">(e)</tspan></text>
    <text class="cls-2" transform="translate(390 10.04)"><tspan x="0" y="0">(f)</tspan></text>
  </g>
</svg>