<?xml version="1.0" encoding="UTF-8" standalone="no"?>
<!-- Created with Inkscape (http://www.inkscape.org/) -->

<svg
   width="177.44545mm"
   height="154.57768mm"
   viewBox="0 0 177.44545 154.57768"
   version="1.1"
   id="svg1"
   inkscape:version="1.4 (86a8ad7, 2024-10-11)"
   sodipodi:docname="biker.svg"
   xmlns:inkscape="http://www.inkscape.org/namespaces/inkscape"
   xmlns:sodipodi="http://sodipodi.sourceforge.net/DTD/sodipodi-0.dtd"
   xmlns:xlink="http://www.w3.org/1999/xlink"
   xmlns="http://www.w3.org/2000/svg"
   xmlns:svg="http://www.w3.org/2000/svg">
  <sodipodi:namedview
     id="namedview1"
     pagecolor="#ffffff"
     bordercolor="#000000"
     borderopacity="0.25"
     inkscape:showpageshadow="2"
     inkscape:pageopacity="0.0"
     inkscape:pagecheckerboard="0"
     inkscape:deskcolor="#d1d1d1"
     inkscape:document-units="mm"
     inkscape:zoom="0.99150695"
     inkscape:cx="952.08611"
     inkscape:cy="469.48738"
     inkscape:window-width="1920"
     inkscape:window-height="974"
     inkscape:window-x="-11"
     inkscape:window-y="-11"
     inkscape:window-maximized="1"
     inkscape:current-layer="layer1">
    <inkscape:page
       x="0"
       y="0"
       width="177.44545"
       height="154.57768"
       id="page2"
       margin="0"
       bleed="0" />
  </sodipodi:namedview>
  <defs
     id="defs1">
    <linearGradient
       id="linearGradient29"
       x1="732.16998"
       y1="218.32001"
       x2="854.16998"
       y2="218.32001"
       gradientTransform="matrix(-1,0,0,1,1618.4,0)"
       gradientUnits="userSpaceOnUse">
      <stop
         offset="0.05"
         stop-color="#5a7db3"
         id="stop28"
         style="stop-color:#363636;stop-opacity:1;" />
      <stop
         offset="1"
         stop-color="#74a0e6"
         id="stop29" />
    </linearGradient>
    <linearGradient
       id="linear-gradient-13"
       x1="898.16998"
       y1="382.79999"
       x2="1075.4"
       y2="382.79999"
       xlink:href="#linearGradient29"
       gradientTransform="matrix(0.26458333,0,0,0.26458333,500.14068,-188.12475)" />
  </defs>
  <g
     inkscape:label="Layer 1"
     inkscape:groupmode="layer"
     id="layer1"
     transform="translate(-205.65937,-56.350231)">
    <g
       id="g47">
      <circle
         class="cls-24"
         cx="348.68115"
         cy="176.62866"
         r="30.427082"
         id="circle110"
         style="fill:none;stroke:#999999;stroke-width:3;stroke-miterlimit:10;stroke-dasharray:none" />
      <circle
         class="cls-24"
         cx="239.95862"
         cy="176.62866"
         r="30.427082"
         id="circle109"
         style="fill:none;stroke:#999999;stroke-width:3;stroke-miterlimit:10;stroke-dasharray:none" />
      <path
         class="cls-6"
         d="m 320.90786,118.58705 c 0.56621,1.98438 2.31511,3.07975 4.27038,3.30994 2.77812,0.32808 5.715,0.037 8.509,0.0132 2.7305,-0.0265 5.49804,0.0847 8.2206,-0.082 1.72244,-0.10584 3.73327,-1.1139 3.30465,-3.175 -0.22754,-1.09538 -0.99748,-1.38642 -1.99231,-1.46844 -1.45521,-0.11906 -2.91042,-0.23019 -4.35769,-0.38894 -2.80458,-0.30162 -5.57477,-0.77787 -8.34231,-1.32291 -2.07963,-0.41011 -4.24657,-1.09538 -6.39498,-1.38113 a 0.91545832,0.91545832 0 0 0 -1.0795,-0.39687 3.2834791,3.2834791 0 0 0 -0.52917,0.26458 h -0.2249 a 0.43391666,0.43391666 0 0 0 -0.43391,0.52917 4.2888958,4.2888958 0 0 0 -0.94986,4.09839 z"
         id="path57"
         style="fill:#654030;fill-opacity:1;stroke-width:0.264583" />
      <line
         class="cls-7"
         x1="329.01733"
         y1="129.23654"
         x2="326.89539"
         y2="123.81522"
         id="line57"
         style="fill:none;stroke:#b3b3b3;stroke-width:3.43958px;stroke-miterlimit:10" />
      <path
         class="cls-8"
         d="m 346.06709,118.21399 a 20.044833,20.044833 0 0 0 10.84792,-6.25475"
         id="path58"
         style="fill:none;stroke:#b3b3b3;stroke-width:2.88131px;stroke-miterlimit:10" />
      <path
         class="cls-9"
         d="m 349.60457,118.92307 a 20.042187,20.042187 0 0 0 11.59669,-4.74927"
         id="path59"
         style="fill:none;stroke:#494949;stroke-width:2.88131px;stroke-miterlimit:10" />
      <path
         class="cls-10"
         d="m 356.51813,116.30634 a 6.8923957,6.8923957 0 0 1 3.62215,3.175 5.7970208,5.7970208 0 0 1 0.2196,4.86569 5.9134374,5.9134374 0 0 1 -1.37054,1.92617 c -0.508,0.50006 -1.00012,0.90223 -1.40758,1.30175 -0.10319,0.10054 -0.19579,0.19579 -0.27781,0.28839 -0.082,0.0926 -0.16669,0.19579 -0.24342,0.29898 a 3.4025416,3.4025416 0 0 0 -0.37306,0.635 2.0425833,2.0425833 0 0 0 -0.17463,0.62442 1.2647083,1.2647083 0 0 0 0,0.2831 c 0,0.0476 0.0159,0.0873 0.0212,0.13494 0.005,0.0476 0.0344,0.0344 0,0.0794 a 4.6804791,4.6804791 0 0 1 -0.57679,0.35454 l -0.2884,0.13758 c -0.49477,0.18521 -0.55562,0.14552 -0.66939,0.13229 -0.11377,-0.0132 -0.0767,-0.0926 -0.10319,-0.14287 -0.0344,-0.10848 -0.0767,-0.21696 -0.10319,-0.32809 a 3.254375,3.254375 0 0 1 -0.09,-0.66939 3.9237708,3.9237708 0 0 1 0.18257,-1.25148 5.9081458,5.9081458 0 0 1 1.12447,-2.00819 c 0.45244,-0.55033 0.90753,-1.01071 1.26471,-1.45521 a 3.7703125,3.7703125 0 0 0 0.73025,-1.25412 3.1009166,3.1009166 0 0 0 -0.37835,-2.54529 3.9978541,3.9978541 0 0 0 -2.16694,-1.60602 z"
         id="path60"
         style="fill:#494949;stroke-width:0.264583" />
      <line
         class="cls-11"
         x1="295.94446"
         y1="193.23926"
         x2="283.22064"
         y2="181.28009"
         id="line60"
         style="fill:none;stroke:#494949;stroke-width:2.59292px;stroke-miterlimit:10" />
      <line
         class="cls-12"
         x1="265.96979"
         y1="127.53262"
         x2="261.19403"
         y2="114.50717"
         id="line61"
         style="fill:none;stroke:#cccccc;stroke-width:3.16971px;stroke-miterlimit:10" />
      <path
         class="cls-10"
         d="m 244.72374,109.21551 c 1.35202,4.06929 5.73087,6.37646 9.83192,4.96094 2.40241,-0.82815 4.46881,-2.31511 6.96648,-2.92365 a 17.4625,17.4625 0 0 1 4.10897,-0.46037 c 1.17475,0 2.38125,0.24077 3.55071,0.0661 a 0.26458333,0.26458333 0 0 0 0.0609,-0.0212 c 1.49754,0.62706 2.14577,-1.81769 0.66939,-2.43682 -3.70416,-1.5531 -7.58031,-0.23812 -11.32152,0.43127 a 23.444729,23.444729 0 0 1 -12.319,-1.16416 c -0.889,-0.33073 -1.82827,0.67204 -1.54781,1.54781 z"
         id="path61"
         style="fill:#000000;fill-opacity:1;stroke-width:0.264583" />
      <path
         class="cls-13"
         d="m 250.15828,111.74228 a 10.358437,10.358437 0 0 0 15.45167,-1.38112"
         id="path62"
         style="fill:#000000;fill-opacity:1;stroke:#000000;stroke-width:1.44198px;stroke-miterlimit:10;stroke-opacity:1" />
      <line
         class="cls-14"
         x1="330.02539"
         y1="157.539"
         x2="348.21289"
         y2="175.72913"
         id="line62"
         style="fill:none;stroke:#e6e6e6;stroke-width:0.288396px;stroke-miterlimit:10" />
      <line
         class="cls-14"
         x1="325.0274"
         y1="170.01147"
         x2="347.84509"
         y2="176.09692"
         id="line63"
         style="fill:none;stroke:#e6e6e6;stroke-width:0.288396px;stroke-miterlimit:10" />
      <line
         class="cls-14"
         x1="321.2915"
         y1="174.42737"
         x2="346.54865"
         y2="176.21063"
         id="line64"
         style="fill:none;stroke:#e6e6e6;stroke-width:0.288396px;stroke-miterlimit:10" />
      <line
         class="cls-14"
         x1="323.96643"
         y1="185.52399"
         x2="346.90582"
         y2="177.03613"
         id="line65"
         style="fill:none;stroke:#e6e6e6;stroke-width:0.288396px;stroke-miterlimit:10" />
      <line
         class="cls-14"
         x1="325.43488"
         y1="190.66486"
         x2="345.93481"
         y2="178.0072"
         id="line66"
         style="fill:none;stroke:#e6e6e6;stroke-width:0.288396px;stroke-miterlimit:10" />
      <line
         class="cls-14"
         x1="334.4704"
         y1="199.83533"
         x2="347.07513"
         y2="178.39874"
         id="line67"
         style="fill:none;stroke:#e6e6e6;stroke-width:0.288396px;stroke-miterlimit:10" />
      <line
         class="cls-14"
         x1="339.97375"
         y1="198.81665"
         x2="347.95886"
         y2="179.28247"
         id="line68"
         style="fill:none;stroke:#e6e6e6;stroke-width:0.288396px;stroke-miterlimit:10" />
      <line
         class="cls-14"
         x1="349.48553"
         y1="198.95422"
         x2="348.91931"
         y2="179.04962"
         id="line69"
         style="fill:none;stroke:#e6e6e6;stroke-width:0.288396px;stroke-miterlimit:10" />
      <line
         class="cls-14"
         x1="354.80365"
         y1="203.14789"
         x2="349.46436"
         y2="179.59204"
         id="line70"
         style="fill:none;stroke:#e6e6e6;stroke-width:0.288396px;stroke-miterlimit:10" />
      <line
         class="cls-14"
         x1="366.27332"
         y1="196.84021"
         x2="350.37451"
         y2="177.79553"
         id="line71"
         style="fill:none;stroke:#e6e6e6;stroke-width:0.288396px;stroke-miterlimit:10" />
      <line
         class="cls-14"
         x1="367.50098"
         y1="192.21796"
         x2="351.23438"
         y2="178.65808"
         id="line72"
         style="fill:none;stroke:#e6e6e6;stroke-width:0.288396px;stroke-miterlimit:10" />
      <line
         class="cls-14"
         x1="375.23474"
         y1="180.67682"
         x2="352.1684"
         y2="176.88538"
         id="line73"
         style="fill:none;stroke:#e6e6e6;stroke-width:0.288396px;stroke-miterlimit:10" />
      <line
         class="cls-14"
         x1="373.19745"
         y1="175.51483"
         x2="352.80603"
         y2="176.1842"
         id="line74"
         style="fill:none;stroke:#e6e6e6;stroke-width:0.288396px;stroke-miterlimit:10" />
      <line
         class="cls-14"
         x1="368.98529"
         y1="166.27557"
         x2="350.71844"
         y2="175.43542"
         id="line75"
         style="fill:none;stroke:#e6e6e6;stroke-width:0.288396px;stroke-miterlimit:10" />
      <line
         class="cls-14"
         x1="367.2179"
         y1="157.30615"
         x2="351.85089"
         y2="173.32404"
         id="line76"
         style="fill:none;stroke:#e6e6e6;stroke-width:0.288396px;stroke-miterlimit:10" />
      <line
         class="cls-14"
         x1="354.53906"
         y1="154.95135"
         x2="349.61249"
         y2="174.32947"
         id="line77"
         style="fill:none;stroke:#e6e6e6;stroke-width:0.288396px;stroke-miterlimit:10" />
      <line
         class="cls-14"
         x1="351.04126"
         y1="149.95868"
         x2="347.93506"
         y2="172.64935"
         id="line78"
         style="fill:none;stroke:#e6e6e6;stroke-width:0.288396px;stroke-miterlimit:10" />
      <line
         class="cls-14"
         x1="335.70337"
         y1="157.44904"
         x2="346.90582"
         y2="173.11505"
         id="line79"
         style="fill:none;stroke:#e6e6e6;stroke-width:0.288396px;stroke-miterlimit:10" />
      <circle
         class="cls-10"
         cx="348.93256"
         cy="176.6922"
         r="2.4685624"
         id="circle79"
         style="fill:#494949;stroke-width:0.264583" />
      <line
         class="cls-14"
         x1="240.48248"
         y1="149.82373"
         x2="240.48248"
         y2="175.54388"
         id="line80"
         style="fill:none;stroke:#e6e6e6;stroke-width:0.288396px;stroke-miterlimit:10" />
      <line
         class="cls-14"
         x1="228.12909"
         y1="155.10748"
         x2="239.95862"
         y2="175.54388"
         id="line81"
         style="fill:none;stroke:#e6e6e6;stroke-width:0.288396px;stroke-miterlimit:10" />
      <line
         class="cls-14"
         x1="222.36383"
         y1="155.58636"
         x2="238.96112"
         y2="174.70782"
         id="line82"
         style="fill:none;stroke:#e6e6e6;stroke-width:0.288396px;stroke-miterlimit:10" />
      <line
         class="cls-14"
         x1="216.40802"
         y1="165.32568"
         x2="238.63306"
         y2="175.54388"
         id="line83"
         style="fill:none;stroke:#e6e6e6;stroke-width:0.288396px;stroke-miterlimit:10" />
      <line
         class="cls-14"
         x1="213.8125"
         y1="170.00085"
         x2="237.2572"
         y2="175.54388"
         id="line84"
         style="fill:none;stroke:#e6e6e6;stroke-width:0.288396px;stroke-miterlimit:10" />
      <line
         class="cls-14"
         x1="213.71722"
         y1="182.87549"
         x2="237.789"
         y2="176.62866"
         id="line85"
         style="fill:none;stroke:#e6e6e6;stroke-width:0.288396px;stroke-miterlimit:10" />
      <line
         class="cls-14"
         x1="218.32892"
         y1="186.04523"
         x2="237.789"
         y2="177.87756"
         id="line86"
         style="fill:none;stroke:#e6e6e6;stroke-width:0.288396px;stroke-miterlimit:10" />
      <line
         class="cls-14"
         x1="224.95935"
         y1="192.86615"
         x2="238.63306"
         y2="178.39349"
         id="line87"
         style="fill:none;stroke:#e6e6e6;stroke-width:0.288396px;stroke-miterlimit:10" />
      <line
         class="cls-14"
         x1="225.75311"
         y1="199.59192"
         x2="238.63306"
         y2="179.16077"
         id="line88"
         style="fill:none;stroke:#e6e6e6;stroke-width:0.288396px;stroke-miterlimit:10" />
      <line
         class="cls-14"
         x1="238.32349"
         y1="203.24316"
         x2="240.54596"
         y2="178.53369"
         id="line89"
         style="fill:none;stroke:#e6e6e6;stroke-width:0.288396px;stroke-miterlimit:10" />
      <line
         class="cls-14"
         x1="242.45892"
         y1="200.8407"
         x2="240.54596"
         y2="179.75079"
         id="line90"
         style="fill:none;stroke:#e6e6e6;stroke-width:0.288396px;stroke-miterlimit:10" />
      <line
         class="cls-14"
         x1="256.09027"
         y1="198.15253"
         x2="242.45892"
         y2="179.16077"
         id="line91"
         style="fill:none;stroke:#e6e6e6;stroke-width:0.288396px;stroke-miterlimit:10" />
      <line
         class="cls-14"
         x1="258.2995"
         y1="193.05933"
         x2="243.40613"
         y2="179.11316"
         id="line92"
         style="fill:none;stroke:#e6e6e6;stroke-width:0.288396px;stroke-miterlimit:10" />
      <line
         class="cls-14"
         x1="261.85284"
         y1="183.54755"
         x2="242.45892"
         y2="177.11023"
         id="line93"
         style="fill:none;stroke:#e6e6e6;stroke-width:0.288396px;stroke-miterlimit:10" />
      <line
         class="cls-14"
         x1="266.94611"
         y1="175.95667"
         x2="244.75549"
         y2="176.41705"
         id="line94"
         style="fill:none;stroke:#e6e6e6;stroke-width:0.288396px;stroke-miterlimit:10" />
      <line
         class="cls-14"
         x1="259.64362"
         y1="165.32568"
         x2="242.45892"
         y2="175.54388"
         id="line95"
         style="fill:none;stroke:#e6e6e6;stroke-width:0.288396px;stroke-miterlimit:10" />
      <line
         class="cls-14"
         x1="260.7019"
         y1="159.32233"
         x2="242.45892"
         y2="173.17059"
         id="line96"
         style="fill:none;stroke:#e6e6e6;stroke-width:0.288396px;stroke-miterlimit:10" />
      <line
         class="cls-14"
         x1="244.55969"
         y1="153.77399"
         x2="241.4032"
         y2="172.77106"
         id="line97"
         style="fill:none;stroke:#e6e6e6;stroke-width:0.288396px;stroke-miterlimit:10" />
      <rect
         class="cls-10"
         x="-299.97668"
         y="-195.22095"
         width="6.2706251"
         height="2.3098123"
         transform="scale(-1)"
         id="rect98"
         style="fill:#494949;stroke-width:0.264583" />
      <path
         class="cls-17"
         d="m 328.00399,120.93391 a 42.02377,42.02377 0 0 1 13.93031,-3.89996 c 2.05846,-0.20638 4.20158,-0.25136 6.13304,0.46302 1.93146,0.71437 3.60892,2.33891 3.7809,4.30212 0.20108,2.30717 -1.70392,4.91596 -3.61686,6.35 -2.94216,2.1934 -6.5405,3.70417 -10.18645,4.4794"
         id="path98"
         style="fill:none;stroke:#b3b3b3;stroke-width:2.88131px;stroke-linecap:round;stroke-linejoin:round" />
      <path
         class="cls-18"
         d="m 328.58078,122.06897 a 40.378062,40.378062 0 0 1 13.93031,-4.09575 c 2.05846,-0.21696 4.20159,-0.26459 6.13304,0.48419 1.93146,0.74877 3.60892,2.45797 3.7809,4.52172 0.20108,2.42359 -1.70392,5.16467 -3.6195,6.6675 -2.93952,2.30453 -6.53785,3.88409 -10.18381,4.70694"
         id="path99"
         style="fill:none;stroke:#494949;stroke-width:3.4581px;stroke-linecap:round;stroke-linejoin:round" />
      <path
         class="cls-6"
         d="m 317.03172,116.27724 c 0.95779,1.41552 2.33891,3.23321 4.23333,3.21469 1.6854,-0.0185 2.77283,-1.55311 2.91042,-3.10621 0.19844,-2.09286 -0.51594,-4.45559 -1.05834,-6.45054 -0.51329,-1.85209 -1.27529,-3.55865 -2.02141,-5.29167 a 1.7885833,1.7885833 0 0 0 -0.76729,-1.77535 0.34660416,0.34660416 0 0 0 -0.10848,-0.0794 3.4051875,3.4051875 0 0 0 -1.89442,-0.59002 c -1.5875,0.0132 -2.91042,1.23031 -3.4925,2.64583 -1.46315,3.54013 0.1561,8.41111 2.19869,11.43265 z"
         id="path100"
         style="fill:#654030;fill-opacity:1;stroke-width:0.264583" />
      <circle
         class="cls-19"
         cx="240.48248"
         cy="176.48053"
         r="5.3260622"
         id="circle100"
         style="fill:#808080;stroke-width:0.264583" />
      <path
         class="cls-6"
         d="m 280.78116,131.51988 c 0.52916,4.43178 5.47423,8.49842 8.5037,11.43265 2.17488,2.11667 6.91886,7.03792 10.16,3.49515 1.29382,-1.41553 0.96044,-3.47398 0.39953,-5.13292 a 44.494979,44.494979 0 0 0 -2.66965,-6.17008 50.149124,50.149124 0 0 0 -3.73856,-6.1013 c -1.37848,-1.93145 -2.9845,-3.43958 -4.69636,-5.04295 -0.40216,-0.37836 -1.15358,0.14287 -0.79375,0.61383 l 0.10054,0.13494 c -1.29645,-0.30692 -2.80987,0.14023 -3.8682,0.90487 -1.83357,1.32556 -3.6539,3.69359 -3.39725,5.86581 z"
         id="path101"
         style="fill:#654030;fill-opacity:1;stroke-width:0.264583" />
      <path
         class="cls-6"
         d="m 287.07295,173.2632 q 0.79375,8.10683 1.61131,16.21895 a 1.1086042,1.1086042 0 0 0 1.07685,1.07686 4.0666458,4.0666458 0 0 0 2.94746,-1.13242 c 0.83079,-0.75141 0.65617,-1.80975 0.71967,-2.88396 q 0.24606,-4.1566 0.2884,-8.3185 c 0.0291,-3.03741 0.56885,-6.08541 0.92604,-9.13341 0.86518,-7.30515 3.0771,-14.38275 4.91331,-21.49475 0.32808,-1.27265 0.65352,-2.64584 0.18521,-3.87879 -0.59267,-1.55311 -2.3495,-2.42623 -4.01109,-2.42888 -2.46062,0 -5.09852,1.28323 -6.45054,3.34963 -2.46591,3.76237 -2.96333,8.99583 -3.09827,13.36939 -0.1561,5.10117 0.39159,10.18646 0.89165,15.25588 z"
         id="path102"
         style="fill:#654030;fill-opacity:1;stroke-width:0.264583" />
      <path
         class="cls-20"
         d="m 259.09326,113.49382 c 4.90008,5.65415 11.37708,10.68917 16.80104,15.85119 1.41817,1.35202 2.8575,2.68552 4.32859,3.96875 1.02922,0.90487 2.02141,1.74096 3.45545,1.25677 1.70392,-0.5715 3.37873,-1.8759 4.92919,-2.77283 1.37054,-0.79375 3.175,-1.44198 4.17248,-2.72786 1.48696,-1.90764 -1.12977,-4.17512 -2.25425,-5.86052 a 102.53133,102.53133 0 0 0 -11.88773,-14.70025 c -4.23333,-4.32858 -10.14148,-9.85308 -16.71637,-9.34244 -2.96598,0.23019 -7.08025,2.667 -7.2734,5.79967 -0.21167,3.45017 2.36008,6.11981 4.445,8.52752 z"
         id="path103"
         style="fill:#212121;fill-opacity:1;stroke-width:0.264583" />
      <path
         class="cls-21"
         d="m 288.89328,187.71474 q -0.85725,-4.66725 -1.73567,-9.33186 a 1.1668125,1.1668125 0 0 1 1.00278,-1.28587 l 3.47927,-0.38365 a 4.1036874,4.1036874 0 0 1 1.52664,-0.24341 c 0.69321,0 1.23031,0.83608 1.12448,1.47373 a 28.78402,28.78402 0 0 0 -0.16139,8.40581 c 0.22754,1.82033 0.19314,4.05606 -1.96321,4.66989 -2.42094,0.66411 -2.9554,-1.51341 -3.2729,-3.30464 z"
         id="path104"
         style="fill:#cccccc;stroke-width:0.264583" />
      <path
         class="cls-22"
         d="m 287.46189,187.33903 c -0.65353,1.54781 -1.4605,4.3471 0.26458,5.55625 1.47373,1.03717 4.64079,0 6.29708,-0.0556 1.90765,-0.0556 3.81,0.29898 5.69648,0.26458 1.37583,-0.0291 6.47171,-0.33602 5.44248,-2.73844 a 1.3070417,1.3070417 0 0 0 -0.83344,-0.67468 4.9159583,4.9159583 0 0 0 -1.09537,-0.14553 14.816666,14.816666 0 0 1 -5.3684,-1.53987 c -0.43127,-0.20638 -3.7465,-2.31246 -3.50573,-2.74373 a 3.175,3.175 0 0 1 -3.70416,1.397 c -0.7673,-0.26458 -1.57163,-0.84137 -2.30452,-0.49477 a 1.825625,1.825625 0 0 0 -0.79375,0.98425 c -0.0397,0.0582 -0.0661,0.12435 -0.0952,0.1905 z"
         id="path105"
         style="fill:#005a75;fill-opacity:1;stroke-width:0.264583" />
      <line
         class="cls-23"
         x1="289.38538"
         y1="175.99896"
         x2="283.6651"
         y2="181.72192"
         id="line105"
         style="fill:none;stroke:#808080;stroke-width:2.30717px;stroke-miterlimit:10" />
      <line
         class="cls-23"
         x1="283.6651"
         y1="181.72192"
         x2="277.48712"
         y2="175.54388"
         id="line106"
         style="fill:none;stroke:#808080;stroke-width:2.30717px;stroke-miterlimit:10" />
      <line
         class="cls-23"
         x1="283.6651"
         y1="181.72192"
         x2="283.6651"
         y2="189.22552"
         id="line107"
         style="fill:none;stroke:#808080;stroke-width:2.30717px;stroke-miterlimit:10" />
      <path
         class="cls-19"
         d="m 273.59772,181.71928 a 9.8742499,9.8742499 0 1 0 9.87425,-9.87954 9.871604,9.871604 0 0 0 -9.87425,9.87954 z m 2.38125,0 a 7.4956457,7.4956457 0 1 1 7.49564,7.49565 7.4929999,7.4929999 0 0 1 -7.49829,-7.49565 z"
         id="path107-4"
         style="fill:#808080;stroke-width:0.264583" />
      <circle
         class="cls-9"
         cx="348.80554"
         cy="176.62866"
         r="32.858604"
         id="circle107"
         style="fill:none;stroke:#494949;stroke-width:2.88131px;stroke-miterlimit:10" />
      <circle
         class="cls-9"
         cx="239.95862"
         cy="176.62866"
         r="32.858604"
         id="circle108"
         style="fill:none;stroke:#494949;stroke-width:2.88131px;stroke-miterlimit:10" />
      <line
         class="cls-25"
         x1="267.70282"
         y1="133.073"
         x2="331.36688"
         y2="133.073"
         id="line110"
         style="fill:#000000;fill-opacity:1;stroke:#000000;stroke-width:4.32329px;stroke-miterlimit:10;stroke-opacity:1" />
      <path
         class="cls-26"
         d="m 280.63828,181.71928 c 52.41396,-40.74848 0,0 52.41396,-40.74848"
         id="path110"
         style="fill:#000000;fill-opacity:1;stroke:#000000;stroke-width:4.32329px;stroke-miterlimit:10;stroke-opacity:1"
         sodipodi:nodetypes="cc" />
      <path
         class="cls-27"
         d="m 286.26861,179.77724 a 3.90525,3.90525 0 0 1 -0.35189,1.47902 4.2571458,4.2571458 0 0 1 -0.75936,1.13506 4.9503541,4.9503541 0 0 1 -2.02406,1.32292 l -0.28839,0.09 -0.26459,0.0661 c -0.17727,0.037 -0.35189,0.0688 -0.52916,0.09 a 7.0855416,7.0855416 0 0 1 -0.98161,0.0582 12.242271,12.242271 0 0 1 -1.65629,-0.15346 l -5.47158,-0.86783 -10.90613,-1.78065 c -3.63802,-0.58473 -7.2681,-1.20914 -10.90348,-1.81239 l -5.45041,-0.91282 -2.72521,-0.45508 -1.36261,-0.22754 -0.67998,-0.11377 -0.16933,-0.0291 a 0.26458333,0.26458333 0 0 1 -0.16404,-0.0767 c -0.0979,-0.13493 -0.20108,-0.22754 -0.21431,-0.95514 l 0.0608,-0.42863 c 0.21431,-0.69321 0.33867,-0.75406 0.46831,-0.85725 a 0.26458333,0.26458333 0 0 1 0.17992,-0.0291 l 0.16933,0.0212 0.68792,0.0767 1.37319,0.15875 2.74373,0.31486 5.4901,0.62971 c 3.65919,0.42598 7.32102,0.83079 10.97756,1.27 l 10.97492,1.30439 5.46894,0.67469 a 7.9083957,7.9083957 0 0 0 1.09537,0.0688 2.714625,2.714625 0 0 0 0.39688,-0.0397 c 0.0556,0 0.10848,-0.0212 0.1561,-0.0344 l 0.0688,-0.0212 0.0423,-0.0159 a 0.69056249,0.69056249 0 0 0 0.26458,-0.1905 c 0.0185,-0.0265 0.0132,-0.0344 0,0 a 0.29633333,0.29633333 0 0 0 -0.0397,0.14023 z"
         id="path111"
         style="fill:#000000;fill-opacity:1;stroke:#000000;stroke-width:0.264583;stroke-opacity:1" />
      <rect
         class="cls-10"
         x="-321.68631"
         y="-13.534433"
         width="6.2706251"
         height="2.3098123"
         transform="rotate(-150)"
         id="rect111"
         style="fill:#494949;stroke-width:0.264583" />
      <path
         class="cls-28"
         d="m 269.80359,133.58628 a 76.652437,76.652437 0 0 1 -4.49791,12.55183 89.138124,89.138124 0 0 1 -14.52298,22.04773 c -0.74084,0.81492 -1.49754,1.61396 -2.24631,2.41829 -0.74878,0.80434 -1.56105,1.55575 -2.33892,2.33098 -0.77788,0.77523 -1.6219,1.48961 -2.42888,2.23573 -0.41539,0.35984 -0.84137,0.71173 -1.25941,1.05834 l -0.63236,0.52916 -0.1561,0.13494 a 0.3730625,0.3730625 0 0 1 -0.1905,0.0953 c -0.17992,0 -0.33338,0.0317 -0.89694,-0.42598 l -0.28046,-0.33337 c -0.36248,-0.635 -0.31221,-0.79375 -0.29104,-0.96044 a 0.34660416,0.34660416 0 0 1 0.11642,-0.17463 l 0.14552,-0.13493 0.58737,-0.5424 c 0.39159,-0.36248 0.79375,-0.71702 1.17211,-1.08479 0.75141,-0.75671 1.51077,-1.50284 2.25689,-2.26484 0.74613,-0.762 1.44992,-1.56104 2.16165,-2.35214 0.71173,-0.79111 1.38906,-1.61661 2.07169,-2.43417 a 91.323582,91.323582 0 0 0 7.35277,-10.41929 85.645624,85.645624 0 0 0 5.77056,-11.32152 72.56727,72.56727 0 0 0 3.91319,-11.98033 z"
         id="path112"
         style="fill:#000000;fill-opacity:1;stroke:#000000;stroke-width:0.264583;stroke-opacity:1" />
      <path
         class="cls-29"
         d="m 256.99511,98.62688 c 7.85813,2.31511 16.34332,1.44728 24.37607,0.84932 q 12.62856,-0.94457 25.26241,-1.88648 c 0.67469,3.32316 1.32292,6.65427 2.05052,9.96421 0.58209,2.64583 3.01625,4.70429 5.83671,3.9317 2.42359,-0.6641 5.87375,-1.40229 6.87917,-4.07987 0.45244,-1.21444 0.12964,-2.57175 -0.29633,-3.79413 -1.63248,-4.66725 -1.51871,-9.70491 -2.04788,-14.58647 -0.54769,-5.01386 -2.41035,-9.38478 -6.5114,-12.48834 -3.34697,-2.53206 -7.31043,-3.67241 -11.37708,-4.31006 a 1.1218333,1.1218333 0 0 0 -0.6006,-0.26458 c -7.91369,-1.02659 -16.42004,0.38893 -23.93686,2.91041 a 61.830478,61.830478 0 0 0 -18.62666,10.05417 c -2.46063,1.94204 -5.82084,4.36827 -6.22036,7.73642 -0.40746,3.27818 2.43417,5.14614 5.21229,5.9637 z"
         id="path113"
         style="fill:#005a75;fill-opacity:1;stroke-width:0.264583" />
      <path
         class="cls-30"
         d="m 321.19891,85.67024 c 0.35718,0.48683 0.87312,0.76729 1.29381,1.19592 a 19.886083,19.886083 0 0 0 1.75419,1.651 16.070791,16.070791 0 0 0 3.96875,2.35214 c 0.68527,0.28311 1.43139,0.52917 2.16164,0.38365 0.86783,-0.16404 1.24354,-0.76994 1.35202,-1.56634 0.0661,-0.47889 0.15346,-1.76477 0.76729,-1.905 0.65617,-0.14816 0.80963,-1.16416 0.19315,-1.46843 a 4.6063958,4.6063958 0 0 1 -1.68275,-1.35202 6.0219166,6.0219166 0 0 1 3.09562,-0.44715 c 0.43921,0.0423 0.75936,-0.39423 0.79375,-0.79375 l 0.0794,-1.397 a 5.7202916,5.7202916 0 0 0 2.09815,-0.70115 0.79374999,0.79374999 0 0 0 0.15875,-1.22502 c -2.25161,-2.27541 -0.8255,-5.93989 -0.8599,-9.017 a 0.76199999,0.76199999 0 0 0 0.43656,-1.05833 c -1.8071,-3.70417 -7.31044,-4.73869 -10.84791,-3.40783 -3.98198,1.49489 -6.61459,5.29166 -7.14375,9.43768 a 13.409083,13.409083 0 0 0 2.38125,9.31863 z"
         id="path114"
         style="fill:#78503b;fill-opacity:1;stroke:none;stroke-width:0.264583" />
      <path
         class="cls-30"
         d="m 312.97036,79.9182 c 0.18257,1.83091 0.65352,3.89731 1.76742,5.39485 3.29406,4.43442 11.72369,0.98425 11.15483,-4.4741 -0.55298,-5.31284 -7.06966,-5.95842 -11.0146,-4.41061 -1.54252,0.60325 -2.07433,1.91559 -1.90765,3.48986 z"
         id="path115"
         style="fill:#78503b;fill-opacity:1;stroke:none;stroke-width:0.264583" />
      <path
         class="cls-10"
         d="m 307.58345,76.52095 c 0.045,3.10091 0.23812,6.4426 2.20398,8.99583 1.5531,2.02406 4.445,3.175 6.96648,2.5056 a 1.3229166,1.3229166 0 0 0 1.00541,-0.94456 c 0.0847,-0.44714 -0.14552,-0.88635 -0.35454,-1.28852 -1.41552,-2.72521 -2.54529,-6.17273 -2.30452,-9.26042 a 0.60854166,0.60854166 0 0 0 -0.6006,-0.60325 c -2.08228,0 -4.16719,-0.0529 -6.24946,-0.0661 a 0.67468749,0.67468749 0 0 0 -0.66675,0.66146 z"
         id="path116"
         style="fill:#494949;stroke-width:0.264583" />
      <path
         class="cls-31"
         d="m 313.23495,72.16326 c -0.0635,2.60085 3.19616,6.39762 5.91873,4.33123 1.6166,-1.22767 0.11377,-3.15648 0.88106,-4.67783 0.56092,-1.1139 2.11667,-1.64307 3.08239,-0.65882 1.04246,1.07157 0.14288,2.68023 -0.1217,3.85498 a 0.52916666,0.52916666 0 0 0 0.96308,0.40481 5.5906458,5.5906458 0 0 0 1.03452,-2.4712 0.92339582,0.92339582 0 0 0 0.71967,-0.37836 3.3787291,3.3787291 0 0 0 -0.0609,-4.05077 c -1.10331,-1.34673 -3.11943,-1.54516 -4.74133,-1.65629 -3.30465,-0.22754 -7.57238,1.38377 -7.67556,5.30225 z"
         id="path117"
         style="fill:#654030;fill-opacity:1;stroke-width:0.264583" />
      <path
         class="cls-30"
         d="m 344.68332,126.20176 c 1.19856,1.6219 3.28084,2.28865 5.15673,2.7649 1.81769,0.45772 3.88673,0.48683 5.13292,-1.13771 1.03452,-1.34673 1.65364,-3.8735 1.19591,-5.52715 -0.54768,-1.98967 -2.61143,-2.61408 -4.39737,-3.03212 -1.97908,-0.46038 -3.98463,-0.67998 -5.6859,0.63235 a 0.79374999,0.79374999 0 0 0 -0.28839,0.50006 4.5402499,4.5402499 0 0 0 -1.07686,0.92869 c -1.2012,1.43933 -1.12712,3.39196 -0.037,4.87098 z"
         id="path118"
         style="fill:#78503b;fill-opacity:1;stroke:none;stroke-width:0.264583" />
      <path
         class="cls-30"
         d="m 317.92601,126.43724 c 1.96056,0.52917 4.12485,0.32279 6.1251,0.26458 q 4.09575,-0.0979 8.18092,-0.381 5.80496,-0.39423 11.58346,-1.13506 c 2.08227,-0.26458 6.64898,0.47096 6.08542,-3.02948 -0.56357,-3.50044 -6.35,-1.91294 -8.6995,-1.99231 a 95.226186,95.226186 0 0 1 -11.45911,-1.20915 c -2.45798,-0.38364 -4.92389,-0.762 -7.40833,-0.96044 -2.02671,-0.16139 -4.27038,-0.14552 -5.94784,1.16946 -2.9792,2.34157 -1.95527,6.31561 1.53988,7.2734 z"
         id="path119"
         style="fill:#78503b;fill-opacity:1;stroke:none;stroke-width:0.264583" />
      <path
         class="cls-30"
         d="m 305.23924,108.67841 c 0.77523,2.24631 1.5875,4.47939 2.55852,6.65162 a 32.903583,32.903583 0 0 0 3.70417,6.48758 c 1.22237,1.63248 2.75695,3.6539 4.81541,4.23334 2.13784,0.60325 3.54277,-0.889 3.96875,-2.86015 a 21.232812,21.232812 0 0 0 0.45509,-3.23585 0.46831249,0.46831249 0 0 0 0.14023,-0.29898 c 0.381,-4.9874 -2.15371,-10.05417 -5.42396,-13.67896 -2.22779,-2.4765 -7.28663,-6.9506 -10.44575,-3.29142 -1.52665,1.74625 -0.4154,4.13015 0.22754,5.99282 z"
         id="path120"
         style="fill:#78503b;fill-opacity:1;stroke:none;stroke-width:0.264583" />
      <path
         class="cls-34"
         d="m 321.66986,69.97516 c 2.80194,1.53458 5.75205,2.04523 8.88207,2.29393 1.56898,0.12171 3.14325,0.22225 4.70164,0.46567 0.95515,0.15081 3.35227,0.381 1.94469,1.87325 -1.5875,1.66952 -6.03779,0.52917 -7.97719,0.15346 a 25.609021,25.609021 0 0 1 -8.44285,-3.25967 c -0.97102,-0.58737 -0.10584,-2.05581 0.89164,-1.52664 z"
         id="path123"
         style="fill:#005a75;fill-opacity:1;stroke:none;stroke-width:0.264583" />
      <path
         class="cls-10"
         d="m 330.23178,75.00224 c -0.22225,0.51064 -0.1905,1.37848 0.17463,1.82562 0.36512,0.44715 1.29381,0.86784 1.85208,1.08744 a 3.2623125,3.2623125 0 0 0 2.21985,0.14288 c 1.13771,-0.38365 1.82563,-1.54782 2.18282,-2.69611 0.12964,-0.41275 0.22225,-0.889 0,-1.25412 -0.30163,-0.47625 -0.89959,-0.47361 -1.39436,-0.52917 a 14.216062,14.216062 0 0 0 -1.95527,-0.12435 4.9318333,4.9318333 0 0 0 -1.77535,0.33602 2.746375,2.746375 0 0 0 -0.62442,0.36777 2.1881041,2.1881041 0 0 0 -0.67998,0.84402 z"
         id="path124"
         style="fill:#494949;stroke-width:0.264583" />
      <path
         class="cls-35"
         d="m 335.20859,74.32491 c 0.13229,0.26458 0.23813,0.55033 0.35454,0.8255 0.11642,0.27516 0.29369,0.54768 0.26459,0.83079 a 0.22489583,0.22489583 0 0 1 -0.37836,0.15875 c -0.2196,-0.17992 -0.30162,-0.51594 -0.41539,-0.76994 -0.11377,-0.254 -0.25136,-0.54504 -0.35719,-0.8255 -0.10583,-0.28046 0.38894,-0.51065 0.53181,-0.2196 z"
         id="path125"
         style="fill:#d3d3d3;fill-opacity:1;stroke-width:0.264583" />
      <path
         class="cls-13"
         d="m 326.09634,71.56266 -5.52714,6.99293"
         id="path126"
         style="fill:none;stroke:#494949;stroke-width:1.44198px;stroke-miterlimit:10" />
      <path
         class="cls-13"
         d="m 317.42066,71.12874 a 13.268854,13.268854 0 0 0 3.1406,7.31308"
         id="path127"
         style="fill:none;stroke:#494949;stroke-width:1.44198px;stroke-miterlimit:10" />
      <path
         class="cls-13"
         d="m 320.60624,78.2328 a 19.023541,19.023541 0 0 0 0.70114,9.10696"
         id="path128"
         style="fill:none;stroke:#494949;stroke-width:1.44198px;stroke-miterlimit:10" />
      <path
         class="cls-36"
         d="m 306.73413,63.96382 c 0.381,2.2225 2.23573,4.7625 3.80471,6.3209 1.92088,1.91823 4.29154,2.46856 6.94267,2.35214 3.30994,-0.14552 6.61458,-0.42597 9.92717,-0.63235 3.21998,-0.20373 6.63839,-0.10583 9.78958,-0.73819 a 0.95249999,0.95249999 0 0 0 0.48154,-0.23812 c 1.29646,-0.76994 1.37583,-2.36009 1.19327,-3.88409 -0.3175,-2.68022 -1.89177,-5.1726 -3.87614,-6.94795 -4.20688,-3.75444 -10.07269,-4.42119 -15.44373,-3.43959 a 35.118145,35.118145 0 0 0 -7.99307,2.32569 c -2.15106,0.93133 -5.334,1.89706 -4.826,4.88156 z"
         id="path129"
         style="fill:#005a75;fill-opacity:1;stroke:none;stroke-width:0.264583;stroke-opacity:1" />
      <path
         class="cls-35"
         d="m 334.36986,74.69268 a 4.7916041,4.7916041 0 0 1 0.34661,0.92075 c 0.0238,0.18256 -0.21431,0.2196 -0.32279,0.13493 a 1.3229166,1.3229166 0 0 1 -0.29634,-0.42862 c -0.082,-0.15875 -0.14816,-0.32544 -0.21431,-0.49213 -0.11906,-0.29898 0.37835,-0.44185 0.48683,-0.13493 z"
         id="path130"
         style="fill:#d3d3d3;fill-opacity:1;stroke-width:0.264583" />
      <path
         class="cls-37"
         d="m 330.48843,126.86057 c 1.34673,4.18836 2.76754,8.39259 4.21745,12.56506 1.44992,4.17248 2.92894,8.34761 4.47146,12.48569 1.54252,4.13808 3.1459,8.25765 4.85775,12.31636 0.43921,1.00806 0.85725,2.02935 1.32292,3.02947 l 1.37319,2.99244 1.4605,2.91306 c 0.24871,0.48684 0.52916,0.94192 0.79375,1.41553 l 0.40216,0.70643 0.10055,0.17463 a 0.3413125,0.3413125 0 0 1 0.0582,0.20373 c -0.0317,0.17991 -0.0264,0.33602 -0.55827,0.84402 l -0.36248,0.23812 c -0.67468,0.26459 -0.81227,0.18786 -0.98689,0.13229 a 0.41539583,0.41539583 0 0 1 -0.15611,-0.15345 l -0.11112,-0.17992 -0.45508,-0.72231 c -0.29634,-0.48419 -0.61913,-0.96044 -0.8943,-1.45257 l -1.6457,-2.9501 -1.53459,-2.99244 c -0.50535,-1.00012 -0.97366,-2.01348 -1.46314,-3.02154 -0.48948,-1.00806 -0.94986,-2.02142 -1.41288,-3.03742 -0.46302,-1.016 -0.93398,-2.02935 -1.37319,-3.05329 l -1.34143,-3.06387 -1.29117,-3.0824 q -2.55852,-6.17537 -4.95829,-12.40896 c -1.5875,-4.16454 -3.12209,-8.32643 -4.61434,-12.54389 z"
         id="path131"
         style="fill:#000000;fill-opacity:1;stroke:#000000;stroke-width:0.264583;stroke-opacity:1" />
      <line
         class="cls-38"
         x1="265.48822"
         y1="125.99539"
         x2="283.18359"
         y2="182.4892"
         id="line131"
         style="fill:#000000;fill-opacity:1;stroke:#000000;stroke-width:4.32329px;stroke-miterlimit:10;stroke-opacity:1" />
      <line
         class="cls-11"
         x1="283.6651"
         y1="181.72192"
         x2="269.92529"
         y2="169.32617"
         id="line132"
         style="fill:none;stroke:#494949;stroke-width:2.59292px;stroke-miterlimit:10" />
      <circle
         class="cls-21"
         cx="282.89783"
         cy="181.18481"
         r="2.3230417"
         id="circle132"
         style="fill:#cccccc;stroke-width:0.264583" />
      <path
         class="cls-30"
         d="m 271.9282,115.66076 a 59.896374,59.896374 0 0 0 18.10808,11.87715 c 1.71186,0.72231 3.43958,1.37054 5.22288,1.92881 1.61925,0.51329 3.36814,1.15358 5.08,1.24619 3.41841,0.18785 5.37104,-3.04536 4.63285,-6.17538 -0.76994,-3.26231 -3.82058,-6.17273 -6.1304,-8.4455 a 58.234791,58.234791 0 0 0 -8.17297,-6.61458 91.672832,91.672832 0 0 0 -9.3054,-5.48746 c -3.2041,-1.66158 -6.5749,-3.55336 -10.09121,-4.43706 a 0.57943749,0.57943749 0 0 0 -0.64029,0.37041 c -2.41035,0.49213 -4.1619,3.70417 -4.27038,5.97694 -0.19314,3.96081 2.92365,7.22842 5.56684,9.76048 z"
         id="path132-6"
         style="fill:#78503b;fill-opacity:1;stroke:none;stroke-width:0.264583" />
      <path
         class="cls-39"
         d="m 248.24534,104.37099 c 0.26459,2.86014 1.5875,4.96358 4.14867,6.30767 3.21733,1.68539 6.731,2.93158 10.0674,4.35768 l 20.25385,9.44298 c 0.50006,0.21431 1.05833,0.14817 1.3679,-0.35983 1.28323,-2.16429 3.02154,-4.79425 4.81806,-6.55638 1.14035,-1.11389 2.42358,-2.02935 3.63537,-3.05329 0.72232,-0.61119 1.98438,-1.26471 2.46327,-2.06375 0.69321,-1.16681 -8.18356,-5.82083 -9.09902,-6.31825 q -5.85787,-3.21469 -11.88243,-6.1251 -4.826,-2.33098 -9.7499,-4.45294 c -3.06387,-1.32292 -6.17273,-2.80458 -9.35831,-3.81 -6.62252,-2.09815 -7.0485,8.60425 -6.66486,12.63121 z"
         id="path133"
         style="fill:url(#linear-gradient-13);stroke-width:0.264583" />
      <path
         class="cls-30"
         d="m 273.01828,150.80801 c -1.47637,2.45004 -2.91042,4.93712 -4.15925,7.51152 -0.33867,0.69585 -0.67204,1.41552 -0.72231,2.1881 -0.0503,0.77259 0.23019,1.61132 0.889,2.01877 0.73025,0.45509 1.71979,0.24871 2.41564,-0.26458 0.69586,-0.51329 1.15888,-1.25677 1.6219,-1.98173 q 0.90752,-1.4261 1.88383,-2.80194 a 73.744666,73.744666 0 0 1 10.08857,-11.5226 c 3.91318,-3.62479 8.29998,-6.49287 12.57564,-9.64935 2.49238,-1.85209 5.67531,-3.84969 7.36336,-6.50346 a 4.6910624,4.6910624 0 0 0 0.69585,-2.21192 1.3229166,1.3229166 0 0 0 0.11112,-0.79375 c -0.74877,-4.46087 -6.19124,-3.19881 -9.06197,-2.11666 a 36.650083,36.650083 0 0 0 -10.15207,5.91608 q -0.98425,0.79375 -1.90764,1.67746 a 40.774937,40.774937 0 0 0 -8.65452,12.0941 17.258771,17.258771 0 0 0 -1.19592,3.13002 4.7466249,4.7466249 0 0 1 -0.31221,0.84931 c -0.39952,0.86784 -1.00541,1.66423 -1.47902,2.46063 z"
         id="path134"
         style="fill:#78503b;fill-opacity:1;stroke:none;stroke-width:0.264583" />
      <path
         class="cls-21"
         d="m 267.56522,160.2404 q 1.95262,-3.84439 3.88673,-7.69672 a 1.0583333,1.0583333 0 0 1 1.43139,-0.37307 c 0.91017,0.5424 1.81769,1.09009 2.72521,1.63513 a 3.7888333,3.7888333 0 0 1 1.23561,0.66675 c 0.49212,0.39158 0.42862,1.28058 0,1.68275 -1.89177,1.77535 -3.40519,4.28889 -4.70959,6.52727 -0.83873,1.44198 -2.11666,2.48973 -4.02431,1.7436 -2.11402,-0.83079 -1.2991,-2.70139 -0.54504,-4.18571 z"
         id="path135"
         style="fill:#cccccc;stroke-width:0.264583" />
      <path
         class="cls-40"
         d="m 266.13911,159.28526 c -1.19591,0.68527 -2.83368,1.61131 -3.1062,3.10092 -0.34661,1.88383 1.83091,3.14589 3.02948,4.23333 a 60.827708,60.827708 0 0 0 6.6675,5.16996 c 1.00541,0.67204 5.53508,4.18571 6.26268,1.2991 a 1.3599583,1.3599583 0 0 0 -0.26458,-1.09537 5.1170416,5.1170416 0 0 0 -0.82021,-0.82021 15.552208,15.552208 0 0 1 -3.50308,-4.70429 c -0.22754,-0.44715 -1.65629,-4.31536 -1.1774,-4.52173 a 3.3443333,3.3443333 0 0 1 -3.98462,-1.19063 c -0.46832,-0.71173 -0.77259,-1.70391 -1.60602,-1.88119 a 1.9341041,1.9341041 0 0 0 -1.29382,0.31221 z"
         id="path136"
         style="fill:#005a75;fill-opacity:1;stroke-width:0.264583" />
      <path
         class="cls-41"
         d="m 252.38078,94.95182 c 2.91042,3.40519 8.255,3.52425 12.32958,3.27554 5.07207,-0.30956 10.01713,-1.53193 14.97013,-2.57704 l 19.44687,-4.10898 c 0.72496,-0.15081 4.18571,13.36675 4.65932,14.58119 0.52916,1.38906 1.15887,4.01108 2.38125,4.92654 1.22237,0.91546 3.37079,0.47625 4.68841,0.21696 q 2.52148,-0.49212 5.02709,-1.05833 c 0.64823,-0.15082 1.37583,-0.36248 1.67481,-0.96044 0.23019,-0.46038 0.127,-1.01335 0.0185,-1.51606 -0.81492,-3.75709 -2.14313,-7.72319 -2.5056,-11.54377 -0.31486,-3.33905 -0.0847,-6.71248 -0.70909,-10.05417 -0.54504,-2.93688 -1.56633,-5.82083 -3.41048,-8.20208 -1.9341,-2.49767 -4.64608,-4.11427 -7.58825,-5.1779 -6.6331,-2.39977 -14.18431,-2.46062 -21.0476,-1.12977 -6.72306,1.30175 -13.09423,4.20687 -18.6981,8.12006 -2.94482,2.05581 -5.842,4.24921 -8.27353,6.91092 -1.54781,1.69598 -4.36033,4.69635 -3.57716,7.21254 a 3.1458958,3.1458958 0 0 0 0.61383,1.08479 z"
         id="path137"
         style="fill:#00a6d6;fill-opacity:1;stroke-width:0.264583" />
      <path
         class="cls-31"
         d="m 319.07695,65.05391 c -0.28046,0.0476 -0.70115,0.22489 -0.35984,0.55033 a 0.97366665,0.97366665 0 0 0 0.42334,0.19579 40.946916,40.946916 0 0 0 6.90562,1.30175 4.4767499,4.4767499 0 0 0 1.15888,0.0159 1.5504583,1.5504583 0 0 0 1.00012,-0.52917 1.4075833,1.4075833 0 0 0 -0.0476,-1.63777 2.270125,2.270125 0 0 0 -1.4949,-0.83608 6.2732708,6.2732708 0 0 0 -1.75154,0.0344 c -1.49754,0.17992 -2.98715,0.42069 -4.4741,0.67469 z"
         id="path138"
         style="fill:#000000;fill-opacity:1;stroke-width:0.264583" />
      <path
         class="cls-31"
         d="m 310.43566,65.25499 c -0.17728,0.0318 -0.44186,0.14287 -0.22755,0.34925 a 0.60589583,0.60589583 0 0 0 0.26459,0.12435 26.106437,26.106437 0 0 0 4.36827,0.82286 2.9553958,2.9553958 0 0 0 0.73289,0 0.98954165,0.98954165 0 0 0 0.63236,-0.34131 0.88635416,0.88635416 0 0 0 -0.0317,-1.03453 1.4261041,1.4261041 0 0 0 -0.94456,-0.52916 3.96875,3.96875 0 0 0 -1.10596,0.0212 c -0.94721,0.11378 -1.89177,0.26459 -2.83104,0.42863 z"
         id="path139"
         style="fill:#000000;fill-opacity:1;stroke-width:0.264583" />
      <path
         class="cls-31"
         d="m 321.39205,60.08503 c -0.20373,0 -0.52917,0.10848 -0.29633,0.36513 a 0.66939582,0.66939582 0 0 0 0.28839,0.17198 29.755041,29.755041 0 0 0 4.83923,1.41552 3.3707916,3.3707916 0 0 0 0.82815,0.0926 1.1059583,1.1059583 0 0 0 0.75142,-0.31221 1.0107083,1.0107083 0 0 0 0.0847,-1.1721 1.6324791,1.6324791 0 0 0 -1.00806,-0.70644 4.4291249,4.4291249 0 0 0 -1.25413,-0.0979 c -1.08214,0.0212 -2.16429,0.0847 -3.24379,0.1614 -0.33073,0.0318 -0.65881,0.0582 -0.98954,0.082 z"
         id="path140"
         style="fill:#000000;fill-opacity:1;stroke-width:0.264583" />
      <path
         class="cls-31"
         d="m 315.01559,60.56393 c -0.11641,0.0318 -0.2831,0.12435 -0.127,0.24606 a 0.3730625,0.3730625 0 0 0 0.18521,0.0661 17.610666,17.610666 0 0 0 2.95804,0.26458 2.0187708,2.0187708 0 0 0 0.48948,-0.0423 0.66410416,0.66410416 0 0 0 0.39688,-0.26459 0.59795833,0.59795833 0 0 0 -0.0873,-0.68791 0.96837499,0.96837499 0 0 0 -0.6641,-0.29105 2.6802291,2.6802291 0 0 0 -0.73554,0.09 c -0.62177,0.13759 -1.23825,0.29898 -1.85208,0.46831 z"
         id="path141"
         style="fill:#000000;fill-opacity:1;stroke-width:0.264583" />
    </g>
  </g>
</svg>
