<?xml version="1.0" encoding="UTF-8" standalone="no"?>
<!-- Created with Inkscape (http://www.inkscape.org/) -->

<svg
   width="123.87351mm"
   height="100.52619mm"
   viewBox="0 0 123.87351 100.52619"
   version="1.1"
   id="svg1"
   xml:space="preserve"
   inkscape:version="1.4 (86a8ad7, 2024-10-11)"
   sodipodi:docname="Ch4.svg"
   xmlns:inkscape="http://www.inkscape.org/namespaces/inkscape"
   xmlns:sodipodi="http://sodipodi.sourceforge.net/DTD/sodipodi-0.dtd"
   xmlns="http://www.w3.org/2000/svg"
   xmlns:svg="http://www.w3.org/2000/svg"><sodipodi:namedview
     id="namedview1"
     pagecolor="#ffffff"
     bordercolor="#000000"
     borderopacity="0.25"
     inkscape:showpageshadow="2"
     inkscape:pageopacity="0.0"
     inkscape:pagecheckerboard="0"
     inkscape:deskcolor="#ffffff"
     inkscape:document-units="mm"
     inkscape:zoom="0.42702927"
     inkscape:cx="2688.3403"
     inkscape:cy="1420.2773"
     inkscape:window-width="1920"
     inkscape:window-height="974"
     inkscape:window-x="-11"
     inkscape:window-y="-11"
     inkscape:window-maximized="1"
     inkscape:current-layer="layer1"><inkscape:page
       x="0"
       y="1.233992e-13"
       width="123.87351"
       height="100.5262"
       id="page2"
       margin="0"
       bleed="0" /></sodipodi:namedview><defs
     id="defs1"><style
       type="text/css"
       id="style1">*{stroke-linejoin: round; stroke-linecap: butt}</style><style
       type="text/css"
       id="style1-4">*{stroke-linejoin: round; stroke-linecap: butt}</style><style
       type="text/css"
       id="style1-1">*{stroke-linejoin: round; stroke-linecap: butt}</style><marker
       style="overflow:visible"
       id="ArrowWide-5"
       refX="0"
       refY="0"
       orient="auto-start-reverse"
       inkscape:stockid="Wide arrow"
       markerWidth="1"
       markerHeight="1"
       viewBox="0 0 1 1"
       inkscape:isstock="true"
       inkscape:collect="always"
       preserveAspectRatio="xMidYMid"><path
         style="fill:none;stroke:context-stroke;stroke-width:1;stroke-linecap:butt"
         d="M 3,-3 0,0 3,3"
         transform="rotate(180,0.125,0)"
         sodipodi:nodetypes="ccc"
         id="path9-27" /></marker></defs><g
     inkscape:label="Layer 1"
     inkscape:groupmode="layer"
     id="layer1"
     transform="translate(-745.43055,192.84932)"><path
       style="font-variation-settings:'wght' 600;fill:none;fill-opacity:1;stroke:#000000;stroke-width:0.999999;stroke-linecap:round;stroke-linejoin:round;stroke-miterlimit:0;stroke-dasharray:none;stroke-opacity:1"
       d="m 758.67806,-157.19098 3.75174,-2.9343"
       id="path728-2-0"
       inkscape:export-filename="ch4_ballspring.svg"
       inkscape:export-xdpi="649.04303"
       inkscape:export-ydpi="649.04303" /><path
       style="font-variation-settings:'wght' 600;fill:none;fill-opacity:1;stroke:#000000;stroke-width:0.999999;stroke-linecap:round;stroke-linejoin:round;stroke-miterlimit:0;stroke-dasharray:none;stroke-opacity:1"
       d="m 764.85375,-157.19098 3.75177,-2.9343"
       id="path729-9-9" /><path
       style="font-variation-settings:'wght' 600;fill:none;fill-opacity:1;stroke:#000000;stroke-width:0.999999;stroke-linecap:round;stroke-linejoin:round;stroke-miterlimit:0;stroke-dasharray:none;stroke-opacity:1"
       d="m 771.02947,-157.19098 3.75175,-2.9343"
       id="path730-4-7" /><path
       style="font-variation-settings:'wght' 600;fill:none;fill-opacity:1;stroke:#000000;stroke-width:0.999999;stroke-linecap:round;stroke-linejoin:round;stroke-miterlimit:0;stroke-dasharray:none;stroke-opacity:1"
       d="m 777.2052,-157.19098 3.75174,-2.9343"
       id="path731-1-3" /><path
       style="font-variation-settings:'wght' 600;fill:none;fill-opacity:1;stroke:#000000;stroke-width:0.999999;stroke-linecap:round;stroke-linejoin:round;stroke-miterlimit:0;stroke-dasharray:none;stroke-opacity:1"
       d="m 783.38089,-157.19098 3.75175,-2.9343"
       id="path732-9-7" /><path
       style="font-variation-settings:'wght' 600;fill:none;fill-opacity:1;stroke:#000000;stroke-width:0.999999;stroke-linecap:round;stroke-linejoin:round;stroke-miterlimit:0;stroke-dasharray:none;stroke-opacity:1"
       d="m 789.5566,-157.19098 3.75175,-2.9343"
       id="path733-6-2" /><path
       style="font-variation-settings:'wght' 600;fill:none;fill-opacity:1;stroke:#000000;stroke-width:0.999999;stroke-linecap:round;stroke-linejoin:round;stroke-miterlimit:0;stroke-dasharray:none;stroke-opacity:1"
       d="m 795.73229,-157.19098 3.75177,-2.9343"
       id="path734-9-6" /><path
       style="font-variation-settings:'wght' 600;fill:none;fill-opacity:1;stroke:#000000;stroke-width:0.999999;stroke-linecap:round;stroke-linejoin:round;stroke-miterlimit:0;stroke-dasharray:none;stroke-opacity:1"
       d="m 801.908,-157.19098 3.75176,-2.9343"
       id="path735-8-0" /><path
       style="font-variation-settings:'wght' 600;fill:none;fill-opacity:1;stroke:#000000;stroke-width:0.999999;stroke-linecap:round;stroke-linejoin:round;stroke-miterlimit:0;stroke-dasharray:none;stroke-opacity:1"
       d="m 808.08372,-157.19098 3.75175,-2.9343"
       id="path736-2-1" /><path
       style="font-variation-settings:'wght' 600;fill:none;fill-opacity:1;stroke:#000000;stroke-width:0.999999;stroke-linecap:round;stroke-linejoin:round;stroke-miterlimit:0;stroke-dasharray:none;stroke-opacity:1"
       d="m 814.25943,-157.19098 3.75174,-2.9343"
       id="path737-5-6" /><path
       style="font-variation-settings:'wght' 600;fill:none;fill-opacity:1;stroke:#000000;stroke-width:0.999999;stroke-linecap:round;stroke-linejoin:round;stroke-miterlimit:0;stroke-dasharray:none;stroke-opacity:1"
       d="m 820.43514,-157.19098 3.75175,-2.9343"
       id="path738-5-5" /><path
       style="font-variation-settings:'wght' 600;fill:none;fill-opacity:1;stroke:#000000;stroke-width:0.999999;stroke-linecap:round;stroke-linejoin:round;stroke-miterlimit:0;stroke-dasharray:none;stroke-opacity:1"
       d="m 826.61084,-157.19098 3.75175,-2.9343"
       id="path739-4-7" /><path
       style="font-variation-settings:'wght' 600;fill:none;fill-opacity:1;stroke:#000000;stroke-width:0.999999;stroke-linecap:round;stroke-linejoin:round;stroke-miterlimit:0;stroke-dasharray:none;stroke-opacity:1"
       d="m 752.50234,-157.19098 3.75176,-2.9343"
       id="path740-9-5" /><path
       style="font-variation-settings:'wght' 600;fill:none;fill-opacity:1;stroke:#000000;stroke-width:0.999999;stroke-linecap:round;stroke-linejoin:round;stroke-miterlimit:0;stroke-dasharray:none;stroke-opacity:1"
       d="m 857.48937,-157.19098 3.75176,-2.9343"
       id="path741-1-4" /><path
       style="font-variation-settings:'wght' 600;fill:none;fill-opacity:1;stroke:#000000;stroke-width:0.999999;stroke-linecap:round;stroke-linejoin:round;stroke-miterlimit:0;stroke-dasharray:none;stroke-opacity:1"
       d="m 863.66509,-157.19098 3.75175,-2.9343"
       id="path742-2-1" /><path
       style="font-variation-settings:'wght' 600;fill:none;fill-opacity:1;stroke:#000000;stroke-width:0.999999;stroke-linecap:round;stroke-linejoin:round;stroke-miterlimit:0;stroke-dasharray:none;stroke-opacity:1"
       d="m 832.78653,-157.19098 3.75178,-2.9343"
       id="path753-9-2" /><path
       style="font-variation-settings:'wght' 600;fill:none;fill-opacity:1;stroke:#000000;stroke-width:0.999999;stroke-linecap:round;stroke-linejoin:round;stroke-miterlimit:0;stroke-dasharray:none;stroke-opacity:1"
       d="m 838.96224,-157.19098 3.75177,-2.9343"
       id="path754-7-0" /><path
       style="font-variation-settings:'wght' 600;fill:none;fill-opacity:1;stroke:#000000;stroke-width:0.999999;stroke-linecap:round;stroke-linejoin:round;stroke-miterlimit:0;stroke-dasharray:none;stroke-opacity:1"
       d="m 845.13794,-157.19098 3.75177,-2.9343"
       id="path755-6-0" /><path
       style="font-variation-settings:'wght' 600;fill:none;fill-opacity:1;stroke:#000000;stroke-width:0.999999;stroke-linecap:round;stroke-linejoin:round;stroke-miterlimit:0;stroke-dasharray:none;stroke-opacity:1"
       d="m 851.31365,-157.19098 3.75178,-2.9343"
       id="path756-9-1" /><path
       style="font-variation-settings:'wght' 600;fill:none;fill-opacity:1;stroke:#000000;stroke-width:1;stroke-linecap:round;stroke-linejoin:round;stroke-miterlimit:0;stroke-dasharray:none;stroke-opacity:1"
       d="M 748.86716,-160.36828 H 868.80409"
       id="path757-3-4"
       sodipodi:nodetypes="cc" /><path
       style="font-variation-settings:'wght' 600;fill:none;fill-opacity:1;stroke:#000000;stroke-width:0.999999;stroke-linecap:round;stroke-linejoin:round;stroke-miterlimit:0;stroke-dasharray:none;stroke-opacity:1"
       d="m 745.93055,-170.08796 2.93661,-3.74879"
       id="path257"
       inkscape:export-filename="figure_0.png"
       inkscape:export-xdpi="274.64633"
       inkscape:export-ydpi="274.64633" /><path
       style="font-variation-settings:'wght' 600;fill:none;fill-opacity:1;stroke:#000000;stroke-width:0.999999;stroke-linecap:round;stroke-linejoin:round;stroke-miterlimit:0;stroke-dasharray:none;stroke-opacity:1"
       d="m 745.93055,-176.2588 2.93661,-3.74881"
       id="path258" /><path
       style="font-variation-settings:'wght' 600;fill:none;fill-opacity:1;stroke:#000000;stroke-width:0.999999;stroke-linecap:round;stroke-linejoin:round;stroke-miterlimit:0;stroke-dasharray:none;stroke-opacity:1"
       d="m 745.93055,-182.42966 2.93661,-3.7488"
       id="path259" /><path
       style="font-variation-settings:'wght' 600;fill:none;fill-opacity:1;stroke:#000000;stroke-width:0.999999;stroke-linecap:round;stroke-linejoin:round;stroke-miterlimit:0;stroke-dasharray:none;stroke-opacity:1"
       d="m 745.93055,-188.60053 2.93661,-3.74879"
       id="path260" /><path
       style="font-variation-settings:'wght' 600;fill:none;fill-opacity:1;stroke:#000000;stroke-width:0.999999;stroke-linecap:round;stroke-linejoin:round;stroke-miterlimit:0;stroke-dasharray:none;stroke-opacity:1"
       d="m 745.93055,-163.91709 2.93661,-3.74882"
       id="path265" /><path
       style="font-variation-settings:'wght' 600;fill:none;fill-opacity:1;stroke:#000000;stroke-width:0.999997;stroke-linecap:round;stroke-linejoin:round;stroke-miterlimit:0;stroke-dasharray:none;stroke-opacity:1"
       d="m 748.86716,-160.36828 v -31.98104"
       id="path266"
       sodipodi:nodetypes="cc" /><path
       style="font-variation-settings:'wght' 600;fill:none;fill-opacity:1;stroke:#000000;stroke-width:0.999999;stroke-linecap:round;stroke-linejoin:round;stroke-miterlimit:0;stroke-dasharray:none;stroke-opacity:1"
       d="m 758.67806,-110.83087 3.75174,-2.9343"
       id="path320"
       inkscape:export-filename="figure_0.png"
       inkscape:export-xdpi="274.64633"
       inkscape:export-ydpi="274.64633" /><path
       style="font-variation-settings:'wght' 600;fill:none;fill-opacity:1;stroke:#000000;stroke-width:0.999999;stroke-linecap:round;stroke-linejoin:round;stroke-miterlimit:0;stroke-dasharray:none;stroke-opacity:1"
       d="m 764.85375,-110.83087 3.75177,-2.9343"
       id="path321" /><path
       style="font-variation-settings:'wght' 600;fill:none;fill-opacity:1;stroke:#000000;stroke-width:0.999999;stroke-linecap:round;stroke-linejoin:round;stroke-miterlimit:0;stroke-dasharray:none;stroke-opacity:1"
       d="m 771.02947,-110.83087 3.75175,-2.9343"
       id="path322" /><path
       style="font-variation-settings:'wght' 600;fill:none;fill-opacity:1;stroke:#000000;stroke-width:0.999999;stroke-linecap:round;stroke-linejoin:round;stroke-miterlimit:0;stroke-dasharray:none;stroke-opacity:1"
       d="m 777.2052,-110.83087 3.75174,-2.9343"
       id="path323" /><path
       style="font-variation-settings:'wght' 600;fill:none;fill-opacity:1;stroke:#000000;stroke-width:0.999999;stroke-linecap:round;stroke-linejoin:round;stroke-miterlimit:0;stroke-dasharray:none;stroke-opacity:1"
       d="m 783.38089,-110.83087 3.75175,-2.9343"
       id="path324" /><path
       style="font-variation-settings:'wght' 600;fill:none;fill-opacity:1;stroke:#000000;stroke-width:0.999999;stroke-linecap:round;stroke-linejoin:round;stroke-miterlimit:0;stroke-dasharray:none;stroke-opacity:1"
       d="m 789.5566,-110.83087 3.75175,-2.9343"
       id="path325" /><path
       style="font-variation-settings:'wght' 600;fill:none;fill-opacity:1;stroke:#000000;stroke-width:0.999999;stroke-linecap:round;stroke-linejoin:round;stroke-miterlimit:0;stroke-dasharray:none;stroke-opacity:1"
       d="m 795.73229,-110.83087 3.75177,-2.9343"
       id="path326" /><path
       style="font-variation-settings:'wght' 600;fill:none;fill-opacity:1;stroke:#000000;stroke-width:0.999999;stroke-linecap:round;stroke-linejoin:round;stroke-miterlimit:0;stroke-dasharray:none;stroke-opacity:1"
       d="m 801.908,-110.83087 3.75176,-2.9343"
       id="path327" /><path
       style="font-variation-settings:'wght' 600;fill:none;fill-opacity:1;stroke:#000000;stroke-width:0.999999;stroke-linecap:round;stroke-linejoin:round;stroke-miterlimit:0;stroke-dasharray:none;stroke-opacity:1"
       d="m 808.08372,-110.83087 3.75175,-2.9343"
       id="path328" /><path
       style="font-variation-settings:'wght' 600;fill:none;fill-opacity:1;stroke:#000000;stroke-width:0.999999;stroke-linecap:round;stroke-linejoin:round;stroke-miterlimit:0;stroke-dasharray:none;stroke-opacity:1"
       d="m 814.25943,-110.83087 3.75174,-2.9343"
       id="path329" /><path
       style="font-variation-settings:'wght' 600;fill:none;fill-opacity:1;stroke:#000000;stroke-width:0.999999;stroke-linecap:round;stroke-linejoin:round;stroke-miterlimit:0;stroke-dasharray:none;stroke-opacity:1"
       d="m 820.43514,-110.83087 3.75175,-2.9343"
       id="path330" /><path
       style="font-variation-settings:'wght' 600;fill:none;fill-opacity:1;stroke:#000000;stroke-width:0.999999;stroke-linecap:round;stroke-linejoin:round;stroke-miterlimit:0;stroke-dasharray:none;stroke-opacity:1"
       d="m 826.61084,-110.83087 3.75175,-2.9343"
       id="path331" /><path
       style="font-variation-settings:'wght' 600;fill:none;fill-opacity:1;stroke:#000000;stroke-width:0.999999;stroke-linecap:round;stroke-linejoin:round;stroke-miterlimit:0;stroke-dasharray:none;stroke-opacity:1"
       d="m 752.50234,-110.83087 3.75176,-2.9343"
       id="path332" /><path
       style="font-variation-settings:'wght' 600;fill:none;fill-opacity:1;stroke:#000000;stroke-width:0.999999;stroke-linecap:round;stroke-linejoin:round;stroke-miterlimit:0;stroke-dasharray:none;stroke-opacity:1"
       d="m 857.48937,-110.83087 3.75176,-2.9343"
       id="path333" /><path
       style="font-variation-settings:'wght' 600;fill:none;fill-opacity:1;stroke:#000000;stroke-width:0.999999;stroke-linecap:round;stroke-linejoin:round;stroke-miterlimit:0;stroke-dasharray:none;stroke-opacity:1"
       d="m 863.66509,-110.83087 3.75175,-2.9343"
       id="path334" /><path
       style="font-variation-settings:'wght' 600;fill:none;fill-opacity:1;stroke:#000000;stroke-width:0.999999;stroke-linecap:round;stroke-linejoin:round;stroke-miterlimit:0;stroke-dasharray:none;stroke-opacity:1"
       d="m 832.78653,-110.83087 3.75178,-2.9343"
       id="path335" /><path
       style="font-variation-settings:'wght' 600;fill:none;fill-opacity:1;stroke:#000000;stroke-width:0.999999;stroke-linecap:round;stroke-linejoin:round;stroke-miterlimit:0;stroke-dasharray:none;stroke-opacity:1"
       d="m 838.96224,-110.83087 3.75177,-2.9343"
       id="path336" /><path
       style="font-variation-settings:'wght' 600;fill:none;fill-opacity:1;stroke:#000000;stroke-width:0.999999;stroke-linecap:round;stroke-linejoin:round;stroke-miterlimit:0;stroke-dasharray:none;stroke-opacity:1"
       d="m 845.13794,-110.83087 3.75177,-2.9343"
       id="path337" /><path
       style="font-variation-settings:'wght' 600;fill:none;fill-opacity:1;stroke:#000000;stroke-width:0.999999;stroke-linecap:round;stroke-linejoin:round;stroke-miterlimit:0;stroke-dasharray:none;stroke-opacity:1"
       d="m 851.31365,-110.83087 3.75178,-2.9343"
       id="path338" /><path
       style="font-variation-settings:'wght' 600;fill:none;fill-opacity:1;stroke:#000000;stroke-width:1;stroke-linecap:round;stroke-linejoin:round;stroke-miterlimit:0;stroke-dasharray:none;stroke-opacity:1"
       d="M 748.86716,-114.00817 H 868.80409"
       id="path339"
       sodipodi:nodetypes="cc" /><path
       style="font-variation-settings:'wght' 600;fill:none;fill-opacity:1;stroke:#000000;stroke-width:0.999999;stroke-linecap:round;stroke-linejoin:round;stroke-miterlimit:0;stroke-dasharray:none;stroke-opacity:1"
       d="m 745.93055,-123.72785 2.93661,-3.74879"
       id="path340"
       inkscape:export-filename="figure_0.png"
       inkscape:export-xdpi="274.64633"
       inkscape:export-ydpi="274.64633" /><path
       style="font-variation-settings:'wght' 600;fill:none;fill-opacity:1;stroke:#000000;stroke-width:0.999999;stroke-linecap:round;stroke-linejoin:round;stroke-miterlimit:0;stroke-dasharray:none;stroke-opacity:1"
       d="m 745.93055,-129.89868 2.93661,-3.74882"
       id="path341" /><path
       style="font-variation-settings:'wght' 600;fill:none;fill-opacity:1;stroke:#000000;stroke-width:0.999999;stroke-linecap:round;stroke-linejoin:round;stroke-miterlimit:0;stroke-dasharray:none;stroke-opacity:1"
       d="m 745.93055,-136.06955 2.93661,-3.7488"
       id="path342" /><path
       style="font-variation-settings:'wght' 600;fill:none;fill-opacity:1;stroke:#000000;stroke-width:0.999999;stroke-linecap:round;stroke-linejoin:round;stroke-miterlimit:0;stroke-dasharray:none;stroke-opacity:1"
       d="m 745.93055,-142.24042 2.93661,-3.74879"
       id="path343" /><path
       style="font-variation-settings:'wght' 600;fill:none;fill-opacity:1;stroke:#000000;stroke-width:0.999999;stroke-linecap:round;stroke-linejoin:round;stroke-miterlimit:0;stroke-dasharray:none;stroke-opacity:1"
       d="m 745.93055,-117.55697 2.93661,-3.74882"
       id="path344" /><path
       style="font-variation-settings:'wght' 600;fill:none;fill-opacity:1;stroke:#000000;stroke-width:0.999997;stroke-linecap:round;stroke-linejoin:round;stroke-miterlimit:0;stroke-dasharray:none;stroke-opacity:1"
       d="m 748.86716,-114.00817 v -31.98104"
       id="path345"
       sodipodi:nodetypes="cc" /><path
       style="fill:none;fill-opacity:1;stroke:#000000;stroke-width:0.999998;stroke-linecap:round;stroke-linejoin:round;stroke-miterlimit:0;stroke-opacity:1"
       d="m 748.86716,-121.32544 3.35378,-13.68084"
       id="path356"
       sodipodi:nodetypes="cc" /><path
       style="fill:none;fill-opacity:1;stroke:#000000;stroke-width:0.999998;stroke-linecap:round;stroke-linejoin:round;stroke-miterlimit:0;stroke-opacity:1"
       d="m 755.60256,-115.25974 -3.38162,-19.74654"
       id="path357"
       sodipodi:nodetypes="cc" /><path
       style="fill:none;fill-opacity:1;stroke:#000000;stroke-width:0.999998;stroke-linecap:round;stroke-linejoin:round;stroke-miterlimit:0;stroke-opacity:1"
       d="m 755.60256,-115.25974 3.38163,-19.74654"
       id="path358"
       sodipodi:nodetypes="cc" /><path
       style="fill:none;fill-opacity:1;stroke:#000000;stroke-width:0.999998;stroke-linecap:round;stroke-linejoin:round;stroke-miterlimit:0;stroke-opacity:1"
       d="m 762.36581,-115.25974 -3.38162,-19.74654"
       id="path359"
       sodipodi:nodetypes="cc" /><path
       style="fill:none;fill-opacity:1;stroke:#000000;stroke-width:0.999998;stroke-linecap:round;stroke-linejoin:round;stroke-miterlimit:0;stroke-opacity:1"
       d="m 762.36581,-115.25974 3.38163,-19.74654"
       id="path360"
       sodipodi:nodetypes="cc" /><path
       style="fill:none;fill-opacity:1;stroke:#000000;stroke-width:0.999998;stroke-linecap:round;stroke-linejoin:round;stroke-miterlimit:0;stroke-opacity:1"
       d="m 769.12907,-115.25974 -3.38163,-19.74654"
       id="path361"
       sodipodi:nodetypes="cc" /><path
       style="fill:none;fill-opacity:1;stroke:#000000;stroke-width:0.999998;stroke-linecap:round;stroke-linejoin:round;stroke-miterlimit:0;stroke-opacity:1"
       d="m 769.12907,-115.25974 3.38163,-19.74654"
       id="path362"
       sodipodi:nodetypes="cc" /><path
       style="fill:none;fill-opacity:1;stroke:#000000;stroke-width:0.999998;stroke-linecap:round;stroke-linejoin:round;stroke-miterlimit:0;stroke-opacity:1"
       d="m 775.89232,-115.25974 -3.38162,-19.74654"
       id="path363"
       sodipodi:nodetypes="cc" /><path
       style="fill:none;fill-opacity:1;stroke:#000000;stroke-width:0.999998;stroke-linecap:round;stroke-linejoin:round;stroke-miterlimit:0;stroke-opacity:1"
       d="m 775.89232,-115.25974 3.38163,-19.74654"
       id="path364"
       sodipodi:nodetypes="cc" /><path
       style="fill:none;fill-opacity:1;stroke:#000000;stroke-width:0.999998;stroke-linecap:round;stroke-linejoin:round;stroke-miterlimit:0;stroke-opacity:1"
       d="m 782.62773,-121.32544 -3.35378,-13.68084"
       id="path365"
       sodipodi:nodetypes="cc" /><ellipse
       style="fill:#00a6d6;fill-opacity:1;stroke:none;stroke-width:1;stroke-linecap:round;stroke-linejoin:round;stroke-dasharray:none;stroke-opacity:1"
       id="circle366"
       cx="793.77789"
       cy="-125.13287"
       rx="10.507024"
       ry="10.498766" /><path
       style="fill:#000000;fill-opacity:1;stroke:#000000;stroke-width:1;stroke-linecap:round;stroke-linejoin:round;stroke-dasharray:none;stroke-opacity:1"
       d="m 782.64456,-115.26009 v -19.74585"
       id="path366" /><ellipse
       style="fill:#00a6d6;fill-opacity:1;stroke:none;stroke-width:1;stroke-linecap:round;stroke-linejoin:round;stroke-dasharray:none;stroke-opacity:1"
       id="path23-7"
       cx="829.8103"
       cy="-171.49313"
       rx="10.507024"
       ry="10.498766" /><path
       style="fill:none;fill-opacity:1;stroke:#000000;stroke-width:1;stroke-linecap:round;stroke-linejoin:round;stroke-miterlimit:0;stroke-opacity:1"
       d="m 818.67699,-167.68552 -6.93492,-13.68083"
       id="path50-1"
       sodipodi:nodetypes="cc" /><path
       style="fill:none;fill-opacity:1;stroke:#000000;stroke-width:1;stroke-linecap:round;stroke-linejoin:round;stroke-miterlimit:0;stroke-opacity:1"
       d="m 804.74957,-161.61981 6.9925,-19.74654"
       id="path51-2"
       sodipodi:nodetypes="cc" /><path
       style="fill:none;fill-opacity:1;stroke:#000000;stroke-width:1;stroke-linecap:round;stroke-linejoin:round;stroke-miterlimit:0;stroke-opacity:1"
       d="m 804.74957,-161.61981 -6.99249,-19.74654"
       id="path52-5"
       sodipodi:nodetypes="cc" /><path
       style="fill:none;fill-opacity:1;stroke:#000000;stroke-width:1;stroke-linecap:round;stroke-linejoin:round;stroke-miterlimit:0;stroke-opacity:1"
       d="m 790.76457,-161.61981 6.99251,-19.74654"
       id="path53-7"
       sodipodi:nodetypes="cc" /><path
       style="fill:none;fill-opacity:1;stroke:#000000;stroke-width:1;stroke-linecap:round;stroke-linejoin:round;stroke-miterlimit:0;stroke-opacity:1"
       d="m 790.76457,-161.61981 -6.99249,-19.74654"
       id="path54-4"
       sodipodi:nodetypes="cc" /><path
       style="fill:none;fill-opacity:1;stroke:#000000;stroke-width:1;stroke-linecap:round;stroke-linejoin:round;stroke-miterlimit:0;stroke-opacity:1"
       d="m 776.77958,-161.61981 6.9925,-19.74654"
       id="path55-4"
       sodipodi:nodetypes="cc" /><path
       style="fill:none;fill-opacity:1;stroke:#000000;stroke-width:1;stroke-linecap:round;stroke-linejoin:round;stroke-miterlimit:0;stroke-opacity:1"
       d="m 776.77958,-161.61981 -6.99249,-19.74654"
       id="path56-4"
       sodipodi:nodetypes="cc" /><path
       style="fill:none;fill-opacity:1;stroke:#000000;stroke-width:1;stroke-linecap:round;stroke-linejoin:round;stroke-miterlimit:0;stroke-opacity:1"
       d="m 762.79458,-161.61981 6.99251,-19.74654"
       id="path57-4"
       sodipodi:nodetypes="cc" /><path
       style="fill:none;fill-opacity:1;stroke:#000000;stroke-width:1;stroke-linecap:round;stroke-linejoin:round;stroke-miterlimit:0;stroke-opacity:1"
       d="m 762.79458,-161.61981 -6.99249,-19.74654"
       id="path58-4"
       sodipodi:nodetypes="cc" /><path
       style="fill:none;fill-opacity:1;stroke:#000000;stroke-width:1;stroke-linecap:round;stroke-linejoin:round;stroke-miterlimit:0;stroke-opacity:1"
       d="m 748.86716,-167.68552 6.93493,-13.68083"
       id="path59-2"
       sodipodi:nodetypes="cc" /><path
       style="fill:#000000;fill-opacity:1;stroke:#000000;stroke-width:1;stroke-linecap:round;stroke-linejoin:round;stroke-dasharray:none;stroke-opacity:1"
       d="m 818.67699,-161.62016 v -19.74586"
       id="path367" /><path
       id="use1-3-6"
       d="m 824.79572,-172.34991 q 0.012,-0.0719 0.036,-0.1918 0.024,-0.11987 0.14396,-0.45551 0.11996,-0.33564 0.23993,-0.5634 0.11997,-0.22776 0.38389,-0.44353 0.26393,-0.21577 0.52785,-0.20378 0.26393,0.012 0.51586,0.0839 0.25193,0.0719 0.3599,0.21577 0.10797,0.14385 0.19194,0.26372 0.084,0.11987 0.096,0.22776 l 0.024,0.0839 q 0,0.024 0.012,0.024 l 0.13196,-0.13186 q 0.7198,-0.76718 1.69152,-0.76718 0.20394,0 0.3719,0.024 0.16795,0.024 0.31191,0.0839 0.14396,0.0599 0.22794,0.11987 0.084,0.0599 0.17994,0.14384 0.096,0.0839 0.11997,0.15584 0.024,0.0719 0.096,0.15583 0.072,0.0839 0.048,0.14385 -0.024,0.0599 0.036,0.10788 0.06,0.0479 0.024,0.0839 l 0.096,-0.11987 q 0.75578,-0.89904 1.78749,-0.89904 0.64782,0 1.04371,0.32366 0.39589,0.32365 0.40788,0.94698 0,0.61135 -0.45587,1.89398 -0.45587,1.28263 -0.45587,1.53436 0.012,0.16782 0.06,0.22776 0.048,0.0599 0.17995,0.0599 0.33591,0 0.62383,-0.35961 0.28792,-0.35962 0.46787,-0.98295 0.036,-0.13186 0.072,-0.15584 0.036,-0.024 0.19194,-0.024 0.23993,0 0.23993,0.0959 0,0.012 -0.048,0.17981 -0.096,0.34762 -0.26393,0.68327 -0.16795,0.33564 -0.55184,0.67128 -0.3839,0.33564 -0.82777,0.32365 -0.56384,0 -0.81577,-0.32365 -0.25193,-0.32366 -0.25193,-0.67128 0,-0.22776 0.43188,-1.43847 0.43188,-1.2107 0.44387,-1.82205 0,-0.70724 -0.52785,-0.70724 h -0.06 q -1.03171,0 -1.73951,1.2107 l -0.084,0.14385 -0.39589,1.60628 q -0.39588,1.57032 -0.45587,1.69019 -0.15595,0.32366 -0.51585,0.32366 -0.15596,0 -0.25193,-0.0839 -0.096,-0.0839 -0.13196,-0.14385 -0.036,-0.0599 -0.036,-0.11987 0,-0.13186 0.40788,-1.71417 l 0.43188,-1.75013 q 0.036,-0.17981 0.036,-0.45551 0,-0.70724 -0.52785,-0.70724 h -0.06 q -1.03171,0 -1.73951,1.2107 l -0.084,0.14385 -0.39589,1.60628 q -0.39589,1.57032 -0.45587,1.69019 -0.15596,0.32366 -0.51586,0.32366 -0.15595,0 -0.25192,-0.0719 -0.096,-0.0719 -0.13197,-0.14385 -0.036,-0.0719 -0.024,-0.11987 0,-0.15584 0.45587,-1.9659 0.46787,-1.84603 0.46787,-1.92994 0.036,-0.17981 0.036,-0.32365 0,-0.43154 -0.29992,-0.43154 -0.26392,0 -0.44387,0.33564 -0.17995,0.33564 -0.27592,0.73122 -0.096,0.39558 -0.14396,0.43154 -0.024,0.024 -0.19195,0.024 h -0.16795 q -0.072,-0.0719 -0.072,-0.10788 z"
       style="fill:#000000;stroke:#000000;stroke-width:0;stroke-linecap:butt;stroke-linejoin:round" /><path
       style="font-variation-settings:'wght' 600;fill:none;fill-opacity:1;stroke:#000000;stroke-width:1;stroke-linecap:round;stroke-linejoin:round;stroke-miterlimit:0;stroke-dasharray:none;stroke-opacity:1;marker-start:url(#ArrowWide-5);marker-end:url(#ArrowWide-5)"
       d="m 783.89711,-105.23532 34.77988,3.6e-4"
       id="path370"
       sodipodi:nodetypes="cc" /><path
       id="use370"
       d="m 793.49524,-92.45494 q -0.06,-0.048 -0.06,-0.0839 0,-0.024 2.02743,-4.19552 2.02743,-4.17154 2.07542,-4.21949 0.036,-0.0839 0.3359,-0.0839 0.27593,0 0.33591,0.0839 0.036,0.048 2.06342,4.21949 2.02743,4.17155 2.03942,4.19552 0,0.036 -0.06,0.0839 z m 5.47046,-4.12359 -1.47559,-3.02078 -2.96316,6.04155 2.95117,0.012 h 2.96316 q 0,-0.024 -1.47558,-3.03276 z"
       style="fill:#000000;stroke:#000000;stroke-width:0;stroke-linecap:butt;stroke-linejoin:round" /><path
       id="use371"
       d="m 803.50042,-95.91924 q 0.084,-0.50346 0.64782,-1.16276 0.56384,-0.65929 1.39161,-0.67128 0.41988,0 0.76778,0.21577 0.34791,0.21577 0.51586,0.53942 0.50386,-0.75519 1.21166,-0.75519 0.44387,0 0.76778,0.26372 0.32391,0.26372 0.33591,0.70724 0,0.34763 -0.16796,0.5634 -0.16795,0.21577 -0.32391,0.26372 -0.15595,0.0479 -0.27592,0.0479 -0.22793,0 -0.37189,-0.13186 -0.14396,-0.13186 -0.14396,-0.34763 0,-0.55141 0.59983,-0.75519 -0.13196,-0.15583 -0.47987,-0.15583 -0.15595,0 -0.22793,0.024 -0.45587,0.19179 -0.67181,0.79115 -0.7198,2.64917 -0.7198,3.0927 0,0.33564 0.19195,0.47949 0.19194,0.14384 0.41988,0.14384 0.44387,0 0.87575,-0.39557 0.43188,-0.39558 0.58784,-0.97097 0.036,-0.11987 0.072,-0.13186 0.036,-0.012 0.19195,-0.024 h 0.048 q 0.17995,0 0.17995,0.0959 0,0.012 -0.024,0.13186 -0.19194,0.68327 -0.74379,1.2107 -0.55184,0.52744 -1.28364,0.52744 -0.83976,0 -1.27164,-0.75519 -0.49186,0.7432 -1.12768,0.7432 h -0.072 q -0.58783,0 -0.83976,-0.31167 -0.25193,-0.31166 -0.26393,-0.65929 0,-0.38359 0.22794,-0.62333 0.22793,-0.23975 0.53985,-0.23975 0.51585,0 0.51585,0.50346 0,0.23975 -0.14396,0.41956 -0.14396,0.1798 -0.27592,0.23974 -0.13196,0.0599 -0.15596,0.0599 l -0.036,0.012 q 0,0.012 0.072,0.048 0.072,0.036 0.19195,0.0839 0.11996,0.048 0.22793,0.036 0.43188,0 0.74379,-0.53942 0.10797,-0.1918 0.27593,-0.81513 0.16795,-0.62333 0.3359,-1.29462 0.16795,-0.67128 0.19195,-0.79115 0.06,-0.32365 0.06,-0.4675 0,-0.33564 -0.17995,-0.47949 -0.17995,-0.14384 -0.40788,-0.14384 -0.47987,0 -0.89975,0.38359 -0.41988,0.38359 -0.58783,0.98294 -0.024,0.10789 -0.06,0.11988 -0.036,0.012 -0.19194,0.024 h -0.16796 q -0.072,-0.0719 -0.072,-0.13186 z"
       style="fill:#000000;stroke:#000000;stroke-width:0;stroke-linecap:butt;stroke-linejoin:round" /><path
       style="fill:none;fill-opacity:1;stroke:#000000;stroke-width:1;stroke-linecap:round;stroke-linejoin:round;stroke-miterlimit:0;stroke-opacity:1"
       d="m 818.67699,-167.68552 -6.93492,-13.68083"
       id="path374"
       sodipodi:nodetypes="cc" /><path
       style="fill:none;fill-opacity:1;stroke:#000000;stroke-width:1;stroke-linecap:round;stroke-linejoin:round;stroke-miterlimit:0;stroke-opacity:1"
       d="m 804.74957,-161.61981 6.9925,-19.74654"
       id="path375"
       sodipodi:nodetypes="cc" /><path
       style="fill:none;fill-opacity:1;stroke:#000000;stroke-width:1;stroke-linecap:round;stroke-linejoin:round;stroke-miterlimit:0;stroke-opacity:1"
       d="m 804.74957,-161.61981 -6.99249,-19.74654"
       id="path376"
       sodipodi:nodetypes="cc" /><path
       style="fill:none;fill-opacity:1;stroke:#000000;stroke-width:1;stroke-linecap:round;stroke-linejoin:round;stroke-miterlimit:0;stroke-opacity:1"
       d="m 790.76457,-161.61981 6.99251,-19.74654"
       id="path377"
       sodipodi:nodetypes="cc" /><path
       style="fill:none;fill-opacity:1;stroke:#000000;stroke-width:1;stroke-linecap:round;stroke-linejoin:round;stroke-miterlimit:0;stroke-opacity:1"
       d="m 790.76457,-161.61981 -6.99249,-19.74654"
       id="path378"
       sodipodi:nodetypes="cc" /><path
       style="fill:none;fill-opacity:1;stroke:#000000;stroke-width:1;stroke-linecap:round;stroke-linejoin:round;stroke-miterlimit:0;stroke-opacity:1"
       d="m 776.77958,-161.61981 6.9925,-19.74654"
       id="path379"
       sodipodi:nodetypes="cc" /><path
       style="fill:none;fill-opacity:1;stroke:#000000;stroke-width:1;stroke-linecap:round;stroke-linejoin:round;stroke-miterlimit:0;stroke-opacity:1"
       d="m 776.77958,-161.61981 -6.99249,-19.74654"
       id="path380"
       sodipodi:nodetypes="cc" /><path
       style="fill:none;fill-opacity:1;stroke:#000000;stroke-width:1;stroke-linecap:round;stroke-linejoin:round;stroke-miterlimit:0;stroke-opacity:1"
       d="m 762.79458,-161.61981 6.99251,-19.74654"
       id="path381"
       sodipodi:nodetypes="cc" /><path
       style="fill:none;fill-opacity:1;stroke:#000000;stroke-width:1;stroke-linecap:round;stroke-linejoin:round;stroke-miterlimit:0;stroke-opacity:1"
       d="m 762.79458,-161.61981 -6.99249,-19.74654"
       id="path382"
       sodipodi:nodetypes="cc" /><path
       style="fill:none;fill-opacity:1;stroke:#000000;stroke-width:1;stroke-linecap:round;stroke-linejoin:round;stroke-miterlimit:0;stroke-opacity:1"
       d="m 748.86716,-167.68552 6.93493,-13.68083"
       id="path383"
       sodipodi:nodetypes="cc" /><path
       style="fill:#000000;fill-opacity:1;stroke:#000000;stroke-width:1;stroke-linecap:round;stroke-linejoin:round;stroke-dasharray:none;stroke-opacity:1"
       d="m 818.67699,-161.62016 v -19.74586"
       id="path384" /><path
       id="use384"
       d="m 788.76329,-125.98978 q 0.012,-0.0719 0.036,-0.1918 0.024,-0.11987 0.14396,-0.45551 0.11996,-0.33564 0.23993,-0.5634 0.11997,-0.22776 0.38389,-0.44353 0.26393,-0.21577 0.52785,-0.20378 0.26393,0.012 0.51586,0.0839 0.25193,0.0719 0.3599,0.21577 0.10797,0.14385 0.19194,0.26372 0.084,0.11987 0.096,0.22776 l 0.024,0.0839 q 0,0.024 0.012,0.024 l 0.13196,-0.13186 q 0.7198,-0.76718 1.69152,-0.76718 0.20394,0 0.3719,0.024 0.16795,0.024 0.31191,0.0839 0.14396,0.0599 0.22794,0.11987 0.084,0.0599 0.17994,0.14384 0.096,0.0839 0.11997,0.15584 0.024,0.0719 0.096,0.15583 0.072,0.0839 0.048,0.14385 -0.024,0.0599 0.036,0.10788 0.06,0.048 0.024,0.0839 l 0.096,-0.11987 q 0.75578,-0.89904 1.78749,-0.89904 0.64782,0 1.04371,0.32366 0.39589,0.32365 0.40788,0.94698 0,0.61135 -0.45587,1.89398 -0.45587,1.28263 -0.45587,1.53436 0.012,0.16782 0.06,0.22776 0.048,0.0599 0.17995,0.0599 0.33591,0 0.62383,-0.35961 0.28792,-0.35962 0.46787,-0.98295 0.036,-0.13186 0.072,-0.15584 0.036,-0.024 0.19194,-0.024 0.23993,0 0.23993,0.0959 0,0.012 -0.048,0.17981 -0.096,0.34762 -0.26393,0.68327 -0.16795,0.33564 -0.55184,0.67128 -0.3839,0.33564 -0.82777,0.32365 -0.56384,0 -0.81577,-0.32365 -0.25193,-0.32366 -0.25193,-0.67128 0,-0.22776 0.43188,-1.43847 0.43188,-1.2107 0.44387,-1.82205 0,-0.70724 -0.52785,-0.70724 h -0.06 q -1.03171,0 -1.73951,1.2107 l -0.084,0.14385 -0.39589,1.60628 q -0.39588,1.57032 -0.45587,1.69019 -0.15595,0.32366 -0.51585,0.32366 -0.15596,0 -0.25193,-0.0839 -0.096,-0.0839 -0.13196,-0.14385 -0.036,-0.0599 -0.036,-0.11987 0,-0.13186 0.40788,-1.71417 l 0.43188,-1.75013 q 0.036,-0.17981 0.036,-0.45551 0,-0.70724 -0.52785,-0.70724 h -0.06 q -1.03171,0 -1.73951,1.2107 l -0.084,0.14385 -0.39589,1.60628 q -0.39589,1.57032 -0.45587,1.69019 -0.15596,0.32366 -0.51586,0.32366 -0.15595,0 -0.25192,-0.0719 -0.096,-0.0719 -0.13197,-0.14385 -0.036,-0.0719 -0.024,-0.11987 0,-0.15584 0.45587,-1.9659 0.46787,-1.84603 0.46787,-1.92994 0.036,-0.17981 0.036,-0.32365 0,-0.43154 -0.29992,-0.43154 -0.26392,0 -0.44387,0.33564 -0.17995,0.33564 -0.27592,0.73122 -0.096,0.39558 -0.14396,0.43154 -0.024,0.024 -0.19195,0.024 h -0.16795 q -0.072,-0.0719 -0.072,-0.10788 z"
       style="fill:#000000;stroke:#000000;stroke-width:0;stroke-linecap:butt;stroke-linejoin:round" /></g></svg>
