<?xml version="1.0" encoding="UTF-8" standalone="no"?>
<!-- Created with Inkscape (http://www.inkscape.org/) -->

<svg
   width="150mm"
   height="82.123688mm"
   viewBox="0 0 150 82.123689"
   version="1.1"
   id="svg1"
   xml:space="preserve"
   inkscape:version="1.4 (86a8ad7, 2024-10-11)"
   sodipodi:docname="Ch6.svg"
   xmlns:inkscape="http://www.inkscape.org/namespaces/inkscape"
   xmlns:sodipodi="http://sodipodi.sourceforge.net/DTD/sodipodi-0.dtd"
   xmlns="http://www.w3.org/2000/svg"
   xmlns:svg="http://www.w3.org/2000/svg"><sodipodi:namedview
     id="namedview1"
     pagecolor="#ffffff"
     bordercolor="#000000"
     borderopacity="0.25"
     inkscape:showpageshadow="2"
     inkscape:pageopacity="0.0"
     inkscape:pagecheckerboard="0"
     inkscape:deskcolor="#d1d1d1"
     inkscape:document-units="mm"
     inkscape:zoom="0.47851563"
     inkscape:cx="2777.3388"
     inkscape:cy="3760.5878"
     inkscape:window-width="1920"
     inkscape:window-height="974"
     inkscape:window-x="-11"
     inkscape:window-y="1609"
     inkscape:window-maximized="1"
     inkscape:current-layer="layer1"
     showgrid="false"><inkscape:page
       x="0"
       y="0"
       width="150"
       height="82.123688"
       id="page2"
       margin="0"
       bleed="0" /></sodipodi:namedview><defs
     id="defs1"><style
       type="text/css"
       id="style1">*{stroke-linejoin: round; stroke-linecap: butt}</style><style
       type="text/css"
       id="style1-4">*{stroke-linejoin: round; stroke-linecap: butt}</style><style
       type="text/css"
       id="style1-1">*{stroke-linejoin: round; stroke-linecap: butt}</style><style
       type="text/css"
       id="style1-9">*{stroke-linejoin: round; stroke-linecap: butt}</style><style
       type="text/css"
       id="style1-4-4">*{stroke-linejoin: round; stroke-linecap: butt}</style><style
       type="text/css"
       id="style1-1-8">*{stroke-linejoin: round; stroke-linecap: butt}</style></defs><g
     inkscape:label="Layer 1"
     inkscape:groupmode="layer"
     id="layer1"
     transform="translate(-302.93891,-52.681758)"><rect
       style="opacity:1;fill:#d3d3d3;fill-opacity:1;stroke:none;stroke-width:1;stroke-linecap:round;stroke-dasharray:none;stroke-opacity:1"
       id="rect23"
       width="92.624367"
       height="12.006861"
       x="319.50748"
       y="130.70068" /><path
       style="fill:#d3d3d3;fill-opacity:1;stroke:#000000;stroke-width:1;stroke-linecap:round;stroke-dasharray:none;stroke-opacity:1"
       d="M 369.55475,129.50541 377.9389,98.215444"
       id="path24"
       inkscape:export-filename="SeeSaw1.png"
       inkscape:export-xdpi="508"
       inkscape:export-ydpi="508" /><path
       style="fill:#d3d3d3;fill-opacity:1;stroke:#000000;stroke-width:1;stroke-linecap:round;stroke-dasharray:none;stroke-opacity:1"
       d="M 386.32304,129.50541 377.9389,98.215444"
       id="path25" /><rect
       style="fill:#d3d3d3;fill-opacity:1;stroke:none;stroke-width:1;stroke-linecap:round;stroke-dasharray:none;stroke-opacity:1"
       id="rect24"
       width="150"
       height="18"
       x="302.9389"
       y="116.80544" /><rect
       style="fill:#ffffff;fill-opacity:1;stroke:#000000;stroke-width:1;stroke-linecap:round;stroke-dasharray:none;stroke-opacity:1"
       id="rect29"
       width="122.85592"
       height="4.2452831"
       x="316.51096"
       y="95.645164" /><path
       style="fill:#ffffff;fill-opacity:1;stroke:#000000;stroke-width:1;stroke-linecap:round;stroke-dasharray:none;stroke-opacity:1"
       id="path29"
       sodipodi:type="arc"
       sodipodi:cx="377.939"
       sodipodi:cy="97.767883"
       sodipodi:rx="2.8301888"
       sodipodi:ry="2.8301888"
       sodipodi:start="5.2699792"
       sodipodi:end="5.2387076"
       sodipodi:open="true"
       sodipodi:arc-type="arc"
       d="m 379.43657,95.366376 a 2.8301888,2.8301888 0 0 1 0.91557,3.880261 2.8301888,2.8301888 0 0 1 -3.87299,0.945873 2.8301888,2.8301888 0 0 1 -0.97612,-3.86547 2.8301888,2.8301888 0 0 1 3.85772,-1.006314" /><path
       style="fill:#040404;stroke:none;stroke-width:1"
       d="m 426.29284,84.864313 c 0.23297,1.054283 0.72271,2.12291 1.1204,3.124683 0.13275,0.334238 0.55318,0.935004 0.30503,1.292294 -0.23476,0.338022 -1.07795,0.330255 -1.45103,0.396037 -1.1985,0.211328 -2.48387,0.264035 -3.49659,0.99452 -1.05816,0.763258 -1.69604,2.225043 -2.40765,3.28926 -1.55337,2.323053 -3.08031,4.675066 -4.57625,7.035633 -1.0747,1.69589 -1.85811,3.56848 -0.21223,5.24589 1.36227,1.38837 3.82815,1.1532 4.98327,-0.35439 1.60468,-2.09432 2.98749,-4.46383 4.38514,-6.702288 0.49181,-0.787661 1.16427,-2.365286 1.9758,-2.838846 0.59135,-0.345074 1.60934,-0.336522 2.28035,-0.454839 0.92215,-0.162602 1.95102,-0.490085 2.88796,-0.479555 0.66908,0.0075 1.3116,0.3441 1.98944,0.374534 1.9297,0.08666 3.78148,-0.521057 5.29038,-1.729601 1.64262,-1.315659 2.6187,-3.479568 2.24487,-5.599705 -0.21206,-1.202589 -0.82734,-2.406209 -1.27524,-3.534515 -0.95658,-2.409697 -1.91039,-4.847643 -2.77869,-7.291071 -0.91535,-2.575812 -2.10369,-5.328874 -5.16554,-5.775676 -2.49142,-0.363569 -5.12284,0.47701 -6.84136,2.334642 -0.55079,0.595374 -0.7904,1.349317 -1.23014,2.012266 -0.781,1.177464 -1.75165,2.265929 -2.63686,3.366174 -0.63852,0.793632 -1.34018,2.155472 -2.23896,2.653664 -0.70946,0.393249 -1.63796,0.490003 -2.41122,0.703845 -1.72004,0.475645 -3.58353,0.883447 -5.23466,1.54977 -1.36411,0.550495 -2.49805,1.771113 -2.2915,3.346968 0.0596,0.454264 0.1407,0.926149 0.35299,1.336591 1.75352,3.389051 6.43268,0.811959 9.0863,0.154209 1.38243,-0.342652 3.28666,-0.577213 4.47397,-1.401342 1.12085,-0.77812 1.64378,-2.487423 2.87202,-3.049158"
       id="path21" /><path
       style="fill:#040404;stroke:none;stroke-width:1"
       d="m 427.1111,56.780472 c -6.29281,2.017187 -5.68133,11.537048 0.77291,12.812331 1.09291,0.215951 2.30898,0.09222 3.36937,-0.228484 0.79289,-0.239795 1.51152,-0.627271 2.15867,-1.142854 4.50436,-3.588598 2.19855,-10.998181 -3.37776,-11.720859 -0.96654,-0.125265 -1.99181,-0.01869 -2.92319,0.279866"
       id="path20" /><path
       style="fill:#040404;stroke:none;stroke-width:1"
       d="m 330.33595,95.559067 c 1.96675,0.468247 4.43488,0.0861 6.45743,0.0861 2.89546,0 6.08966,-0.384649 8.9543,0.018 1.07525,0.151134 2.15612,0.691035 3.18568,1.025085 1.3928,0.45191 2.99845,0.760473 4.30328,1.429667 0.44451,0.227982 0.41922,0.621544 0.50138,1.057305 0.17207,0.912696 0.33748,1.833146 0.45202,2.755176 0.27194,2.189 0.75245,4.3627 1.08913,6.54352 0.17947,1.16253 0.2776,2.45891 1.16068,3.34199 1.97622,1.97623 5.34594,0.28608 5.64194,-2.2227 0.19998,-1.6949 -0.53447,-3.74769 -0.79847,-5.42424 -0.30292,-1.92371 -0.64349,-3.84454 -0.94708,-5.768637 -0.2103,-1.332794 -0.29069,-2.772077 -0.76062,-4.046657 -0.85398,-2.316189 -4.79502,-2.746923 -6.85391,-3.437584 -0.50475,-0.169319 -1.19098,-0.258659 -1.61622,-0.593391 -0.62577,-0.492583 -0.60691,-2.281253 -0.78585,-3.029147 -0.1636,-0.683754 -0.48895,-1.540047 -0.3531,-2.238577 1.66758,1.671091 3.45996,1.990869 5.68254,2.517069 1.6379,0.38778 3.26345,0.82411 4.90764,1.205457 1.50075,0.348075 3.11356,0.978772 4.64935,1.091251 1.96439,0.143865 3.99231,-1.731481 3.55856,-3.780588 -0.47478,-2.242908 -2.12466,-2.655075 -4.07516,-3.186595 -2.31168,-0.629949 -4.6581,-1.132388 -6.97402,-1.742045 -0.89088,-0.234519 -2.16222,-0.281056 -2.92737,-0.810036 -1.06863,-0.73879 -1.96455,-2.0079 -2.84897,-2.957328 -1.57428,-1.690003 -3.18003,-3.359935 -4.81384,-4.993747 -1.34591,-1.345905 -2.68349,-2.609373 -4.56326,-3.118098 -3.06699,-0.830034 -6.08877,1.183383 -7.34931,3.892989 -0.42994,0.924211 -0.53757,1.944504 -0.76426,2.927371 -0.42159,1.8279 -0.75941,3.676449 -1.15656,5.510339 -0.99669,4.60231 -2.32742,9.280585 -2.95593,13.948048"
       id="path19" /><path
       style="fill:#040404;stroke:none;stroke-width:1"
       d="m 341.27053,52.71834 c -1.28106,0.17439 -2.46364,0.472794 -3.53006,1.245244 -0.83762,0.606741 -1.59884,1.337484 -2.10949,2.248209 -2.88305,5.141877 1.47543,11.412083 7.27543,10.57557 0.78296,-0.11292 1.54337,-0.417625 2.23857,-0.782262 5.46609,-2.866964 4.50222,-11.187682 -1.29148,-12.981031 -0.8073,-0.24989 -1.73859,-0.420675 -2.58297,-0.30573"
       id="path18" /></g></svg>
