<?xml version="1.0" encoding="UTF-8" standalone="no"?>
<svg
   width="603.3609pt"
   height="372.65717pt"
   viewBox="0 0 603.3609 372.65717"
   version="1.1"
   id="svg172"
   xmlns:xlink="http://www.w3.org/1999/xlink"
   xmlns="http://www.w3.org/2000/svg"
   xmlns:svg="http://www.w3.org/2000/svg"
   xmlns:rdf="http://www.w3.org/1999/02/22-rdf-syntax-ns#"
   xmlns:cc="http://creativecommons.org/ns#"
   xmlns:dc="http://purl.org/dc/elements/1.1/">
  <metadata
     id="metadata1">
    <rdf:RDF>
      <cc:Work>
        <dc:type
           rdf:resource="http://purl.org/dc/dcmitype/StillImage" />
        <dc:date>2025-07-22T10:12:03.233727</dc:date>
        <dc:format>image/svg+xml</dc:format>
        <dc:creator>
          <cc:Agent>
            <dc:title>Matplotlib v3.10.0, https://matplotlib.org/</dc:title>
          </cc:Agent>
        </dc:creator>
      </cc:Work>
    </rdf:RDF>
  </metadata>
  <defs
     id="defs1">
    <style
       type="text/css"
       id="style1">*{stroke-linejoin: round; stroke-linecap: butt}</style>
  </defs>
  <g
     id="line2d_1"
     transform="translate(-45.039062,-41.418157)">
    <path
       d="M 115.36364,384.48 V 51.84"
       clip-path="url(#p252cb1f2c3)"
       style="fill:none;stroke:#b0b0b0;stroke-width:0.8;stroke-linecap:square"
       id="path3" />
  </g>
  <g
     id="line2d_2"
     transform="translate(-45.039062,-41.418157)">
    <defs
       id="defs3">
      <path
         id="m04ebbff87f"
         d="M 0,0 V 3.5"
         style="stroke:#000000;stroke-width:0.8" />
    </defs>
    <g
       id="g3">
      <use
         xlink:href="#m04ebbff87f"
         x="115.36363"
         y="384.48001"
         style="stroke:#000000;stroke-width:0.8"
         id="use3" />
    </g>
  </g>
  <g
     id="text_1"
     transform="translate(-45.039062,-41.418157)">
    <!-- 0.50 -->
    <g
       transform="matrix(0.1,0,0,-0.1,104.23082,399.07844)"
       id="g7">
      <defs
         id="defs4">
        <path
           id="DejaVuSans-30"
           d="m 2034,4250 q -487,0 -733,-480 -245,-479 -245,-1442 0,-959 245,-1439 246,-480 733,-480 491,0 736,480 246,480 246,1439 0,963 -246,1442 -245,480 -736,480 z m 0,500 q 785,0 1199,-621 414,-620 414,-1801 0,-1178 -414,-1799 -414,-620 -1199,-620 -784,0 -1198,620 -414,621 -414,1799 0,1181 414,1801 414,621 1198,621 z"
           transform="scale(0.015625)" />
        <path
           id="DejaVuSans-2e"
           d="m 684,794 h 660 V 0 H 684 Z"
           transform="scale(0.015625)" />
        <path
           id="DejaVuSans-35"
           d="M 691,4666 H 3169 V 4134 H 1269 V 2991 q 137,47 274,70 138,23 276,23 781,0 1237,-428 457,-428 457,-1159 Q 3513,744 3044,326 2575,-91 1722,-91 1428,-91 1123,-41 819,9 494,109 v 635 q 281,-153 581,-228 300,-75 634,-75 541,0 856,284 316,284 316,772 0,487 -316,771 -315,285 -856,285 -253,0 -505,-56 -251,-56 -513,-175 z"
           transform="scale(0.015625)" />
      </defs>
      <use
         xlink:href="#DejaVuSans-30"
         id="use4" />
      <use
         xlink:href="#DejaVuSans-2e"
         transform="translate(63.623047)"
         id="use5" />
      <use
         xlink:href="#DejaVuSans-35"
         transform="translate(95.410156)"
         id="use6" />
      <use
         xlink:href="#DejaVuSans-30"
         transform="translate(159.0332)"
         id="use7" />
    </g>
  </g>
  <g
     id="line2d_3"
     transform="translate(-45.039062,-41.418157)">
    <path
       d="M 178.77273,384.48 V 51.84"
       clip-path="url(#p252cb1f2c3)"
       style="fill:none;stroke:#b0b0b0;stroke-width:0.8;stroke-linecap:square"
       id="path7" />
  </g>
  <g
     id="line2d_4"
     transform="translate(-45.039062,-41.418157)">
    <g
       id="g8">
      <use
         xlink:href="#m04ebbff87f"
         x="178.77272"
         y="384.48001"
         style="stroke:#000000;stroke-width:0.8"
         id="use8" />
    </g>
  </g>
  <g
     id="text_2"
     transform="translate(-45.039062,-41.418157)">
    <!-- 0.75 -->
    <g
       transform="matrix(0.1,0,0,-0.1,167.63991,399.07844)"
       id="g12">
      <defs
         id="defs8">
        <path
           id="DejaVuSans-37"
           d="M 525,4666 H 3525 V 4397 L 1831,0 H 1172 L 2766,4134 H 525 Z"
           transform="scale(0.015625)" />
      </defs>
      <use
         xlink:href="#DejaVuSans-30"
         id="use9" />
      <use
         xlink:href="#DejaVuSans-2e"
         transform="translate(63.623047)"
         id="use10" />
      <use
         xlink:href="#DejaVuSans-37"
         transform="translate(95.410156)"
         id="use11" />
      <use
         xlink:href="#DejaVuSans-35"
         transform="translate(159.0332)"
         id="use12" />
    </g>
  </g>
  <g
     id="line2d_5"
     transform="translate(-45.039062,-41.418157)">
    <path
       d="M 242.18182,384.48 V 51.84"
       clip-path="url(#p252cb1f2c3)"
       style="fill:none;stroke:#b0b0b0;stroke-width:0.8;stroke-linecap:square"
       id="path12" />
  </g>
  <g
     id="line2d_6"
     transform="translate(-45.039062,-41.418157)">
    <g
       id="g13">
      <use
         xlink:href="#m04ebbff87f"
         x="242.18182"
         y="384.48001"
         style="stroke:#000000;stroke-width:0.8"
         id="use13" />
    </g>
  </g>
  <g
     id="text_3"
     transform="translate(-45.039062,-41.418157)">
    <!-- 1.00 -->
    <g
       transform="matrix(0.1,0,0,-0.1,231.04901,399.07844)"
       id="g17">
      <defs
         id="defs13">
        <path
           id="DejaVuSans-31"
           d="M 794,531 H 1825 V 4091 L 703,3866 v 575 l 1116,225 h 631 V 531 H 3481 V 0 H 794 Z"
           transform="scale(0.015625)" />
      </defs>
      <use
         xlink:href="#DejaVuSans-31"
         id="use14" />
      <use
         xlink:href="#DejaVuSans-2e"
         transform="translate(63.623047)"
         id="use15" />
      <use
         xlink:href="#DejaVuSans-30"
         transform="translate(95.410156)"
         id="use16" />
      <use
         xlink:href="#DejaVuSans-30"
         transform="translate(159.0332)"
         id="use17" />
    </g>
  </g>
  <g
     id="line2d_7"
     transform="translate(-45.039062,-41.418157)">
    <path
       d="M 305.59091,384.48 V 51.84"
       clip-path="url(#p252cb1f2c3)"
       style="fill:none;stroke:#b0b0b0;stroke-width:0.8;stroke-linecap:square"
       id="path17" />
  </g>
  <g
     id="line2d_8"
     transform="translate(-45.039062,-41.418157)">
    <g
       id="g18">
      <use
         xlink:href="#m04ebbff87f"
         x="305.59091"
         y="384.48001"
         style="stroke:#000000;stroke-width:0.8"
         id="use18" />
    </g>
  </g>
  <g
     id="text_4"
     transform="translate(-45.039062,-41.418157)">
    <!-- 1.25 -->
    <g
       transform="matrix(0.1,0,0,-0.1,294.4581,399.07844)"
       id="g22">
      <defs
         id="defs18">
        <path
           id="DejaVuSans-32"
           d="M 1228,531 H 3431 V 0 H 469 v 531 q 359,372 979,998 621,627 780,809 303,340 423,576 121,236 121,464 0,372 -261,606 -261,235 -680,235 -297,0 -627,-103 -329,-103 -704,-313 v 638 q 381,153 712,231 332,78 607,78 725,0 1156,-363 431,-362 431,-968 0,-288 -108,-546 -107,-257 -392,-607 -78,-91 -497,-524 Q 1991,1309 1228,531 Z"
           transform="scale(0.015625)" />
      </defs>
      <use
         xlink:href="#DejaVuSans-31"
         id="use19" />
      <use
         xlink:href="#DejaVuSans-2e"
         transform="translate(63.623047)"
         id="use20" />
      <use
         xlink:href="#DejaVuSans-32"
         transform="translate(95.410156)"
         id="use21" />
      <use
         xlink:href="#DejaVuSans-35"
         transform="translate(159.0332)"
         id="use22" />
    </g>
  </g>
  <g
     id="line2d_9"
     transform="translate(-45.039062,-41.418157)">
    <path
       d="M 369,384.48 V 51.84"
       clip-path="url(#p252cb1f2c3)"
       style="fill:none;stroke:#b0b0b0;stroke-width:0.8;stroke-linecap:square"
       id="path22" />
  </g>
  <g
     id="line2d_10"
     transform="translate(-45.039062,-41.418157)">
    <g
       id="g23">
      <use
         xlink:href="#m04ebbff87f"
         x="369"
         y="384.48001"
         style="stroke:#000000;stroke-width:0.8"
         id="use23" />
    </g>
  </g>
  <g
     id="text_5"
     transform="translate(-45.039062,-41.418157)">
    <!-- 1.50 -->
    <g
       transform="matrix(0.1,0,0,-0.1,357.86719,399.07844)"
       id="g27">
      <use
         xlink:href="#DejaVuSans-31"
         id="use24" />
      <use
         xlink:href="#DejaVuSans-2e"
         transform="translate(63.623047)"
         id="use25" />
      <use
         xlink:href="#DejaVuSans-35"
         transform="translate(95.410156)"
         id="use26" />
      <use
         xlink:href="#DejaVuSans-30"
         transform="translate(159.0332)"
         id="use27" />
    </g>
  </g>
  <g
     id="line2d_11"
     transform="translate(-45.039062,-41.418157)">
    <path
       d="M 432.40909,384.48 V 51.84"
       clip-path="url(#p252cb1f2c3)"
       style="fill:none;stroke:#b0b0b0;stroke-width:0.8;stroke-linecap:square"
       id="path27" />
  </g>
  <g
     id="line2d_12"
     transform="translate(-45.039062,-41.418157)">
    <g
       id="g28">
      <use
         xlink:href="#m04ebbff87f"
         x="432.40909"
         y="384.48001"
         style="stroke:#000000;stroke-width:0.8"
         id="use28" />
    </g>
  </g>
  <g
     id="text_6"
     transform="translate(-45.039062,-41.418157)">
    <!-- 1.75 -->
    <g
       transform="matrix(0.1,0,0,-0.1,421.27628,399.07844)"
       id="g32">
      <use
         xlink:href="#DejaVuSans-31"
         id="use29" />
      <use
         xlink:href="#DejaVuSans-2e"
         transform="translate(63.623047)"
         id="use30" />
      <use
         xlink:href="#DejaVuSans-37"
         transform="translate(95.410156)"
         id="use31" />
      <use
         xlink:href="#DejaVuSans-35"
         transform="translate(159.0332)"
         id="use32" />
    </g>
  </g>
  <g
     id="line2d_13"
     transform="translate(-45.039062,-41.418157)">
    <path
       d="M 495.81818,384.48 V 51.84"
       clip-path="url(#p252cb1f2c3)"
       style="fill:none;stroke:#b0b0b0;stroke-width:0.8;stroke-linecap:square"
       id="path32" />
  </g>
  <g
     id="line2d_14"
     transform="translate(-45.039062,-41.418157)">
    <g
       id="g33">
      <use
         xlink:href="#m04ebbff87f"
         x="495.81818"
         y="384.48001"
         style="stroke:#000000;stroke-width:0.8"
         id="use33" />
    </g>
  </g>
  <g
     id="text_7"
     transform="translate(-45.039062,-41.418157)">
    <!-- 2.00 -->
    <g
       transform="matrix(0.1,0,0,-0.1,484.68537,399.07844)"
       id="g37">
      <use
         xlink:href="#DejaVuSans-32"
         id="use34" />
      <use
         xlink:href="#DejaVuSans-2e"
         transform="translate(63.623047)"
         id="use35" />
      <use
         xlink:href="#DejaVuSans-30"
         transform="translate(95.410156)"
         id="use36" />
      <use
         xlink:href="#DejaVuSans-30"
         transform="translate(159.0332)"
         id="use37" />
    </g>
  </g>
  <g
     id="line2d_15"
     transform="translate(-45.039062,-41.418157)">
    <path
       d="M 559.22727,384.48 V 51.84"
       clip-path="url(#p252cb1f2c3)"
       style="fill:none;stroke:#b0b0b0;stroke-width:0.8;stroke-linecap:square"
       id="path37" />
  </g>
  <g
     id="line2d_16"
     transform="translate(-45.039062,-41.418157)">
    <g
       id="g38">
      <use
         xlink:href="#m04ebbff87f"
         x="559.22729"
         y="384.48001"
         style="stroke:#000000;stroke-width:0.8"
         id="use38" />
    </g>
  </g>
  <g
     id="text_8"
     transform="translate(-45.039062,-41.418157)">
    <!-- 2.25 -->
    <g
       transform="matrix(0.1,0,0,-0.1,548.09446,399.07844)"
       id="g42">
      <use
         xlink:href="#DejaVuSans-32"
         id="use39" />
      <use
         xlink:href="#DejaVuSans-2e"
         transform="translate(63.623047)"
         id="use40" />
      <use
         xlink:href="#DejaVuSans-32"
         transform="translate(95.410156)"
         id="use41" />
      <use
         xlink:href="#DejaVuSans-35"
         transform="translate(159.0332)"
         id="use42" />
    </g>
  </g>
  <g
     id="line2d_17"
     transform="translate(-45.039062,-41.418157)">
    <path
       d="M 622.63636,384.48 V 51.84"
       clip-path="url(#p252cb1f2c3)"
       style="fill:none;stroke:#b0b0b0;stroke-width:0.8;stroke-linecap:square"
       id="path42" />
  </g>
  <g
     id="line2d_18"
     transform="translate(-45.039062,-41.418157)">
    <g
       id="g43">
      <use
         xlink:href="#m04ebbff87f"
         x="622.63635"
         y="384.48001"
         style="stroke:#000000;stroke-width:0.8"
         id="use43" />
    </g>
  </g>
  <g
     id="text_9"
     transform="translate(-45.039062,-41.418157)">
    <!-- 2.50 -->
    <g
       transform="matrix(0.1,0,0,-0.1,611.50355,399.07844)"
       id="g47">
      <use
         xlink:href="#DejaVuSans-32"
         id="use44" />
      <use
         xlink:href="#DejaVuSans-2e"
         transform="translate(63.623047)"
         id="use45" />
      <use
         xlink:href="#DejaVuSans-35"
         transform="translate(95.410156)"
         id="use46" />
      <use
         xlink:href="#DejaVuSans-30"
         transform="translate(159.0332)"
         id="use47" />
    </g>
  </g>
  <g
     transform="matrix(0.1,0,0,-0.1,267.41485,371.33841)"
     id="g68">
    <defs
       id="defs47">
      <path
         id="DejaVuSans-44"
         d="M 1259,4147 V 519 h 763 q 966,0 1414,437 448,438 448,1382 0,937 -448,1373 -448,436 -1414,436 z m -631,519 h 1297 q 1356,0 1990,-564 635,-564 635,-1764 Q 4550,1131 3912,565 3275,0 1925,0 H 628 Z"
         transform="scale(0.015625)" />
      <path
         id="DejaVuSans-69"
         d="m 603,3500 h 575 V 0 H 603 Z m 0,1363 h 575 V 4134 H 603 Z"
         transform="scale(0.015625)" />
      <path
         id="DejaVuSans-73"
         d="m 2834,3397 v -544 q -243,125 -506,187 -262,63 -544,63 -428,0 -642,-131 -214,-131 -214,-394 0,-200 153,-314 153,-114 616,-217 l 197,-44 q 612,-131 870,-370 258,-239 258,-667 0,-488 -386,-773 Q 2250,-91 1575,-91 1294,-91 989,-36 684,19 347,128 v 594 q 319,-166 628,-249 309,-82 613,-82 406,0 624,139 219,139 219,392 0,234 -158,359 -157,125 -692,241 l -200,47 q -534,112 -772,345 -237,233 -237,639 0,494 350,762 350,269 994,269 318,0 599,-47 282,-46 519,-140 z"
         transform="scale(0.015625)" />
      <path
         id="DejaVuSans-74"
         d="M 1172,4494 V 3500 H 2356 V 3053 H 1172 V 1153 q 0,-428 117,-550 117,-122 477,-122 h 590 V 0 H 1766 Q 1100,0 847,248 594,497 594,1153 V 3053 H 172 v 447 h 422 v 994 z"
         transform="scale(0.015625)" />
      <path
         id="DejaVuSans-61"
         d="m 2194,1759 q -697,0 -966,-159 -269,-159 -269,-544 0,-306 202,-486 202,-179 548,-179 479,0 768,339 289,339 289,901 v 128 z m 1147,238 V 0 H 2766 V 531 Q 2569,213 2275,61 1981,-91 1556,-91 q -537,0 -855,302 -317,302 -317,808 0,590 395,890 396,300 1180,300 h 807 v 57 q 0,397 -261,614 -261,217 -733,217 -300,0 -585,-72 -284,-72 -546,-216 v 532 q 315,122 612,182 297,61 578,61 760,0 1135,-394 375,-393 375,-1193 z"
         transform="scale(0.015625)" />
      <path
         id="DejaVuSans-6e"
         d="M 3513,2113 V 0 h -575 v 2094 q 0,497 -194,743 -194,247 -581,247 -466,0 -735,-297 -269,-296 -269,-809 V 0 H 581 v 3500 h 578 v -544 q 207,316 486,472 280,156 646,156 603,0 912,-373 310,-373 310,-1098 z"
         transform="scale(0.015625)" />
      <path
         id="DejaVuSans-63"
         d="m 3122,3366 v -538 q -244,135 -489,202 -245,67 -495,67 -560,0 -870,-355 -309,-354 -309,-995 0,-641 309,-996 310,-354 870,-354 250,0 495,67 245,67 489,202 V 134 Q 2881,22 2623,-34 2366,-91 2075,-91 1284,-91 818,406 353,903 353,1747 q 0,856 470,1346 471,491 1290,491 265,0 518,-55 253,-54 491,-163 z"
         transform="scale(0.015625)" />
      <path
         id="DejaVuSans-65"
         d="M 3597,1894 V 1613 H 953 q 38,-594 358,-905 320,-311 892,-311 331,0 642,81 311,81 618,244 V 178 Q 3153,47 2828,-22 2503,-91 2169,-91 1331,-91 842,396 353,884 353,1716 q 0,859 464,1363 464,505 1252,505 706,0 1117,-455 411,-454 411,-1235 z m -575,169 q -6,471 -264,752 -258,282 -683,282 -481,0 -770,-272 -289,-272 -333,-766 z"
         transform="scale(0.015625)" />
      <path
         id="DejaVuSans-20"
         transform="scale(0.015625)"
         d="" />
      <path
         id="DejaVuSans-66"
         d="m 2375,4863 v -479 h -550 q -309,0 -430,-125 -120,-125 -120,-450 v -309 h 947 V 3053 H 1275 V 0 H 697 V 3053 H 147 v 447 h 550 v 244 q 0,584 272,851 272,268 862,268 z"
         transform="scale(0.015625)" />
      <path
         id="DejaVuSans-72"
         d="m 2631,2963 q -97,56 -211,82 -114,27 -251,27 -488,0 -749,-317 -261,-317 -261,-911 V 0 H 581 v 3500 h 578 v -544 q 182,319 472,473 291,155 707,155 59,0 131,-8 72,-7 159,-23 z"
         transform="scale(0.015625)" />
      <path
         id="DejaVuSans-6f"
         d="m 1959,3097 q -462,0 -731,-361 -269,-361 -269,-989 0,-628 267,-989 268,-361 733,-361 460,0 728,362 269,363 269,988 0,622 -269,986 -268,364 -728,364 z m 0,487 q 750,0 1178,-488 429,-487 429,-1349 Q 3566,888 3137,398 2709,-91 1959,-91 1206,-91 779,398 353,888 353,1747 q 0,862 426,1349 427,488 1180,488 z"
         transform="scale(0.015625)" />
      <path
         id="DejaVuSans-6d"
         d="m 3328,2828 q 216,388 516,572 300,184 706,184 547,0 844,-383 297,-382 297,-1088 V 0 h -578 v 2094 q 0,503 -179,746 -178,244 -543,244 -447,0 -707,-297 -259,-296 -259,-809 V 0 h -578 v 2094 q 0,506 -178,748 -178,242 -550,242 -441,0 -701,-298 -259,-298 -259,-808 V 0 H 581 v 3500 h 578 v -544 q 197,322 472,475 275,153 653,153 382,0 649,-194 267,-193 395,-562 z"
         transform="scale(0.015625)" />
      <path
         id="DejaVuSans-53"
         d="m 3425,4513 v -616 q -359,172 -678,256 -319,85 -616,85 -515,0 -795,-200 -280,-200 -280,-569 0,-310 186,-468 186,-157 705,-254 l 381,-78 q 706,-135 1042,-474 336,-339 336,-907 0,-679 -455,-1029 -454,-350 -1332,-350 -331,0 -705,75 -373,75 -773,222 v 650 q 384,-215 753,-325 369,-109 725,-109 540,0 834,212 294,213 294,607 0,343 -211,537 -211,194 -692,291 l -385,75 q -706,140 -1022,440 -315,300 -315,835 0,619 436,975 436,356 1201,356 329,0 669,-60 341,-59 697,-177 z"
         transform="scale(0.015625)" />
      <path
         id="DejaVuSans-75"
         d="m 544,1381 v 2119 h 575 V 1403 q 0,-497 193,-746 194,-248 582,-248 465,0 735,297 271,297 271,810 v 1984 h 575 V 0 H 2900 V 538 Q 2691,219 2414,64 2138,-91 1772,-91 1169,-91 856,284 544,659 544,1381 Z m 1447,2203 z"
         transform="scale(0.015625)" />
      <path
         id="DejaVuSans-28"
         d="m 1984,4856 q -418,-718 -622,-1422 -203,-703 -203,-1425 0,-721 205,-1429 205,-708 620,-1424 h -500 q -468,735 -701,1444 -233,709 -233,1409 0,697 231,1403 232,707 703,1444 z"
         transform="scale(0.015625)" />
      <path
         id="DejaVuSans-29"
         d="m 513,4856 h 500 q 468,-737 701,-1444 233,-706 233,-1403 0,-700 -233,-1409 -233,-709 -701,-1444 H 513 q 415,716 620,1424 205,708 205,1429 0,722 -205,1425 -205,704 -620,1422 z"
         transform="scale(0.015625)" />
    </defs>
    <use
       xlink:href="#DejaVuSans-44"
       id="use48" />
    <use
       xlink:href="#DejaVuSans-69"
       transform="translate(77.001953)"
       id="use49" />
    <use
       xlink:href="#DejaVuSans-73"
       transform="translate(104.78516)"
       id="use50" />
    <use
       xlink:href="#DejaVuSans-74"
       transform="translate(156.88477)"
       id="use51" />
    <use
       xlink:href="#DejaVuSans-61"
       transform="translate(196.09375)"
       id="use52" />
    <use
       xlink:href="#DejaVuSans-6e"
       transform="translate(257.37305)"
       id="use53" />
    <use
       xlink:href="#DejaVuSans-63"
       transform="translate(320.75195)"
       id="use54" />
    <use
       xlink:href="#DejaVuSans-65"
       transform="translate(375.73242)"
       id="use55" />
    <use
       xlink:href="#DejaVuSans-20"
       transform="translate(437.25586)"
       id="use56" />
    <use
       xlink:href="#DejaVuSans-66"
       transform="translate(469.04297)"
       id="use57" />
    <use
       xlink:href="#DejaVuSans-72"
       transform="translate(504.24805)"
       id="use58" />
    <use
       xlink:href="#DejaVuSans-6f"
       transform="translate(543.11133)"
       id="use59" />
    <use
       xlink:href="#DejaVuSans-6d"
       transform="translate(604.29297)"
       id="use60" />
    <use
       xlink:href="#DejaVuSans-20"
       transform="translate(701.70508)"
       id="use61" />
    <use
       xlink:href="#DejaVuSans-53"
       transform="translate(733.49219)"
       id="use62" />
    <use
       xlink:href="#DejaVuSans-75"
       transform="translate(796.96875)"
       id="use63" />
    <use
       xlink:href="#DejaVuSans-6e"
       transform="translate(860.34766)"
       id="use64" />
    <use
       xlink:href="#DejaVuSans-20"
       transform="translate(923.72656)"
       id="use65" />
    <use
       xlink:href="#DejaVuSans-28"
       transform="translate(955.51367)"
       id="use66" />
    <use
       xlink:href="#DejaVuSans-6d"
       transform="translate(994.52734)"
       id="use67" />
    <use
       xlink:href="#DejaVuSans-29"
       transform="translate(1091.9395)"
       id="use68" />
  </g>
  <g
     transform="matrix(0.1,0,0,-0.1,577.72031,370.33841)"
     id="g72">
    <use
       xlink:href="#DejaVuSans-31"
       id="use69" />
    <use
       xlink:href="#DejaVuSans-65"
       transform="translate(63.623047)"
       id="use70" />
    <use
       xlink:href="#DejaVuSans-31"
       transform="translate(125.14648)"
       id="use71" />
    <use
       xlink:href="#DejaVuSans-31"
       transform="translate(188.76953)"
       id="use72" />
  </g>
  <g
     id="line2d_19"
     transform="translate(-45.039062,-41.418157)">
    <path
       d="M 90,362.78668 H 648"
       clip-path="url(#p252cb1f2c3)"
       style="fill:none;stroke:#b0b0b0;stroke-width:0.8;stroke-linecap:square"
       id="path72" />
  </g>
  <g
     id="line2d_20"
     transform="translate(-45.039062,-41.418157)">
    <defs
       id="defs72">
      <path
         id="mb61ed51969"
         d="M 0,0 H -3.5"
         style="stroke:#000000;stroke-width:0.8" />
    </defs>
    <g
       id="g73">
      <use
         xlink:href="#mb61ed51969"
         x="90"
         y="362.78668"
         style="stroke:#000000;stroke-width:0.8"
         id="use73" />
    </g>
  </g>
  <g
     id="text_12"
     transform="translate(-45.039062,-41.418157)">
    <!-- −1.5 -->
    <g
       transform="matrix(0.1,0,0,-0.1,58.717187,366.5859)"
       id="g77">
      <defs
         id="defs73">
        <path
           id="DejaVuSans-2212"
           d="M 678,2272 H 4684 V 1741 H 678 Z"
           transform="scale(0.015625)" />
      </defs>
      <use
         xlink:href="#DejaVuSans-2212"
         id="use74" />
      <use
         xlink:href="#DejaVuSans-31"
         transform="translate(83.789062)"
         id="use75" />
      <use
         xlink:href="#DejaVuSans-2e"
         transform="translate(147.41211)"
         id="use76" />
      <use
         xlink:href="#DejaVuSans-35"
         transform="translate(179.19922)"
         id="use77" />
    </g>
  </g>
  <g
     id="line2d_21"
     transform="translate(-45.039062,-41.418157)">
    <path
       d="M 90,324.38567 H 648"
       clip-path="url(#p252cb1f2c3)"
       style="fill:none;stroke:#b0b0b0;stroke-width:0.8;stroke-linecap:square"
       id="path77" />
  </g>
  <g
     id="line2d_22"
     transform="translate(-45.039062,-41.418157)">
    <g
       id="g78">
      <use
         xlink:href="#mb61ed51969"
         x="90"
         y="324.38568"
         style="stroke:#000000;stroke-width:0.8"
         id="use78" />
    </g>
  </g>
  <g
     id="text_13"
     transform="translate(-45.039062,-41.418157)">
    <!-- −1.0 -->
    <g
       transform="matrix(0.1,0,0,-0.1,58.717187,328.18489)"
       id="g82">
      <use
         xlink:href="#DejaVuSans-2212"
         id="use79" />
      <use
         xlink:href="#DejaVuSans-31"
         transform="translate(83.789062)"
         id="use80" />
      <use
         xlink:href="#DejaVuSans-2e"
         transform="translate(147.41211)"
         id="use81" />
      <use
         xlink:href="#DejaVuSans-30"
         transform="translate(179.19922)"
         id="use82" />
    </g>
  </g>
  <g
     id="line2d_23"
     transform="translate(-45.039062,-41.418157)">
    <path
       d="M 90,285.98466 H 648"
       clip-path="url(#p252cb1f2c3)"
       style="fill:none;stroke:#b0b0b0;stroke-width:0.8;stroke-linecap:square"
       id="path82" />
  </g>
  <g
     id="line2d_24"
     transform="translate(-45.039062,-41.418157)">
    <g
       id="g83">
      <use
         xlink:href="#mb61ed51969"
         x="90"
         y="285.98465"
         style="stroke:#000000;stroke-width:0.8"
         id="use83" />
    </g>
  </g>
  <g
     id="text_14"
     transform="translate(-45.039062,-41.418157)">
    <!-- −0.5 -->
    <g
       transform="matrix(0.1,0,0,-0.1,58.717187,289.78388)"
       id="g87">
      <use
         xlink:href="#DejaVuSans-2212"
         id="use84" />
      <use
         xlink:href="#DejaVuSans-30"
         transform="translate(83.789062)"
         id="use85" />
      <use
         xlink:href="#DejaVuSans-2e"
         transform="translate(147.41211)"
         id="use86" />
      <use
         xlink:href="#DejaVuSans-35"
         transform="translate(179.19922)"
         id="use87" />
    </g>
  </g>
  <g
     id="line2d_25"
     transform="translate(-45.039062,-41.418157)">
    <path
       d="M 90,247.58365 H 648"
       clip-path="url(#p252cb1f2c3)"
       style="fill:none;stroke:#b0b0b0;stroke-width:0.8;stroke-linecap:square"
       id="path87" />
  </g>
  <g
     id="line2d_26"
     transform="translate(-45.039062,-41.418157)">
    <g
       id="g88">
      <use
         xlink:href="#mb61ed51969"
         x="90"
         y="247.58365"
         style="stroke:#000000;stroke-width:0.8"
         id="use88" />
    </g>
  </g>
  <g
     id="text_15"
     transform="translate(-45.039062,-41.418157)">
    <!-- 0.0 -->
    <g
       transform="matrix(0.1,0,0,-0.1,67.096875,251.38287)"
       id="g91">
      <use
         xlink:href="#DejaVuSans-30"
         id="use89" />
      <use
         xlink:href="#DejaVuSans-2e"
         transform="translate(63.623047)"
         id="use90" />
      <use
         xlink:href="#DejaVuSans-30"
         transform="translate(95.410156)"
         id="use91" />
    </g>
  </g>
  <g
     id="line2d_27"
     transform="translate(-45.039062,-41.418157)">
    <path
       d="M 90,209.18263 H 648"
       clip-path="url(#p252cb1f2c3)"
       style="fill:none;stroke:#b0b0b0;stroke-width:0.8;stroke-linecap:square"
       id="path91" />
  </g>
  <g
     id="line2d_28"
     transform="translate(-45.039062,-41.418157)">
    <g
       id="g92">
      <use
         xlink:href="#mb61ed51969"
         x="90"
         y="209.18263"
         style="stroke:#000000;stroke-width:0.8"
         id="use92" />
    </g>
  </g>
  <g
     id="text_16"
     transform="translate(-45.039062,-41.418157)">
    <!-- 0.5 -->
    <g
       transform="matrix(0.1,0,0,-0.1,67.096875,212.98185)"
       id="g95">
      <use
         xlink:href="#DejaVuSans-30"
         id="use93" />
      <use
         xlink:href="#DejaVuSans-2e"
         transform="translate(63.623047)"
         id="use94" />
      <use
         xlink:href="#DejaVuSans-35"
         transform="translate(95.410156)"
         id="use95" />
    </g>
  </g>
  <g
     id="line2d_29"
     transform="translate(-45.039062,-41.418157)">
    <path
       d="M 90,170.78162 H 648"
       clip-path="url(#p252cb1f2c3)"
       style="fill:none;stroke:#b0b0b0;stroke-width:0.8;stroke-linecap:square"
       id="path95" />
  </g>
  <g
     id="line2d_30"
     transform="translate(-45.039062,-41.418157)">
    <g
       id="g96">
      <use
         xlink:href="#mb61ed51969"
         x="90"
         y="170.78162"
         style="stroke:#000000;stroke-width:0.8"
         id="use96" />
    </g>
  </g>
  <g
     id="text_17"
     transform="translate(-45.039062,-41.418157)">
    <!-- 1.0 -->
    <g
       transform="matrix(0.1,0,0,-0.1,67.096875,174.58084)"
       id="g99">
      <use
         xlink:href="#DejaVuSans-31"
         id="use97" />
      <use
         xlink:href="#DejaVuSans-2e"
         transform="translate(63.623047)"
         id="use98" />
      <use
         xlink:href="#DejaVuSans-30"
         transform="translate(95.410156)"
         id="use99" />
    </g>
  </g>
  <g
     id="line2d_31"
     transform="translate(-45.039062,-41.418157)">
    <path
       d="M 90,132.38061 H 648"
       clip-path="url(#p252cb1f2c3)"
       style="fill:none;stroke:#b0b0b0;stroke-width:0.8;stroke-linecap:square"
       id="path99" />
  </g>
  <g
     id="line2d_32"
     transform="translate(-45.039062,-41.418157)">
    <g
       id="g100">
      <use
         xlink:href="#mb61ed51969"
         x="90"
         y="132.38062"
         style="stroke:#000000;stroke-width:0.8"
         id="use100" />
    </g>
  </g>
  <g
     id="text_18"
     transform="translate(-45.039062,-41.418157)">
    <!-- 1.5 -->
    <g
       transform="matrix(0.1,0,0,-0.1,67.096875,136.17983)"
       id="g103">
      <use
         xlink:href="#DejaVuSans-31"
         id="use101" />
      <use
         xlink:href="#DejaVuSans-2e"
         transform="translate(63.623047)"
         id="use102" />
      <use
         xlink:href="#DejaVuSans-35"
         transform="translate(95.410156)"
         id="use103" />
    </g>
  </g>
  <g
     id="line2d_33"
     transform="translate(-45.039062,-41.418157)">
    <path
       d="M 90,93.9796 H 648"
       clip-path="url(#p252cb1f2c3)"
       style="fill:none;stroke:#b0b0b0;stroke-width:0.8;stroke-linecap:square"
       id="path103" />
  </g>
  <g
     id="line2d_34"
     transform="translate(-45.039062,-41.418157)">
    <g
       id="g104">
      <use
         xlink:href="#mb61ed51969"
         x="90"
         y="93.979599"
         style="stroke:#000000;stroke-width:0.8"
         id="use104" />
    </g>
  </g>
  <g
     id="text_19"
     transform="translate(-45.039062,-41.418157)">
    <!-- 2.0 -->
    <g
       transform="matrix(0.1,0,0,-0.1,67.096875,97.778819)"
       id="g107">
      <use
         xlink:href="#DejaVuSans-32"
         id="use105" />
      <use
         xlink:href="#DejaVuSans-2e"
         transform="translate(63.623047)"
         id="use106" />
      <use
         xlink:href="#DejaVuSans-30"
         transform="translate(95.410156)"
         id="use107" />
    </g>
  </g>
  <g
     id="line2d_35"
     transform="translate(-45.039062,-41.418157)">
    <path
       d="M 90,55.578588 H 648"
       clip-path="url(#p252cb1f2c3)"
       style="fill:none;stroke:#b0b0b0;stroke-width:0.8;stroke-linecap:square"
       id="path107" />
  </g>
  <g
     id="line2d_36"
     transform="translate(-45.039062,-41.418157)">
    <g
       id="g108">
      <use
         xlink:href="#mb61ed51969"
         x="90"
         y="55.578587"
         style="stroke:#000000;stroke-width:0.8"
         id="use108" />
    </g>
  </g>
  <g
     id="text_20"
     transform="translate(-45.039062,-41.418157)">
    <!-- 2.5 -->
    <g
       transform="matrix(0.1,0,0,-0.1,67.096875,59.377807)"
       id="g111">
      <use
         xlink:href="#DejaVuSans-32"
         id="use109" />
      <use
         xlink:href="#DejaVuSans-2e"
         transform="translate(63.623047)"
         id="use110" />
      <use
         xlink:href="#DejaVuSans-35"
         transform="translate(95.410156)"
         id="use111" />
    </g>
  </g>
  <g
     transform="matrix(0,-0.1,-0.1,0,7.5984374,214.51216)"
     id="g126">
    <defs
       id="defs111">
      <path
         id="DejaVuSans-45"
         d="M 628,4666 H 3578 V 4134 H 1259 V 2753 H 3481 V 2222 H 1259 V 531 H 3634 V 0 H 628 Z"
         transform="scale(0.015625)" />
      <path
         id="DejaVuSans-67"
         d="m 2906,1791 q 0,625 -258,968 -257,344 -723,344 -462,0 -720,-344 -258,-343 -258,-968 0,-622 258,-966 258,-344 720,-344 466,0 723,344 258,344 258,966 z M 3481,434 q 0,-893 -397,-1329 -396,-436 -1215,-436 -303,0 -572,45 -269,45 -522,139 v 559 q 253,-137 500,-202 247,-66 503,-66 566,0 847,295 281,295 281,892 V 616 Q 2728,306 2450,153 2172,0 1784,0 1141,0 747,490 353,981 353,1791 q 0,812 394,1302 394,491 1037,491 388,0 666,-153 278,-153 456,-462 v 531 h 575 z"
         transform="scale(0.015625)" />
      <path
         id="DejaVuSans-79"
         d="m 2059,-325 q -243,-625 -475,-815 -231,-191 -618,-191 H 506 v 481 h 338 q 237,0 368,113 132,112 291,531 L 1606,56 191,3500 H 800 L 1894,763 2988,3500 h 609 z"
         transform="scale(0.015625)" />
      <path
         id="DejaVuSans-4a"
         d="m 628,4666 h 631 V 325 q 0,-844 -320,-1225 -320,-381 -1030,-381 h -240 v 531 h 197 q 418,0 590,235 172,234 172,840 z"
         transform="scale(0.015625)" />
      <path
         id="DejaVuSans-6c"
         d="m 603,4863 h 575 V 0 H 603 Z"
         transform="scale(0.015625)" />
    </defs>
    <use
       xlink:href="#DejaVuSans-45"
       id="use112" />
    <use
       xlink:href="#DejaVuSans-6e"
       transform="translate(63.183594)"
       id="use113" />
    <use
       xlink:href="#DejaVuSans-65"
       transform="translate(126.5625)"
       id="use114" />
    <use
       xlink:href="#DejaVuSans-72"
       transform="translate(188.08594)"
       id="use115" />
    <use
       xlink:href="#DejaVuSans-67"
       transform="translate(227.44922)"
       id="use116" />
    <use
       xlink:href="#DejaVuSans-79"
       transform="translate(290.92578)"
       id="use117" />
    <use
       xlink:href="#DejaVuSans-20"
       transform="translate(350.10547)"
       id="use118" />
    <use
       xlink:href="#DejaVuSans-28"
       transform="translate(381.89258)"
       id="use119" />
    <use
       xlink:href="#DejaVuSans-4a"
       transform="translate(420.90625)"
       id="use120" />
    <use
       xlink:href="#DejaVuSans-6f"
       transform="translate(450.39844)"
       id="use121" />
    <use
       xlink:href="#DejaVuSans-75"
       transform="translate(511.58008)"
       id="use122" />
    <use
       xlink:href="#DejaVuSans-6c"
       transform="translate(574.95898)"
       id="use123" />
    <use
       xlink:href="#DejaVuSans-65"
       transform="translate(602.74219)"
       id="use124" />
    <use
       xlink:href="#DejaVuSans-73"
       transform="translate(664.26562)"
       id="use125" />
    <use
       xlink:href="#DejaVuSans-29"
       transform="translate(716.36523)"
       id="use126" />
  </g>
  <g
     transform="matrix(0.1,0,0,-0.1,44.960937,7.4218432)"
     id="g130">
    <defs
       id="defs126">
      <path
         id="DejaVuSans-33"
         d="m 2597,2516 q 453,-97 707,-404 255,-306 255,-756 0,-690 -475,-1069 -475,-378 -1350,-378 -293,0 -604,58 -311,58 -642,174 v 609 q 262,-153 574,-231 313,-78 654,-78 593,0 904,234 311,234 311,681 0,413 -289,645 -289,233 -804,233 h -544 v 519 h 569 q 465,0 712,186 247,186 247,536 0,359 -255,551 -254,193 -729,193 -260,0 -557,-57 -297,-56 -653,-174 v 562 q 360,100 674,150 314,50 592,50 719,0 1137,-327 419,-326 419,-882 0,-388 -222,-655 -222,-267 -631,-370 z"
         transform="scale(0.015625)" />
      <path
         id="DejaVuSans-34"
         d="M 2419,4116 825,1625 h 1594 z m -166,550 h 794 V 1625 h 666 V 1100 H 3047 V 0 H 2419 V 1100 H 313 v 609 z"
         transform="scale(0.015625)" />
    </defs>
    <use
       xlink:href="#DejaVuSans-31"
       id="use127" />
    <use
       xlink:href="#DejaVuSans-65"
       transform="translate(63.623047)"
       id="use128" />
    <use
       xlink:href="#DejaVuSans-33"
       transform="translate(125.14648)"
       id="use129" />
    <use
       xlink:href="#DejaVuSans-34"
       transform="translate(188.76953)"
       id="use130" />
  </g>
  <path
     d="m 115.36364,188.73635 3.06903,5.55748 3.12483,5.2021 3.19078,4.88293 3.26179,4.58715 3.33789,4.31203 3.41905,4.05516 3.51036,3.81984 3.61182,3.60254 3.72342,3.40035 3.84517,3.2108 3.98213,3.03557 4.13431,2.87167 4.30172,2.71662 4.48433,2.56847 4.69232,2.43061 4.92567,2.29985 5.17931,2.17161 5.46845,2.05017 5.78804,1.93083 6.14821,1.81471 6.55403,1.70061 7.01565,1.58828 7.53308,1.47498 8.13166,1.36284 8.81649,1.2491 9.60784,1.1334 10.53616,1.01547 11.63188,0.89388 12.94573,0.76768 14.54872,0.63541 16.54233,0.49485 19.09901,0.34309 22.4927,0.17491 27.24589,-0.0186 34.50504,-0.25643 47.45076,-0.59058 83.60953,-1.29995 75.80759,-1.21181 v 0"
     clip-path="url(#p252cb1f2c3)"
     style="fill:none;stroke:#000000;stroke-width:1.5;stroke-linecap:square"
     id="path130"
     transform="translate(-45.039062,-41.418157)" />
  <path
     d="m 115.36364,66.96 3.20599,8.797433 3.2618,8.307014 3.31759,7.846109 3.37847,7.423668 3.43935,7.024996 3.50529,6.65811 3.57631,6.31925 3.6524,6.00512 3.73356,5.7129 3.8198,5.44016 3.91111,5.18477 4.0075,4.94492 4.11402,4.72462 4.2307,4.52094 4.35752,4.33137 4.4894,4.14926 4.63652,3.98253 4.79378,3.82441 4.96625,3.67727 5.15394,3.53901 5.35685,3.40787 5.57499,3.2824 5.81847,3.16675 6.07719,3.05344 6.36634,2.94865 6.67577,2.84567 7.02073,2.74947 7.39104,2.65415 7.80193,2.56379 8.25341,2.47621 8.74547,2.38978 9.29333,2.30686 9.89191,2.22422 10.56153,2.14456 11.30215,2.0656 12.12394,1.98725 13.04718,1.91062 14.08203,1.83461 15.2437,1.75883 16.56262,1.68412 18.05909,1.60958 19.76862,1.53539 21.73685,1.46173 24.01453,1.38833 26.67267,1.3153 29.78735,1.24209 33.48541,1.16931 37.91394,1.09671 29.09238,0.71155 v 0"
     clip-path="url(#p252cb1f2c3)"
     style="fill:none;stroke:#ff0000;stroke-width:1.5;stroke-linecap:square"
     id="path131"
     transform="translate(-45.039062,-41.418157)" />
  <path
     d="m 115.36364,369.36 4.59086,-4.25434 4.76334,-4.11094 4.95103,-3.9788 5.14887,-3.85208 5.367,-3.73682 5.60035,-3.62732 5.84891,-3.52237 6.11777,-3.42371 6.41199,-3.33235 6.7265,-3.24393 7.06638,-3.15967 7.4367,-3.08027 7.83744,-3.00401 8.2737,-2.93131 8.7404,-2.859 9.25274,-2.7908 9.80568,-2.72345 10.40934,-2.65843 11.0688,-2.59531 11.78914,-2.53363 12.57542,-2.47286 13.43271,-2.41247 14.37626,-2.35356 15.4111,-2.29512 16.5474,-2.23696 17.80038,-2.17939 19.19031,-2.12284 20.72738,-2.06638 22.43689,-2.01044 24.33412,-1.95424 26.45961,-1.89882 28.83874,-1.84344 31.5121,-1.78824 34.52025,-1.73287 37.92916,-1.6779 23.97395,-0.95701 v 0"
     clip-path="url(#p252cb1f2c3)"
     style="fill:none;stroke:#0000ff;stroke-width:1.5;stroke-linecap:square"
     id="path132"
     transform="translate(-45.039062,-41.418157)" />
  <path
     d="M 44.960937,343.06185 V 10.421843"
     style="fill:none;stroke:#000000;stroke-width:0.8;stroke-linecap:square;stroke-linejoin:miter"
     id="path133" />
  <path
     d="M 602.96094,343.06185 V 10.421843"
     style="fill:none;stroke:#000000;stroke-width:0.8;stroke-linecap:square;stroke-linejoin:miter"
     id="path134" />
  <path
     d="M 44.960937,343.06185 H 602.96094"
     style="fill:none;stroke:#000000;stroke-width:0.8;stroke-linecap:square;stroke-linejoin:miter"
     id="path135" />
  <path
     d="M 44.960937,10.421843 H 602.96094"
     style="fill:none;stroke:#000000;stroke-width:0.8;stroke-linecap:square;stroke-linejoin:miter"
     id="path136" />
  <path
     d="m 465.8125,23.520283 h 10 10"
     style="fill:none;stroke:#000000;stroke-width:1.5;stroke-linecap:square"
     id="path138" />
  <g
     transform="matrix(0.1,0,0,-0.1,493.8125,27.020283)"
     id="g149">
    <defs
       id="defs138">
      <path
         id="DejaVuSans-54"
         d="M -19,4666 H 3928 V 4134 H 2272 V 0 H 1638 V 4134 H -19 Z"
         transform="scale(0.015625)" />
    </defs>
    <use
       xlink:href="#DejaVuSans-54"
       id="use138" />
    <use
       xlink:href="#DejaVuSans-6f"
       transform="translate(44.083984)"
       id="use139" />
    <use
       xlink:href="#DejaVuSans-74"
       transform="translate(105.26563)"
       id="use140" />
    <use
       xlink:href="#DejaVuSans-61"
       transform="translate(144.47461)"
       id="use141" />
    <use
       xlink:href="#DejaVuSans-6c"
       transform="translate(205.75391)"
       id="use142" />
    <use
       xlink:href="#DejaVuSans-20"
       transform="translate(233.53711)"
       id="use143" />
    <use
       xlink:href="#DejaVuSans-45"
       transform="translate(265.32422)"
       id="use144" />
    <use
       xlink:href="#DejaVuSans-6e"
       transform="translate(328.50781)"
       id="use145" />
    <use
       xlink:href="#DejaVuSans-65"
       transform="translate(391.88672)"
       id="use146" />
    <use
       xlink:href="#DejaVuSans-72"
       transform="translate(453.41016)"
       id="use147" />
    <use
       xlink:href="#DejaVuSans-67"
       transform="translate(492.77344)"
       id="use148" />
    <use
       xlink:href="#DejaVuSans-79"
       transform="translate(556.25)"
       id="use149" />
  </g>
  <path
     d="m 465.8125,38.198403 h 10 10"
     style="fill:none;stroke:#ff0000;stroke-width:1.5;stroke-linecap:square"
     id="path149" />
  <g
     transform="matrix(0.1,0,0,-0.1,493.8125,41.698403)"
     id="g165">
    <defs
       id="defs149">
      <path
         id="DejaVuSans-41"
         d="M 2188,4044 1331,1722 h 1716 z m -357,622 h 716 L 4325,0 H 3669 L 3244,1197 H 1141 L 716,0 H 50 Z"
         transform="scale(0.015625)" />
    </defs>
    <use
       xlink:href="#DejaVuSans-41"
       id="use150" />
    <use
       xlink:href="#DejaVuSans-6e"
       transform="translate(68.408203)"
       id="use151" />
    <use
       xlink:href="#DejaVuSans-67"
       transform="translate(131.78711)"
       id="use152" />
    <use
       xlink:href="#DejaVuSans-75"
       transform="translate(195.26367)"
       id="use153" />
    <use
       xlink:href="#DejaVuSans-6c"
       transform="translate(258.64258)"
       id="use154" />
    <use
       xlink:href="#DejaVuSans-61"
       transform="translate(286.42578)"
       id="use155" />
    <use
       xlink:href="#DejaVuSans-72"
       transform="translate(347.70508)"
       id="use156" />
    <use
       xlink:href="#DejaVuSans-20"
       transform="translate(388.81836)"
       id="use157" />
    <use
       xlink:href="#DejaVuSans-6d"
       transform="translate(420.60547)"
       id="use158" />
    <use
       xlink:href="#DejaVuSans-6f"
       transform="translate(518.01758)"
       id="use159" />
    <use
       xlink:href="#DejaVuSans-6d"
       transform="translate(579.19922)"
       id="use160" />
    <use
       xlink:href="#DejaVuSans-65"
       transform="translate(676.61133)"
       id="use161" />
    <use
       xlink:href="#DejaVuSans-6e"
       transform="translate(738.13477)"
       id="use162" />
    <use
       xlink:href="#DejaVuSans-74"
       transform="translate(801.51367)"
       id="use163" />
    <use
       xlink:href="#DejaVuSans-75"
       transform="translate(840.72266)"
       id="use164" />
    <use
       xlink:href="#DejaVuSans-6d"
       transform="translate(904.10156)"
       id="use165" />
  </g>
  <path
     d="m 465.8125,52.876533 h 10 10"
     style="fill:none;stroke:#0000ff;stroke-width:1.5;stroke-linecap:square"
     id="path165" />
  <g
     transform="matrix(0.1,0,0,-0.1,493.8125,56.376533)"
     id="g172">
    <defs
       id="defs165">
      <path
         id="DejaVuSans-76"
         d="M 191,3500 H 800 L 1894,563 2988,3500 h 609 L 2284,0 h -781 z"
         transform="scale(0.015625)" />
    </defs>
    <use
       xlink:href="#DejaVuSans-67"
       id="use166" />
    <use
       xlink:href="#DejaVuSans-72"
       transform="translate(63.476562)"
       id="use167" />
    <use
       xlink:href="#DejaVuSans-61"
       transform="translate(104.58984)"
       id="use168" />
    <use
       xlink:href="#DejaVuSans-76"
       transform="translate(165.86914)"
       id="use169" />
    <use
       xlink:href="#DejaVuSans-69"
       transform="translate(225.04883)"
       id="use170" />
    <use
       xlink:href="#DejaVuSans-74"
       transform="translate(252.83203)"
       id="use171" />
    <use
       xlink:href="#DejaVuSans-79"
       transform="translate(292.04102)"
       id="use172" />
  </g>
  <defs
     id="defs172">
    <clipPath
       id="p252cb1f2c3">
      <rect
         x="90"
         y="51.84"
         width="558"
         height="332.64001"
         id="rect172" />
    </clipPath>
  </defs>
</svg>
