<?xml version="1.0" encoding="UTF-8" standalone="no"?>
<!-- Created with Inkscape (http://www.inkscape.org/) -->

<svg
   width="219.35884mm"
   height="129.26671mm"
   viewBox="0 0 219.35884 129.26671"
   version="1.1"
   id="svg1"
   xml:space="preserve"
   inkscape:version="1.4 (86a8ad7, 2024-10-11)"
   sodipodi:docname="ch6_orbitalspeed.svg"
   xmlns:inkscape="http://www.inkscape.org/namespaces/inkscape"
   xmlns:sodipodi="http://sodipodi.sourceforge.net/DTD/sodipodi-0.dtd"
   xmlns:xlink="http://www.w3.org/1999/xlink"
   xmlns="http://www.w3.org/2000/svg"
   xmlns:svg="http://www.w3.org/2000/svg"><sodipodi:namedview
     id="namedview1"
     pagecolor="#ffffff"
     bordercolor="#000000"
     borderopacity="0.25"
     inkscape:showpageshadow="2"
     inkscape:pageopacity="0.0"
     inkscape:pagecheckerboard="0"
     inkscape:deskcolor="#d1d1d1"
     inkscape:document-units="mm"
     inkscape:zoom="3.444812"
     inkscape:cx="400.89271"
     inkscape:cy="428.32526"
     inkscape:window-width="1920"
     inkscape:window-height="974"
     inkscape:window-x="-11"
     inkscape:window-y="-11"
     inkscape:window-maximized="1"
     inkscape:current-layer="layer1"
     showgrid="false"><inkscape:page
       x="-5.8302788e-13"
       y="-1.75698e-12"
       width="219.35883"
       height="129.26672"
       id="page2"
       margin="0"
       bleed="0" /></sodipodi:namedview><defs
     id="defs1"><style
       type="text/css"
       id="style1">*{stroke-linejoin: round; stroke-linecap: butt}</style><style
       type="text/css"
       id="style1-4">*{stroke-linejoin: round; stroke-linecap: butt}</style><path
       id="DejaVuSans-79-8"
       d="m 2059,-325 q -243,-625 -475,-815 -231,-191 -618,-191 H 506 v 481 h 338 q 237,0 368,113 132,112 291,531 L 1606,56 191,3500 H 800 L 1894,763 2988,3500 h 609 z"
       transform="scale(0.015625)" /><style
       type="text/css"
       id="style1-1">*{stroke-linejoin: round; stroke-linecap: butt}</style><style
       type="text/css"
       id="style1-9">*{stroke-linejoin: round; stroke-linecap: butt}</style><style
       type="text/css"
       id="style1-4-4">*{stroke-linejoin: round; stroke-linecap: butt}</style><style
       type="text/css"
       id="style1-1-8">*{stroke-linejoin: round; stroke-linecap: butt}</style><clipPath
       id="p1a98385a48"><rect
         x="90"
         y="51.84"
         width="558"
         height="332.64001"
         id="rect110" /></clipPath></defs><g
     inkscape:label="Layer 1"
     inkscape:groupmode="layer"
     id="layer1"
     transform="translate(-816.61698,-936.31884)"><path
       d="m 115.36364,67.111147 1.01658,23.498351 1.01657,19.222722 1.01658,16.10399 1.01658,13.74656 1.01658,11.91334 1.01658,10.45441 2.03315,17.5658 2.03316,14.26785 2.03316,11.88756 2.03316,10.10309 2.03315,8.72462 2.03316,7.63354 2.03316,6.75244 2.03316,6.02875 2.03315,5.42575 2.03316,4.91698 2.03316,4.48307 3.04973,6.03976 3.04974,5.35573 3.04973,4.79175 3.04974,4.3203 3.04974,3.9214 3.04973,3.58033 3.04974,3.286 4.06631,3.9886 4.06632,3.60557 4.06631,3.28017 4.06632,3.00093 4.06631,2.7592 5.08289,3.15547 5.0829,2.87448 5.08289,2.63287 6.09947,2.88524 6.09947,2.62805 6.09947,2.40694 7.11605,2.56752 7.11605,2.34418 8.13263,2.4446 9.14921,2.49476 9.14921,2.26438 10.16578,2.2862 11.18237,2.27732 12.19894,2.24427 13.21552,2.19294 14.23211,2.12833 15.24867,2.05464 17.28184,2.0921 18.29842,1.98619 20.33157,1.97694 22.36473,1.94244 24.39788,1.88948 26.43105,1.82378 29.48078,1.80881 32.53051,1.76964 36.59683,1.75932 39.64657,1.68102 19.31499,0.74756 v 0"
       clip-path="url(#p1a98385a48)"
       style="fill:none;stroke:#00a6d6;stroke-width:1.5;stroke-linecap:square;stroke-linejoin:round"
       id="path3-8"
       transform="matrix(0.35277777,0,0,0.35277777,796.65139,919.24615)"
       inkscape:export-filename="orbitalspeed.png"
       inkscape:export-xdpi="361.08325"
       inkscape:export-ydpi="361.08325" /><path
       id="use3-5-9"
       d="m 835.01526,1054.8822 v 1.2347"
       style="stroke:#000000;stroke-width:0.282222;stroke-linecap:butt;stroke-linejoin:round" /><path
       id="use4-7"
       d="m 835.01416,1057.6895 q -0.26844,0 -0.40404,0.2646 -0.13505,0.264 -0.13505,0.7948 0,0.5286 0.13505,0.7932 0.1356,0.2646 0.40404,0.2646 0.27064,0 0.40569,-0.2646 0.1356,-0.2646 0.1356,-0.7932 0,-0.5308 -0.1356,-0.7948 -0.13505,-0.2646 -0.40569,-0.2646 z m 0,-0.2756 q 0.4327,0 0.6609,0.3423 0.22821,0.3417 0.22821,0.9927 0,0.6494 -0.22821,0.9917 -0.2282,0.3417 -0.6609,0.3417 -0.43216,0 -0.66036,-0.3417 -0.2282,-0.3423 -0.2282,-0.9917 0,-0.651 0.2282,-0.9927 0.2282,-0.3423 0.66036,-0.3423 z"
       style="stroke-width:0.000551215;stroke-linecap:butt;stroke-linejoin:round" /><path
       id="use5-1-24"
       d="m 865.16066,1054.8822 v 1.2347"
       style="stroke:#000000;stroke-width:0.282222;stroke-linecap:butt;stroke-linejoin:round" /><path
       id="use6-5-6"
       d="m 864.41927,1057.4602 h 1.36591 v 0.2932 h -1.04731 v 0.6301 q 0.0755,-0.026 0.15104,-0.039 0.0761,-0.013 0.15213,-0.013 0.4305,0 0.68186,0.2359 0.2519,0.236 0.2519,0.6389 0,0.4151 -0.25852,0.6455 -0.25852,0.2298 -0.72871,0.2298 -0.16205,0 -0.33017,-0.028 -0.16757,-0.028 -0.34672,-0.083 v -0.35 q 0.1549,0.084 0.32026,0.1256 0.16537,0.041 0.34947,0.041 0.29821,0 0.47184,-0.1566 0.17418,-0.1565 0.17418,-0.4255 0,-0.2684 -0.17418,-0.425 -0.17363,-0.1571 -0.47184,-0.1571 -0.13946,0 -0.27836,0.031 -0.13836,0.031 -0.28278,0.097 z"
       style="stroke-width:0.000551215;stroke-linecap:butt;stroke-linejoin:round" /><path
       id="use7-7-1"
       d="m 895.30605,1054.8822 v 1.2347"
       style="stroke:#000000;stroke-width:0.282222;stroke-linecap:butt;stroke-linejoin:round" /><path
       id="use8-1-8"
       d="m 893.49915,1059.7395 h 0.56833 v -1.9624 l -0.61849,0.1241 v -0.317 l 0.61517,-0.124 h 0.34781 v 2.2793 h 0.56832 v 0.2927 h -1.48114 z"
       style="stroke-width:0.000551215;stroke-linecap:butt;stroke-linejoin:round" /><path
       id="use9-4"
       d="m 896.42714,1057.6895 q -0.26843,0 -0.40404,0.2646 -0.13504,0.264 -0.13504,0.7948 0,0.5286 0.13504,0.7932 0.13561,0.2646 0.40404,0.2646 0.27065,0 0.40569,-0.2646 0.13561,-0.2646 0.13561,-0.7932 0,-0.5308 -0.13561,-0.7948 -0.13504,-0.2646 -0.40569,-0.2646 z m 0,-0.2756 q 0.43272,0 0.66093,0.3423 0.22818,0.3417 0.22818,0.9927 0,0.6494 -0.22818,0.9917 -0.22821,0.3417 -0.66093,0.3417 -0.43215,0 -0.66037,-0.3417 -0.22817,-0.3423 -0.22817,-0.9917 0,-0.651 0.22817,-0.9927 0.22822,-0.3423 0.66037,-0.3423 z"
       style="stroke-width:0.000551215;stroke-linecap:butt;stroke-linejoin:round" /><path
       id="use10-3-2"
       d="m 925.45147,1054.8822 v 1.2347"
       style="stroke:#000000;stroke-width:0.282222;stroke-linecap:butt;stroke-linejoin:round" /><path
       id="use11-2"
       d="m 923.64458,1059.7395 h 0.56832 v -1.9624 l -0.61849,0.1241 v -0.317 l 0.61518,-0.124 h 0.3478 v 2.2793 h 0.56833 v 0.2927 h -1.48114 z"
       style="stroke-width:0.000551215;stroke-linecap:butt;stroke-linejoin:round" /><path
       id="use12-1"
       d="m 925.8323,1057.4602 h 1.36592 v 0.2932 h -1.04733 v 0.6301 q 0.0755,-0.026 0.15102,-0.039 0.0761,-0.013 0.15216,-0.013 0.43049,0 0.68185,0.2359 0.25191,0.236 0.25191,0.6389 0,0.4151 -0.25855,0.6455 -0.25851,0.2298 -0.72869,0.2298 -0.16204,0 -0.33017,-0.028 -0.16757,-0.028 -0.34671,-0.083 v -0.35 q 0.15487,0.084 0.32025,0.1256 0.16535,0.041 0.34946,0.041 0.29821,0 0.47184,-0.1566 0.17421,-0.1565 0.17421,-0.4255 0,-0.2684 -0.17421,-0.425 -0.17363,-0.1571 -0.47184,-0.1571 -0.13945,0 -0.27837,0.031 -0.13833,0.031 -0.28275,0.097 z"
       style="stroke-width:0.000551215;stroke-linecap:butt;stroke-linejoin:round" /><path
       id="use13-8"
       d="m 955.59686,1054.8822 v 1.2347"
       style="stroke:#000000;stroke-width:0.282222;stroke-linecap:butt;stroke-linejoin:round" /><path
       id="use14-6-1"
       d="m 954.02922,1059.7395 h 1.2143 v 0.2927 h -1.63269 v -0.2927 q 0.19791,-0.2051 0.53964,-0.5502 0.3423,-0.3456 0.42997,-0.4459 0.167,-0.1874 0.23315,-0.3175 0.0667,-0.1301 0.0667,-0.2558 0,-0.205 -0.1439,-0.334 -0.14386,-0.1295 -0.37483,-0.1295 -0.16368,0 -0.34558,0.057 -0.18136,0.057 -0.38805,0.1726 v -0.3517 q 0.21001,-0.084 0.39246,-0.1273 0.18299,-0.043 0.33458,-0.043 0.39962,0 0.63719,0.2001 0.23759,0.1995 0.23759,0.5335 0,0.1588 -0.0596,0.301 -0.059,0.1417 -0.21607,0.3346 -0.043,0.05 -0.27394,0.2888 -0.23043,0.2387 -0.65098,0.6676 z"
       style="stroke-width:0.000551215;stroke-linecap:butt;stroke-linejoin:round" /><path
       id="use15-1"
       d="m 956.71795,1057.6895 q -0.26842,0 -0.40403,0.2646 -0.13505,0.264 -0.13505,0.7948 0,0.5286 0.13505,0.7932 0.13561,0.2646 0.40403,0.2646 0.27066,0 0.4057,-0.2646 0.13561,-0.2646 0.13561,-0.7932 0,-0.5308 -0.13561,-0.7948 -0.13504,-0.2646 -0.4057,-0.2646 z m 0,-0.2756 q 0.43272,0 0.66093,0.3423 0.22818,0.3417 0.22818,0.9927 0,0.6494 -0.22818,0.9917 -0.22821,0.3417 -0.66093,0.3417 -0.43215,0 -0.66033,-0.3417 -0.22821,-0.3423 -0.22821,-0.9917 0,-0.651 0.22821,-0.9927 0.22818,-0.3423 0.66033,-0.3423 z"
       style="stroke-width:0.000551215;stroke-linecap:butt;stroke-linejoin:round" /><path
       id="use16-9"
       d="m 985.74225,1054.8822 v 1.2347"
       style="stroke:#000000;stroke-width:0.282222;stroke-linecap:butt;stroke-linejoin:round" /><path
       id="use17-7"
       d="m 984.17461,1059.7395 h 1.2143 v 0.2927 h -1.63269 v -0.2927 q 0.19791,-0.2051 0.53964,-0.5502 0.3423,-0.3456 0.42997,-0.4459 0.167,-0.1874 0.23315,-0.3175 0.0667,-0.1301 0.0667,-0.2558 0,-0.205 -0.1439,-0.334 -0.14386,-0.1295 -0.37483,-0.1295 -0.16368,0 -0.34558,0.057 -0.18136,0.057 -0.38805,0.1726 v -0.3517 q 0.21001,-0.084 0.39246,-0.1273 0.18299,-0.043 0.33458,-0.043 0.39962,0 0.63718,0.2001 0.2376,0.1995 0.2376,0.5335 0,0.1588 -0.0595,0.301 -0.059,0.1417 -0.21607,0.3346 -0.043,0.05 -0.27394,0.2888 -0.23043,0.2387 -0.65098,0.6676 z"
       style="stroke-width:0.000551215;stroke-linecap:butt;stroke-linejoin:round" /><path
       id="use18-9"
       d="m 986.12307,1057.4602 h 1.36593 v 0.2932 h -1.04733 v 0.6301 q 0.0755,-0.026 0.15102,-0.039 0.0761,-0.013 0.15216,-0.013 0.43049,0 0.68184,0.2359 0.25192,0.236 0.25192,0.6389 0,0.4151 -0.25851,0.6455 -0.25855,0.2298 -0.72874,0.2298 -0.16203,0 -0.33016,-0.028 -0.16757,-0.028 -0.34671,-0.083 v -0.35 q 0.15487,0.084 0.32025,0.1256 0.16535,0.041 0.34946,0.041 0.29821,0 0.47184,-0.1566 0.17421,-0.1565 0.17421,-0.4255 0,-0.2684 -0.17421,-0.425 -0.17363,-0.1571 -0.47184,-0.1571 -0.13945,0 -0.27834,0.031 -0.13836,0.031 -0.28279,0.097 z"
       style="stroke-width:0.000551215;stroke-linecap:butt;stroke-linejoin:round" /><path
       id="use19-4"
       d="m 1015.8877,1054.8822 v 1.2347"
       style="stroke:#000000;stroke-width:0.282222;stroke-linecap:butt;stroke-linejoin:round" /><path
       id="use20-2"
       d="m 1015.0746,1058.6453 q 0.2497,0.053 0.3897,0.2227 0.1406,0.1687 0.1406,0.4167 0,0.3803 -0.2619,0.5893 -0.2618,0.2083 -0.7441,0.2083 -0.1615,0 -0.3329,-0.032 -0.1715,-0.032 -0.3539,-0.096 v -0.3357 q 0.1444,0.084 0.3164,0.1274 0.1725,0.043 0.3605,0.043 0.3268,0 0.4983,-0.129 0.1714,-0.129 0.1714,-0.3754 0,-0.2276 -0.1593,-0.3555 -0.1593,-0.1285 -0.4432,-0.1285 h -0.2998 v -0.286 h 0.3136 q 0.2563,0 0.3925,-0.1026 0.1361,-0.1025 0.1361,-0.2954 0,-0.1979 -0.1406,-0.3037 -0.1399,-0.1064 -0.4018,-0.1064 -0.1433,0 -0.307,0.031 -0.1637,0.031 -0.3599,0.096 v -0.3098 q 0.1984,-0.055 0.3715,-0.083 0.1731,-0.028 0.3263,-0.028 0.3963,0 0.6267,0.1803 0.231,0.1797 0.231,0.4861 0,0.2139 -0.1224,0.3611 -0.1223,0.1472 -0.3478,0.2039 z"
       style="stroke-width:0.000551215;stroke-linecap:butt;stroke-linejoin:round" /><path
       id="use21-3"
       d="m 1017.0087,1057.6895 q -0.2684,0 -0.404,0.2646 -0.135,0.264 -0.135,0.7948 0,0.5286 0.135,0.7932 0.1356,0.2646 0.404,0.2646 0.2707,0 0.4057,-0.2646 0.1356,-0.2646 0.1356,-0.7932 0,-0.5308 -0.1356,-0.7948 -0.135,-0.2646 -0.4057,-0.2646 z m 0,-0.2756 q 0.4328,0 0.661,0.3423 0.2281,0.3417 0.2281,0.9927 0,0.6494 -0.2281,0.9917 -0.2282,0.3417 -0.661,0.3417 -0.4321,0 -0.6603,-0.3417 -0.2282,-0.3423 -0.2282,-0.9917 0,-0.651 0.2282,-0.9927 0.2282,-0.3423 0.6603,-0.3423 z"
       style="stroke-width:0.000551215;stroke-linecap:butt;stroke-linejoin:round" /><path
       id="use31-0"
       d="m 828.40139,1038.0016 h -1.23472"
       style="stroke:#000000;stroke-width:0.282222;stroke-linecap:butt;stroke-linejoin:round" /><path
       id="use32-2"
       d="m 821.88051,1039.0492 h 0.56831 v -1.9623 l -0.61847,0.124 v -0.317 l 0.61516,-0.124 h 0.34781 v 2.2793 h 0.56831 v 0.2927 h -1.48112 z"
       style="stroke-width:0.000551215;stroke-linecap:butt;stroke-linejoin:round" /><path
       id="use33-8"
       d="m 824.8085,1036.9992 q -0.26844,0 -0.40404,0.2646 -0.13505,0.264 -0.13505,0.7949 0,0.5286 0.13505,0.7932 0.1356,0.2645 0.40404,0.2645 0.27064,0 0.40569,-0.2645 0.1356,-0.2646 0.1356,-0.7932 0,-0.5309 -0.1356,-0.7949 -0.13505,-0.2646 -0.40569,-0.2646 z m 0,-0.2756 q 0.4327,0 0.6609,0.3423 0.22821,0.3418 0.22821,0.9928 0,0.6493 -0.22821,0.9916 -0.2282,0.3417 -0.6609,0.3417 -0.43216,0 -0.66036,-0.3417 -0.2282,-0.3423 -0.2282,-0.9916 0,-0.651 0.2282,-0.9928 0.2282,-0.3423 0.66036,-0.3423 z"
       style="stroke-width:0.000551215;stroke-linecap:butt;stroke-linejoin:round" /><path
       id="use34-6"
       d="m 828.40139,1012.9004 h -1.23472"
       style="stroke:#000000;stroke-width:0.282222;stroke-linecap:butt;stroke-linejoin:round" /><path
       id="use35-0"
       d="m 822.11974,1013.948 h 1.21433 v 0.2927 h -1.6327 v -0.2927 q 0.19788,-0.205 0.53964,-0.5501 0.3423,-0.3456 0.42995,-0.4459 0.16702,-0.1874 0.23316,-0.3175 0.0667,-0.1301 0.0667,-0.2558 0,-0.2051 -0.14387,-0.334 -0.14387,-0.1296 -0.37483,-0.1296 -0.16371,0 -0.34561,0.057 -0.18135,0.057 -0.38805,0.1725 v -0.3516 q 0.21001,-0.084 0.39246,-0.1274 0.18301,-0.043 0.33459,-0.043 0.39963,0 0.63721,0.2001 0.23757,0.1996 0.23757,0.5336 0,0.1588 -0.0595,0.301 -0.059,0.1416 -0.21608,0.3346 -0.043,0.05 -0.27395,0.2888 -0.23041,0.2387 -0.65099,0.6675 z"
       style="stroke-width:0.000551215;stroke-linecap:butt;stroke-linejoin:round" /><path
       id="use36-2"
       d="m 824.8085,1011.898 q -0.26844,0 -0.40404,0.2646 -0.13505,0.2641 -0.13505,0.7949 0,0.5286 0.13505,0.7932 0.1356,0.2646 0.40404,0.2646 0.27064,0 0.40569,-0.2646 0.1356,-0.2646 0.1356,-0.7932 0,-0.5308 -0.1356,-0.7949 -0.13505,-0.2646 -0.40569,-0.2646 z m 0,-0.2756 q 0.4327,0 0.6609,0.3423 0.22821,0.3418 0.22821,0.9928 0,0.6493 -0.22821,0.9916 -0.2282,0.3418 -0.6609,0.3418 -0.43216,0 -0.66036,-0.3418 -0.2282,-0.3423 -0.2282,-0.9916 0,-0.651 0.2282,-0.9928 0.2282,-0.3423 0.66036,-0.3423 z"
       style="stroke-width:0.000551215;stroke-linecap:butt;stroke-linejoin:round" /><path
       id="use37-4"
       d="m 828.40139,987.79926 h -1.23472"
       style="stroke:#000000;stroke-width:0.282222;stroke-linecap:butt;stroke-linejoin:round" /><path
       id="use38-8"
       d="m 822.87435,987.75268 q 0.2497,0.0535 0.38971,0.22269 0.14056,0.16867 0.14056,0.41672 0,0.38033 -0.26182,0.58925 -0.26183,0.20836 -0.74415,0.20836 -0.1615,0 -0.33293,-0.032 -0.17143,-0.032 -0.35388,-0.0959 v -0.3357 q 0.14442,0.0843 0.3164,0.12733 0.17253,0.043 0.36049,0.043 0.32687,0 0.4983,-0.12898 0.17143,-0.12899 0.17143,-0.37538 0,-0.22765 -0.1593,-0.35553 -0.1593,-0.12844 -0.44318,-0.12844 h -0.29986 v -0.28608 h 0.31364 q 0.25632,0 0.39247,-0.10253 0.13615,-0.10252 0.13615,-0.29545 0,-0.19788 -0.14056,-0.30372 -0.14001,-0.10638 -0.40184,-0.10638 -0.14331,0 -0.30703,0.0314 -0.16371,0.0309 -0.35994,0.0959 v -0.30978 q 0.19844,-0.0551 0.37152,-0.0827 0.17308,-0.0276 0.32632,-0.0276 0.39632,0 0.62673,0.18025 0.23096,0.17969 0.23096,0.48617 0,0.21387 -0.12237,0.36104 -0.12237,0.14718 -0.34782,0.20395 z"
       style="stroke-width:0.000551215;stroke-linecap:butt;stroke-linejoin:round" /><path
       id="use39-6"
       d="m 824.8085,986.79687 q -0.26844,0 -0.40404,0.26458 -0.13505,0.26404 -0.13505,0.79486 0,0.52861 0.13505,0.7932 0.1356,0.26458 0.40404,0.26458 0.27064,0 0.40569,-0.26458 0.1356,-0.26459 0.1356,-0.7932 0,-0.53082 -0.1356,-0.79486 -0.13505,-0.26458 -0.40569,-0.26458 z m 0,-0.27561 q 0.4327,0 0.6609,0.34231 0.22821,0.34175 0.22821,0.99274 0,0.64933 -0.22821,0.99163 -0.2282,0.34176 -0.6609,0.34176 -0.43216,0 -0.66036,-0.34176 -0.2282,-0.3423 -0.2282,-0.99163 0,-0.65099 0.2282,-0.99274 0.2282,-0.34231 0.66036,-0.34231 z"
       style="stroke-width:0.000551215;stroke-linecap:butt;stroke-linejoin:round" /><path
       id="use40-0"
       d="m 828.40139,962.69808 h -1.23472"
       style="stroke:#000000;stroke-width:0.282222;stroke-linecap:butt;stroke-linejoin:round" /><path
       id="use41-0"
       d="m 822.77624,961.76956 -0.87864,1.37307 h 0.87864 z m -0.0915,-0.30317 h 0.43766 v 1.67624 h 0.36711 v 0.28939 h -0.36711 v 0.60634 h -0.34616 v -0.60634 h -1.16086 v -0.33569 z"
       style="stroke-width:0.000551215;stroke-linecap:butt;stroke-linejoin:round" /><path
       id="use42-6"
       d="m 824.8085,961.69569 q -0.26844,0 -0.40404,0.26459 -0.13505,0.26403 -0.13505,0.79485 0,0.52862 0.13505,0.7932 0.1356,0.26458 0.40404,0.26458 0.27064,0 0.40569,-0.26458 0.1356,-0.26458 0.1356,-0.7932 0,-0.53082 -0.1356,-0.79485 -0.13505,-0.26459 -0.40569,-0.26459 z m 0,-0.2756 q 0.4327,0 0.6609,0.3423 0.22821,0.34175 0.22821,0.99274 0,0.64933 -0.22821,0.99164 -0.2282,0.34175 -0.6609,0.34175 -0.43216,0 -0.66036,-0.34175 -0.2282,-0.34231 -0.2282,-0.99164 0,-0.65099 0.2282,-0.99274 0.2282,-0.3423 0.66036,-0.3423 z"
       style="stroke-width:0.000551215;stroke-linecap:butt;stroke-linejoin:round" /><path
       id="use43-3"
       d="m 828.40139,937.5969 h -1.23472"
       style="stroke:#000000;stroke-width:0.282222;stroke-linecap:butt;stroke-linejoin:round" /><path
       id="use44-8"
       d="m 821.82374,936.36521 h 1.36591 v 0.29325 h -1.04731 v 0.63004 q 0.0755,-0.0259 0.15103,-0.0386 0.0761,-0.0127 0.15214,-0.0127 0.4305,0 0.68185,0.23592 0.25191,0.23592 0.25191,0.63886 0,0.41507 -0.25852,0.64548 -0.25852,0.22985 -0.72871,0.22985 -0.16206,0 -0.33018,-0.0276 -0.16757,-0.0276 -0.34671,-0.0827 v -0.35002 q 0.15489,0.0843 0.32026,0.12567 0.16536,0.0413 0.34946,0.0413 0.29821,0 0.47185,-0.15654 0.17418,-0.15655 0.17418,-0.42554 0,-0.26844 -0.17418,-0.42499 -0.17364,-0.15709 -0.47185,-0.15709 -0.13945,0 -0.27836,0.0309 -0.13835,0.0309 -0.28277,0.0965 z"
       style="stroke-width:0.000551215;stroke-linecap:butt;stroke-linejoin:round" /><path
       id="use45-9"
       d="m 824.8085,936.59452 q -0.26844,0 -0.40404,0.26458 -0.13505,0.26403 -0.13505,0.79485 0,0.52862 0.13505,0.7932 0.1356,0.26459 0.40404,0.26459 0.27064,0 0.40569,-0.26459 0.1356,-0.26458 0.1356,-0.7932 0,-0.53082 -0.1356,-0.79485 -0.13505,-0.26458 -0.40569,-0.26458 z m 0,-0.27561 q 0.4327,0 0.6609,0.34231 0.22821,0.34175 0.22821,0.99273 0,0.64934 -0.22821,0.99164 -0.2282,0.34175 -0.6609,0.34175 -0.43216,0 -0.66036,-0.34175 -0.2282,-0.3423 -0.2282,-0.99164 0,-0.65098 0.2282,-0.99273 0.2282,-0.34231 0.66036,-0.34231 z"
       style="stroke-width:0.000551215;stroke-linecap:butt;stroke-linejoin:round" /><path
       id="use46-4"
       d="m 817.36827,1003.2047 v -0.3362 l 1.63986,-0.2822 -1.63986,-0.9233 v -0.3363 l 1.92925,1.0975 v 0.4272 z"
       style="stroke-width:0.000551215;stroke-linecap:butt;stroke-linejoin:round" /><path
       id="use48-0"
       d="m 816.61696,999.94545 v -0.73036 h 0.24639 v 0.41342 h 2.653 v -0.41342 h 0.24639 v 0.73036 z"
       style="stroke-width:0.000551215;stroke-linecap:butt;stroke-linejoin:round" /><path
       id="use49-6"
       d="m 816.61696,998.55205 v -0.3186 h 1.58309 l -0.83178,-0.94589 v -0.40459 l 0.90233,1.02306 1.02692,-1.0666 v 0.41341 l -0.94203,0.98061 h 0.94203 v 0.3186 z"
       style="stroke-width:0.000551215;stroke-linecap:butt;stroke-linejoin:round" /><path
       id="use50-6"
       d="m 817.73868,994.99492 q -0.21387,-0.11906 -0.31529,-0.28442 -0.10143,-0.16537 -0.10143,-0.38916 0,-0.30152 0.21112,-0.46523 0.21056,-0.16371 0.59972,-0.16371 h 1.16472 v 0.31861 h -1.15425 q -0.27726,0 -0.4112,0.0987 -0.1345,0.0981 -0.1345,0.29931 0,0.2464 0.16371,0.38971 0.16316,0.14277 0.44593,0.14277 h 1.09031 v 0.3186 h -1.15425 q -0.27891,0 -0.4123,0.0981 -0.1334,0.0981 -0.1334,0.30316 0,0.24309 0.16426,0.3864 0.16427,0.14277 0.44538,0.14277 h 1.09031 v 0.3186 h -1.92925 v -0.3186 h 0.29986 q -0.1775,-0.10859 -0.26183,-0.26017 -0.0843,-0.15159 -0.0843,-0.35995 0,-0.21056 0.10694,-0.35774 0.10638,-0.14717 0.30978,-0.21773 z"
       style="stroke-width:0.000551215;stroke-linecap:butt;stroke-linejoin:round" /><path
       id="use51-1"
       d="m 816.72555,992.49716 v -0.29269 l 2.89939,0.89572 v 0.2927 z"
       style="stroke-width:0.000551215;stroke-linecap:butt;stroke-linejoin:round" /><path
       id="use52-8"
       d="m 817.42504,990.64218 h 0.29986 q -0.0689,0.13395 -0.10308,0.27892 -0.0347,0.14442 -0.0347,0.29986 0,0.23592 0.0722,0.35388 0.0722,0.11796 0.21718,0.11796 0.11024,0 0.17308,-0.0843 0.0628,-0.0843 0.11961,-0.33955 l 0.0243,-0.1086 q 0.0722,-0.33734 0.20395,-0.47955 0.13173,-0.14222 0.36766,-0.14222 0.26899,0 0.42609,0.21277 0.15654,0.21277 0.15654,0.58484 0,0.15489 -0.0303,0.32302 -0.0303,0.16812 -0.0904,0.35388 h -0.32742 q 0.0915,-0.17584 0.13725,-0.34617 0.0452,-0.17032 0.0452,-0.33789 0,-0.2238 -0.0766,-0.34396 -0.0766,-0.12072 -0.21607,-0.12072 -0.12899,0 -0.19789,0.0871 -0.0689,0.0865 -0.13284,0.38144 l -0.0259,0.11024 q -0.0617,0.29435 -0.19017,0.42554 -0.12843,0.13064 -0.35222,0.13064 -0.2723,0 -0.42003,-0.19293 -0.14828,-0.19292 -0.14828,-0.54791 0,-0.17529 0.0259,-0.33018 0.0254,-0.15544 0.0772,-0.28608 z"
       style="stroke-width:0.000551215;stroke-linecap:butt;stroke-linejoin:round" /><path
       id="use53-4"
       d="m 816.61696,989.29315 h 3.14578 v 0.73036 h -0.24639 v -0.41176 h -2.653 v 0.41176 h -0.24639 z"
       style="stroke-width:0.000551215;stroke-linecap:butt;stroke-linejoin:round" /><path
       d="M 828.40139,1054.8821 V 937.53415"
       style="fill:none;stroke:#000000;stroke-width:0.282222;stroke-linecap:square;stroke-linejoin:miter"
       id="path53-9" /><path
       d="M 1035.8347,1054.8821 V 937.53415"
       style="fill:none;stroke:#000000;stroke-width:0.282222;stroke-linecap:square;stroke-linejoin:miter"
       id="path54-7" /><path
       d="M 828.40138,1054.8821 H 1035.8347"
       style="fill:none;stroke:#000000;stroke-width:0.282222;stroke-linecap:square;stroke-linejoin:miter"
       id="path55-6" /><path
       d="M 828.40876,937.53415 H 1035.5451"
       style="fill:none;stroke:#000000;stroke-width:0.282222;stroke-linecap:square;stroke-linejoin:miter"
       id="path56-2" /><path
       id="use56-2"
       d="m 839.45917,938.53229 h 0.51869 l 0.65595,1.75011 0.65981,-1.75011 h 0.51869 v 2.57197 h -0.33955 v -2.25833 l -0.66311,1.76389 h -0.34947 l -0.66312,-1.76389 v 2.25833 h -0.33789 z"
       style="stroke-width:0.000551215;stroke-linecap:butt;stroke-linejoin:round" /><path
       id="use57-9"
       d="m 844.13947,940.06026 v 0.15489 h -1.45741 q 0.0209,0.32742 0.19733,0.49885 0.17639,0.17143 0.49169,0.17143 0.18245,0 0.35388,-0.0447 0.17142,-0.0447 0.34065,-0.1345 v 0.29987 q -0.17088,0.0722 -0.35002,0.11024 -0.17915,0.038 -0.36326,0.038 -0.46191,0 -0.73146,-0.26844 -0.26954,-0.26899 -0.26954,-0.7276 0,-0.4735 0.25576,-0.75131 0.25577,-0.27836 0.69012,-0.27836 0.38916,0 0.61571,0.2508 0.22655,0.25025 0.22655,0.68075 z m -0.31695,-0.0932 q -0.003,-0.25962 -0.14552,-0.41451 -0.14221,-0.15544 -0.37648,-0.15544 -0.26513,0 -0.42444,0.14993 -0.1593,0.14993 -0.18355,0.42223 z"
       style="stroke-width:0.000551215;stroke-linecap:butt;stroke-linejoin:round" /><path
       id="use58-1"
       d="m 845.77741,939.47101 q -0.0535,-0.0309 -0.11631,-0.0452 -0.0628,-0.0149 -0.13836,-0.0149 -0.26899,0 -0.41286,0.17473 -0.14386,0.17474 -0.14386,0.50216 v 1.01644 h -0.31861 v -1.92925 h 0.31861 v 0.29986 q 0.10032,-0.17584 0.26017,-0.26073 0.1604,-0.0854 0.38971,-0.0854 0.0325,0 0.0722,0.004 0.0397,0.004 0.0876,0.0127 z"
       style="stroke-width:0.000551215;stroke-linecap:butt;stroke-linejoin:round" /><path
       id="use59-3"
       d="m 847.41906,939.24887 v 0.29655 q -0.13449,-0.0744 -0.26954,-0.11134 -0.13505,-0.0369 -0.27285,-0.0369 -0.30868,0 -0.47956,0.19568 -0.17032,0.19513 -0.17032,0.54846 0,0.35333 0.17032,0.54901 0.17088,0.19513 0.47956,0.19513 0.1378,0 0.27285,-0.0369 0.13505,-0.0369 0.26954,-0.11135 v 0.29325 q -0.13284,0.0617 -0.27505,0.0926 -0.14166,0.0314 -0.30207,0.0314 -0.43601,0 -0.69288,-0.27395 -0.25631,-0.27396 -0.25631,-0.73918 0,-0.47184 0.25907,-0.74194 0.25962,-0.27064 0.71107,-0.27064 0.14607,0 0.28553,0.0303 0.13945,0.0298 0.27064,0.0898 z"
       style="stroke-width:0.000551215;stroke-linecap:butt;stroke-linejoin:round" /><path
       id="use60-5"
       d="m 847.93762,940.34303 v -1.16802 h 0.31695 v 1.1559 q 0,0.27395 0.10638,0.4112 0.10694,0.1367 0.32081,0.1367 0.25632,0 0.40514,-0.16371 0.14938,-0.16371 0.14938,-0.44648 v -1.09361 h 0.31695 v 1.92925 h -0.31695 v -0.29655 q -0.1152,0.17584 -0.26789,0.26127 -0.15213,0.0854 -0.35388,0.0854 -0.33238,0 -0.50491,-0.2067 -0.17198,-0.20671 -0.17198,-0.60469 z m 0.79761,-1.21432 z"
       style="stroke-width:0.000551215;stroke-linecap:butt;stroke-linejoin:round" /><path
       id="use61-9"
       d="m 851.32387,939.47101 q -0.0535,-0.0309 -0.1163,-0.0452 -0.0628,-0.0149 -0.13836,-0.0149 -0.26899,0 -0.41286,0.17473 -0.14387,0.17474 -0.14387,0.50216 v 1.01644 h -0.3186 v -1.92925 h 0.3186 v 0.29986 q 0.10032,-0.17584 0.26018,-0.26073 0.1604,-0.0854 0.38971,-0.0854 0.0325,0 0.0722,0.004 0.0397,0.004 0.0876,0.0127 z"
       style="stroke-width:0.000551215;stroke-linecap:butt;stroke-linejoin:round" /><use
       xlink:href="#DejaVuSans-79-8"
       transform="matrix(0.03527778,0,0,-0.03527778,851.32401,941.10426)"
       id="use62-8"
       style="stroke-linecap:butt;stroke-linejoin:round" /><path
       id="use63-6"
       d="m 842.14944,973.48478 -0.98171,-2.57198 h 0.36324 l 0.81525,2.16518 0.81635,-2.16518 h 0.3616 l -0.98006,2.57198 z"
       style="stroke-width:0.000551215;stroke-linecap:butt;stroke-linejoin:round" /><path
       id="use64-3"
       d="m 845.26277,972.44078 v 0.15489 h -1.45741 q 0.021,0.32742 0.19733,0.49884 0.17639,0.17143 0.49169,0.17143 0.18245,0 0.35388,-0.0447 0.17143,-0.0446 0.34065,-0.13449 v 0.29986 q -0.17088,0.0722 -0.35002,0.11024 -0.17915,0.038 -0.36325,0.038 -0.46192,0 -0.73147,-0.26845 -0.26954,-0.26899 -0.26954,-0.7276 0,-0.47349 0.25576,-0.75131 0.25577,-0.27836 0.69012,-0.27836 0.38916,0 0.61571,0.2508 0.22655,0.25025 0.22655,0.68076 z m -0.31695,-0.0932 q -0.003,-0.25962 -0.14552,-0.41452 -0.14221,-0.15544 -0.37648,-0.15544 -0.26513,0 -0.42443,0.14993 -0.15931,0.14993 -0.18356,0.42223 z"
       style="stroke-width:0.000551215;stroke-linecap:butt;stroke-linejoin:round" /><path
       id="use65-6"
       d="m 847.38688,972.32006 v 1.16472 h -0.31695 v -1.15425 q 0,-0.27395 -0.10694,-0.40955 -0.10693,-0.13615 -0.32025,-0.13615 -0.25687,0 -0.40515,0.16371 -0.14827,0.16316 -0.14827,0.44593 v 1.09031 h -0.31861 v -1.92926 h 0.31861 v 0.29986 q 0.1141,-0.17418 0.26789,-0.26017 0.15434,-0.086 0.35608,-0.086 0.33239,0 0.50271,0.2056 0.17088,0.2056 0.17088,0.60524 z"
       style="stroke-width:0.000551215;stroke-linecap:butt;stroke-linejoin:round" /><path
       id="use66-1"
       d="m 847.98619,972.72355 v -1.16803 h 0.31695 v 1.1559 q 0,0.27395 0.10638,0.41121 0.10694,0.1367 0.32081,0.1367 0.25632,0 0.40514,-0.16371 0.14938,-0.16371 0.14938,-0.44649 v -1.09361 h 0.31695 v 1.92926 h -0.31695 v -0.29656 q -0.1152,0.17584 -0.26789,0.26128 -0.15213,0.0854 -0.35388,0.0854 -0.33238,0 -0.50491,-0.20671 -0.17198,-0.20671 -0.17198,-0.60468 z m 0.79761,-1.21433 z"
       style="stroke-width:0.000551215;stroke-linecap:butt;stroke-linejoin:round" /><path
       id="use67-5"
       d="m 851.48434,971.6123 v 0.29986 q -0.13394,-0.0689 -0.27891,-0.10308 -0.14443,-0.0347 -0.29987,-0.0347 -0.23592,0 -0.35388,0.0722 -0.11796,0.0722 -0.11796,0.21717 0,0.11025 0.0843,0.17309 0.0843,0.0628 0.33955,0.11961 l 0.10859,0.0242 q 0.33734,0.0722 0.47955,0.20395 0.14222,0.13174 0.14222,0.36766 0,0.26899 -0.21277,0.42609 -0.21277,0.15654 -0.58484,0.15654 -0.15489,0 -0.32301,-0.0303 -0.16812,-0.0303 -0.35388,-0.0904 v -0.32742 q 0.17583,0.0915 0.34616,0.13725 0.17033,0.0452 0.3379,0.0452 0.22379,0 0.34395,-0.0766 0.12072,-0.0766 0.12072,-0.21608 0,-0.12898 -0.0871,-0.19788 -0.0865,-0.0689 -0.38144,-0.13285 l -0.11025,-0.0259 q -0.29434,-0.0617 -0.42553,-0.19017 -0.13064,-0.12843 -0.13064,-0.35223 0,-0.2723 0.19292,-0.42002 0.19293,-0.14828 0.54791,-0.14828 0.17529,0 0.33018,0.0259 0.15544,0.0254 0.28608,0.0772 z"
       style="stroke-width:0.000551215;stroke-linecap:butt;stroke-linejoin:round" /><path
       id="use68-7"
       d="m 843.15439,983.96542 h 1.62609 v 0.29324 h -1.27827 v 0.76124 h 1.2248 v 0.29269 h -1.2248 v 0.9321 h 1.30914 v 0.2927 h -1.65696 z"
       style="stroke-width:0.000551215;stroke-linecap:butt;stroke-linejoin:round" /><path
       id="use69-3"
       d="m 846.24657,985.5678 q -0.3842,0 -0.53247,0.0876 -0.14828,0.0876 -0.14828,0.29986 0,0.16867 0.11134,0.26789 0.11135,0.0987 0.30207,0.0987 0.26403,0 0.42333,-0.18686 0.15931,-0.18686 0.15931,-0.49664 v -0.0706 z m 0.63224,-0.13119 v 1.10078 h -0.31694 v -0.2927 q -0.10859,0.17529 -0.27065,0.25908 -0.16206,0.0838 -0.39632,0.0838 -0.29601,0 -0.47129,-0.16647 -0.17474,-0.16646 -0.17474,-0.44538 0,-0.32521 0.21773,-0.49058 0.21828,-0.16536 0.65044,-0.16536 h 0.44483 v -0.0314 q 0,-0.21883 -0.14387,-0.33844 -0.14387,-0.11961 -0.40404,-0.11961 -0.16537,0 -0.32246,0.0397 -0.15655,0.0397 -0.30097,0.11907 v -0.29325 q 0.17364,-0.0673 0.33735,-0.10032 0.16371,-0.0336 0.3186,-0.0336 0.41892,0 0.62563,0.21718 0.2067,0.21663 0.2067,0.6576 z"
       style="stroke-width:0.000551215;stroke-linecap:butt;stroke-linejoin:round" /><path
       id="use70-7"
       d="m 848.64925,984.90414 q -0.0535,-0.0309 -0.11631,-0.0452 -0.0628,-0.0149 -0.13835,-0.0149 -0.269,0 -0.41286,0.17474 -0.14387,0.17474 -0.14387,0.50216 v 1.01644 h -0.3186 v -1.92926 h 0.3186 v 0.29986 q 0.10032,-0.17583 0.26018,-0.26072 0.1604,-0.0854 0.38971,-0.0854 0.0325,0 0.0722,0.004 0.0397,0.004 0.0877,0.0127 z"
       style="stroke-width:0.000551215;stroke-linecap:butt;stroke-linejoin:round" /><path
       id="use71-2"
       d="m 849.29541,984.06023 v 0.54791 h 0.65264 v 0.24639 h -0.65264 v 1.04731 q 0,0.23592 0.0645,0.30317 0.0645,0.0672 0.26293,0.0672 h 0.32522 v 0.26513 h -0.32522 q -0.36711,0 -0.50656,-0.1367 -0.13946,-0.13725 -0.13946,-0.49885 v -1.04731 h -0.23261 v -0.24639 h 0.23261 v -0.54791 z"
       style="stroke-width:0.000551215;stroke-linecap:butt;stroke-linejoin:round" /><path
       id="use72-6"
       d="m 851.96901,985.37267 v 1.16472 h -0.31695 v -1.15425 q 0,-0.27395 -0.10693,-0.40955 -0.10694,-0.13615 -0.32026,-0.13615 -0.25686,0 -0.40514,0.16371 -0.14828,0.16316 -0.14828,0.44594 v 1.0903 h -0.3186 v -2.68056 h 0.3186 v 1.05117 q 0.1141,-0.17419 0.26789,-0.26018 0.15434,-0.086 0.35609,-0.086 0.33238,0 0.50271,0.2056 0.17087,0.2056 0.17087,0.60523 z"
       style="stroke-width:0.000551215;stroke-linecap:butt;stroke-linejoin:round" /><path
       id="use73-1"
       d="m 846.31158,998.27309 h 0.51869 l 0.65595,1.75011 0.6598,-1.75011 h 0.5187 v 2.57201 h -0.33955 v -2.25837 l -0.66311,1.76387 h -0.34947 l -0.66312,-1.76387 v 2.25837 h -0.33789 z"
       style="stroke-width:0.000551215;stroke-linecap:butt;stroke-linejoin:round" /><path
       id="use74-6"
       d="m 850.21852,999.87547 q -0.38419,0 -0.53247,0.0876 -0.14828,0.0877 -0.14828,0.29993 0,0.1686 0.11135,0.2679 0.11134,0.099 0.30206,0.099 0.26404,0 0.42334,-0.1868 0.1593,-0.1869 0.1593,-0.49671 v -0.0706 z m 0.63225,-0.13119 v 1.10082 h -0.31695 v -0.2927 q -0.10859,0.1753 -0.27065,0.259 -0.16206,0.084 -0.39632,0.084 -0.296,0 -0.47129,-0.1664 -0.17474,-0.1665 -0.17474,-0.4454 0,-0.32525 0.21774,-0.49061 0.21828,-0.16537 0.65043,-0.16537 h 0.44483 v -0.0314 q 0,-0.21883 -0.14387,-0.33844 -0.14387,-0.11961 -0.40404,-0.11961 -0.16536,0 -0.32246,0.0397 -0.15654,0.0397 -0.30096,0.11907 v -0.29325 q 0.17363,-0.0672 0.33734,-0.10032 0.16371,-0.0336 0.3186,-0.0336 0.41893,0 0.62563,0.21717 0.20671,0.21663 0.20671,0.65761 z"
       style="stroke-width:0.000551215;stroke-linecap:butt;stroke-linejoin:round" /><path
       id="use75-5"
       d="m 852.6212,999.21181 q -0.0535,-0.0309 -0.1163,-0.0452 -0.0628,-0.0149 -0.13836,-0.0149 -0.26899,0 -0.41286,0.17474 -0.14387,0.17473 -0.14387,0.50215 v 1.0165 h -0.3186 v -1.92931 h 0.3186 v 0.29986 q 0.10032,-0.17584 0.26018,-0.26072 0.1604,-0.0854 0.3897,-0.0854 0.0325,0 0.0722,0.004 0.0397,0.004 0.0877,0.0127 z"
       style="stroke-width:0.000551215;stroke-linecap:butt;stroke-linejoin:round" /><path
       id="use76-7"
       d="m 854.18349,998.97258 v 0.29986 q -0.13395,-0.0689 -0.27892,-0.10308 -0.14442,-0.0347 -0.29986,-0.0347 -0.23592,0 -0.35388,0.0722 -0.11796,0.0722 -0.11796,0.21718 0,0.11024 0.0843,0.17308 0.0843,0.0628 0.33955,0.11961 l 0.10859,0.0242 q 0.33734,0.0722 0.47956,0.20395 0.14221,0.13182 0.14221,0.36772 0,0.269 -0.21277,0.4261 -0.21276,0.1565 -0.58483,0.1565 -0.15489,0 -0.32302,-0.03 -0.16812,-0.03 -0.35388,-0.09 v -0.3274 q 0.17584,0.091 0.34617,0.1372 0.17032,0.045 0.33789,0.045 0.2238,0 0.34396,-0.077 0.12072,-0.077 0.12072,-0.2161 0,-0.1289 -0.0871,-0.1978 -0.0865,-0.069 -0.38144,-0.1329 l -0.11024,-0.0259 q -0.29435,-0.0617 -0.42554,-0.19017 -0.13064,-0.12843 -0.13064,-0.35222 0,-0.2723 0.19293,-0.42003 0.19292,-0.14828 0.54791,-0.14828 0.17528,0 0.33018,0.0259 0.15544,0.0254 0.28608,0.0772 z"
       style="stroke-width:0.000551215;stroke-linecap:butt;stroke-linejoin:round" /><path
       id="use77-2"
       d="m 868.49679,1025.8844 h 0.34781 v 2.3928 q 0,0.4652 -0.17639,0.6752 -0.17638,0.2101 -0.56775,0.2101 h -0.13229 v -0.2927 h 0.10859 q 0.23041,0 0.32522,-0.1296 0.0948,-0.129 0.0948,-0.463 z"
       style="stroke-width:0.000551215;stroke-linecap:butt;stroke-linejoin:round" /><path
       id="use78-0"
       d="m 869.4909,1027.6951 v -1.168 h 0.31695 v 1.1559 q 0,0.2739 0.10639,0.4112 0.10693,0.1367 0.3208,0.1367 0.25632,0 0.40515,-0.1637 0.14938,-0.1637 0.14938,-0.4465 v -1.0936 h 0.31695 v 1.9293 h -0.31695 v -0.2966 q -0.11521,0.1758 -0.2679,0.2613 -0.15213,0.085 -0.35388,0.085 -0.33238,0 -0.50491,-0.2067 -0.17198,-0.2067 -0.17198,-0.6047 z m 0.79761,-1.2143 z"
       style="stroke-width:0.000551215;stroke-linecap:butt;stroke-linejoin:round" /><path
       id="use79-0"
       d="m 872.06577,1028.167 v 1.023 h -0.31861 v -2.6629 h 0.31861 v 0.2927 q 0.10032,-0.172 0.25245,-0.2552 0.15269,-0.084 0.36435,-0.084 0.35168,0 0.57106,0.2789 0.21994,0.2789 0.21994,0.7337 0,0.4547 -0.21994,0.7342 -0.21938,0.2789 -0.57106,0.2789 -0.21166,0 -0.36435,-0.084 -0.15213,-0.084 -0.25245,-0.2557 z m 1.07872,-0.6736 q 0,-0.3495 -0.14386,-0.5485 -0.14387,-0.199 -0.39523,-0.199 -0.2519,0 -0.39577,0.199 -0.14386,0.199 -0.14386,0.5485 0,0.3494 0.14386,0.5484 0.14387,0.199 0.39577,0.199 0.25136,0 0.39523,-0.199 0.14386,-0.199 0.14386,-0.5484 z"
       style="stroke-width:0.000551215;stroke-linecap:butt;stroke-linejoin:round" /><path
       id="use80-1"
       d="m 873.9986,1026.5271 h 0.31695 v 1.9293 h -0.31695 z m 0,-0.7513 h 0.31695 v 0.4018 h -0.31695 z"
       style="stroke-width:0.000551215;stroke-linecap:butt;stroke-linejoin:round" /><path
       id="use81-4"
       d="m 875.29238,1025.9792 v 0.5479 h 0.65263 v 0.2464 h -0.65263 v 1.0473 q 0,0.2359 0.0645,0.3032 0.0645,0.067 0.26293,0.067 h 0.32521 v 0.2652 h -0.32521 q -0.36711,0 -0.50657,-0.1368 -0.13946,-0.1372 -0.13946,-0.4988 v -1.0473 h -0.23261 v -0.2464 h 0.23261 v -0.5479 z"
       style="stroke-width:0.000551215;stroke-linecap:butt;stroke-linejoin:round" /><path
       id="use82-6"
       d="m 878.01227,1027.4123 v 0.1549 h -1.45741 q 0.021,0.3275 0.19734,0.4989 0.17639,0.1714 0.49168,0.1714 0.18245,0 0.35388,-0.045 0.17143,-0.045 0.34065,-0.1345 v 0.2998 q -0.17088,0.072 -0.35002,0.1103 -0.17914,0.038 -0.36325,0.038 -0.46192,0 -0.73146,-0.2684 -0.26955,-0.269 -0.26955,-0.7276 0,-0.4735 0.25577,-0.7513 0.25576,-0.2784 0.69012,-0.2784 0.38916,0 0.6157,0.2508 0.22655,0.2502 0.22655,0.6807 z m -0.31695,-0.093 q -0.003,-0.2596 -0.14551,-0.4145 -0.14222,-0.1555 -0.37648,-0.1555 -0.26514,0 -0.42444,0.15 -0.1593,0.1499 -0.18356,0.4222 z"
       style="stroke-width:0.000551215;stroke-linecap:butt;stroke-linejoin:round" /><path
       id="use83-0"
       d="m 879.65021,1026.8231 q -0.0535,-0.031 -0.1163,-0.045 -0.0628,-0.015 -0.13836,-0.015 -0.26899,0 -0.41286,0.1747 -0.14386,0.1748 -0.14386,0.5022 v 1.0164 h -0.31861 v -1.9292 h 0.31861 v 0.2999 q 0.10031,-0.1759 0.26017,-0.2608 0.1604,-0.085 0.38971,-0.085 0.0325,0 0.0722,0 0.0397,0 0.0876,0.013 z"
       style="stroke-width:0.000551215;stroke-linecap:butt;stroke-linejoin:round" /><path
       id="use84-1"
       d="m 896.16682,1034.5031 v 0.3396 q -0.1979,-0.095 -0.37373,-0.1411 -0.17582,-0.047 -0.33955,-0.047 -0.28388,0 -0.43822,0.1102 -0.15434,0.1103 -0.15434,0.3137 0,0.1709 0.10252,0.258 0.10255,0.086 0.38862,0.14 l 0.21001,0.043 q 0.38915,0.074 0.57436,0.2612 0.1852,0.1869 0.1852,0.5 0,0.3743 -0.25079,0.5672 -0.25026,0.1929 -0.73423,0.1929 -0.18242,0 -0.38859,-0.041 -0.2056,-0.041 -0.42608,-0.1224 v -0.3583 q 0.21167,0.1185 0.41504,0.1792 0.20341,0.06 0.39963,0.06 0.29767,0 0.45974,-0.1168 0.16203,-0.1174 0.16203,-0.3346 0,-0.1891 -0.11628,-0.296 -0.11631,-0.1069 -0.38146,-0.1604 l -0.21223,-0.041 q -0.38915,-0.077 -0.56331,-0.2425 -0.17364,-0.1654 -0.17364,-0.4603 0,-0.3412 0.24031,-0.5374 0.24035,-0.1962 0.66203,-0.1962 0.18136,0 0.36875,0.033 0.18796,0.033 0.38421,0.098 z"
       style="stroke-width:0.000551215;stroke-linecap:butt;stroke-linejoin:round" /><path
       id="use85-7"
       d="m 897.72758,1036.0212 q -0.38417,0 -0.53248,0.088 -0.14827,0.088 -0.14827,0.2999 0,0.1686 0.11137,0.2679 0.11134,0.099 0.30205,0.099 0.26402,0 0.42333,-0.1868 0.15932,-0.1869 0.15932,-0.4967 v -0.071 z m 0.63225,-0.1312 v 1.1008 h -0.31693 v -0.2927 q -0.10859,0.1752 -0.27065,0.259 -0.16207,0.084 -0.39635,0.084 -0.29598,0 -0.47128,-0.1665 -0.17473,-0.1664 -0.17473,-0.4453 0,-0.3253 0.21774,-0.4906 0.21826,-0.1654 0.65041,-0.1654 h 0.44486 v -0.031 q 0,-0.2188 -0.14387,-0.3385 -0.14389,-0.1196 -0.40407,-0.1196 -0.16534,0 -0.32244,0.04 -0.15656,0.04 -0.30095,0.1191 v -0.2933 q 0.1736,-0.067 0.33733,-0.1003 0.16372,-0.034 0.31859,-0.034 0.41892,0 0.62565,0.2172 0.20669,0.2166 0.20669,0.6576 z"
       style="stroke-width:0.000551215;stroke-linecap:butt;stroke-linejoin:round" /><path
       id="use86-7"
       d="m 899.32602,1034.5136 v 0.5479 h 0.65267 v 0.2464 h -0.65267 v 1.0473 q 0,0.2359 0.0645,0.3032 0.0645,0.067 0.26293,0.067 h 0.32522 v 0.2652 h -0.32522 q -0.3671,0 -0.50659,-0.1368 -0.13945,-0.1372 -0.13945,-0.4988 v -1.0473 h -0.23262 v -0.2464 h 0.23262 v -0.5479 z"
       style="stroke-width:0.000551215;stroke-linecap:butt;stroke-linejoin:round" /><path
       id="use87-9"
       d="m 900.36308,1036.2295 v -1.168 h 0.31694 v 1.1559 q 0,0.2739 0.10639,0.4112 0.10693,0.1367 0.32082,0.1367 0.25629,0 0.40513,-0.1637 0.1494,-0.1637 0.1494,-0.4465 v -1.0936 h 0.31694 v 1.9293 h -0.31694 v -0.2966 q -0.11522,0.1758 -0.2679,0.2613 -0.15215,0.085 -0.35387,0.085 -0.33239,0 -0.50493,-0.2067 -0.17198,-0.2067 -0.17198,-0.6047 z m 0.7976,-1.2143 z"
       style="stroke-width:0.000551215;stroke-linecap:butt;stroke-linejoin:round" /><path
       id="use88"
       d="m 903.74932,1035.3575 q -0.0534,-0.031 -0.11627,-0.045 -0.0629,-0.015 -0.13836,-0.015 -0.26899,0 -0.41286,0.1747 -0.14389,0.1748 -0.14389,0.5022 v 1.0164 h -0.3186 v -1.9292 h 0.3186 v 0.2999 q 0.10033,-0.1759 0.26017,-0.2608 0.16041,-0.085 0.38971,-0.085 0.0325,0 0.0722,0 0.0397,0 0.0877,0.013 z"
       style="stroke-width:0.000551215;stroke-linecap:butt;stroke-linejoin:round" /><path
       id="use89-7"
       d="m 905.62416,1035.826 v 1.1648 h -0.31697 v -1.1543 q 0,-0.2739 -0.10693,-0.4095 -0.10692,-0.1362 -0.32025,-0.1362 -0.25686,0 -0.40513,0.1637 -0.14831,0.1632 -0.14831,0.4459 v 1.0904 h -0.31859 v -1.9293 h 0.31859 v 0.2999 q 0.11413,-0.1742 0.2679,-0.2602 0.15434,-0.086 0.3561,-0.086 0.33239,0 0.50271,0.2056 0.17088,0.2056 0.17088,0.6052 z"
       style="stroke-width:0.000551215;stroke-linecap:butt;stroke-linejoin:round" /><path
       id="use90-3"
       d="m 952.79154,1041.6981 h 0.34999 v 1.5627 q 0,0.4134 0.1494,0.5953 0.14993,0.1814 0.48616,0.1814 0.33405,0 0.48398,-0.1814 0.14993,-0.1819 0.14993,-0.5953 v -1.5627 h 0.34946 v 1.6057 q 0,0.5027 -0.24913,0.7596 -0.2486,0.2569 -0.73424,0.2569 -0.48782,0 -0.73699,-0.2569 -0.24856,-0.2569 -0.24856,-0.7596 z"
       style="stroke-width:0.000551215;stroke-linecap:butt;stroke-linejoin:round" /><path
       id="use91-5"
       d="m 956.51736,1042.6368 q -0.0534,-0.031 -0.11627,-0.045 -0.0629,-0.015 -0.13836,-0.015 -0.26899,0 -0.41286,0.1747 -0.14389,0.1747 -0.14389,0.5021 v 1.0165 h -0.3186 v -1.9293 h 0.3186 v 0.2999 q 0.10033,-0.1758 0.26017,-0.2607 0.16041,-0.086 0.38971,-0.086 0.0325,0 0.0722,0 0.0397,0 0.0877,0.013 z"
       style="stroke-width:0.000551215;stroke-linecap:butt;stroke-linejoin:round" /><g
       id="g1"
       transform="translate(-2.49464)"><path
         id="use25-9"
         d="m 924.97716,1062.4399 h 0.73036 v 0.2464 h -0.41342 v 2.653 h 0.41342 v 0.2463 h -0.73036 z"
         style="stroke-width:0.000551215;stroke-linecap:butt;stroke-linejoin:round" /><path
         id="use26-3"
         d="m 927.25963,1064.1508 q -0.38417,0 -0.53244,0.088 -0.14831,0.088 -0.14831,0.2998 0,0.1687 0.11137,0.2679 0.11134,0.099 0.30205,0.099 0.26405,0 0.42333,-0.1869 0.15932,-0.1868 0.15932,-0.4966 v -0.071 z m 0.63225,-0.1312 v 1.1008 h -0.31693 v -0.2927 q -0.10859,0.1753 -0.27065,0.2591 -0.16207,0.084 -0.39631,0.084 -0.29602,0 -0.47132,-0.1665 -0.17473,-0.1665 -0.17473,-0.4454 0,-0.3252 0.21774,-0.4905 0.21826,-0.1654 0.65041,-0.1654 h 0.44486 v -0.031 q 0,-0.2189 -0.14387,-0.3385 -0.14389,-0.1196 -0.40403,-0.1196 -0.16538,0 -0.32248,0.04 -0.15656,0.04 -0.30095,0.119 v -0.2932 q 0.17364,-0.067 0.33733,-0.1003 0.16372,-0.034 0.31859,-0.034 0.41892,0 0.62565,0.2171 0.20669,0.2167 0.20669,0.6576 z"
         style="stroke-width:0.000551215;stroke-linecap:butt;stroke-linejoin:round" /><path
         id="use27-1"
         d="m 928.58915,1064.6828 h 0.36378 v 0.4376 h -0.36378 z"
         style="stroke-width:0.000551215;stroke-linecap:butt;stroke-linejoin:round" /><path
         id="use28-9"
         d="m 929.63333,1064.3592 v -1.168 h 0.31694 v 1.1559 q 0,0.2739 0.1064,0.4112 0.10693,0.1367 0.32081,0.1367 0.2563,0 0.40513,-0.1637 0.14941,-0.1637 0.14941,-0.4465 v -1.0936 h 0.31693 v 1.9292 h -0.31693 v -0.2965 q -0.11522,0.1758 -0.2679,0.2612 -0.15216,0.085 -0.35388,0.085 -0.33238,0 -0.50493,-0.2067 -0.17198,-0.2067 -0.17198,-0.6047 z m 0.7976,-1.2143 z"
         style="stroke-width:0.000551215;stroke-linecap:butt;stroke-linejoin:round" /><path
         id="use29-8"
         d="m 931.94639,1064.6828 h 0.36379 v 0.4376 h -0.36379 z"
         style="stroke-width:0.000551215;stroke-linecap:butt;stroke-linejoin:round" /><path
         id="use30-6"
         d="m 933.76394,1062.4399 v 3.1457 h -0.73036 v -0.2463 h 0.41177 v -2.653 h -0.41177 v -0.2464 z"
         style="stroke-width:0.000551215;stroke-linecap:butt;stroke-linejoin:round" /><path
         id="use91-5-7"
         d="m 923.25826,1063.5119 q -0.0534,-0.031 -0.11627,-0.045 -0.0629,-0.015 -0.13836,-0.015 -0.26899,0 -0.41286,0.1747 -0.14389,0.1747 -0.14389,0.5021 v 1.0164 h -0.3186 v -1.9292 h 0.3186 v 0.2999 q 0.10033,-0.1758 0.26017,-0.2608 0.16041,-0.086 0.38971,-0.086 0.0325,0 0.0722,0 0.0397,0 0.0877,0.013 z"
         style="stroke-width:0.000551215;stroke-linecap:butt;stroke-linejoin:round" /></g><path
       id="use92-9"
       d="m 957.7269,1043.3005 q -0.38418,0 -0.53245,0.088 -0.14831,0.088 -0.14831,0.2999 0,0.1687 0.11138,0.2679 0.11133,0.099 0.30204,0.099 0.26406,0 0.42334,-0.1869 0.15931,-0.1869 0.15931,-0.4966 v -0.071 z m 0.63225,-0.1312 v 1.1008 h -0.31694 v -0.2927 q -0.10858,0.1753 -0.27065,0.2591 -0.16207,0.084 -0.39631,0.084 -0.29602,0 -0.47131,-0.1665 -0.17473,-0.1665 -0.17473,-0.4454 0,-0.3252 0.21773,-0.4906 0.21827,-0.1653 0.65042,-0.1653 h 0.44485 v -0.032 q 0,-0.2188 -0.14386,-0.3384 -0.14386,-0.1196 -0.40404,-0.1196 -0.16538,0 -0.32247,0.04 -0.15656,0.04 -0.30096,0.119 v -0.2932 q 0.17364,-0.067 0.33733,-0.1004 0.16372,-0.034 0.31859,-0.034 0.41893,0 0.62565,0.2172 0.2067,0.2166 0.2067,0.6576 z"
       style="stroke-width:0.000551215;stroke-linecap:butt;stroke-linejoin:round" /><path
       id="use93-9"
       d="m 960.61576,1043.1054 v 1.1647 h -0.31697 v -1.1543 q 0,-0.2739 -0.10693,-0.4095 -0.10692,-0.1362 -0.32025,-0.1362 -0.25686,0 -0.40513,0.1638 -0.14831,0.1631 -0.14831,0.4459 v 1.0903 h -0.31859 v -1.9293 h 0.31859 v 0.2999 q 0.11413,-0.1742 0.2679,-0.2602 0.15434,-0.086 0.3561,-0.086 0.33238,0 0.5027,0.2056 0.17089,0.2056 0.17089,0.6053 z"
       style="stroke-width:0.000551215;stroke-linecap:butt;stroke-linejoin:round" /><path
       id="use94-8"
       d="m 961.21506,1043.5089 v -1.1681 h 0.31693 v 1.1559 q 0,0.274 0.1064,0.4112 0.10693,0.1367 0.32082,0.1367 0.25629,0 0.40513,-0.1637 0.1494,-0.1637 0.1494,-0.4464 v -1.0937 h 0.31694 v 1.9293 h -0.31694 v -0.2966 q -0.11522,0.1759 -0.2679,0.2613 -0.15215,0.086 -0.35387,0.086 -0.33239,0 -0.50493,-0.2068 -0.17198,-0.2067 -0.17198,-0.6046 z m 0.79759,-1.2144 z"
       style="stroke-width:0.000551215;stroke-linecap:butt;stroke-linejoin:round" /><path
       id="use95-1"
       d="m 964.7132,1042.3976 v 0.2999 q -0.13395,-0.069 -0.2789,-0.1031 -0.14443,-0.035 -0.29986,-0.035 -0.23591,0 -0.35387,0.072 -0.11797,0.072 -0.11797,0.2172 0,0.1102 0.0843,0.1731 0.0843,0.063 0.33954,0.1196 l 0.10859,0.024 q 0.33733,0.072 0.47953,0.204 0.14224,0.1317 0.14224,0.3677 0,0.2689 -0.21276,0.426 -0.2128,0.1566 -0.58487,0.1566 -0.15487,0 -0.323,-0.03 -0.16814,-0.03 -0.35388,-0.09 v -0.3274 q 0.17583,0.091 0.34615,0.1372 0.17032,0.045 0.33793,0.045 0.22376,0 0.34395,-0.077 0.12069,-0.077 0.12069,-0.2161 0,-0.129 -0.0871,-0.1979 -0.0865,-0.069 -0.38145,-0.1328 l -0.11025,-0.026 q -0.29436,-0.062 -0.42552,-0.1902 -0.13063,-0.1284 -0.13063,-0.3522 0,-0.2723 0.1929,-0.42 0.19293,-0.1483 0.54793,-0.1483 0.17526,0 0.33017,0.026 0.15543,0.025 0.28606,0.077 z"
       style="stroke-width:0.000551215;stroke-linecap:butt;stroke-linejoin:round" /><path
       id="use96-6"
       d="m 1018.4137,1045.2123 h 0.4686 l 1.1404,2.1514 v -2.1514 h 0.3374 v 2.572 h -0.4686 l -1.1399,-2.1514 v 2.1514 h -0.3379 z"
       style="stroke-width:0.000551215;stroke-linecap:butt;stroke-linejoin:round" /><path
       id="use97-6"
       d="m 1022.6892,1046.7403 v 0.1548 h -1.4574 q 0.021,0.3275 0.1973,0.4989 0.1764,0.1714 0.4917,0.1714 0.1825,0 0.3539,-0.045 0.1715,-0.045 0.3407,-0.1345 v 0.2998 q -0.1709,0.072 -0.35,0.1103 -0.1792,0.038 -0.3633,0.038 -0.4619,0 -0.7315,-0.2684 -0.2695,-0.269 -0.2695,-0.7276 0,-0.4735 0.2558,-0.7513 0.2557,-0.2784 0.6901,-0.2784 0.3891,0 0.6157,0.2508 0.2265,0.2503 0.2265,0.6808 z m -0.3169,-0.093 q 0,-0.2596 -0.1455,-0.4145 -0.1422,-0.1555 -0.3765,-0.1555 -0.2652,0 -0.4244,0.15 -0.1594,0.1499 -0.1836,0.4222 z"
       style="stroke-width:0.000551215;stroke-linecap:butt;stroke-linejoin:round" /><path
       id="use98-0"
       d="m 1023.5158,1047.4949 v 1.023 h -0.3186 v -2.6629 h 0.3186 v 0.2927 q 0.1003,-0.172 0.2524,-0.2552 0.1527,-0.084 0.3644,-0.084 0.3517,0 0.571,0.2789 0.22,0.2789 0.22,0.7337 0,0.4547 -0.22,0.7342 -0.2193,0.2789 -0.571,0.2789 -0.2117,0 -0.3644,-0.084 -0.1521,-0.084 -0.2524,-0.2557 z m 1.0787,-0.6736 q 0,-0.3495 -0.1439,-0.5485 -0.1438,-0.199 -0.3952,-0.199 -0.2519,0 -0.3957,0.199 -0.1439,0.199 -0.1439,0.5485 0,0.3495 0.1439,0.5484 0.1438,0.199 0.3957,0.199 0.2514,0 0.3952,-0.199 0.1439,-0.1989 0.1439,-0.5484 z"
       style="stroke-width:0.000551215;stroke-linecap:butt;stroke-linejoin:round" /><path
       id="use99-3"
       d="m 1025.7623,1045.3071 v 0.5479 h 0.6526 v 0.2464 h -0.6526 v 1.0473 q 0,0.2359 0.064,0.3032 0.064,0.067 0.2629,0.067 h 0.3252 v 0.2652 h -0.3252 q -0.3671,0 -0.5066,-0.1367 -0.1395,-0.1373 -0.1395,-0.4989 v -1.0473 h -0.2325 v -0.2464 h 0.2325 v -0.5479 z"
       style="stroke-width:0.000551215;stroke-linecap:butt;stroke-linejoin:round" /><path
       id="use100-8"
       d="m 1026.7993,1047.023 v -1.168 h 0.3169 v 1.1559 q 0,0.274 0.1064,0.4112 0.107,0.1367 0.3209,0.1367 0.2562,0 0.4051,-0.1637 0.1494,-0.1637 0.1494,-0.4465 v -1.0936 h 0.3169 v 1.9293 h -0.3169 v -0.2966 q -0.1152,0.1758 -0.2679,0.2613 -0.1522,0.085 -0.3539,0.085 -0.3324,0 -0.5049,-0.2067 -0.172,-0.2067 -0.172,-0.6047 z m 0.7976,-1.2143 z"
       style="stroke-width:0.000551215;stroke-linecap:butt;stroke-linejoin:round" /><path
       id="use101-0"
       d="m 1030.6717,1046.6195 v 1.1648 h -0.3169 v -1.1543 q 0,-0.2739 -0.107,-0.4095 -0.1069,-0.1362 -0.3202,-0.1362 -0.2569,0 -0.4051,0.1637 -0.1483,0.1632 -0.1483,0.446 v 1.0903 h -0.3186 v -1.9293 h 0.3186 v 0.2999 q 0.1141,-0.1742 0.2679,-0.2602 0.1543,-0.086 0.3561,-0.086 0.3323,0 0.5027,0.2056 0.1708,0.2056 0.1708,0.6052 z"
       style="stroke-width:0.000551215;stroke-linecap:butt;stroke-linejoin:round" /><path
       id="use102-1"
       d="m 1032.9539,1046.7403 v 0.1548 h -1.4574 q 0.021,0.3275 0.1973,0.4989 0.1764,0.1714 0.4917,0.1714 0.1824,0 0.3539,-0.045 0.1714,-0.045 0.3406,-0.1345 v 0.2998 q -0.1709,0.072 -0.35,0.1103 -0.1792,0.038 -0.3633,0.038 -0.4619,0 -0.7314,-0.2684 -0.2696,-0.269 -0.2696,-0.7276 0,-0.4735 0.2558,-0.7513 0.2558,-0.2784 0.6901,-0.2784 0.3892,0 0.6157,0.2508 0.2266,0.2503 0.2266,0.6808 z m -0.317,-0.093 q 0,-0.2596 -0.1455,-0.4145 -0.1422,-0.1555 -0.3765,-0.1555 -0.2651,0 -0.4244,0.15 -0.1593,0.1499 -0.1836,0.4222 z"
       style="stroke-width:0.000551215;stroke-linecap:butt;stroke-linejoin:round" /><path
       id="use103-2"
       d="m 837.34912,943.92648 c 0.28067,0 0.54988,-0.11151 0.74835,-0.30998 0.19847,-0.19846 0.30998,-0.46768 0.30998,-0.74835 0,-0.28067 -0.11151,-0.54989 -0.30998,-0.74835 -0.19847,-0.19847 -0.46768,-0.30998 -0.74835,-0.30998 -0.28068,0 -0.54989,0.11151 -0.74836,0.30998 -0.19847,0.19846 -0.30998,0.46768 -0.30998,0.74835 0,0.28067 0.11151,0.54989 0.30998,0.74835 0.19847,0.19847 0.46768,0.30998 0.74836,0.30998 z"
       style="fill:#e03c31;stroke:#e03c31;stroke-width:0.352778;stroke-linecap:butt;stroke-linejoin:round" /><path
       id="use104-5"
       d="m 839.37627,976.307 c 0.28068,0 0.54989,-0.11151 0.74836,-0.30998 0.19847,-0.19846 0.30998,-0.46768 0.30998,-0.74835 0,-0.28067 -0.11151,-0.54989 -0.30998,-0.74836 -0.19847,-0.19846 -0.46768,-0.30998 -0.74836,-0.30998 -0.28067,0 -0.54988,0.11152 -0.74835,0.30998 -0.19847,0.19847 -0.30998,0.46769 -0.30998,0.74836 0,0.28067 0.11151,0.54989 0.30998,0.74835 0.19847,0.19847 0.46768,0.30998 0.74835,0.30998 z"
       style="fill:#e03c31;stroke:#e03c31;stroke-width:0.352778;stroke-linecap:butt;stroke-linejoin:round" /><path
       id="use105-0"
       d="m 841.04434,989.35961 c 0.28068,0 0.54989,-0.11151 0.74836,-0.30998 0.19846,-0.19846 0.30998,-0.46768 0.30998,-0.74835 0,-0.28067 -0.11152,-0.54989 -0.30998,-0.74836 -0.19847,-0.19846 -0.46768,-0.30997 -0.74836,-0.30997 -0.28067,0 -0.54989,0.11151 -0.74835,0.30997 -0.19847,0.19847 -0.30998,0.46769 -0.30998,0.74836 0,0.28067 0.11151,0.54989 0.30998,0.74835 0.19846,0.19847 0.46768,0.30998 0.74835,0.30998 z"
       style="fill:#e03c31;stroke:#e03c31;stroke-width:0.352778;stroke-linecap:butt;stroke-linejoin:round" /><path
       id="use106-9"
       d="m 844.20153,1003.6673 c 0.28067,0 0.54989,-0.1115 0.74835,-0.31 0.19847,-0.1985 0.30998,-0.4677 0.30998,-0.7483 0,-0.2807 -0.11151,-0.5499 -0.30998,-0.7484 -0.19846,-0.1985 -0.46768,-0.31 -0.74835,-0.31 -0.28067,0 -0.54989,0.1115 -0.74835,0.31 -0.19847,0.1985 -0.30998,0.4677 -0.30998,0.7484 0,0.2806 0.11151,0.5498 0.30998,0.7483 0.19846,0.1985 0.46768,0.31 0.74835,0.31 z"
       style="fill:#e03c31;stroke:#e03c31;stroke-width:0.352778;stroke-linecap:butt;stroke-linejoin:round" /><path
       id="use107-4"
       d="m 866.38673,1031.2786 c 0.28068,0 0.54989,-0.1115 0.74836,-0.31 0.19846,-0.1985 0.30998,-0.4677 0.30998,-0.7484 0,-0.2806 -0.11152,-0.5498 -0.30998,-0.7483 -0.19847,-0.1985 -0.46768,-0.31 -0.74836,-0.31 -0.28067,0 -0.54989,0.1115 -0.74835,0.31 -0.19847,0.1985 -0.30998,0.4677 -0.30998,0.7483 0,0.2807 0.11151,0.5499 0.30998,0.7484 0.19846,0.1985 0.46768,0.31 0.74835,0.31 z"
       style="fill:#e03c31;stroke:#e03c31;stroke-width:0.352778;stroke-linecap:butt;stroke-linejoin:round" /><path
       id="use108-7"
       d="m 892.51501,1039.813 c 0.28067,0 0.54991,-0.1115 0.74835,-0.31 0.19847,-0.1985 0.30998,-0.4677 0.30998,-0.7484 0,-0.2806 -0.11151,-0.5498 -0.30998,-0.7483 -0.19844,-0.1985 -0.46768,-0.31 -0.74835,-0.31 -0.28067,0 -0.54987,0.1115 -0.74835,0.31 -0.19847,0.1985 -0.30998,0.4677 -0.30998,0.7483 0,0.2807 0.11151,0.5499 0.30998,0.7484 0.19848,0.1985 0.46768,0.31 0.74835,0.31 z"
       style="fill:#e03c31;stroke:#e03c31;stroke-width:0.352778;stroke-linecap:butt;stroke-linejoin:round" /><path
       id="use109-8"
       d="m 950.72116,1047.0923 c 0.28067,0 0.54987,-0.1115 0.74834,-0.31 0.19848,-0.1984 0.30999,-0.4676 0.30999,-0.7483 0,-0.2807 -0.11151,-0.5499 -0.30999,-0.7484 -0.19847,-0.1984 -0.46767,-0.3099 -0.74834,-0.3099 -0.28071,0 -0.54991,0.1115 -0.74839,0.3099 -0.19843,0.1985 -0.30995,0.4677 -0.30995,0.7484 0,0.2807 0.11152,0.5499 0.30995,0.7483 0.19848,0.1985 0.46768,0.31 0.74839,0.31 z"
       style="fill:#e03c31;stroke:#e03c31;stroke-width:0.352778;stroke-linecap:butt;stroke-linejoin:round" /><path
       id="use110-3"
       d="m 1016.3037,1050.6065 c 0.2806,0 0.5498,-0.1115 0.7483,-0.31 0.1985,-0.1985 0.31,-0.4677 0.31,-0.7484 0,-0.2806 -0.1115,-0.5498 -0.31,-0.7483 -0.1985,-0.1985 -0.4677,-0.31 -0.7483,-0.31 -0.2807,0 -0.5499,0.1115 -0.7484,0.31 -0.1984,0.1985 -0.31,0.4677 -0.31,0.7483 0,0.2807 0.1116,0.5499 0.31,0.7484 0.1985,0.1985 0.4677,0.31 0.7484,0.31 z"
       style="fill:#e03c31;stroke:#e03c31;stroke-width:0.352778;stroke-linecap:butt;stroke-linejoin:round" /></g></svg>
