<?xml version="1.0" encoding="UTF-8" standalone="no"?>
<!-- Created with Inkscape (http://www.inkscape.org/) -->

<svg
   width="153.63901mm"
   height="85.093803mm"
   viewBox="0 0 153.63901 85.093805"
   version="1.1"
   id="svg1"
   xml:space="preserve"
   inkscape:version="1.4 (86a8ad7, 2024-10-11)"
   sodipodi:docname="Ch7.svg"
   xmlns:inkscape="http://www.inkscape.org/namespaces/inkscape"
   xmlns:sodipodi="http://sodipodi.sourceforge.net/DTD/sodipodi-0.dtd"
   xmlns="http://www.w3.org/2000/svg"
   xmlns:svg="http://www.w3.org/2000/svg"><sodipodi:namedview
     id="namedview1"
     pagecolor="#ffffff"
     bordercolor="#000000"
     borderopacity="0.25"
     inkscape:showpageshadow="2"
     inkscape:pageopacity="0.0"
     inkscape:pagecheckerboard="0"
     inkscape:deskcolor="#ffffff"
     inkscape:document-units="mm"
     inkscape:zoom="0.5"
     inkscape:cx="484"
     inkscape:cy="3493"
     inkscape:window-width="1920"
     inkscape:window-height="974"
     inkscape:window-x="-11"
     inkscape:window-y="-11"
     inkscape:window-maximized="1"
     inkscape:current-layer="layer1"><inkscape:page
       x="0"
       y="0"
       width="153.63901"
       height="85.093803"
       id="page2"
       margin="0"
       bleed="0" /></sodipodi:namedview><defs
     id="defs1"><marker
       style="overflow:visible"
       id="ArrowWide"
       refX="0"
       refY="0"
       orient="auto-start-reverse"
       inkscape:stockid="Wide arrow"
       markerWidth="1"
       markerHeight="1"
       viewBox="0 0 1 1"
       inkscape:isstock="true"
       inkscape:collect="always"
       preserveAspectRatio="xMidYMid"><path
         style="fill:none;stroke:context-stroke;stroke-width:1;stroke-linecap:butt"
         d="m -2.75,3 3,-3 -3,-3"
         sodipodi:nodetypes="ccc"
         id="path8" /></marker><style
       type="text/css"
       id="style1">*{stroke-linejoin: round; stroke-linecap: butt}</style><style
       type="text/css"
       id="style1-4">*{stroke-linejoin: round; stroke-linecap: butt}</style><style
       type="text/css"
       id="style1-1">*{stroke-linejoin: round; stroke-linecap: butt}</style></defs><g
     inkscape:label="Layer 1"
     inkscape:groupmode="layer"
     id="layer1"
     transform="translate(-468.09359,-289.65938)"><path
       style="opacity:1;fill:none;fill-opacity:1;stroke:#00a6d6;stroke-width:1;stroke-linecap:round;stroke-dasharray:none;stroke-dashoffset:0;stroke-opacity:1;marker-end:url(#ArrowWide)"
       d="m 621.23264,325.01401 c -49.97378,0 -102.87241,-9.33637 -152.4,5.82055"
       id="path83"
       sodipodi:nodetypes="cc"
       inkscape:export-filename="Fietser.png"
       inkscape:export-xdpi="330.6452"
       inkscape:export-ydpi="330.6452" /><path
       style="opacity:1;fill:none;fill-opacity:1;stroke:#00a6d6;stroke-width:1;stroke-linecap:round;stroke-dasharray:none;stroke-dashoffset:0;stroke-opacity:1;marker-end:url(#ArrowWide)"
       d="m 621.23264,340.88902 c -49.97378,0 -90.96616,24.79488 -152.4,5.82055"
       id="path84"
       sodipodi:nodetypes="cc" /><path
       id="circle2"
       style="stroke:#ffffff;stroke-width:10;stroke-dasharray:none;stroke-opacity:0"
       d="m 535.29227,301.41699 a 6.7576003,6.7576003 0 0 1 -6.7576,6.7576 6.7576003,6.7576003 0 0 1 -6.7576,-6.7576 6.7576003,6.7576003 0 0 1 6.7576,-6.7576 6.7576003,6.7576003 0 0 1 6.7576,6.7576 z m -17.23193,51.61114 h -2.87197 c -0.50682,-4.139 -2.61858,-7.77122 -5.74398,-10.22084 l 2.61858,-4.30799 -2.872,-1.85833 -2.70302,4.39243 c -1.85836,-0.84469 -4.05456,-1.35151 -6.25079,-1.35151 -8.27807,0 -15.03565,6.75758 -15.03565,15.03565 0,8.27808 6.75758,15.03566 15.03565,15.03566 7.68677,0 14.10648,-5.82842 14.95121,-13.34624 h 3.37879 c -0.33787,-0.84473 -0.50682,-1.68942 -0.50682,-2.61858 z m -17.82318,13.34628 c -6.41971,0 -11.65686,-5.23716 -11.65686,-11.65687 0,-6.41971 5.23715,-11.65686 11.65686,-11.65686 1.60493,0 3.12539,0.33787 4.4769,0.92917 l -5.99736,9.883 c -0.33787,0.50682 -0.33787,1.18256 0,1.68938 0.33787,0.50682 0.84469,0.84473 1.43598,0.84473 h 11.48795 c -0.76025,5.57502 -5.57503,9.96745 -11.40347,9.96745 z m 3.04092,-13.34628 4.39243,-7.2644 c 2.19623,1.77386 3.63221,4.39243 4.13903,7.2644 z m 47.13426,-13.34624 c -0.76021,0 -1.52046,0.0846 -2.28067,0.16889 l -4.47694,-16.47164 c -0.16888,-0.76024 -0.84469,-1.26706 -1.6049,-1.26706 h -4.73033 c -0.33787,-1.01364 -1.26707,-1.94281 -2.36515,-2.28068 l -4.98376,-1.60493 -1.68938,-4.89925 c -0.59129,-1.60494 -1.77388,-2.95645 -3.29434,-3.80117 l -1.35151,-0.59129 c -3.29435,-1.68938 -7.34891,-0.50682 -9.20724,2.70305 l -5.0682,8.86936 c 0,0 -2.19623,3.71666 -2.19623,3.71666 -1.52046,2.61858 -0.76022,6.08184 1.85836,7.77125 l 12.41707,8.02465 0.42235,13.51519 c 0.0846,1.94284 1.43602,3.71669 3.37882,4.05456 2.44963,0.3379 4.56138,-1.52046 4.56138,-3.97008 v -17.48528 c 0,-1.01364 -0.42234,-1.9428 -1.26706,-2.5341 l -8.53147,-6.67314 3.37879,-6.08184 0.50682,1.35151 c 0.3379,1.01364 1.18259,1.77389 2.19623,2.11176 l 6.75761,2.19623 c 0.42235,0.16889 0.84469,0.16889 1.18256,0.16889 0.9292,0 1.77389,-0.42235 2.36518,-1.09809 h 4.22348 l 1.68941,6.25076 h -10.1364 c 0.76025,1.01364 1.18259,2.11176 1.35151,3.37882 h 4.13904 l -4.13904,5.65947 v 5.74397 l 8.27807,-11.40344 h 1.26707 l 1.52046,5.49055 c -5.49058,2.1962 -9.46066,7.6023 -9.46066,13.93753 0,8.27808 6.75761,15.03569 15.03568,15.03569 8.27804,0 15.03565,-6.75761 15.03565,-15.03569 0.25349,-8.19359 -6.50418,-14.95117 -14.78226,-14.95117 z m 0,26.69252 c -6.41971,0 -11.65686,-5.23716 -11.65686,-11.65687 0,-4.73033 2.87197,-8.86933 7.01101,-10.64322 l 3.04092,11.15004 c 0.16888,0.76025 0.92916,1.26707 1.60493,1.26707 0.16889,0 0.33787,0 0.42235,-0.0846 0.92916,-0.25349 1.43598,-1.18259 1.18259,-2.11176 l -3.04092,-11.15004 c 0.50682,-0.0846 0.92916,-0.0846 1.43598,-0.0846 6.41971,0 11.65686,5.23715 11.65686,11.65686 0,6.41971 -5.23715,11.65686 -11.65686,11.65686 z" /><path
       style="opacity:1;fill:none;fill-opacity:1;stroke:#00a6d6;stroke-width:1;stroke-linecap:round;stroke-dasharray:none;stroke-dashoffset:0;stroke-opacity:1;marker-mid:url(#ArrowWide);marker-end:url(#ArrowWide)"
       d="m 621.23264,314.43067 c -65.70801,0 -72.70235,-40.35642 -147.37291,-16.40413"
       id="path82"
       sodipodi:nodetypes="cc" /><path
       id="path85"
       style="stroke:none;stroke-width:8;stroke-dasharray:none;stroke-opacity:1"
       d="m 535.29227,301.41699 a 6.7576003,6.7576003 0 0 1 -6.7576,6.7576 6.7576003,6.7576003 0 0 1 -6.7576,-6.7576 6.7576003,6.7576003 0 0 1 6.7576,-6.7576 6.7576003,6.7576003 0 0 1 6.7576,6.7576 z m -17.23193,51.61114 h -2.87197 c -0.50682,-4.139 -2.61858,-7.77122 -5.74398,-10.22084 l 2.61858,-4.30799 -2.872,-1.85833 -2.70302,4.39243 c -1.85836,-0.84469 -4.05456,-1.35151 -6.25079,-1.35151 -8.27807,0 -15.03565,6.75758 -15.03565,15.03565 0,8.27808 6.75758,15.03566 15.03565,15.03566 7.68677,0 14.10648,-5.82842 14.95121,-13.34624 h 3.37879 c -0.33787,-0.84473 -0.50682,-1.68942 -0.50682,-2.61858 z m -17.82318,13.34628 c -6.41971,0 -11.65686,-5.23716 -11.65686,-11.65687 0,-6.41971 5.23715,-11.65686 11.65686,-11.65686 1.60493,0 3.12539,0.33787 4.4769,0.92917 l -5.99736,9.883 c -0.33787,0.50682 -0.33787,1.18256 0,1.68938 0.33787,0.50682 0.84469,0.84473 1.43598,0.84473 h 11.48795 c -0.76025,5.57502 -5.57503,9.96745 -11.40347,9.96745 z m 3.04092,-13.34628 4.39243,-7.2644 c 2.19623,1.77386 3.63221,4.39243 4.13903,7.2644 z m 47.13426,-13.34624 c -0.76021,0 -1.52046,0.0846 -2.28067,0.16889 l -4.47694,-16.47164 c -0.16888,-0.76024 -0.84469,-1.26706 -1.6049,-1.26706 h -4.73033 c -0.33787,-1.01364 -1.26707,-1.94281 -2.36515,-2.28068 l -4.98376,-1.60493 -1.68938,-4.89925 c -0.59129,-1.60494 -1.77388,-2.95645 -3.29434,-3.80117 l -1.35151,-0.59129 c -3.29435,-1.68938 -7.34891,-0.50682 -9.20724,2.70305 l -5.0682,8.86936 c 0,0 -2.19623,3.71666 -2.19623,3.71666 -1.52046,2.61858 -0.76022,6.08184 1.85836,7.77125 l 12.41707,8.02465 0.42235,13.51519 c 0.0846,1.94284 1.43602,3.71669 3.37882,4.05456 2.44963,0.3379 4.56138,-1.52046 4.56138,-3.97008 v -17.48528 c 0,-1.01364 -0.42234,-1.9428 -1.26706,-2.5341 l -8.53147,-6.67314 3.37879,-6.08184 0.50682,1.35151 c 0.3379,1.01364 1.18259,1.77389 2.19623,2.11176 l 6.75761,2.19623 c 0.42235,0.16889 0.84469,0.16889 1.18256,0.16889 0.9292,0 1.77389,-0.42235 2.36518,-1.09809 h 4.22348 l 1.68941,6.25076 h -10.1364 c 0.76025,1.01364 1.18259,2.11176 1.35151,3.37882 h 4.13904 l -4.13904,5.65947 v 5.74397 l 8.27807,-11.40344 h 1.26707 l 1.52046,5.49055 c -5.49058,2.1962 -9.46066,7.6023 -9.46066,13.93753 0,8.27808 6.75761,15.03569 15.03568,15.03569 8.27804,0 15.03565,-6.75761 15.03565,-15.03569 0.25349,-8.19359 -6.50418,-14.95117 -14.78226,-14.95117 z m 0,26.69252 c -6.41971,0 -11.65686,-5.23716 -11.65686,-11.65687 0,-4.73033 2.87197,-8.86933 7.01101,-10.64322 l 3.04092,11.15004 c 0.16888,0.76025 0.92916,1.26707 1.60493,1.26707 0.16889,0 0.33787,0 0.42235,-0.0846 0.92916,-0.25349 1.43598,-1.18259 1.18259,-2.11176 l -3.04092,-11.15004 c 0.50682,-0.0846 0.92916,-0.0846 1.43598,-0.0846 6.41971,0 11.65686,5.23715 11.65686,11.65686 0,6.41971 -5.23715,11.65686 -11.65686,11.65686 z" /><path
       style="opacity:1;fill:none;fill-opacity:1;stroke:#00a6d6;stroke-width:1;stroke-linecap:round;stroke-dasharray:none;stroke-dashoffset:0;stroke-opacity:1;marker-end:url(#ArrowWide)"
       d="m 550.09012,296.94816 -1.0765,-0.38637"
       id="path86"
       sodipodi:nodetypes="cc" /><path
       style="opacity:1;fill:none;fill-opacity:1;stroke:#00a6d6;stroke-width:1;stroke-linecap:round;stroke-dasharray:none;stroke-dashoffset:0;stroke-opacity:1;marker-end:url(#ArrowWide)"
       d="m 562.68201,322.79759 -1.30909,-0.0548"
       id="path87"
       sodipodi:nodetypes="cc" /><path
       style="opacity:1;fill:none;fill-opacity:1;stroke:#00a6d6;stroke-width:1;stroke-linecap:round;stroke-dasharray:none;stroke-dashoffset:0;stroke-opacity:1;marker-end:url(#ArrowWide)"
       d="m 581.19426,345.13065 -1.65453,0.29894"
       id="path88"
       sodipodi:nodetypes="cc" /></g></svg>
