<?xml version="1.0" encoding="UTF-8" standalone="no"?>
<!-- Created with Inkscape (http://www.inkscape.org/) -->

<svg
   width="125.34195mm"
   height="76.344254mm"
   viewBox="0 0 125.34195 76.344254"
   version="1.1"
   id="svg1"
   inkscape:version="1.4 (86a8ad7, 2024-10-11)"
   sodipodi:docname="Ch8.svg"
   xml:space="preserve"
   xmlns:inkscape="http://www.inkscape.org/namespaces/inkscape"
   xmlns:sodipodi="http://sodipodi.sourceforge.net/DTD/sodipodi-0.dtd"
   xmlns="http://www.w3.org/2000/svg"
   xmlns:svg="http://www.w3.org/2000/svg"><sodipodi:namedview
     id="namedview1"
     pagecolor="#ffffff"
     bordercolor="#000000"
     borderopacity="0.25"
     inkscape:showpageshadow="2"
     inkscape:pageopacity="0.0"
     inkscape:pagecheckerboard="0"
     inkscape:deskcolor="#ffffff"
     inkscape:document-units="mm"
     inkscape:zoom="0.65477696"
     inkscape:cx="5617.9436"
     inkscape:cy="1839.5577"
     inkscape:window-width="1920"
     inkscape:window-height="974"
     inkscape:window-x="-11"
     inkscape:window-y="-11"
     inkscape:window-maximized="1"
     inkscape:current-layer="layer1"
     showgrid="false"><inkscape:page
       x="-1.8056423e-12"
       y="-4.6590609e-12"
       width="125.34196"
       height="76.344246"
       id="page2"
       margin="0"
       bleed="0" /></sodipodi:namedview><defs
     id="defs1" /><g
     inkscape:label="Layer 1"
     inkscape:groupmode="layer"
     id="layer1"
     transform="translate(-1586.0627,-558.89944)"><path
       style="fill:#000000"
       d="m 1586.7617,634.97194 c -0.6555,-2.14225 -0.9691,-16.17188 -0.408,-18.25561 0.1601,-0.59442 0.2587,-1.51187 0.2192,-2.03876 -0.039,-0.5269 0.027,-2.62487 0.1486,-4.66216 0.1212,-2.03729 0.234,-4.83297 0.2508,-6.21262 l 0.031,-2.50846 1.1875,-0.65498 c 0.6531,-0.36024 1.4865,-1.01419 1.8521,-1.45323 0.3655,-0.43904 1.2003,-1.34874 1.8552,-2.02155 1.4529,-1.49284 2.1376,-2.66243 1.6536,-2.82492 -0.684,-0.22968 -0.2912,-0.7884 0.7938,-1.12894 0.6184,-0.19412 1.2376,-0.4513 1.3758,-0.57152 0.4421,-0.38444 1.4965,-0.2349 2.19,0.31059 0.8114,0.63828 2.3142,0.68608 4.1414,0.13175 0.7865,-0.2386 2.8942,-0.44203 5.3925,-0.52048 l 4.1014,-0.12879 -0.051,-4.55541 c -0.028,-2.50548 -0.093,-4.62323 -0.1441,-4.70612 -0.051,-0.0829 -0.1641,-1.10143 -0.2508,-2.26343 -0.087,-1.162 -0.2207,-2.94616 -0.2977,-3.96481 -0.2244,-2.96937 -0.7228,-5.94986 -1.0387,-6.21203 -0.1776,-0.14736 -0.7028,-0.13807 -1.3402,0.0237 -0.7711,0.19573 -1.5332,0.1663 -2.8832,-0.11132 -1.2898,-0.26523 -2.105,-0.30286 -2.7432,-0.12663 -0.5827,0.16089 -1.6318,0.15406 -2.9273,-0.019 -1.6845,-0.22509 -2.1213,-0.38851 -2.6352,-0.98597 -0.4224,-0.49101 -0.5615,-0.89109 -0.4425,-1.27264 0.095,-0.30607 0.27,-1.01747 0.3879,-1.58089 0.118,-0.56342 0.3569,-1.11243 0.531,-1.22003 0.1741,-0.1076 1.1263,-0.2007 2.1161,-0.2069 2.4643,-0.0154 2.9693,-0.32003 2.8665,-1.72877 l -0.081,-1.10339 -2.3813,-0.34745 c -2.3226,-0.3389 -4.1923,-0.31713 -5.3213,0.062 -0.6681,0.22433 -1.0779,-0.50802 -0.6039,-1.07915 0.4643,-0.5595 6.5955,-0.50505 8.2081,0.0729 1.491,0.53434 2.0425,0.36022 2.2571,-0.7125 0.09,-0.44985 0.4497,-1.0054 0.7994,-1.23454 0.5936,-0.38894 0.7275,-0.37204 2.0139,0.25425 1.3038,0.63476 1.5489,0.66353 4.553,0.53453 3.6596,-0.15714 8.9852,-0.17388 25.7969,-0.0811 6.6212,0.0365 13.2291,-0.0245 14.6843,-0.13565 1.4553,-0.11115 3.3603,-0.19322 4.2334,-0.18238 0.8731,0.0108 2.2423,0.008 3.0427,-0.006 0.8004,-0.0143 1.9314,-0.0148 2.5135,-10e-4 0.5821,0.0137 4.9874,0.0783 9.7896,0.14356 4.8022,0.0653 10.8782,0.25321 13.5022,0.41763 3.2071,0.20096 5.0712,0.21286 5.6868,0.0363 0.5037,-0.14446 2.1676,-0.26266 3.6975,-0.26266 1.5299,0 3.183,-0.11512 3.6735,-0.25581 1.0446,-0.29958 1.3545,-0.1659 2.9088,1.25488 l 1.1383,1.04049 -0.1798,1.55991 c -0.2662,2.31074 -0.5967,3.40348 -1.1923,3.94247 -0.4647,0.42058 -0.617,0.43718 -1.1913,0.12981 -0.8025,-0.42945 -0.9233,-0.32548 -1.0788,0.9284 -0.2541,2.04901 -1.2909,2.59912 -2.4909,1.32172 -0.5313,-0.56546 -0.8547,-0.66112 -2.229,-0.65916 -1.4715,0.002 -1.6897,0.0802 -2.5791,0.92326 l -0.9715,0.92096 -0.024,2.58247 c -0.014,1.42036 0.1135,5.79716 0.2821,9.72622 0.3268,7.61502 0.4496,8.20356 1.6565,7.93877 0.307,-0.0674 3.118,-0.18016 6.2467,-0.25068 3.1287,-0.0705 6.1053,-0.24013 6.6146,-0.37692 0.5093,-0.13678 1.7956,-0.31331 2.8585,-0.39229 1.7037,-0.1266 1.9963,-0.0797 2.4718,0.39583 0.3807,0.38067 0.4836,0.70743 0.3497,1.11027 -0.1044,0.31397 -0.2277,3.84507 -0.2741,7.8469 -0.046,4.00182 -0.1618,8.94291 -0.2567,10.9802 -0.095,2.0373 -0.1637,4.29948 -0.153,5.02709 0.092,6.31966 -0.097,7.40833 -1.2883,7.40833 -0.5577,0 -0.6776,-0.15868 -0.8404,-1.11216 -0.1044,-0.6117 -0.3161,-1.34801 -0.4703,-1.63626 -0.4266,-0.79698 -0.3439,-1.23669 0.3983,-2.1187 0.5921,-0.70372 0.6558,-0.95957 0.4991,-2.00467 -0.2856,-1.90418 -0.8739,-1.67605 -4.5133,1.74989 -1.4919,1.40451 -1.945,1.65332 -3.4115,1.87343 -0.4874,0.0731 -0.5396,0.33457 -0.6615,3.31053 -0.1063,2.59756 -0.2255,3.33973 -0.6079,3.78516 -0.9692,1.12885 -1.8316,0.006 -1.1592,-1.50936 0.3724,-0.83924 0.4057,-1.28312 0.1921,-2.56406 -0.2552,-1.53054 -0.6283,-2.28734 -1.1276,-2.28734 -0.1411,0 -0.5593,-0.23813 -0.9293,-0.52917 -0.5075,-0.3992 -1.0734,-0.52916 -2.3039,-0.52916 -0.916,0 -1.7705,0.13922 -1.9487,0.3175 -0.1747,0.17462 -0.3194,0.7997 -0.3216,1.38906 0,0.58936 -0.1122,1.2425 -0.2444,1.45142 -0.4179,0.66036 -1.1154,-0.18145 -1.0657,-1.28616 0.091,-2.01955 0.1495,-1.95097 -1.5301,-1.78598 -2.9037,0.28523 -4.028,0.51312 -4.3306,0.87772 -0.1835,0.22107 -0.3168,1.51529 -0.3359,3.26106 -0.033,2.99843 -0.2561,3.67193 -1.1085,3.34481 -0.3987,-0.15298 -0.4358,-0.48297 -0.3103,-2.75988 0.1817,-3.29758 -0.1378,-4.25591 -1.359,-4.07667 -1.2454,0.18278 -1.0984,-0.61566 0.1682,-0.91405 0.9096,-0.21426 1.0212,-0.34321 1.3399,-1.54764 0.4262,-1.6111 0.5681,-9.91806 0.271,-15.86598 -0.2833,-5.67254 -0.3128,-5.95364 -0.7299,-6.9605 -0.3,-0.72446 -0.3028,-1.04933 -0.016,-1.91729 0.2893,-0.87641 0.2803,-1.40823 -0.056,-3.2958 -0.4313,-2.42222 -0.2299,-3.30594 0.6743,-2.95896 0.4459,0.17108 0.5248,0.63815 0.5675,3.35859 0.059,3.74018 0.1483,4.7625 0.4176,4.7625 0.1569,0 0.7369,-0.44649 1.2889,-0.99219 1.3911,-1.37537 2.9182,-2.4474 3.4861,-2.4474 0.792,0 1.1403,-0.9753 0.6277,-1.75765 -0.3509,-0.53552 -0.4224,-1.24945 -0.3699,-3.69354 0.081,-3.75077 -0.1163,-4.0602 -1.5828,-2.4875 -1.6182,1.73541 -2.3533,2.13214 -3.5991,1.94263 -1.785,-0.27153 -1.7554,-0.17432 -1.711,-5.6232 0.062,-7.60884 0.089,-7.29928 -0.6742,-7.64718 -0.4842,-0.22062 -0.6615,-0.50698 -0.6615,-1.0687 0,-1.46441 -1.8838,-1.65019 -8.0193,-0.79087 -1.1364,0.15917 -2.5267,0.22763 -3.0896,0.15213 -0.6842,-0.0918 -1.2168,-0.002 -1.607,0.2715 -0.5391,0.37762 -0.5722,0.5593 -0.4342,2.38389 0.1604,2.12179 -0.091,3.23724 -0.7289,3.23724 -0.4677,0 -0.5883,-0.48021 -0.815,-3.2452 -0.2,-2.43784 -0.4843,-2.82854 -1.889,-2.59522 -0.9277,0.1541 -1.0065,0.23331 -0.948,0.95372 0.035,0.43211 0.065,1.52185 0.067,2.42162 0,1.3945 0.08,1.66041 0.5247,1.80158 0.287,0.0911 0.7526,0.45903 1.0347,0.81765 l 0.5129,0.65204 -1.9574,1.98293 c -1.0765,1.09062 -2.0331,2.28491 -2.1258,2.65398 -0.2161,0.86121 0.037,2.42246 0.4787,2.95699 0.5425,0.65599 2.91,1.65088 3.5476,1.49084 0.6887,-0.17285 1.0208,0.25344 0.6766,0.86851 -0.2071,0.37019 0.013,0.56854 1.3086,1.18148 1.1516,0.54459 1.5576,0.87749 1.5576,1.27702 0,0.69445 -0.7498,0.70855 -2.0627,0.0388 -0.897,-0.45763 -2.3622,-0.6396 -7.33,-0.91034 l -0.7938,-0.0433 -0.1323,2.64583 c -0.073,1.45521 -0.051,3.76961 0.049,5.14311 0.1169,1.61253 0.081,2.6846 -0.1019,3.02601 -0.1913,0.35737 -0.2111,1.43455 -0.061,3.32356 0.122,1.53715 0.1966,3.82706 0.1657,5.08868 -0.071,2.91986 0.1069,3.13757 2.5472,3.11049 0.9719,-0.0108 2.3028,-0.10517 2.9577,-0.20975 l 1.1906,-0.19013 -1.3229,-0.18093 c -0.7276,-0.0995 -1.7396,-0.0854 -2.249,0.0314 -1.0662,0.24451 -2.7291,-0.10718 -2.5827,-0.54623 0.1914,-0.5742 2.2163,-1.06908 5.2286,-1.27786 2.6831,-0.18595 3.1756,-0.15257 4.1672,0.28248 0.6184,0.27134 1.1244,0.61911 1.1244,0.77282 0,0.1537 0.1786,0.27946 0.3969,0.27946 0.4598,0 0.5026,-0.56094 0.1393,-1.82755 -0.2952,-1.02962 -0.3758,-11.15494 -0.1369,-17.22245 0.089,-2.25558 0.1575,-4.44911 0.1527,-4.87451 -0.014,-1.20816 -0.4451,-1.38387 -0.9233,-0.37603 -0.4988,1.05109 -1.4133,1.71962 -1.8099,1.32303 -0.1793,-0.17932 -0.039,-0.72391 0.4281,-1.66117 1.0106,-2.02818 0.9814,-4.13637 -0.074,-5.31732 -0.7502,-0.83967 -0.7918,-0.85175 -1.746,-0.50671 -1.3872,0.5016 -1.8262,0.0228 -0.8626,-0.94079 0.6829,-0.68285 0.7398,-0.69339 1.8425,-0.34144 0.6653,0.21237 1.5498,0.79942 2.13,1.41371 l 0.9922,1.05053 v -0.90392 c -0.01,-1.20581 -0.2538,-1.53446 -1.4777,-1.95519 -0.6851,-0.23555 -1.0318,-0.51454 -1.0318,-0.83033 0,-0.40893 0.2039,-0.46535 1.4552,-0.40256 0.8003,0.0402 1.7346,0.25338 2.076,0.47381 0.5883,0.37975 0.6126,0.50718 0.4632,2.42848 -0.3862,4.96733 -0.5518,11.11749 -0.5127,19.047 0.034,6.82505 0.1359,9.08588 0.5059,11.19249 0.4147,2.36118 0.4213,2.68228 0.062,3.04175 -0.3406,0.34057 -0.6196,0.35475 -1.8288,0.0929 -0.7848,-0.16991 -1.7841,-0.30005 -2.2206,-0.28919 -0.4366,0.0109 -2.8178,0.0227 -5.2917,0.0262 -3.8185,0.006 -4.5451,-0.0574 -4.81,-0.41617 -0.2124,-0.28774 -0.2697,-1.23815 -0.1794,-2.9773 0.1608,-3.0962 0.1831,-4.44268 0.1282,-7.71402 -0.023,-1.38245 -0.034,-2.75167 -0.024,-3.04271 0.053,-1.52392 -0.3047,-11.38604 -0.4743,-13.09687 -0.1082,-1.09141 -0.088,-2.77122 0.045,-3.73291 0.1893,-1.36715 0.1539,-2.01625 -0.162,-2.9759 -0.3328,-1.01081 -0.3438,-1.30916 -0.062,-1.69105 0.324,-0.43967 0.3933,-0.43628 1.3383,0.0655 0.5481,0.29104 1.1221,0.48537 1.2755,0.43183 0.1534,-0.0535 0.6956,-0.11307 1.2049,-0.13229 l 0.926,-0.0349 0.1698,-1.58067 c 0.099,-0.92246 0.035,-2.24455 -0.1547,-3.175 l -0.3244,-1.59433 -1.6974,-0.17321 c -3.8118,-0.38895 -7.365,-0.48177 -9.238,-0.24132 -1.5089,0.1937 -2.6412,0.15781 -4.7255,-0.14976 -1.5076,-0.22248 -2.9959,-0.34764 -3.3073,-0.27814 -0.3114,0.0695 -1.5755,0.0455 -2.8091,-0.0533 -1.2425,-0.0996 -3.1305,-0.0559 -4.2333,0.0979 l -1.9905,0.27761 0.063,1.31845 c 0.035,0.72514 0.1075,2.51586 0.1618,3.97938 0.054,1.46351 0.237,2.91934 0.4061,3.23516 0.3889,0.72681 1.7955,1.12682 2.6413,0.75116 0.5238,-0.23268 0.7046,-0.18165 1.1041,0.31175 0.4433,0.5475 0.4757,1.32796 0.4501,10.83841 -0.027,9.91505 0.046,11.85277 0.5907,15.80467 0.4496,3.26139 0.8155,7.38469 0.6852,7.72406 -0.2241,0.58419 -1.8601,1.07228 -4.1407,1.23537 -3.2177,0.23011 -7.3917,0.64882 -8.3117,0.8338 -0.6274,0.12614 -0.9816,10e-4 -1.6903,-0.596 l -0.8965,-0.75559 0.094,-3.69166 c 0.1492,-5.83567 0.1109,-7.29887 -0.2305,-8.82099 -0.2097,-0.93468 -0.3198,-4.05805 -0.3198,-9.07512 0,-6.42385 -0.066,-7.77829 -0.4141,-8.45072 -0.3757,-0.72659 -0.3757,-0.85931 0,-1.43276 0.5292,-0.80757 0.5247,-1.4128 -0.015,-2.00898 -0.5796,-0.64041 -0.2954,-1.23291 0.8136,-1.69628 1.1203,-0.4681 2.0712,-0.48787 3.2344,-0.0672 1.2106,0.43776 1.6359,0.0115 0.9829,-0.98502 -0.4666,-0.71225 -0.4638,-0.7324 0.1739,-1.2509 l 0.6481,-0.52699 -0.5953,-0.39715 c -0.5481,-0.36566 -0.5957,-0.59919 -0.5994,-2.94458 0,-1.40107 -0.091,-2.67343 -0.1984,-2.82745 -0.3688,-0.5312 -3.134,-0.99671 -4.7432,-0.79848 -0.8451,0.1041 -2.2456,0.21077 -3.1121,0.23703 -1.5551,0.0471 -1.5777,0.0589 -1.7544,0.91703 -0.1857,0.90158 -0.079,7.52601 0.1437,8.92029 0.07,0.43656 0.1988,4.18703 0.2869,8.33438 0.088,4.14734 0.2793,8.79078 0.4252,10.31875 0.527,5.52144 0.5454,6.04096 0.2463,6.94717 -0.2234,0.67712 -0.2249,1.11262 -0.01,1.67982 0.1629,0.42114 0.3502,2.73025 0.4162,5.13134 0.066,2.40109 0.1378,4.66328 0.1595,5.02708 0.1285,2.15248 -0.083,3.99347 -0.4768,4.14448 -0.7605,0.29184 -0.9514,-0.35442 -1.076,-3.64193 -0.068,-1.79484 -0.1868,-3.32658 -0.2641,-3.40388 -0.2977,-0.2977 -0.8973,0.93871 -0.8434,1.73918 0.041,0.60814 -0.1617,1.08993 -0.7318,1.73924 -0.4337,0.49395 -0.999,1.48891 -1.2563,2.21102 -0.2572,0.72212 -0.67,1.72144 -0.9173,2.22072 -0.36,0.7269 -0.4496,1.66428 -0.4496,4.70434 0,3.0861 -0.074,3.84382 -0.3968,4.04911 -1.0316,0.65638 -1.8373,-0.039 -2.0022,-1.72799 -0.2417,-2.47458 -0.5351,-7.93255 -0.4424,-8.22814 0.051,-0.16219 0.3691,-0.42094 0.7072,-0.575 0.5352,-0.24386 0.6306,-0.51392 0.7372,-2.08636 0.067,-0.99344 0.069,-1.95507 0,-2.13697 -0.2482,-0.69229 -5.8098,-0.2408 -9.0108,0.73148 -0.9906,0.30087 -2.6795,0.64091 -3.7532,0.75564 -1.1021,0.11776 -1.9979,0.34551 -2.0571,0.52301 -0.196,0.58799 -0.8405,1.05195 -1.3096,0.94275 -0.6903,-0.16068 -1.9828,1.99616 -1.874,3.12707 l 0.083,0.86536 2.3812,-0.0623 c 1.3097,-0.0343 4.8505,-0.13662 7.8685,-0.22745 4.9961,-0.15035 5.5027,-0.12517 5.6586,0.28127 0.253,0.65932 -0.5023,1.32067 -1.1269,0.98669 -0.2852,-0.15246 -3.2696,-0.27876 -7.0604,-0.29879 l -6.5666,-0.0347 -0.9344,0.93442 c -1.0741,1.07414 -1.0803,1.07597 -1.7069,0.50889 -0.4074,-0.36868 -0.6752,-0.38376 -2.0052,-0.11291 -1.5854,0.32289 -2.1243,0.35965 -3.2548,0.22207 l -0.6615,-0.0805 v 4.75763 c 0,4.32337 -0.042,4.7659 -0.4638,4.8482 -0.2551,0.0498 -0.512,-0.067 -0.571,-0.25971 z m 4.9873,-10.5085 c 0.9944,-0.35001 1.3651,-0.63518 1.5512,-1.19327 0.3732,-1.11986 -0.074,-1.35074 -1.437,-0.74155 -0.6359,0.28428 -1.582,0.59295 -2.1025,0.68593 -0.5204,0.093 -1.1752,0.34613 -1.4552,0.56256 -0.502,0.38813 -0.5019,0.39893 0,0.79038 0.6588,0.50903 1.7948,0.47466 3.4389,-0.10405 z m -3.0088,-2.29847 c 0.2183,-0.26299 0.5985,-0.36974 1.0246,-0.28769 0.3727,0.0718 1.3165,0.003 2.0974,-0.15371 1.2054,-0.24129 1.4701,-0.40384 1.7531,-1.07691 0.2364,-0.56241 0.2598,-1.05888 0.08,-1.70881 -0.1723,-0.62426 -0.1619,-1.00713 0.033,-1.20187 0.1571,-0.15718 0.2857,-0.45125 0.2857,-0.65349 0,-0.28696 -0.406,-0.34895 -1.8492,-0.28228 -1.0835,0.0501 -1.8585,-0.0223 -1.8715,-0.17468 -0.024,-0.28205 1.8573,-0.86335 2.927,-0.90434 1.4649,-0.0561 1.4486,0.0269 1.399,-7.12828 -0.039,-5.57597 0.016,-6.6588 0.3492,-6.93545 0.3186,-0.26443 0.4769,-0.246 0.8181,0.0952 0.3635,0.36345 0.4268,1.34838 0.4497,6.98873 l 0.027,6.56564 3.175,0.17884 c 3.5092,0.19766 6.3372,-0.0292 8.6964,-0.69776 1.3046,-0.36968 1.7518,-0.38893 2.7991,-0.12052 2.3384,0.5993 2.3845,0.47291 2.4727,-6.76889 0.06,-4.90577 -0.1135,-5.68854 -1.2584,-5.68854 -0.6091,0 -0.6274,-0.0549 -0.4828,-1.45521 0.083,-0.80036 0.068,-1.45521 -0.032,-1.45521 -0.1001,0 -0.4442,0.28782 -0.7647,0.6396 -0.724,0.79481 -3.1241,1.5094 -4.1064,1.22263 -0.3902,-0.11391 -1.4599,-0.59034 -2.3771,-1.05873 -1.6655,-0.85054 -1.6703,-0.85125 -3.8102,-0.56327 -1.1784,0.15859 -3.1664,0.57875 -4.4178,0.93369 -1.2514,0.35494 -3.2873,0.80156 -4.5242,0.99248 l -2.249,0.34715 -0.2021,1.19062 c -0.1111,0.65484 -0.3208,2.44078 -0.4661,3.96875 -0.1452,1.52797 -0.3839,3.73062 -0.5306,4.89479 -0.2949,2.34176 -0.5282,10.35564 -0.3078,10.57601 0.2399,0.23987 0.5031,0.15489 0.8628,-0.27853 z m 110.0931,-3.84197 c -0.049,-0.34907 -0.148,-1.37882 -0.221,-2.28832 l -0.1328,-1.65365 -0.9696,-6.9e-4 c -1.1462,-8.2e-4 -4.531,0.76479 -5.0045,1.13196 -0.1819,0.14104 -0.3307,0.58447 -0.3307,0.9854 0,0.99105 0.3808,1.22232 2.333,1.4167 0.9194,0.0915 2.1696,0.39494 2.7781,0.67421 1.345,0.61717 1.6626,0.56264 1.5475,-0.26561 z m -8.0871,-0.52458 c 0.6946,-0.57647 0.227,-2.35905 -0.6189,-2.35905 -0.5329,0 -4.0381,2.34833 -4.0381,2.70536 0,0.37407 4.1619,0.0646 4.657,-0.34631 z m -75.3007,-0.826 c 0,-0.80115 -0.6493,-0.40588 -0.7501,0.45665 -0.078,0.6659 -0.038,0.71588 0.3307,0.41022 0.2307,-0.19143 0.4194,-0.58152 0.4194,-0.86687 z m 86.972,-0.3665 c 0.7693,-0.81361 1.3988,-1.63316 1.3988,-1.82123 0,-0.4385 -0.8436,-0.66008 -2.5304,-0.66463 l -1.3398,-0.004 0.1012,1.65365 c 0.1757,2.8726 0.377,2.94357 2.3702,0.83582 z m -101.921,0.15636 c 0.2139,-0.34599 -2.5073,-0.34599 -3.0427,0 -0.2799,0.18089 0.086,0.25768 1.2412,0.26054 0.9009,0.002 1.7116,-0.11502 1.8015,-0.26054 z m 86.3794,-1.45042 c 0.7529,-0.50669 1.8662,-1.06254 2.474,-1.23523 0.6077,-0.17268 1.1971,-0.39198 1.3097,-0.48732 0.4197,-0.35535 0.047,-11.3595 -0.4968,-14.6864 -0.2095,-1.28043 -0.4573,-1.46894 -1.5276,-1.16199 -1.3724,0.3936 -2.2006,0.26977 -3.066,-0.45843 -0.8632,-0.72634 -1.3788,-0.66281 -0.9017,0.1111 0.182,0.29521 0.267,3.62677 0.2461,9.64526 -0.024,6.91201 0.046,9.19427 0.2807,9.19427 0.1719,0 0.9286,-0.41457 1.6816,-0.92126 z m -70.4097,-0.48866 c 0.1605,-0.19337 0.602,-1.17564 0.9811,-2.18282 0.379,-1.00717 0.7911,-1.95408 0.9157,-2.10423 0.2404,-0.28984 0.1364,-7.51817 -0.1511,-10.49271 -0.3041,-3.14623 -1.1372,-3.37076 -2.6539,-0.71526 l -0.815,1.42681 0.211,2.91042 c 0.2138,2.94984 0.1051,8.59952 -0.188,9.76712 -0.1121,0.44669 0.01,0.80365 0.392,1.19016 0.6433,0.64329 0.9072,0.68374 1.3082,0.20051 z m 15.6682,-0.70559 c 1.5169,-0.14488 3.5574,-0.29938 4.5344,-0.34332 0.9771,-0.0439 1.8415,-0.14489 1.921,-0.22433 0.079,-0.0794 -0.056,-0.68451 -0.3004,-1.34461 -0.413,-1.11425 -0.4139,-1.26551 -0.012,-2.11248 0.4033,-0.84989 0.3996,-1.1281 -0.053,-4.06676 -0.2672,-1.73495 -0.6739,-3.60141 -0.9038,-4.14769 -0.4748,-1.12808 -0.5861,-4.34086 -0.2991,-8.63065 0.151,-2.2556 0.1196,-2.72335 -0.1762,-2.62475 -0.198,0.066 -0.5188,0.68228 -0.7129,1.36955 -0.46,1.62871 -1.0189,1.8491 -3.8605,1.52219 -2.5597,-0.29447 -3.7376,-0.76269 -5.0627,-2.01243 -0.5446,-0.51359 -1.0879,-0.9338 -1.2074,-0.9338 -0.2338,0 -0.1144,10.37833 0.1445,12.56771 0.3184,2.69195 0.3386,4.57141 0.08,7.46112 -0.1457,1.62976 -0.1941,3.14781 -0.1075,3.37344 0.1901,0.4955 1.9219,0.53777 6.015,0.14681 z m 64.2352,-1.29368 2.2106,-0.4458 0.3663,-1.04907 c 0.2014,-0.57699 0.3125,-1.1958 0.2469,-1.37514 -0.066,-0.17933 0.055,-0.81938 0.2674,-1.42232 0.4037,-1.14419 0.5484,-6.76986 0.2168,-8.42781 -0.2245,-1.12251 -1.0905,-1.52979 -2.4699,-1.1616 -1.1684,0.31186 -1.858,0.0503 -1.858,-0.70458 0,-0.27869 -0.215,-0.62174 -0.4777,-0.76233 -0.5781,-0.30939 -2.6002,-0.0755 -2.9168,0.33746 -0.1251,0.16303 -0.131,1.42751 -0.013,2.80996 0.1178,1.38245 0.2673,4.83526 0.3322,7.67292 0.065,2.83765 0.1286,5.20402 0.1415,5.25859 0.013,0.0546 0.4104,0.0129 0.8833,-0.0926 0.473,-0.10551 1.8547,-0.39245 3.0705,-0.63765 z m 11.1378,-0.51668 c 1.0542,-0.54725 1.5054,-0.95608 1.6775,-1.5202 0.1295,-0.4244 0.2545,-4.19031 0.2777,-8.36868 0.051,-9.23226 0.2032,-8.84222 -2.8545,-7.33216 -1.1566,0.57121 -2.2435,1.03857 -2.4152,1.03857 -0.1718,0 -0.8923,0.67914 -1.6012,1.50921 -1.2492,1.46269 -1.2895,1.56257 -1.308,3.24114 -0.011,0.95257 -0.1175,3.10116 -0.2377,4.77465 -0.4681,6.5141 -0.3596,7.117 1.29,7.17013 0.4504,0.0145 1.1165,0.12596 1.4803,0.24767 0.9526,0.31871 2.0463,0.0934 3.6911,-0.76033 z m -111.6411,-12.61383 c 1.528,-0.34662 3.6535,-0.82797 4.7233,-1.06966 1.4868,-0.3359 2.4219,-0.38956 3.9687,-0.22774 2.7599,0.28871 4.7312,0.21297 5.9924,-0.23024 1.0252,-0.36028 1.0608,-0.41326 1.1368,-1.69298 0.051,-0.8494 -0.044,-1.41807 -0.2646,-1.59276 -0.1886,-0.14944 -2.0954,-0.35102 -4.2372,-0.44797 -3.6935,-0.16719 -3.922,-0.14843 -4.4345,0.36404 -0.4432,0.44329 -0.7417,0.50959 -1.6621,0.36921 -0.6169,-0.0941 -1.2672,-0.2857 -1.445,-0.42575 -0.6077,-0.47878 -2.2974,-0.72519 -3.1163,-0.45444 -0.4366,0.14434 -1.1289,0.73638 -1.5385,1.31563 -0.4097,0.57926 -0.8535,1.05319 -0.9864,1.05319 -0.3505,0 -3.169,3.48146 -3.0173,3.727 0.1668,0.26981 1.4695,0.0863 4.8807,-0.68753 z m 13.0845,0.15555 c 0.1781,-0.28808 -0.5822,-0.4919 -1.2444,-0.33359 -0.2546,0.0609 -0.463,0.21588 -0.463,0.34443 0,0.31108 1.5144,0.30147 1.7074,-0.0108 z m 6.2301,-2.35365 c 0,-0.11932 0.4327,-0.72247 0.9616,-1.34031 1.0015,-1.17013 0.9673,-1.50951 -0.1678,-1.66147 -0.9456,-0.12657 -0.8164,-0.7334 0.2645,-1.24349 l 0.9261,-0.43697 0.072,-4.56186 c 0.062,-3.92538 0.017,-4.56185 -0.3274,-4.56185 -0.2199,0 -0.695,0.46756 -1.0557,1.03902 -0.3608,0.57146 -1.0469,1.48414 -1.5247,2.02816 l -0.8688,0.98914 -0.072,4.36428 c -0.069,4.182 -0.048,4.39013 0.5092,4.9833 0.5704,0.60716 1.283,0.83048 1.283,0.40205 z m 73.1317,-1.48106 c 0.2769,0.0416 1.0857,0.10649 1.7973,0.14426 1.112,0.059 1.3865,-0.0314 1.9545,-0.64399 0.7892,-0.85108 1.2766,-0.8868 2.438,-0.17868 0.8552,0.5214 0.917,0.52287 3.0985,0.0738 l 2.2258,-0.45817 0.7935,0.58663 c 0.4364,0.32265 0.8693,0.58663 0.962,0.58663 0.093,0 0.7144,-0.48044 1.3815,-1.06764 0.6671,-0.58721 1.9773,-1.43245 2.9115,-1.87833 1.2279,-0.58603 1.6186,-0.89076 1.4097,-1.09963 -0.2089,-0.20888 -0.6379,-0.20246 -1.548,0.0232 -0.6941,0.17205 -2.0902,0.25347 -3.1112,0.18143 -1.0186,-0.0719 -3.4594,-0.11602 -5.424,-0.0981 -1.9645,0.0179 -4.0481,0.0224 -4.6302,0.01 -0.5821,-0.0124 -1.2964,0.0806 -1.5875,0.20675 -0.291,0.12616 -0.9039,0.36985 -1.362,0.54155 -0.458,0.17169 -1.4614,0.87523 -2.2298,1.56341 -1.4691,1.31583 -1.5983,2.00422 -0.3072,1.63714 0.3982,-0.11322 0.9506,-0.17184 1.2276,-0.13026 z m 5.185,-0.15406 c 0,-0.14552 -0.1191,-0.26458 -0.2646,-0.26458 -0.1455,0 -0.2646,0.11906 -0.2646,0.26458 0,0.14552 0.1191,0.26458 0.2646,0.26458 0.1455,0 0.2646,-0.11906 0.2646,-0.26458 z m -83.3438,-2.38125 c 0,-0.14552 -0.506,-0.24891 -1.1245,-0.22975 l -1.1244,0.0348 0.926,0.19492 c 0.5093,0.10721 1.0153,0.2106 1.1245,0.22975 0.1091,0.0192 0.1984,-0.0842 0.1984,-0.22975 z m 23.0717,-1.37583 c -0.5291,-0.52906 -0.3616,-0.96956 0.5424,-1.42645 1.2682,-0.64102 2.0505,-1.4461 2.0505,-2.11032 0,-0.79986 -0.6308,-0.98024 -1.3766,-0.39361 -0.6964,0.54776 -2.4748,1.33746 -3.012,1.33746 -0.6144,0 -0.905,-0.89677 -0.6224,-1.92029 0.3107,-1.12533 0.8509,-1.39226 1.6965,-0.83823 0.5837,0.38245 0.6988,0.36489 1.6837,-0.25684 1.3747,-0.86782 1.499,-1.10826 0.9812,-1.89854 -0.5932,-0.9052 -0.2863,-1.26188 0.9196,-1.06905 0.7655,0.12242 1.0345,0.0627 1.1572,-0.2571 0.4681,-1.21993 -0.9817,-2.67951 -2.3263,-2.34202 -1.0702,0.2686 -1.7368,-0.28097 -1.7125,-1.41178 0.012,-0.5425 -0.047,-1.6412 -0.1307,-2.44157 -0.4281,-4.09802 -1.1,-6.5381 -1.8677,-6.78218 -0.675,-0.2146 -1.2881,0.62005 -1.0949,1.49052 0.081,0.3638 0.2238,1.69381 0.3178,2.95559 0.1461,1.96001 0.2451,2.3135 0.6797,2.42714 0.4744,0.12407 0.4817,0.18507 0.108,0.90765 -0.262,0.50672 -0.3107,0.86447 -0.1409,1.03435 0.1429,0.14283 0.1855,0.45324 0.095,0.68978 -0.2268,0.59099 -2.4429,1.85287 -2.9275,1.66693 -0.2167,-0.0832 -0.8026,0.0195 -1.302,0.22821 -0.8639,0.36098 -0.903,0.43468 -0.8053,1.51872 0.057,0.62664 0.1146,1.52629 0.1291,1.99923 0.038,1.24184 0.3794,1.05893 0.9416,-0.50451 0.6517,-1.81226 1.2167,-2.33976 2.5063,-2.33976 0.8582,0 1.1411,0.14156 1.6163,0.80898 0.3169,0.44494 0.5333,0.83427 0.4811,0.86518 -0.052,0.0309 -0.6308,0.31008 -1.2857,0.62039 -1.4311,0.67818 -2.9553,1.91666 -2.7559,2.23933 0.079,0.12797 -0.042,0.41886 -0.2699,0.64642 -0.232,0.23205 -0.4137,0.8613 -0.4137,1.43288 0,2.00138 2.0161,3.37668 5.0138,3.4201 1.1216,0.0163 1.3714,-0.0497 1.1245,-0.29661 z m -5.0707,-2.31094 c -0.3617,-0.67587 -0.3459,-0.81115 0.095,-0.81115 0.3466,0 0.6897,0.53719 0.6897,1.07998 0,0.43059 -0.5022,0.25847 -0.7844,-0.26883 z m 34.9157,-2.82917 c -0.073,-0.12075 -0.5779,-0.62213 -1.1226,-1.11419 -1.6644,-1.50367 -1.77,-2.3696 -0.804,-6.59122 0.1132,-0.49465 0.025,-0.59532 -0.5237,-0.59532 -1.0986,0 -1.2772,0.53349 -1.4349,4.28693 -0.1572,3.74265 -0.091,3.99582 1.1071,4.22327 0.9084,0.17248 2.917,0.021 2.7781,-0.20947 z m -48.1847,-3.71243 c 0.4925,-0.8118 1.2429,-1.8717 1.6676,-2.35534 0.7041,-0.80201 0.7905,-1.11917 0.9818,-3.60667 0.2382,-3.0974 0.096,-6.27048 -0.3031,-6.76549 -0.3548,-0.44002 -4.4053,-0.1484 -4.9418,0.35579 -0.3682,0.34607 -0.2577,1.59087 0.6207,6.98966 0.059,0.36381 0.193,2.11027 0.2973,3.88103 0.1301,2.20817 0.2828,3.18146 0.4859,3.09828 0.1628,-0.0667 0.6991,-0.78547 1.1916,-1.59726 z m 15.3764,0.43199 c 0,-0.36305 -0.8891,-0.32125 -1.27,0.0597 -0.1747,0.17463 -0.3175,0.47534 -0.3175,0.66826 0,0.27801 0.1646,0.26563 0.7937,-0.0597 0.4366,-0.22576 0.7938,-0.52647 0.7938,-0.66826 z m 55.7411,-1.11768 c 0.5953,-0.61847 1.2158,-1.38521 1.3787,-1.70387 0.2099,-0.4104 0.5855,-0.60332 1.2877,-0.66146 0.8774,-0.0726 0.9849,-0.15815 0.9351,-0.74353 -0.031,-0.3638 -0.091,-2.56645 -0.1323,-4.89479 l -0.076,-4.23333 -1.4552,-0.18676 c -0.8003,-0.10272 -1.9017,-0.26457 -2.4474,-0.35968 -0.5457,-0.0951 -1.0004,-0.0706 -1.0105,0.0545 -0.041,0.50497 -0.2418,10.05443 -0.2221,10.54614 0.043,1.07033 0.024,1.343 -0.1652,2.3151 -0.1689,0.86931 -0.1298,0.99219 0.3159,0.99219 0.2798,0 0.9959,-0.50602 1.5913,-1.12448 z m -81.538,-13.42101 c 3.3969,0.24612 6.4028,-0.11544 7.2099,-0.86721 0.9839,-0.9165 0.7419,-1.0683 -1.3229,-0.8299 -3.4054,0.39319 -5.9317,0.26704 -6.7516,-0.33713 -0.832,-0.61312 -3.5967,-0.9918 -4.3393,-0.59436 -0.6288,0.33651 -0.6413,1.74462 -0.022,2.43399 0.4118,0.45821 0.6676,0.49317 2.3151,0.31652 1.0186,-0.10922 2.3283,-0.16408 2.9104,-0.12191 z m 12.2666,-0.27924 c 1.0714,-0.13809 2.0588,-0.18256 2.1943,-0.0988 0.1894,0.11706 6.4344,0.30933 12.9235,0.3979 0.2182,0.003 2.7186,-0.10621 5.5562,-0.24263 2.8377,-0.13643 5.9333,-0.18633 6.8792,-0.11089 1.905,0.15193 3.7587,0.16714 6.35,0.0521 0.9459,-0.042 3.089,0.0157 4.7625,0.12821 1.6735,0.11252 3.3403,0.20473 3.7041,0.20493 1.8709,9.9e-4 14.337,-0.58572 15.4782,-0.72847 1.2263,-0.15341 1.9776,-0.16537 5.1593,-0.0821 1.7751,0.0464 2.9451,-0.0571 3.8864,-0.34381 0.647,-0.19705 1.0366,-0.15727 1.6705,0.17058 0.907,0.46898 2.4135,0.4432 2.5733,-0.044 0.1323,-0.40369 -0.4776,-0.57742 -2.5842,-0.73608 -0.9515,-0.0717 -2.2166,-0.30197 -2.8112,-0.51177 -1.9789,-0.69821 -14.7576,-0.69091 -16.6577,0.01 -0.8033,0.2961 -1.6051,0.35772 -3.0427,0.23384 -2.1118,-0.18199 -4.9143,-0.23113 -7.6406,-0.13397 -0.9459,0.0337 -2.4071,-0.0289 -3.2471,-0.13914 -0.916,-0.12021 -2.1338,-0.0823 -3.0427,0.0947 -2.0774,0.4045 -9.0395,0.3469 -14.0831,-0.11652 -0.9459,-0.0869 -4.0796,-0.15244 -6.9638,-0.14562 -4.1132,0.01 -5.5965,0.11029 -6.8791,0.46636 -1.683,0.46721 -2.2505,0.49361 -4.5798,0.21307 -1.4908,-0.17957 -2.7804,0.28545 -3.256,1.17417 -0.355,0.66329 -0.05,0.89942 0.907,0.70292 0.4376,-0.0898 1.6722,-0.27627 2.7435,-0.41435 z m 79.9987,-1.18256 c -0.083,-0.29674 -2.5917,-0.21527 -4.0278,0.13081 -0.678,0.16338 -0.2537,0.21101 1.5885,0.17834 1.5282,-0.0271 2.4844,-0.14829 2.4393,-0.30915 z m -2.8668,-1.49982 c 1.4893,-0.42284 1.7739,-0.73742 0.5142,-0.56846 -0.5697,0.0764 -1.5033,0.01 -2.0746,-0.14791 -1.2455,-0.3439 -1.7472,-0.005 -0.8859,0.59807 0.7276,0.50966 1.0183,0.52371 2.4463,0.1183 z m -76.3016,-0.89074 c 0,-0.51555 -0.9039,-0.49566 -1.3397,0.0295 -0.2861,0.34479 -0.2828,0.45619 0.02,0.643 0.4607,0.28471 1.3202,-0.15311 1.3202,-0.67247 z m 7.6729,0.40253 c 0.5101,-0.25454 7.6922,-0.0741 10.451,0.26257 2.6862,0.32782 6.5739,0.30921 9.1281,-0.0437 1.0914,-0.15079 5.4331,-0.30793 9.6481,-0.3492 4.6349,-0.0454 7.6974,-0.17626 7.749,-0.33115 0.047,-0.14086 -0.7823,-0.34002 -1.8428,-0.44257 -2.3583,-0.22804 -1.8199,-0.21836 -8.5428,-0.1535 -3.0559,0.0295 -5.8539,0.0481 -6.2177,0.0414 -0.3638,-0.007 -4.4119,-0.0191 -8.9958,-0.0275 -4.5839,-0.008 -8.6615,-0.10412 -9.0613,-0.21275 -0.8041,-0.21848 -7.803,0.46995 -8.3479,0.82113 -0.2519,0.16228 -0.2666,0.31426 -0.055,0.56914 0.2188,0.26367 0.9415,0.31345 2.9894,0.20593 1.4854,-0.078 2.8794,-0.23092 3.0977,-0.33984 z m -11.6813,-0.14362 c 0.051,-0.0452 0,-0.22415 -0.1025,-0.39775 -0.1318,-0.21334 -0.692,-0.27058 -1.7283,-0.17661 -1.6787,0.15222 -2.1938,0.35313 -1.9435,0.7581 0.1423,0.23031 3.491,0.0673 3.7743,-0.18374 z m 51.7656,-0.3819 c 0.09,-0.14552 -0.015,-0.26458 -0.2333,-0.26458 -0.2183,0 -0.4705,0.11906 -0.5604,0.26458 -0.09,0.14553 0.015,0.26459 0.2334,0.26459 0.2182,0 0.4704,-0.11906 0.5603,-0.26459 z m -58.9531,-0.82149 c 1.2159,-0.4772 5.6087,-0.73283 7.1488,-0.41599 1.2124,0.24945 1.4414,0.22478 1.9182,-0.20667 1.0482,-0.94862 0.7066,-1.12392 -2.5675,-1.31745 -3.2733,-0.19348 -5.8876,0.076 -7.5741,0.78064 -1.8429,0.76999 -0.8,1.89519 1.0746,1.15947 z m 90.2567,-0.40476 c 1.357,-0.1181 2.1246,-0.0667 2.5706,0.17195 0.7886,0.42205 1.5166,-0.0514 1.3943,-0.90692 -0.064,-0.44666 -0.3319,-0.58627 -1.4018,-0.72977 -1.7271,-0.23168 -5.9194,0.005 -6.6847,0.3766 -0.4927,0.23959 -0.74,0.1873 -1.3913,-0.2942 -0.6808,-0.50334 -0.9311,-0.54919 -1.782,-0.32642 -0.9901,0.25923 -11.2092,0.42322 -18.1878,0.29188 -2.0373,-0.0384 -5.6092,-0.0984 -7.9375,-0.13352 -2.3284,-0.0351 -4.8509,-0.20684 -5.6056,-0.38168 -1.0298,-0.23855 -1.5122,-0.24295 -1.9332,-0.0176 -0.3086,0.16514 -1.4175,0.29258 -2.4643,0.2832 -1.0467,-0.009 -3.5105,-0.0323 -5.475,-0.051 -1.9646,-0.0187 -4.7625,-0.007 -6.2178,0.0256 -5.9798,0.13457 -12.0999,0.11031 -15.2135,-0.0603 -1.819,-0.0997 -4.2003,-0.0954 -5.2917,0.01 -1.8894,0.18169 -1.9843,0.22248 -1.9843,0.85228 0,0.64517 0.046,0.66078 1.852,0.63401 1.0187,-0.0151 2.8642,-0.0746 4.1011,-0.1323 1.2369,-0.0577 5.2255,-1.2e-4 8.8635,0.12786 3.6381,0.12799 6.7337,0.23548 6.8792,0.23888 0.1455,0.003 1.2876,-0.14071 2.538,-0.32026 1.6619,-0.23862 2.5561,-0.25033 3.3241,-0.0435 0.7186,0.19348 2.6762,0.21021 6.1932,0.0529 2.8285,-0.12649 5.2124,-0.18965 5.2977,-0.14035 0.207,0.11957 22.7763,0.51793 26.9157,0.47508 2.5552,-0.0265 3.4444,-0.13391 4.1203,-0.49792 0.8572,-0.46164 0.8659,-0.46021 1.5888,0.26264 0.6819,0.68197 0.8277,0.71679 2.362,0.56428 0.8994,-0.0894 2.5058,-0.2383 3.57,-0.3309 z m -79.9099,-2.38292 c 0.6881,-0.18433 0.6474,-0.7101 -0.066,-0.84833 -0.2607,-0.0505 -1.1886,0.0666 -2.0619,0.26041 -1.286,0.28529 -1.4684,0.38579 -0.9594,0.52852 0.8306,0.23285 2.3315,0.26173 3.0869,0.0594 z m 20.94,-0.36514 c 0.5025,-0.26793 -3.1501,-0.4794 -11.0951,-0.64239 -3.5653,-0.0731 -6.6464,-0.0301 -6.8469,0.0956 -0.8402,0.52676 0.1132,0.71903 3.1955,0.64441 1.79,-0.0433 4.5047,0.0207 6.0326,0.1423 2.9652,0.23596 8.0858,0.095 8.7139,-0.23993 z m 43.0991,0.10715 c 0.921,-0.0815 1.6192,-0.20349 1.5515,-0.27111 -0.068,-0.0676 -2.0117,-0.21569 -4.3202,-0.32904 -3.1435,-0.15435 -4.4412,-0.12246 -5.1684,0.12701 -0.534,0.18321 -1.2484,0.26603 -1.5875,0.18405 -0.4259,-0.10298 -0.5347,-0.0631 -0.3519,0.12911 0.1455,0.15299 0.5622,0.32177 0.926,0.37506 0.8368,0.12257 6.7369,-0.0192 8.9505,-0.21508 z m -21.4519,-0.30002 c 0.072,-0.21689 -0.1707,-0.33073 -0.7057,-0.33073 -0.8184,0 -1.1041,0.36607 -0.485,0.62156 0.5111,0.21094 1.069,0.0747 1.1907,-0.29083 z m 3.4395,0.29625 c 1.0027,-0.26871 0.6625,-0.62698 -0.5954,-0.62698 -1.111,0 -1.4346,0.19695 -1.0142,0.61736 0.217,0.21698 0.8223,0.2206 1.6096,0.01 z m 6.4161,-0.0689 c 0,-0.27166 -1.3814,-0.46476 -2.4474,-0.3421 -1.361,0.1566 -0.7342,0.57774 0.8599,0.57774 0.8731,0 1.5875,-0.10604 1.5875,-0.23564 z m -3.9409,22.36188 c -0.1659,-0.19984 -0.234,-0.53949 -0.1513,-0.75478 0.2034,-0.53024 2.6267,-1.63904 3.1463,-1.43965 0.5843,0.2242 0.5193,1.39691 -0.1124,2.0286 -0.6221,0.62211 -2.4182,0.72543 -2.8826,0.16583 z m 4.9088,-11.72159 c -0.096,-0.0958 -0.1741,-0.33285 -0.1741,-0.52687 0,-0.39415 0.682,-0.48297 0.9075,-0.11818 0.18,0.29135 -0.4942,0.88432 -0.7334,0.64505 z"
       id="path53" /></g></svg>
