<?xml version="1.0" encoding="UTF-8" standalone="no"?>
<!-- Created with Inkscape (http://www.inkscape.org/) -->

<svg
   width="91mm"
   height="162.04649mm"
   viewBox="0 0 91 162.04649"
   version="1.1"
   id="svg1"
   inkscape:version="1.4 (86a8ad7, 2024-10-11)"
   sodipodi:docname="Ch8.svg"
   xml:space="preserve"
   xmlns:inkscape="http://www.inkscape.org/namespaces/inkscape"
   xmlns:sodipodi="http://sodipodi.sourceforge.net/DTD/sodipodi-0.dtd"
   xmlns="http://www.w3.org/2000/svg"
   xmlns:svg="http://www.w3.org/2000/svg"><sodipodi:namedview
     id="namedview1"
     pagecolor="#ffffff"
     bordercolor="#000000"
     borderopacity="0.25"
     inkscape:showpageshadow="2"
     inkscape:pageopacity="0.0"
     inkscape:pagecheckerboard="0"
     inkscape:deskcolor="#ffffff"
     inkscape:document-units="mm"
     inkscape:zoom="0.65477696"
     inkscape:cx="5617.9436"
     inkscape:cy="1839.5577"
     inkscape:window-width="1920"
     inkscape:window-height="974"
     inkscape:window-x="-11"
     inkscape:window-y="-11"
     inkscape:window-maximized="1"
     inkscape:current-layer="layer1"
     showgrid="false"><inkscape:page
       x="0"
       y="0"
       width="91"
       height="162.04649"
       id="page2"
       margin="0"
       bleed="0" /></sodipodi:namedview><defs
     id="defs1"><marker
       style="overflow:visible"
       id="ArrowWide"
       refX="0"
       refY="0"
       orient="auto-start-reverse"
       inkscape:stockid="Wide arrow"
       markerWidth="1"
       markerHeight="1"
       viewBox="0 0 1 1"
       inkscape:isstock="true"
       inkscape:collect="always"
       preserveAspectRatio="xMidYMid"><path
         style="fill:none;stroke:context-stroke;stroke-width:1;stroke-linecap:butt"
         d="m -2.75,3 3,-3 -3,-3"
         sodipodi:nodetypes="ccc"
         id="path8" /></marker></defs><g
     inkscape:label="Layer 1"
     inkscape:groupmode="layer"
     id="layer1"
     transform="translate(-639.64045,-164.55929)"><rect
       style="fill:#00a6d6;fill-opacity:1;stroke:#00a6d6;stroke-width:0.999996;stroke-linecap:round;stroke-dasharray:none;stroke-opacity:1"
       id="rect108"
       width="5.6847906"
       height="49.30286"
       x="316.7529"
       y="-709.51135"
       rx="0.49999997"
       ry="0.49999997"
       transform="rotate(90)"
       inkscape:export-filename="WilberforceSketch.png"
       inkscape:export-xdpi="558.24176"
       inkscape:export-ydpi="558.24176" /><path
       style="fill:#d3d3d3;stroke:#000000;stroke-width:1;stroke-linecap:round;stroke-opacity:1"
       d="M 684.8599,315.62825 V 291.70361"
       id="path105"
       sodipodi:nodetypes="cc" /><path
       style="fill:#d3d3d3;stroke:#000000;stroke-width:1;stroke-linecap:round;stroke-opacity:1"
       d="m 684.85991,206.5651 v -20.775"
       id="path107"
       sodipodi:nodetypes="cc" /><path
       style="fill:#00a6d6;fill-opacity:1;stroke:#00a6d6;stroke-width:0.999994;stroke-linecap:round;stroke-dasharray:none;stroke-dashoffset:0;stroke-opacity:1;marker-start:url(#ArrowWide);marker-end:url(#ArrowWide)"
       d="m 713.75619,229.65681 v 38.83048"
       id="path90" /><rect
       style="fill:#00a6d6;fill-opacity:1;stroke:#00a6d6;stroke-width:0.999997;stroke-linecap:round;stroke-dasharray:none;stroke-opacity:1"
       id="rect91"
       width="13.020962"
       height="22.444345"
       x="313.08481"
       y="-696.08209"
       rx="0.49999997"
       ry="0.49999997"
       transform="rotate(90)" /><path
       id="path103"
       d="m 679.84526,318.73855 q 0.012,-0.0719 0.036,-0.1918 0.024,-0.11987 0.14396,-0.45551 0.11996,-0.33564 0.23993,-0.5634 0.11997,-0.22776 0.38389,-0.44353 0.26393,-0.21577 0.52785,-0.20378 0.26393,0.012 0.51586,0.0839 0.25193,0.0719 0.3599,0.21577 0.10797,0.14385 0.19194,0.26372 0.084,0.11987 0.096,0.22776 l 0.024,0.0839 q 0,0.024 0.012,0.024 l 0.13196,-0.13186 q 0.7198,-0.76718 1.69152,-0.76718 0.20394,0 0.3719,0.024 0.16795,0.024 0.31191,0.0839 0.14396,0.0599 0.22794,0.11987 0.084,0.0599 0.17994,0.14384 0.096,0.0839 0.11997,0.15584 0.024,0.0719 0.096,0.15583 0.072,0.0839 0.048,0.14385 -0.024,0.0599 0.036,0.10788 0.06,0.0479 0.024,0.0839 l 0.096,-0.11987 q 0.75578,-0.89904 1.78749,-0.89904 0.64782,0 1.04371,0.32366 0.39589,0.32365 0.40788,0.94698 0,0.61135 -0.45587,1.89398 -0.45587,1.28263 -0.45587,1.53436 0.012,0.16782 0.06,0.22776 0.048,0.0599 0.17995,0.0599 0.33591,0 0.62383,-0.35961 0.28792,-0.35962 0.46787,-0.98295 0.036,-0.13186 0.072,-0.15584 0.036,-0.024 0.19194,-0.024 0.23993,0 0.23993,0.0959 0,0.012 -0.048,0.17981 -0.096,0.34762 -0.26393,0.68327 -0.16795,0.33564 -0.55184,0.67128 -0.3839,0.33564 -0.82777,0.32365 -0.56384,0 -0.81577,-0.32365 -0.25193,-0.32366 -0.25193,-0.67128 0,-0.22776 0.43188,-1.43847 0.43188,-1.2107 0.44387,-1.82205 0,-0.70724 -0.52785,-0.70724 h -0.06 q -1.03171,0 -1.73951,1.2107 l -0.084,0.14385 -0.39589,1.60628 q -0.39588,1.57032 -0.45587,1.69019 -0.15595,0.32366 -0.51585,0.32366 -0.15596,0 -0.25193,-0.0839 -0.096,-0.0839 -0.13196,-0.14385 -0.036,-0.0599 -0.036,-0.11987 0,-0.13186 0.40788,-1.71417 l 0.43188,-1.75013 q 0.036,-0.17981 0.036,-0.45551 0,-0.70724 -0.52785,-0.70724 h -0.06 q -1.03171,0 -1.73951,1.2107 l -0.084,0.14385 -0.39589,1.60628 q -0.39589,1.57032 -0.45587,1.69019 -0.15596,0.32366 -0.51586,0.32366 -0.15595,0 -0.25192,-0.0719 -0.096,-0.0719 -0.13197,-0.14385 -0.036,-0.0719 -0.024,-0.11987 0,-0.15584 0.45587,-1.9659 0.46787,-1.84603 0.46787,-1.92994 0.036,-0.17981 0.036,-0.32365 0,-0.43154 -0.29992,-0.43154 -0.26392,0 -0.44387,0.33564 -0.17995,0.33564 -0.27592,0.73122 -0.096,0.39558 -0.14396,0.43154 -0.024,0.024 -0.19195,0.024 h -0.16795 q -0.072,-0.0719 -0.072,-0.10788 z"
       style="fill:#000000;stroke:#000000;stroke-width:0;stroke-linecap:butt;stroke-linejoin:round" /><rect
       style="fill:#d3d3d3;stroke:#d3d3d3;stroke-width:1;stroke-linecap:round"
       id="rect103"
       width="20"
       height="90"
       x="165.05928"
       y="-730.1405"
       transform="rotate(90)" /><g
       id="g124"><path
         style="fill:none;fill-opacity:1;stroke:#000000;stroke-width:0.999998;stroke-linecap:round;stroke-linejoin:round;stroke-miterlimit:0;stroke-opacity:1"
         d="m 673.77996,269.69006 22.15991,-5.89085"
         id="path68"
         sodipodi:nodetypes="cc" /><path
         style="fill:none;fill-opacity:1;stroke:#000000;stroke-width:0.999998;stroke-linecap:round;stroke-linejoin:round;stroke-miterlimit:0;stroke-opacity:1"
         d="m 673.77996,269.69006 22.15991,5.89086"
         id="path69"
         sodipodi:nodetypes="cc" /><path
         style="fill:none;fill-opacity:1;stroke:#000000;stroke-width:0.999998;stroke-linecap:round;stroke-linejoin:round;stroke-miterlimit:0;stroke-opacity:1"
         d="m 673.77996,281.47178 22.15991,-5.89086"
         id="path70"
         sodipodi:nodetypes="cc" /><path
         style="fill:none;fill-opacity:1;stroke:#000000;stroke-width:0.999998;stroke-linecap:round;stroke-linejoin:round;stroke-miterlimit:0;stroke-opacity:1"
         d="m 673.77996,281.47178 22.15991,5.89086"
         id="path71"
         sodipodi:nodetypes="cc" /><path
         style="fill:none;fill-opacity:1;stroke:#000000;stroke-width:0.999998;stroke-linecap:round;stroke-linejoin:round;stroke-miterlimit:0;stroke-opacity:1"
         d="m 673.77996,234.34488 22.15991,-5.89085"
         id="path76"
         sodipodi:nodetypes="cc" /><path
         style="fill:none;fill-opacity:1;stroke:#000000;stroke-width:0.999998;stroke-linecap:round;stroke-linejoin:round;stroke-miterlimit:0;stroke-opacity:1"
         d="m 673.77996,234.34488 22.15991,5.89087"
         id="path77"
         sodipodi:nodetypes="cc" /><path
         style="fill:none;fill-opacity:1;stroke:#000000;stroke-width:0.999998;stroke-linecap:round;stroke-linejoin:round;stroke-miterlimit:0;stroke-opacity:1"
         d="m 673.77996,246.12659 22.15991,-5.89084"
         id="path78"
         sodipodi:nodetypes="cc" /><path
         style="fill:none;fill-opacity:1;stroke:#000000;stroke-width:0.999998;stroke-linecap:round;stroke-linejoin:round;stroke-miterlimit:0;stroke-opacity:1"
         d="m 673.77996,246.12659 22.15991,5.89088"
         id="path79"
         sodipodi:nodetypes="cc" /><path
         style="fill:none;fill-opacity:1;stroke:#000000;stroke-width:0.999998;stroke-linecap:round;stroke-linejoin:round;stroke-miterlimit:0;stroke-opacity:1"
         d="m 673.77996,257.90833 22.15991,-5.89086"
         id="path80"
         sodipodi:nodetypes="cc" /><path
         style="fill:none;fill-opacity:1;stroke:#000000;stroke-width:0.999998;stroke-linecap:round;stroke-linejoin:round;stroke-miterlimit:0;stroke-opacity:1"
         d="m 673.77996,257.90833 22.15991,5.89086"
         id="path81"
         sodipodi:nodetypes="cc" /><path
         style="fill:none;fill-opacity:1;stroke:#000000;stroke-width:0.999998;stroke-linecap:round;stroke-linejoin:round;stroke-miterlimit:0;stroke-opacity:1"
         d="m 673.77996,269.69005 22.15991,-5.89086"
         id="path82"
         sodipodi:nodetypes="cc" /><path
         style="fill:none;fill-opacity:1;stroke:#000000;stroke-width:0.999998;stroke-linecap:round;stroke-linejoin:round;stroke-miterlimit:0;stroke-opacity:1"
         d="m 673.77996,210.78145 22.15991,5.89086"
         id="path85"
         sodipodi:nodetypes="cc" /><path
         style="fill:none;fill-opacity:1;stroke:#000000;stroke-width:0.999998;stroke-linecap:round;stroke-linejoin:round;stroke-miterlimit:0;stroke-opacity:1"
         d="m 673.77996,222.56318 22.15991,-5.89087"
         id="path86"
         sodipodi:nodetypes="cc" /><path
         style="fill:none;fill-opacity:1;stroke:#000000;stroke-width:0.999998;stroke-linecap:round;stroke-linejoin:round;stroke-miterlimit:0;stroke-opacity:1"
         d="m 673.77996,222.56318 22.15991,5.89086"
         id="path87"
         sodipodi:nodetypes="cc" /><path
         style="fill:none;fill-opacity:1;stroke:#000000;stroke-width:0.999998;stroke-linecap:round;stroke-linejoin:round;stroke-miterlimit:0;stroke-opacity:1"
         d="m 673.77996,234.34489 22.15991,-5.89085"
         id="path88"
         sodipodi:nodetypes="cc" /><path
         style="fill:none;fill-opacity:1;stroke:#000000;stroke-width:0.999998;stroke-linecap:round;stroke-linejoin:round;stroke-miterlimit:0;stroke-opacity:1"
         d="m 684.85992,291.57899 11.07995,-4.21635"
         id="path106"
         sodipodi:nodetypes="cc" /><path
         style="fill:none;fill-opacity:1;stroke:#000000;stroke-width:0.999998;stroke-linecap:round;stroke-linejoin:round;stroke-miterlimit:0;stroke-opacity:1"
         d="m 684.85991,206.5651 -11.07995,4.21635"
         id="path106-8"
         sodipodi:nodetypes="cc" /></g><path
       style="fill:none;stroke:#00a6d6;stroke-width:0.999987;stroke-linecap:round;stroke-opacity:1;marker-start:url(#ArrowWide);marker-end:url(#ArrowWide)"
       id="path108"
       sodipodi:type="arc"
       sodipodi:cx="684.85992"
       sodipodi:cy="303.6767"
       sodipodi:rx="19.502157"
       sodipodi:ry="5.3544345"
       sodipodi:start="5.5850536"
       sodipodi:end="3.8397244"
       sodipodi:arc-type="arc"
       d="m 699.79944,300.23493 a 19.502157,5.3544345 0 0 1 -1.55632,7.33644 19.502157,5.3544345 0 0 1 -26.76639,0 19.502157,5.3544345 0 0 1 -1.55632,-7.33644"
       sodipodi:open="true" /></g></svg>
