<?xml version="1.0" encoding="UTF-8"?><svg id="Layer_2" xmlns="http://www.w3.org/2000/svg" viewBox="0 0 112.29 75.22"><defs><style>.cls-1,.cls-2,.cls-3,.cls-4,.cls-5,.cls-6,.cls-7,.cls-8{fill:none;stroke-miterlimit:10;}.cls-1,.cls-3{stroke:#00a651;}.cls-2,.cls-6{stroke:#231f20;}.cls-3,.cls-6,.cls-7,.cls-8{stroke-width:.75px;}.cls-4,.cls-8{stroke:#00aeef;}.cls-9,.cls-10{fill:#00a651;}.cls-11,.cls-12,.cls-13{fill:#231f20;}.cls-5,.cls-7{stroke:#ed1c24;}.cls-12,.cls-14,.cls-15,.cls-16,.cls-10{font-family:TimesNewRomanPSMT, 'Times New Roman';}.cls-12,.cls-14,.cls-16,.cls-13,.cls-10{font-size:12px;}.cls-17,.cls-16{fill:#ed1c24;}.cls-18,.cls-14{fill:#00aeef;}.cls-19{font-family:Symbol, Symbol;}</style></defs><g id="Layer_1-2"><line class="cls-2" x1="12.55" y1="61.35" x2="105.23" y2="61.35"/><polygon class="cls-11" points="112.29 61.35 102.34 65.41 104.7 61.35 102.34 57.28 112.29 61.35"/><line class="cls-2" x1="12.55" y1="61.58" x2="12.55" y2="7.06"/><polygon class="cls-11" points="12.55 0 16.61 9.95 12.55 7.59 8.48 9.95 12.55 0"/><line x1="12.55" y1="61.39" x2="43.59" y2="23.65"/><line class="cls-4" x1="12.55" y1="61.39" x2="39.11" y2="29.1"/><polygon class="cls-18" points="43.59 23.65 40.41 33.91 38.77 29.51 34.13 28.75 43.59 23.65"/><line x1="12.55" y1="61.35" x2="89.26" y2="23.65"/><line class="cls-5" x1="12.55" y1="61.35" x2="82.92" y2="26.76"/><polygon class="cls-17" points="89.26 23.65 82.12 31.68 82.45 26.99 78.54 24.39 89.26 23.65"/><line class="cls-2" x1="43.59" y1="23.65" x2="83.61" y2="23.65"/><polygon class="cls-11" points="89.26 23.65 81.3 26.9 83.19 23.65 81.3 20.4 89.26 23.65"/><line x1="43.59" y1="23.65" x2="51.12" y2="14.49"/><line class="cls-1" x1="43.59" y1="23.65" x2="48.43" y2="17.76"/><polygon class="cls-9" points="51.12 14.49 49.22 20.65 48.23 18.01 45.45 17.55 51.12 14.49"/><line x1="43.54" y1="24" x2="55.11" y2="33.51"/><line class="cls-1" x1="43.54" y1="24" x2="51.83" y2="30.82"/><polygon class="cls-9" points="55.11 33.51 48.95 31.6 51.59 30.62 52.05 27.83 55.11 33.51"/><line class="cls-1" x1="43.53" y1="23.65" x2="57.21" y2="23.65"/><polygon class="cls-9" points="62.86 23.65 54.9 26.9 56.78 23.65 54.9 20.4 62.86 23.65"/><text class="cls-12" transform="translate(90.53 71.54)"><tspan x="0" y="0">x</tspan></text><text class="cls-12" transform="translate(0 19.07)"><tspan x="0" y="0">y</tspan></text><text class="cls-10" transform="translate(35.49 15.5)"><tspan x="0" y="0">u</tspan></text><text class="cls-10" transform="translate(41.49 19.49) scale(.58)"><tspan x="0" y="0">r</tspan></text><line class="cls-3" x1="35.49" y1="8.69" x2="39.68" y2="8.69"/><polygon class="cls-9" points="41.27 8.69 39.03 9.61 39.56 8.69 39.03 7.78 41.27 8.69"/><text class="cls-10" transform="translate(53.19 20.13)"><tspan x="0" y="0">u</tspan></text><line class="cls-3" x1="53.54" y1="13.24" x2="57.53" y2="13.24"/><polygon class="cls-9" points="59.12 13.24 56.88 14.15 57.41 13.24 56.88 12.32 59.12 13.24"/><text class="cls-10" transform="translate(42.85 37.5)"><tspan x="0" y="0">u</tspan></text><text class="cls-10" transform="translate(48.85 41.5) scale(.58)"><tspan x="0" y="0">t</tspan></text><line class="cls-3" x1="42.96" y1="30.21" x2="47.1" y2="30.21"/><polygon class="cls-9" points="48.69 30.21 46.45 31.12 46.98 30.21 46.45 29.29 48.69 30.21"/><text class="cls-14" transform="translate(18.34 39.05)"><tspan x="0" y="0">r</tspan></text><text class="cls-14" transform="translate(22.33 43.04) scale(.58)"><tspan x="0" y="0">0</tspan></text><line class="cls-8" x1="18.34" y1="31.82" x2="22.08" y2="31.82"/><polygon class="cls-18" points="23.67 31.82 21.43 32.73 21.96 31.82 21.43 30.91 23.67 31.82"/><text class="cls-16" transform="translate(66.92 44.32)"><tspan x="0" y="0">r</tspan></text><text class="cls-16" transform="translate(70.92 48.32) scale(.58)"><tspan x="0" y="0">1</tspan></text><line class="cls-7" x1="66.92" y1="37.5" x2="70.72" y2="37.5"/><polygon class="cls-17" points="72.31 37.5 70.07 38.42 70.6 37.5 70.07 36.59 72.31 37.5"/><text class="cls-13" transform="translate(72.99 20.13)"><tspan class="cls-15" x="0" y="0">u</tspan><tspan class="cls-19" x="6" y="0">D</tspan><tspan class="cls-15" x="13.34" y="0">t</tspan></text><line class="cls-6" x1="72.99" y1="12.53" x2="77.48" y2="12.53"/><polygon class="cls-11" points="79.06 12.53 76.83 13.45 77.36 12.53 76.83 11.62 79.06 12.53"/></g></svg>