<svg xmlns="http://www.w3.org/2000/svg" viewBox="0 0 446.46 276.26"><defs><style>.cls-1{fill:#f6c277;}.cls-2{fill:#55a69f;}.cls-3{fill:#6f4f2b;}.cls-13,.cls-4,.cls-5,.cls-8,.cls-9{font-size:12px;}.cls-13,.cls-17,.cls-4,.cls-5{fill:#231f20;}.cls-4,.cls-8{font-family:Helvetica-Oblique, Helvetica;}.cls-13,.cls-5{font-family:Helvetica-Light, Helvetica;}.cls-6{letter-spacing:-0.01em;}.cls-7{letter-spacing:-0.01em;}.cls-8,.cls-9{fill:#010101;}.cls-9{font-family:Helvetica, Helvetica;}.cls-10{letter-spacing:-0.01em;}.cls-11{letter-spacing:0.01em;}.cls-12,.cls-13{letter-spacing:0em;}.cls-14{letter-spacing:-0.01em;}.cls-15{letter-spacing:0em;}.cls-16{fill:none;stroke:#231f20;stroke-miterlimit:10;}</style></defs><title>draggingboard</title><g id="Graphics"><g id="draggingboard"><rect class="cls-1" x="223.23" y="32.77" width="155.91" height="29.23"/><rect class="cls-1" x="223.23" y="149.7" width="155.91" height="29.23"/><rect class="cls-1" x="223.23" y="247.14" width="155.91" height="29.12"/><rect class="cls-2" x="67.44" y="32.77" width="155.79" height="29.23"/><rect class="cls-2" x="67.44" y="247.14" width="155.79" height="29.12"/><rect class="cls-2" x="67.44" y="149.7" width="155.79" height="29.23"/><rect class="cls-3" x="106.3" y="23.03" width="116.93" height="9.74"/><rect class="cls-3" x="223.23" y="237.4" width="116.93" height="9.74"/><rect class="cls-3" x="145.28" y="139.96" width="116.93" height="9.74"/></g></g><g id="Text"><g id="draggingboard-2" data-name="draggingboard"><text class="cls-4" transform="translate(161.43 11.4)">L</text><text class="cls-4" transform="translate(239.72 128.33)">x</text><text class="cls-5" transform="translate(72.58 78.32)"><tspan class="cls-6">r</tspan><tspan x="3.88" y="0">e</tspan><tspan class="cls-7" x="10.55" y="0">g</tspan><tspan x="17.82" y="0">ion 1</tspan></text><text class="cls-8" transform="translate(140.86 49.87)">µ</text><text class="cls-9" transform="translate(147.77 53.86) scale(0.58)">1</text><text class="cls-8" transform="translate(295.78 49.87)">µ</text><text class="cls-9" transform="translate(302.69 53.86) scale(0.58)">2</text><text class="cls-5" transform="translate(67.32 223.48)"><tspan class="cls-10">A</tspan><tspan class="cls-11" x="7.93" y="0">f</tspan><tspan class="cls-10" x="11.4" y="0">t</tspan><tspan x="14.66" y="0">er</tspan></text><text class="cls-8" transform="translate(140.86 166.79)">µ</text><text class="cls-9" transform="translate(147.77 170.79) scale(0.58)">1</text><text class="cls-8" transform="translate(295.78 166.79)">µ</text><text class="cls-9" transform="translate(302.69 170.79) scale(0.58)">2</text><text class="cls-8" transform="translate(140.86 264.23)">µ</text><text class="cls-9" transform="translate(147.77 268.23) scale(0.58)">1</text><text class="cls-8" transform="translate(295.78 264.23)">µ</text><text class="cls-9" transform="translate(302.69 268.23) scale(0.58)">2</text><text class="cls-5" transform="translate(67.32 126.04)"><tspan class="cls-12">Durin</tspan><tspan x="28.73" y="0">g</tspan></text><text class="cls-13" transform="translate(67.32 9.09)">Before</text><text class="cls-5" transform="translate(330.98 76.54)"><tspan class="cls-14">r</tspan><tspan x="3.89" y="0">e</tspan><tspan class="cls-15" x="10.56" y="0">g</tspan><tspan x="17.83" y="0">ion 2</tspan></text></g></g><g id="Arrows"><g id="draggingboard-3" data-name="draggingboard"><line class="cls-16" x1="107.77" y1="15.53" x2="221.75" y2="15.53"/><rect class="cls-17" x="107.27" y="12.28" width="1" height="6.5"/><rect class="cls-17" x="221.25" y="12.28" width="1" height="6.5"/><line class="cls-16" x1="224.7" y1="132.46" x2="260.73" y2="132.46"/><rect class="cls-17" x="224.2" y="129.21" width="1" height="6.5"/><rect class="cls-17" x="260.23" y="129.21" width="1" height="6.5"/></g></g></svg>