<?xml version="1.0" encoding="UTF-8" standalone="no"?>
<!DOCTYPE svg PUBLIC "-//W3C//DTD SVG 20010904//EN" "http://www.w3.org/TR/2001/REC-SVG-20010904/DTD/svg10.dtd">
<svg version="1.0" xmlns="http://www.w3.org/2000/svg" width="678.000000pt" height="678.000000pt" viewBox="0 0 678.000000 678.000000" preserveAspectRatio="xMidYMid meet">
<metadata>
Created by potrace 1.11, written by Peter Selinger 2001-2013
</metadata>
<g transform="translate(0.000000,678.000000) scale(0.100000,-0.100000)" fill="#000000" stroke="none">
<path d="M6664 6743 c-5 -5 -21 -37 -34 -72 -33 -90 -87 -165 -176 -246 -42 -38 -84 -77 -93 -85 -9 -9 -34 -29 -56 -45 -22 -17 -49 -38 -61 -48 -24 -21 -222 -157 -228 -157 -2 0 -33 -17 -67 -38 -93 -56 -309 -164 -309 -155 0 4 -4 3 -8 -2 -17 -24 -554 -227 -657 -249 -13 -3 -182 -53 -222 -66 -18 -6 -40 -13 -50 -15 -10 -2 -70 -18 -133 -35 -131 -36 -308 -82 -400 -104 -8 -2 -51 -14 -95 -25 -44 -12 -87 -23 -95 -25 -114 -29 -245 -63 -330 -88 -58 -16 -109 -31 -115 -32 -86 -22 -219 -64 -360 -113 -55 -19 -104 -35 -110 -37 -10 -2 -121 -44 -180 -67 -16 -7 -32 -13 -35 -14 -11 -4 -68 -28 -133 -56 -233 -103 -592 -282 -709 -356 -21 -13 -40 -23 -43 -23 -10 0 -208 -121 -330 -203 -199 -132 -361 -256 -559 -427 -37 -32 -248 -242 -302 -301 -42 -46 -165 -196 -199 -244 -11 -16 -25 -33 -30 -39 -17 -17 -145 -214 -145 -222 0 -4 -6 -15 -14 -23 -20 -22 -164 -309 -181 -361 -1 -3 -7 -18 -14 -35 -42 -99 -128 -397 -145 -500 -2 -16 -8 -50 -12 -75 -10 -62 -11 -65 -20 -155 -11 -98 -11 -496 0 -585 19 -162 29 -226 52 -340 9 -41 18 -85 20 -97 4 -25 11 -57 20 -100 3 -15 14 -66 25 -113 11 -47 22 -92 24 -101 2 -8 10 -32 19 -52 8 -21 16 -41 17 -45 4 -17 19 -48 33 -65 30 -38 76 4 90 83 8 41 14 188 21 450 4 176 7 222 20 280 3 14 8 39 11 55 7 41 33 147 41 165 3 8 7 17 8 20 8 22 19 50 31 78 8 18 14 39 14 47 0 8 5 15 12 15 6 0 9 3 5 6 -8 8 121 245 143 264 3 3 14 19 24 35 37 58 185 231 269 315 130 128 153 149 281 255 27 22 54 45 60 50 38 35 328 255 336 255 6 0 10 3 10 8 0 4 23 22 50 41 28 19 50 38 50 42 0 4 8 10 18 13 9 4 31 19 49 34 18 15 54 43 80 62 26 19 50 37 53 40 3 3 30 24 62 48 31 24 67 53 80 65 24 22 115 98 152 127 44 35 241 238 295 304 32 39 98 132 146 206 89 138 160 220 189 220 19 0 37 -39 31 -68 -2 -10 -6 -41 -10 -69 -3 -27 -19 -94 -36 -149 -16 -54 -31 -107 -34 -118 -2 -10 -9 -23 -14 -30 -5 -6 -10 -14 -10 -19 -2 -23 -77 -178 -128 -265 -24 -41 -43 -78 -43 -83 0 -5 -4 -9 -9 -9 -5 0 -11 -8 -15 -17 -6 -21 -21 -44 -57 -93 -14 -19 -29 -42 -32 -50 -4 -8 -45 -69 -91 -135 -47 -66 -108 -158 -137 -205 -29 -47 -56 -87 -59 -90 -12 -10 -79 -148 -110 -225 -62 -154 -70 -288 -25 -420 71 -211 217 -353 401 -390 35 -7 160 -7 194 0 14 3 34 7 45 9 51 10 111 29 123 38 6 6 12 8 12 5 0 -3 33 10 73 30 263 127 487 330 620 558 88 152 120 195 148 195 10 0 24 -10 30 -22 11 -21 14 -169 4 -218 -3 -14 -7 -45 -10 -70 -3 -25 -7 -52 -10 -60 -2 -8 -7 -31 -10 -50 -5 -34 -9 -56 -21 -110 -7 -37 -24 -112 -29 -135 -3 -11 -7 -29 -9 -40 -2 -11 -16 -65 -31 -120 -14 -55 -27 -104 -29 -110 -1 -5 -11 -35 -21 -65 -11 -30 -20 -57 -20 -60 -1 -3 -5 -14 -10 -25 -4 -11 -18 -49 -32 -84 -34 -89 -85 -195 -98 -203 -5 -4 -6 -8 -2 -8 5 0 -1 -13 -12 -29 -12 -16 -21 -32 -21 -35 0 -9 -86 -140 -124 -191 -95 -125 -269 -307 -372 -390 -27 -22 -51 -42 -54 -45 -54 -54 -177 -128 -290 -175 -36 -15 -85 -37 -110 -49 -25 -13 -49 -23 -53 -24 -5 0 -26 -15 -47 -33 -27 -23 -37 -39 -35 -56 1 -13 4 -25 6 -28 16 -16 126 -20 249 -9 36 3 83 8 105 9 22 2 40 4 40 5 0 1 16 3 35 5 19 3 46 7 60 10 13 2 42 7 64 11 22 3 48 10 58 15 10 5 18 8 18 5 0 -3 20 1 45 8 25 8 45 12 45 9 0 -3 7 0 15 7 8 7 15 10 15 7 0 -4 19 1 43 9 23 9 49 17 57 19 20 4 171 61 225 85 67 29 241 113 245 119 3 3 28 17 55 31 28 14 52 28 53 33 2 4 8 7 14 7 6 0 37 18 69 40 32 22 61 40 64 40 3 0 30 18 60 40 30 22 58 40 64 40 5 0 11 4 13 8 2 4 41 37 88 72 94 71 91 69 209 170 141 120 324 299 441 430 36 40 70 78 75 84 10 10 109 128 130 153 19 24 31 39 80 103 27 36 53 70 57 75 90 113 287 409 395 593 103 175 262 490 331 657 45 108 118 306 127 345 2 8 18 56 35 105 40 116 45 167 18 200 -32 41 -66 25 -184 -82 -100 -91 -301 -242 -354 -266 -8 -4 -28 -16 -45 -26 -54 -35 -209 -109 -275 -131 -206 -70 -396 -89 -566 -56 -41 8 -138 47 -181 72 -116 67 -220 217 -248 355 -2 9 -7 34 -11 55 -4 22 -8 95 -8 164 0 105 3 137 24 200 13 41 24 77 25 80 5 24 94 180 127 225 108 146 293 333 473 480 27 22 62 51 79 65 17 14 49 39 71 55 22 16 45 33 50 37 99 78 184 140 419 305 72 50 136 95 141 100 6 4 33 24 60 43 28 19 52 38 53 42 2 4 8 8 14 8 6 0 27 14 48 30 21 17 41 30 44 30 5 0 21 12 60 45 7 6 19 15 28 20 46 28 321 237 338 255 3 4 14 13 26 21 64 44 308 274 369 349 42 51 113 157 143 212 81 150 119 376 74 438 -19 25 -58 37 -78 23z"/>
</g>
</svg>