<?xml version="1.0" encoding="UTF-8"?><svg id="Layer_2" xmlns="http://www.w3.org/2000/svg" viewBox="0 0 93.28 53.17"><defs><style>.cls-1,.cls-2{fill:none;}.cls-1,.cls-2,.cls-3,.cls-4{stroke-miterlimit:10;}.cls-1,.cls-4{stroke:#231f20;}.cls-2{stroke:#00aeef;}.cls-5,.cls-6,.cls-4{fill:#231f20;}.cls-6{font-family:TimesNewRomanPSMT, 'Times New Roman';font-size:12px;}.cls-7{fill:#00aeef;}.cls-3{fill:#ed1c24;stroke:#ed1c24;}</style></defs><g id="Layer_1-2"><line class="cls-4" x1="2.56" y1="47.5" x2="86.12" y2=".44"/><circle class="cls-3" cx="12.96" cy="41.68" r="2.19"/><circle class="cls-3" cx="68.28" cy="10.51" r="2.19"/><text class="cls-6" transform="translate(0 38.59)"><tspan x="0" y="0">m</tspan></text><text class="cls-6" transform="translate(74.62 15.97)"><tspan x="0" y="0">m/4</tspan></text><line class="cls-5" x1="21.22" y1="46.72" x2="38.89" y2="36.64"/><line class="cls-1" x1="21.22" y1="46.72" x2="35.82" y2="38.39"/><polygon class="cls-5" points="38.89 36.64 35.57 40.87 35.59 38.52 33.56 37.34 38.89 36.64"/><text class="cls-6" transform="translate(32.2 49.49)"><tspan x="0" y="0">r</tspan></text><line class="cls-5" x1="13.46" y1="41.68" x2="31.13" y2="31.61"/><line class="cls-2" x1="13.46" y1="41.68" x2="28.06" y2="33.35"/><polygon class="cls-7" points="31.13 31.61 27.81 35.83 27.83 33.48 25.8 32.3 31.13 31.61"/><line class="cls-5" x1="67.61" y1="10.93" x2="49.94" y2="21.01"/><line class="cls-2" x1="67.61" y1="10.93" x2="53" y2="19.26"/><polygon class="cls-7" points="49.94 21.01 53.25 16.78 53.23 19.13 55.27 20.31 49.94 21.01"/><text class="cls-6" transform="translate(45.41 13.33)"><tspan x="0" y="0">F</tspan></text><text class="cls-6" transform="translate(16.44 32.27)"><tspan x="0" y="0">-F</tspan></text></g></svg>