<?xml version="1.0" encoding="UTF-8"?><svg id="Layer_2" xmlns="http://www.w3.org/2000/svg" viewBox="0 0 79.21 86.97"><defs><style>.cls-1,.cls-2,.cls-3,.cls-4,.cls-5{stroke-miterlimit:10;}.cls-1,.cls-2,.cls-4{fill:none;}.cls-1,.cls-3,.cls-5{stroke:#231f20;}.cls-2{stroke:#00aeef;}.cls-6,.cls-7{fill:#231f20;}.cls-7{font-family:TimesNewRomanPSMT, 'Times New Roman';font-size:12px;}.cls-8,.cls-5{fill:#00aeef;}.cls-9{fill:#808285;}.cls-3{fill:#fff;}.cls-4{stroke:#808285;}.cls-5{stroke-width:.5px;}</style></defs><g id="Layer_1-2"><line class="cls-3" y1="73.87" x2="79.21" y2="73.87"/><circle class="cls-5" cx="39.61" cy="26.97" r="3.4"/><line class="cls-1" x1="22.46" y1="42.75" x2="22.46" y2="70.11"/><polygon class="cls-6" points="22.46 38.51 20.02 44.48 22.46 43.06 24.9 44.48 22.46 38.51"/><polygon class="cls-6" points="22.46 74.35 20.02 68.38 22.46 69.79 24.9 68.38 22.46 74.35"/><line class="cls-8" x1="39.48" y1="27.31" x2="64.95" y2="14.86"/><line class="cls-2" x1="39.48" y1="27.31" x2="60.64" y2="16.97"/><polygon class="cls-8" points="64.95 14.86 60.09 20.31 60.32 17.12 57.66 15.35 64.95 14.86"/><line class="cls-1" x1="39.61" y1="27.53" x2="39.61" y2="45.95"/><polygon class="cls-6" points="39.61 51.6 36.35 43.64 39.61 45.53 42.86 43.64 39.61 51.6"/><line class="cls-4" x1="22.86" y1="58.93" x2="22.86" y2="74.09"/><polygon class="cls-9" points="22.86 53.28 19.61 61.24 22.86 59.35 26.11 61.24 22.86 53.28"/><line class="cls-4" x1="37.63" y1="73.87" x2="22.47" y2="73.87"/><polygon class="cls-9" points="43.28 73.87 35.32 70.62 37.21 73.87 35.32 77.12 43.28 73.87"/><text class="cls-7" transform="translate(26.88 23.57)"><tspan x="0" y="0">m</tspan></text><text class="cls-7" transform="translate(52.21 9.97)"><tspan x="0" y="0">v</tspan></text><text class="cls-7" transform="translate(45.94 53.28)"><tspan x="0" y="0">-mg</tspan></text><text class="cls-7" transform="translate(10.44 43.9)"><tspan x="0" y="0">H</tspan></text><text class="cls-7" transform="translate(41.1 83.29)"><tspan x="0" y="0">x</tspan></text><text class="cls-7" transform="translate(11.84 63.68)"><tspan x="0" y="0">y</tspan></text></g></svg>