<?xml version="1.0" encoding="UTF-8"?><svg id="Layer_2" xmlns="http://www.w3.org/2000/svg" viewBox="0 0 102.07 65.35"><defs><style>.cls-1,.cls-2,.cls-3,.cls-4,.cls-5{stroke-miterlimit:10;}.cls-1,.cls-3{fill:none;}.cls-1,.cls-5{stroke:#231f20;}.cls-2{fill:#d1d3d4;stroke:#d1d3d4;}.cls-3{stroke:#00aeef;}.cls-6,.cls-7,.cls-8{fill:#231f20;}.cls-7{font-family:Symbol, Symbol;}.cls-7,.cls-8{font-size:12px;}.cls-8{font-family:TimesNewRomanPSMT, 'Times New Roman';}.cls-9,.cls-4{fill:#ed1c24;}.cls-10{fill:#00aeef;}.cls-4{stroke:#ed1c24;}.cls-5{fill:#fff;}</style></defs><g id="Layer_1-2"><path class="cls-2" d="M13.62,50.8h85.52c.13,0,.22-.13.16-.25-9.32-19.4-20.41-40.41-43.65-40.45-.05,0-.09.02-.13.05L13.92,50.12c-.14.14-.37-.02-.28-.2C22.86,30.68,32.54,10.09,55.58,10.09"/><text class="cls-8" transform="translate(16.1 20.7)"><tspan x="0" y="0">m</tspan></text><text class="cls-8" transform="translate(32.28 31.94)"><tspan x="0" y="0">-mg</tspan></text><text class="cls-8" transform="translate(21.18 61.67)"><tspan x="0" y="0">x</tspan></text><text class="cls-8" transform="translate(0 43.24)"><tspan x="0" y="0">y</tspan></text><text class="cls-8" transform="translate(32.28 9.97)"><tspan x="0" y="0">v</tspan></text><path class="cls-1" d="M12.98,50.8C22.33,31.31,31.94,10.09,55.33,10.09"/><path class="cls-1" d="M98.98,50.54c-9.32-19.4-20.41-40.41-43.65-40.45"/><line class="cls-5" x1="8.6" y1="51.13" x2="102.07" y2="51.13"/><line class="cls-1" x1="12.98" y1="50.54" x2="12.98" y2="39.47"/><polygon class="cls-6" points="12.98 35.94 15.01 40.91 12.98 39.73 10.94 40.91 12.98 35.94"/><line class="cls-1" x1="12.62" y1="51.13" x2="23.7" y2="51.13"/><polygon class="cls-6" points="27.23 51.13 22.26 53.16 23.44 51.13 22.26 49.09 27.23 51.13"/><circle class="cls-4" cx="29.7" cy="22.01" r="2.19"/><line class="cls-9" x1="29.7" y1="22.01" x2="42.19" y2="10.09"/><line class="cls-3" x1="29.7" y1="22.01" x2="39.63" y2="12.53"/><polygon class="cls-10" points="42.19 10.09 39.99 15 39.44 12.71 37.19 12.06 42.19 10.09"/><line class="cls-3" x1="29.7" y1="22.01" x2="29.7" y2="34.12"/><polygon class="cls-10" points="29.7 37.65 27.66 32.67 29.7 33.85 31.73 32.67 29.7 37.65"/><text class="cls-7" transform="translate(19.24 47.7)"><tspan x="0" y="0">q</tspan></text></g></svg>