<?xml version="1.0" encoding="utf-8" standalone="no"?>
<!DOCTYPE svg PUBLIC "-//W3C//DTD SVG 1.1//EN"
  "http://www.w3.org/Graphics/SVG/1.1/DTD/svg11.dtd">
<svg xmlns:xlink="http://www.w3.org/1999/xlink" width="460.8pt" height="345.6pt" viewBox="0 0 460.8 345.6" xmlns="http://www.w3.org/2000/svg" version="1.1">
 <metadata>
  <rdf:RDF xmlns:dc="http://purl.org/dc/elements/1.1/" xmlns:cc="http://creativecommons.org/ns#" xmlns:rdf="http://www.w3.org/1999/02/22-rdf-syntax-ns#">
   <cc:Work>
    <dc:type rdf:resource="http://purl.org/dc/dcmitype/StillImage"/>
    <dc:date>2025-07-23T10:56:24.321664</dc:date>
    <dc:format>image/svg+xml</dc:format>
    <dc:creator>
     <cc:Agent>
      <dc:title>Matplotlib v3.8.4, https://matplotlib.org/</dc:title>
     </cc:Agent>
    </dc:creator>
   </cc:Work>
  </rdf:RDF>
 </metadata>
 <defs>
  <style type="text/css">*{stroke-linejoin: round; stroke-linecap: butt}</style>
 </defs>
 <g id="figure_1">
  <g id="patch_1">
   <path d="M 0 345.6 
L 460.8 345.6 
L 460.8 0 
L 0 0 
z
" style="fill: #ffffff"/>
  </g>
  <g id="axes_1">
   <g id="patch_2">
    <path d="M 57.6 307.584 
L 414.72 307.584 
L 414.72 41.472 
L 57.6 41.472 
z
" style="fill: #ffffff"/>
   </g>
   <g id="Quiver_1">
    <defs>
     <path id="C0_0_4d7de11cff" d="M 0 -1.3392 
L 14.7312 -1.3392 
L 13.392 -4.0176 
L 26.784 -0 
L 13.392 4.0176 
L 14.7312 1.3392 
L 0 1.3392 
L 0 -1.3392 
"/>
    </defs>
    <g clip-path="url(#pf8976dce0b)">
     <use xlink:href="#C0_0_4d7de11cff" x="73.832727" y="53.568" style="fill: #0000ff"/>
    </g>
    <g clip-path="url(#pf8976dce0b)">
     <use xlink:href="#C0_0_4d7de11cff" x="123.02281" y="53.568" style="fill: #0000ff"/>
    </g>
    <g clip-path="url(#pf8976dce0b)">
     <use xlink:href="#C0_0_4d7de11cff" x="172.212893" y="53.568" style="fill: #0000ff"/>
    </g>
    <g clip-path="url(#pf8976dce0b)">
     <use xlink:href="#C0_0_4d7de11cff" x="221.402975" y="53.568" style="fill: #0000ff"/>
    </g>
    <g clip-path="url(#pf8976dce0b)">
     <use xlink:href="#C0_0_4d7de11cff" x="270.593058" y="53.568" style="fill: #0000ff"/>
    </g>
    <g clip-path="url(#pf8976dce0b)">
     <use xlink:href="#C0_0_4d7de11cff" x="319.78314" y="53.568" style="fill: #0000ff"/>
    </g>
    <g clip-path="url(#pf8976dce0b)">
     <use xlink:href="#C0_0_4d7de11cff" x="368.973223" y="53.568" style="fill: #0000ff"/>
    </g>
   </g>
   <g id="Quiver_2">
    <path d="M 75.171927 53.568 
L 74.502327 52.408219 
L 73.163127 52.408219 
L 72.493527 53.568 
L 73.163127 54.727781 
L 74.502327 54.727781 
L 75.171927 53.568 
L 74.502327 52.408219 
" clip-path="url(#pf8976dce0b)" style="fill: #0000ff"/>
    <path d="M 74.49624 59.121719 
L 74.49624 59.785232 
L 75.823265 59.121719 
L 73.832727 65.756846 
L 71.842189 59.121719 
L 73.169215 59.785232 
L 73.169215 59.121719 
L 74.49624 59.121719 
" clip-path="url(#pf8976dce0b)" style="fill: #0000ff"/>
    <path d="M 75.159753 75.782876 
L 75.159753 77.109901 
L 77.813804 75.782876 
L 73.832727 89.053131 
L 69.851651 75.782876 
L 72.505702 77.109901 
L 72.505702 75.782876 
L 75.159753 75.782876 
" clip-path="url(#pf8976dce0b)" style="fill: #0000ff"/>
    <path d="M 75.171927 103.551471 
L 75.171927 111.404053 
L 77.850327 110.064853 
L 73.832727 123.456853 
L 69.815127 110.064853 
L 72.493527 111.404053 
L 72.493527 103.551471 
L 75.171927 103.551471 
" clip-path="url(#pf8976dce0b)" style="fill: #0000ff"/>
    <path d="M 75.171927 142.427504 
L 75.171927 156.915213 
L 77.850327 155.576013 
L 73.832727 168.968013 
L 69.815127 155.576013 
L 72.493527 156.915213 
L 72.493527 142.427504 
L 75.171927 142.427504 
" clip-path="url(#pf8976dce0b)" style="fill: #0000ff"/>
    <path d="M 75.171927 192.410975 
L 75.171927 213.533812 
L 77.850327 212.194612 
L 73.832727 225.586612 
L 69.815127 212.194612 
L 72.493527 213.533812 
L 72.493527 192.410975 
L 75.171927 192.410975 
" clip-path="url(#pf8976dce0b)" style="fill: #0000ff"/>
    <path d="M 75.171927 253.501884 
L 75.171927 281.259848 
L 77.850327 279.920648 
L 73.832727 293.312648 
L 69.815127 279.920648 
L 72.493527 281.259848 
L 72.493527 253.501884 
L 75.171927 253.501884 
" clip-path="url(#pf8976dce0b)" style="fill: #0000ff"/>
   </g>
   <g id="Quiver_3">
    <path d="M 73.832727 52.2288 
L 88.563927 52.2288 
L 87.224727 49.5504 
L 100.616727 53.568 
L 87.224727 57.5856 
L 88.563927 54.9072 
L 73.832727 54.9072 
L 73.832727 52.2288 
" clip-path="url(#pf8976dce0b)" style="fill: #0000ff"/>
    <path d="M 123.344832 57.821812 
L 138.429669 61.558738 
L 137.773807 58.636901 
L 149.80681 65.756846 
L 135.841673 66.436343 
L 137.785625 64.158552 
L 122.700788 60.421626 
L 123.344832 57.821812 
" clip-path="url(#pf8976dce0b)" style="fill: #0000ff"/>
    <path d="M 172.807433 74.582885 
L 188.791517 82.502272 
L 188.780608 79.50775 
L 198.996893 89.053131 
L 185.213362 86.707694 
L 187.602435 84.902253 
L 171.618352 76.982867 
L 172.807433 74.582885 
" clip-path="url(#pf8976dce0b)" style="fill: #0000ff"/>
    <path d="M 222.201797 102.476604 
L 239.31199 115.192588 
L 239.834766 112.244031 
L 248.186975 123.456853 
L 235.041834 118.693236 
L 237.714346 117.342323 
L 220.604153 104.626339 
L 222.201797 102.476604 
" clip-path="url(#pf8976dce0b)" style="fill: #0000ff"/>
    <path d="M 271.535681 141.476233 
L 289.758238 159.53313 
L 290.692214 156.687963 
L 297.377058 168.968013 
L 285.036472 162.395592 
L 287.872991 161.435673 
L 269.650434 143.378776 
L 271.535681 141.476233 
" clip-path="url(#pf8976dce0b)" style="fill: #0000ff"/>
    <path d="M 320.825139 191.569729 
L 340.03792 215.367378 
L 341.280671 212.642887 
L 346.56714 225.586612 
L 335.02868 217.690366 
L 337.953923 217.049871 
L 318.741142 193.252222 
L 320.825139 191.569729 
" clip-path="url(#pf8976dce0b)" style="fill: #0000ff"/>
    <path d="M 370.084358 252.754332 
L 390.140384 282.564878 
L 391.615101 279.958637 
L 395.757223 293.312648 
L 384.94829 284.443954 
L 387.918113 284.059984 
L 367.862088 254.249437 
L 370.084358 252.754332 
" clip-path="url(#pf8976dce0b)" style="fill: #0000ff"/>
   </g>
   <g id="matplotlib.axis_1">
    <g id="xtick_1">
     <g id="line2d_1">
      <path d="M 73.832727 307.584 
L 73.832727 41.472 
" clip-path="url(#pf8976dce0b)" style="fill: none; stroke: #b0b0b0; stroke-width: 0.8; stroke-linecap: square"/>
     </g>
     <g id="line2d_2">
      <defs>
       <path id="ma7cfbaca2e" d="M 0 0 
L 0 3.5 
" style="stroke: #000000; stroke-width: 0.8"/>
      </defs>
      <g>
       <use xlink:href="#ma7cfbaca2e" x="73.832727" y="307.584" style="stroke: #000000; stroke-width: 0.8"/>
      </g>
     </g>
    </g>
    <g id="xtick_2">
     <g id="line2d_3">
      <path d="M 117.12 307.584 
L 117.12 41.472 
" clip-path="url(#pf8976dce0b)" style="fill: none; stroke: #b0b0b0; stroke-width: 0.8; stroke-linecap: square"/>
     </g>
     <g id="line2d_4">
      <g>
       <use xlink:href="#ma7cfbaca2e" x="117.12" y="307.584" style="stroke: #000000; stroke-width: 0.8"/>
      </g>
     </g>
    </g>
    <g id="xtick_3">
     <g id="line2d_5">
      <path d="M 160.407273 307.584 
L 160.407273 41.472 
" clip-path="url(#pf8976dce0b)" style="fill: none; stroke: #b0b0b0; stroke-width: 0.8; stroke-linecap: square"/>
     </g>
     <g id="line2d_6">
      <g>
       <use xlink:href="#ma7cfbaca2e" x="160.407273" y="307.584" style="stroke: #000000; stroke-width: 0.8"/>
      </g>
     </g>
    </g>
    <g id="xtick_4">
     <g id="line2d_7">
      <path d="M 203.694545 307.584 
L 203.694545 41.472 
" clip-path="url(#pf8976dce0b)" style="fill: none; stroke: #b0b0b0; stroke-width: 0.8; stroke-linecap: square"/>
     </g>
     <g id="line2d_8">
      <g>
       <use xlink:href="#ma7cfbaca2e" x="203.694545" y="307.584" style="stroke: #000000; stroke-width: 0.8"/>
      </g>
     </g>
    </g>
    <g id="xtick_5">
     <g id="line2d_9">
      <path d="M 246.981818 307.584 
L 246.981818 41.472 
" clip-path="url(#pf8976dce0b)" style="fill: none; stroke: #b0b0b0; stroke-width: 0.8; stroke-linecap: square"/>
     </g>
     <g id="line2d_10">
      <g>
       <use xlink:href="#ma7cfbaca2e" x="246.981818" y="307.584" style="stroke: #000000; stroke-width: 0.8"/>
      </g>
     </g>
    </g>
    <g id="xtick_6">
     <g id="line2d_11">
      <path d="M 290.269091 307.584 
L 290.269091 41.472 
" clip-path="url(#pf8976dce0b)" style="fill: none; stroke: #b0b0b0; stroke-width: 0.8; stroke-linecap: square"/>
     </g>
     <g id="line2d_12">
      <g>
       <use xlink:href="#ma7cfbaca2e" x="290.269091" y="307.584" style="stroke: #000000; stroke-width: 0.8"/>
      </g>
     </g>
    </g>
    <g id="xtick_7">
     <g id="line2d_13">
      <path d="M 333.556364 307.584 
L 333.556364 41.472 
" clip-path="url(#pf8976dce0b)" style="fill: none; stroke: #b0b0b0; stroke-width: 0.8; stroke-linecap: square"/>
     </g>
     <g id="line2d_14">
      <g>
       <use xlink:href="#ma7cfbaca2e" x="333.556364" y="307.584" style="stroke: #000000; stroke-width: 0.8"/>
      </g>
     </g>
    </g>
    <g id="xtick_8">
     <g id="line2d_15">
      <path d="M 376.843636 307.584 
L 376.843636 41.472 
" clip-path="url(#pf8976dce0b)" style="fill: none; stroke: #b0b0b0; stroke-width: 0.8; stroke-linecap: square"/>
     </g>
     <g id="line2d_16">
      <g>
       <use xlink:href="#ma7cfbaca2e" x="376.843636" y="307.584" style="stroke: #000000; stroke-width: 0.8"/>
      </g>
     </g>
    </g>
   </g>
   <g id="matplotlib.axis_2">
    <g id="ytick_1">
     <g id="line2d_17">
      <path d="M 57.6 290.309284 
L 414.72 290.309284 
" clip-path="url(#pf8976dce0b)" style="fill: none; stroke: #b0b0b0; stroke-width: 0.8; stroke-linecap: square"/>
     </g>
     <g id="line2d_18">
      <defs>
       <path id="meef5f2b725" d="M 0 0 
L -3.5 0 
" style="stroke: #000000; stroke-width: 0.8"/>
      </defs>
      <g>
       <use xlink:href="#meef5f2b725" x="57.6" y="290.309284" style="stroke: #000000; stroke-width: 0.8"/>
      </g>
     </g>
    </g>
    <g id="ytick_2">
     <g id="line2d_19">
      <path d="M 57.6 250.852404 
L 414.72 250.852404 
" clip-path="url(#pf8976dce0b)" style="fill: none; stroke: #b0b0b0; stroke-width: 0.8; stroke-linecap: square"/>
     </g>
     <g id="line2d_20">
      <g>
       <use xlink:href="#meef5f2b725" x="57.6" y="250.852404" style="stroke: #000000; stroke-width: 0.8"/>
      </g>
     </g>
    </g>
    <g id="ytick_3">
     <g id="line2d_21">
      <path d="M 57.6 211.395523 
L 414.72 211.395523 
" clip-path="url(#pf8976dce0b)" style="fill: none; stroke: #b0b0b0; stroke-width: 0.8; stroke-linecap: square"/>
     </g>
     <g id="line2d_22">
      <g>
       <use xlink:href="#meef5f2b725" x="57.6" y="211.395523" style="stroke: #000000; stroke-width: 0.8"/>
      </g>
     </g>
    </g>
    <g id="ytick_4">
     <g id="line2d_23">
      <path d="M 57.6 171.938642 
L 414.72 171.938642 
" clip-path="url(#pf8976dce0b)" style="fill: none; stroke: #b0b0b0; stroke-width: 0.8; stroke-linecap: square"/>
     </g>
     <g id="line2d_24">
      <g>
       <use xlink:href="#meef5f2b725" x="57.6" y="171.938642" style="stroke: #000000; stroke-width: 0.8"/>
      </g>
     </g>
    </g>
    <g id="ytick_5">
     <g id="line2d_25">
      <path d="M 57.6 132.481761 
L 414.72 132.481761 
" clip-path="url(#pf8976dce0b)" style="fill: none; stroke: #b0b0b0; stroke-width: 0.8; stroke-linecap: square"/>
     </g>
     <g id="line2d_26">
      <g>
       <use xlink:href="#meef5f2b725" x="57.6" y="132.481761" style="stroke: #000000; stroke-width: 0.8"/>
      </g>
     </g>
    </g>
    <g id="ytick_6">
     <g id="line2d_27">
      <path d="M 57.6 93.024881 
L 414.72 93.024881 
" clip-path="url(#pf8976dce0b)" style="fill: none; stroke: #b0b0b0; stroke-width: 0.8; stroke-linecap: square"/>
     </g>
     <g id="line2d_28">
      <g>
       <use xlink:href="#meef5f2b725" x="57.6" y="93.024881" style="stroke: #000000; stroke-width: 0.8"/>
      </g>
     </g>
    </g>
    <g id="ytick_7">
     <g id="line2d_29">
      <path d="M 57.6 53.568 
L 414.72 53.568 
" clip-path="url(#pf8976dce0b)" style="fill: none; stroke: #b0b0b0; stroke-width: 0.8; stroke-linecap: square"/>
     </g>
     <g id="line2d_30">
      <g>
       <use xlink:href="#meef5f2b725" x="57.6" y="53.568" style="stroke: #000000; stroke-width: 0.8"/>
      </g>
     </g>
    </g>
   </g>
   <g id="line2d_31">
    <path d="M 73.832727 53.568 
L 77.112066 53.592683 
L 80.391405 53.666733 
L 83.670744 53.790149 
L 86.950083 53.962931 
L 90.229421 54.18508 
L 93.50876 54.456595 
L 96.788099 54.777477 
L 100.067438 55.147725 
L 103.346777 55.567339 
L 106.626116 56.03632 
L 109.905455 56.554667 
L 113.184793 57.12238 
L 116.464132 57.73946 
L 119.743471 58.405906 
L 123.02281 59.121719 
L 126.302149 59.886898 
L 129.581488 60.701444 
L 132.860826 61.565355 
L 136.140165 62.478634 
L 139.419504 63.441278 
L 142.698843 64.453289 
L 145.978182 65.514667 
L 149.257521 66.62541 
L 152.53686 67.785521 
L 155.816198 68.994997 
L 159.095537 70.25384 
L 162.374876 71.56205 
L 165.654215 72.919625 
L 168.933554 74.326567 
L 172.212893 75.782876 
L 175.492231 77.288551 
L 178.77157 78.843592 
L 182.050909 80.448 
L 185.330248 82.101774 
L 188.609587 83.804915 
L 191.888926 85.557421 
L 195.168264 87.359295 
L 198.447603 89.210534 
L 201.726942 91.11114 
L 205.006281 93.061113 
L 208.28562 95.060452 
L 211.564959 97.109157 
L 214.844298 99.207229 
L 218.123636 101.354667 
L 221.402975 103.551471 
L 224.682314 105.797642 
L 227.961653 108.093179 
L 231.240992 110.438083 
L 234.520331 112.832353 
L 237.799669 115.275989 
L 241.079008 117.768992 
L 244.358347 120.311361 
L 247.637686 122.903096 
L 250.917025 125.544198 
L 254.196364 128.234667 
L 257.475702 130.974501 
L 260.755041 133.763702 
L 264.03438 136.60227 
L 267.313719 139.490204 
L 270.593058 142.427504 
L 273.872397 145.414171 
L 277.151736 148.450204 
L 280.431074 151.535603 
L 283.710413 154.670369 
L 286.989752 157.854501 
L 290.269091 161.088 
L 293.54843 164.370865 
L 296.827769 167.703096 
L 300.107107 171.084694 
L 303.386446 174.515658 
L 306.665785 177.995989 
L 309.945124 181.525686 
L 313.224463 185.104749 
L 316.503802 188.733179 
L 319.78314 192.410975 
L 323.062479 196.138138 
L 326.341818 199.914667 
L 329.621157 203.740562 
L 332.900496 207.615824 
L 336.179835 211.540452 
L 339.459174 215.514446 
L 342.738512 219.537807 
L 346.017851 223.610534 
L 349.29719 227.732628 
L 352.576529 231.904088 
L 355.855868 236.124915 
L 359.135207 240.395107 
L 362.414545 244.714667 
L 365.693884 249.083592 
L 368.973223 253.501884 
L 372.252562 257.969543 
L 375.531901 262.486567 
L 378.81124 267.052959 
L 382.090579 271.668716 
L 385.369917 276.33384 
L 388.649256 281.048331 
L 391.928595 285.812187 
L 395.207934 290.62541 
L 398.487273 295.488 
" clip-path="url(#pf8976dce0b)" style="fill: none; stroke: #000000; stroke-width: 1.5; stroke-linecap: square"/>
   </g>
   <g id="line2d_32">
    <defs>
     <path id="maa8b9d0406" d="M 0 1.5 
C 0.397805 1.5 0.77937 1.341951 1.06066 1.06066 
C 1.341951 0.77937 1.5 0.397805 1.5 0 
C 1.5 -0.397805 1.341951 -0.77937 1.06066 -1.06066 
C 0.77937 -1.341951 0.397805 -1.5 0 -1.5 
C -0.397805 -1.5 -0.77937 -1.341951 -1.06066 -1.06066 
C -1.341951 -0.77937 -1.5 -0.397805 -1.5 0 
C -1.5 0.397805 -1.341951 0.77937 -1.06066 1.06066 
C -0.77937 1.341951 -0.397805 1.5 0 1.5 
z
" style="stroke: #000000"/>
    </defs>
    <g clip-path="url(#pf8976dce0b)">
     <use xlink:href="#maa8b9d0406" x="73.832727" y="53.568" style="stroke: #000000"/>
     <use xlink:href="#maa8b9d0406" x="123.02281" y="59.121719" style="stroke: #000000"/>
     <use xlink:href="#maa8b9d0406" x="172.212893" y="75.782876" style="stroke: #000000"/>
     <use xlink:href="#maa8b9d0406" x="221.402975" y="103.551471" style="stroke: #000000"/>
     <use xlink:href="#maa8b9d0406" x="270.593058" y="142.427504" style="stroke: #000000"/>
     <use xlink:href="#maa8b9d0406" x="319.78314" y="192.410975" style="stroke: #000000"/>
     <use xlink:href="#maa8b9d0406" x="368.973223" y="253.501884" style="stroke: #000000"/>
    </g>
   </g>
   <g id="line2d_33">
    <g clip-path="url(#pf8976dce0b)">
     <use xlink:href="#maa8b9d0406" x="73.832727" y="53.568" style="stroke: #000000"/>
     <use xlink:href="#maa8b9d0406" x="123.02281" y="53.568" style="stroke: #000000"/>
     <use xlink:href="#maa8b9d0406" x="172.212893" y="53.568" style="stroke: #000000"/>
     <use xlink:href="#maa8b9d0406" x="221.402975" y="53.568" style="stroke: #000000"/>
     <use xlink:href="#maa8b9d0406" x="270.593058" y="53.568" style="stroke: #000000"/>
     <use xlink:href="#maa8b9d0406" x="319.78314" y="53.568" style="stroke: #000000"/>
     <use xlink:href="#maa8b9d0406" x="368.973223" y="53.568" style="stroke: #000000"/>
    </g>
   </g>
   <g id="line2d_34">
    <g clip-path="url(#pf8976dce0b)">
     <use xlink:href="#maa8b9d0406" x="73.832727" y="53.568" style="stroke: #000000"/>
     <use xlink:href="#maa8b9d0406" x="73.832727" y="59.121719" style="stroke: #000000"/>
     <use xlink:href="#maa8b9d0406" x="73.832727" y="75.782876" style="stroke: #000000"/>
     <use xlink:href="#maa8b9d0406" x="73.832727" y="103.551471" style="stroke: #000000"/>
     <use xlink:href="#maa8b9d0406" x="73.832727" y="142.427504" style="stroke: #000000"/>
     <use xlink:href="#maa8b9d0406" x="73.832727" y="192.410975" style="stroke: #000000"/>
     <use xlink:href="#maa8b9d0406" x="73.832727" y="253.501884" style="stroke: #000000"/>
    </g>
   </g>
   <g id="patch_3">
    <path d="M 57.6 307.584 
L 57.6 41.472 
" style="fill: none; stroke: #000000; stroke-width: 0.8; stroke-linejoin: miter; stroke-linecap: square"/>
   </g>
   <g id="patch_4">
    <path d="M 414.72 307.584 
L 414.72 41.472 
" style="fill: none; stroke: #000000; stroke-width: 0.8; stroke-linejoin: miter; stroke-linecap: square"/>
   </g>
   <g id="patch_5">
    <path d="M 57.6 307.584 
L 414.72 307.584 
" style="fill: none; stroke: #000000; stroke-width: 0.8; stroke-linejoin: miter; stroke-linecap: square"/>
   </g>
   <g id="patch_6">
    <path d="M 57.6 41.472 
L 414.72 41.472 
" style="fill: none; stroke: #000000; stroke-width: 0.8; stroke-linejoin: miter; stroke-linecap: square"/>
   </g>
   <g id="text_1">
    <!-- horizontal distance $s_x=v_{x0}t$ -->
    <g transform="translate(138.763636 33.83956) scale(0.12 -0.12)">
     <defs>
      <path id="DejaVuSans-68" d="M 3513 2113 
L 3513 0 
L 2938 0 
L 2938 2094 
Q 2938 2591 2744 2837 
Q 2550 3084 2163 3084 
Q 1697 3084 1428 2787 
Q 1159 2491 1159 1978 
L 1159 0 
L 581 0 
L 581 4863 
L 1159 4863 
L 1159 2956 
Q 1366 3272 1645 3428 
Q 1925 3584 2291 3584 
Q 2894 3584 3203 3211 
Q 3513 2838 3513 2113 
z
" transform="scale(0.015625)"/>
      <path id="DejaVuSans-6f" d="M 1959 3097 
Q 1497 3097 1228 2736 
Q 959 2375 959 1747 
Q 959 1119 1226 758 
Q 1494 397 1959 397 
Q 2419 397 2687 759 
Q 2956 1122 2956 1747 
Q 2956 2369 2687 2733 
Q 2419 3097 1959 3097 
z
M 1959 3584 
Q 2709 3584 3137 3096 
Q 3566 2609 3566 1747 
Q 3566 888 3137 398 
Q 2709 -91 1959 -91 
Q 1206 -91 779 398 
Q 353 888 353 1747 
Q 353 2609 779 3096 
Q 1206 3584 1959 3584 
z
" transform="scale(0.015625)"/>
      <path id="DejaVuSans-72" d="M 2631 2963 
Q 2534 3019 2420 3045 
Q 2306 3072 2169 3072 
Q 1681 3072 1420 2755 
Q 1159 2438 1159 1844 
L 1159 0 
L 581 0 
L 581 3500 
L 1159 3500 
L 1159 2956 
Q 1341 3275 1631 3429 
Q 1922 3584 2338 3584 
Q 2397 3584 2469 3576 
Q 2541 3569 2628 3553 
L 2631 2963 
z
" transform="scale(0.015625)"/>
      <path id="DejaVuSans-69" d="M 603 3500 
L 1178 3500 
L 1178 0 
L 603 0 
L 603 3500 
z
M 603 4863 
L 1178 4863 
L 1178 4134 
L 603 4134 
L 603 4863 
z
" transform="scale(0.015625)"/>
      <path id="DejaVuSans-7a" d="M 353 3500 
L 3084 3500 
L 3084 2975 
L 922 459 
L 3084 459 
L 3084 0 
L 275 0 
L 275 525 
L 2438 3041 
L 353 3041 
L 353 3500 
z
" transform="scale(0.015625)"/>
      <path id="DejaVuSans-6e" d="M 3513 2113 
L 3513 0 
L 2938 0 
L 2938 2094 
Q 2938 2591 2744 2837 
Q 2550 3084 2163 3084 
Q 1697 3084 1428 2787 
Q 1159 2491 1159 1978 
L 1159 0 
L 581 0 
L 581 3500 
L 1159 3500 
L 1159 2956 
Q 1366 3272 1645 3428 
Q 1925 3584 2291 3584 
Q 2894 3584 3203 3211 
Q 3513 2838 3513 2113 
z
" transform="scale(0.015625)"/>
      <path id="DejaVuSans-74" d="M 1172 4494 
L 1172 3500 
L 2356 3500 
L 2356 3053 
L 1172 3053 
L 1172 1153 
Q 1172 725 1289 603 
Q 1406 481 1766 481 
L 2356 481 
L 2356 0 
L 1766 0 
Q 1100 0 847 248 
Q 594 497 594 1153 
L 594 3053 
L 172 3053 
L 172 3500 
L 594 3500 
L 594 4494 
L 1172 4494 
z
" transform="scale(0.015625)"/>
      <path id="DejaVuSans-61" d="M 2194 1759 
Q 1497 1759 1228 1600 
Q 959 1441 959 1056 
Q 959 750 1161 570 
Q 1363 391 1709 391 
Q 2188 391 2477 730 
Q 2766 1069 2766 1631 
L 2766 1759 
L 2194 1759 
z
M 3341 1997 
L 3341 0 
L 2766 0 
L 2766 531 
Q 2569 213 2275 61 
Q 1981 -91 1556 -91 
Q 1019 -91 701 211 
Q 384 513 384 1019 
Q 384 1609 779 1909 
Q 1175 2209 1959 2209 
L 2766 2209 
L 2766 2266 
Q 2766 2663 2505 2880 
Q 2244 3097 1772 3097 
Q 1472 3097 1187 3025 
Q 903 2953 641 2809 
L 641 3341 
Q 956 3463 1253 3523 
Q 1550 3584 1831 3584 
Q 2591 3584 2966 3190 
Q 3341 2797 3341 1997 
z
" transform="scale(0.015625)"/>
      <path id="DejaVuSans-6c" d="M 603 4863 
L 1178 4863 
L 1178 0 
L 603 0 
L 603 4863 
z
" transform="scale(0.015625)"/>
      <path id="DejaVuSans-20" transform="scale(0.015625)"/>
      <path id="DejaVuSans-64" d="M 2906 2969 
L 2906 4863 
L 3481 4863 
L 3481 0 
L 2906 0 
L 2906 525 
Q 2725 213 2448 61 
Q 2172 -91 1784 -91 
Q 1150 -91 751 415 
Q 353 922 353 1747 
Q 353 2572 751 3078 
Q 1150 3584 1784 3584 
Q 2172 3584 2448 3432 
Q 2725 3281 2906 2969 
z
M 947 1747 
Q 947 1113 1208 752 
Q 1469 391 1925 391 
Q 2381 391 2643 752 
Q 2906 1113 2906 1747 
Q 2906 2381 2643 2742 
Q 2381 3103 1925 3103 
Q 1469 3103 1208 2742 
Q 947 2381 947 1747 
z
" transform="scale(0.015625)"/>
      <path id="DejaVuSans-73" d="M 2834 3397 
L 2834 2853 
Q 2591 2978 2328 3040 
Q 2066 3103 1784 3103 
Q 1356 3103 1142 2972 
Q 928 2841 928 2578 
Q 928 2378 1081 2264 
Q 1234 2150 1697 2047 
L 1894 2003 
Q 2506 1872 2764 1633 
Q 3022 1394 3022 966 
Q 3022 478 2636 193 
Q 2250 -91 1575 -91 
Q 1294 -91 989 -36 
Q 684 19 347 128 
L 347 722 
Q 666 556 975 473 
Q 1284 391 1588 391 
Q 1994 391 2212 530 
Q 2431 669 2431 922 
Q 2431 1156 2273 1281 
Q 2116 1406 1581 1522 
L 1381 1569 
Q 847 1681 609 1914 
Q 372 2147 372 2553 
Q 372 3047 722 3315 
Q 1072 3584 1716 3584 
Q 2034 3584 2315 3537 
Q 2597 3491 2834 3397 
z
" transform="scale(0.015625)"/>
      <path id="DejaVuSans-63" d="M 3122 3366 
L 3122 2828 
Q 2878 2963 2633 3030 
Q 2388 3097 2138 3097 
Q 1578 3097 1268 2742 
Q 959 2388 959 1747 
Q 959 1106 1268 751 
Q 1578 397 2138 397 
Q 2388 397 2633 464 
Q 2878 531 3122 666 
L 3122 134 
Q 2881 22 2623 -34 
Q 2366 -91 2075 -91 
Q 1284 -91 818 406 
Q 353 903 353 1747 
Q 353 2603 823 3093 
Q 1294 3584 2113 3584 
Q 2378 3584 2631 3529 
Q 2884 3475 3122 3366 
z
" transform="scale(0.015625)"/>
      <path id="DejaVuSans-65" d="M 3597 1894 
L 3597 1613 
L 953 1613 
Q 991 1019 1311 708 
Q 1631 397 2203 397 
Q 2534 397 2845 478 
Q 3156 559 3463 722 
L 3463 178 
Q 3153 47 2828 -22 
Q 2503 -91 2169 -91 
Q 1331 -91 842 396 
Q 353 884 353 1716 
Q 353 2575 817 3079 
Q 1281 3584 2069 3584 
Q 2775 3584 3186 3129 
Q 3597 2675 3597 1894 
z
M 3022 2063 
Q 3016 2534 2758 2815 
Q 2500 3097 2075 3097 
Q 1594 3097 1305 2825 
Q 1016 2553 972 2059 
L 3022 2063 
z
" transform="scale(0.015625)"/>
      <path id="DejaVuSans-Oblique-73" d="M 3200 3397 
L 3091 2853 
Q 2863 2978 2609 3040 
Q 2356 3103 2088 3103 
Q 1634 3103 1373 2948 
Q 1113 2794 1113 2528 
Q 1113 2219 1719 2053 
Q 1766 2041 1788 2034 
L 1972 1978 
Q 2547 1819 2739 1644 
Q 2931 1469 2931 1166 
Q 2931 609 2489 259 
Q 2047 -91 1331 -91 
Q 1053 -91 747 -37 
Q 441 16 72 128 
L 184 722 
Q 500 559 806 475 
Q 1113 391 1394 391 
Q 1816 391 2080 572 
Q 2344 753 2344 1031 
Q 2344 1331 1650 1516 
L 1591 1531 
L 1394 1581 
Q 956 1697 753 1886 
Q 550 2075 550 2369 
Q 550 2928 970 3256 
Q 1391 3584 2113 3584 
Q 2397 3584 2667 3537 
Q 2938 3491 3200 3397 
z
" transform="scale(0.015625)"/>
      <path id="DejaVuSans-Oblique-78" d="M 3841 3500 
L 2234 1784 
L 3219 0 
L 2559 0 
L 1819 1388 
L 531 0 
L -166 0 
L 1556 1844 
L 641 3500 
L 1300 3500 
L 1972 2234 
L 3144 3500 
L 3841 3500 
z
" transform="scale(0.015625)"/>
      <path id="DejaVuSans-3d" d="M 678 2906 
L 4684 2906 
L 4684 2381 
L 678 2381 
L 678 2906 
z
M 678 1631 
L 4684 1631 
L 4684 1100 
L 678 1100 
L 678 1631 
z
" transform="scale(0.015625)"/>
      <path id="DejaVuSans-Oblique-76" d="M 459 3500 
L 1069 3500 
L 1581 525 
L 3256 3500 
L 3866 3500 
L 1875 0 
L 1100 0 
L 459 3500 
z
" transform="scale(0.015625)"/>
      <path id="DejaVuSans-30" d="M 2034 4250 
Q 1547 4250 1301 3770 
Q 1056 3291 1056 2328 
Q 1056 1369 1301 889 
Q 1547 409 2034 409 
Q 2525 409 2770 889 
Q 3016 1369 3016 2328 
Q 3016 3291 2770 3770 
Q 2525 4250 2034 4250 
z
M 2034 4750 
Q 2819 4750 3233 4129 
Q 3647 3509 3647 2328 
Q 3647 1150 3233 529 
Q 2819 -91 2034 -91 
Q 1250 -91 836 529 
Q 422 1150 422 2328 
Q 422 3509 836 4129 
Q 1250 4750 2034 4750 
z
" transform="scale(0.015625)"/>
      <path id="DejaVuSans-Oblique-74" d="M 2706 3500 
L 2619 3053 
L 1472 3053 
L 1100 1153 
Q 1081 1047 1072 975 
Q 1063 903 1063 863 
Q 1063 663 1183 572 
Q 1303 481 1569 481 
L 2150 481 
L 2053 0 
L 1503 0 
Q 991 0 739 200 
Q 488 400 488 806 
Q 488 878 497 964 
Q 506 1050 525 1153 
L 897 3053 
L 409 3053 
L 500 3500 
L 978 3500 
L 1172 4494 
L 1747 4494 
L 1556 3500 
L 2706 3500 
z
" transform="scale(0.015625)"/>
     </defs>
     <use xlink:href="#DejaVuSans-68" transform="translate(0 0.015625)"/>
     <use xlink:href="#DejaVuSans-6f" transform="translate(63.378906 0.015625)"/>
     <use xlink:href="#DejaVuSans-72" transform="translate(124.560547 0.015625)"/>
     <use xlink:href="#DejaVuSans-69" transform="translate(165.673828 0.015625)"/>
     <use xlink:href="#DejaVuSans-7a" transform="translate(193.457031 0.015625)"/>
     <use xlink:href="#DejaVuSans-6f" transform="translate(245.947266 0.015625)"/>
     <use xlink:href="#DejaVuSans-6e" transform="translate(307.128906 0.015625)"/>
     <use xlink:href="#DejaVuSans-74" transform="translate(370.507812 0.015625)"/>
     <use xlink:href="#DejaVuSans-61" transform="translate(409.716797 0.015625)"/>
     <use xlink:href="#DejaVuSans-6c" transform="translate(470.996094 0.015625)"/>
     <use xlink:href="#DejaVuSans-20" transform="translate(498.779297 0.015625)"/>
     <use xlink:href="#DejaVuSans-64" transform="translate(530.566406 0.015625)"/>
     <use xlink:href="#DejaVuSans-69" transform="translate(594.042969 0.015625)"/>
     <use xlink:href="#DejaVuSans-73" transform="translate(621.826172 0.015625)"/>
     <use xlink:href="#DejaVuSans-74" transform="translate(673.925781 0.015625)"/>
     <use xlink:href="#DejaVuSans-61" transform="translate(713.134766 0.015625)"/>
     <use xlink:href="#DejaVuSans-6e" transform="translate(774.414062 0.015625)"/>
     <use xlink:href="#DejaVuSans-63" transform="translate(837.792969 0.015625)"/>
     <use xlink:href="#DejaVuSans-65" transform="translate(892.773438 0.015625)"/>
     <use xlink:href="#DejaVuSans-20" transform="translate(954.296875 0.015625)"/>
     <use xlink:href="#DejaVuSans-Oblique-73" transform="translate(986.083984 0.015625)"/>
     <use xlink:href="#DejaVuSans-Oblique-78" transform="translate(1038.183594 -16.390625) scale(0.7)"/>
     <use xlink:href="#DejaVuSans-3d" transform="translate(1101.826172 0.015625)"/>
     <use xlink:href="#DejaVuSans-Oblique-76" transform="translate(1205.097656 0.015625)"/>
     <use xlink:href="#DejaVuSans-Oblique-78" transform="translate(1264.277344 -16.390625) scale(0.7)"/>
     <use xlink:href="#DejaVuSans-30" transform="translate(1305.703125 -16.390625) scale(0.7)"/>
     <use xlink:href="#DejaVuSans-Oblique-74" transform="translate(1352.973633 0.015625)"/>
    </g>
   </g>
   <g id="text_2">
    <!-- vertical distance $s_y=-1/2gt^2$ -->
    <g transform="translate(34.265455 72.652404) rotate(-270) scale(0.12 -0.12)">
     <defs>
      <path id="DejaVuSans-76" d="M 191 3500 
L 800 3500 
L 1894 563 
L 2988 3500 
L 3597 3500 
L 2284 0 
L 1503 0 
L 191 3500 
z
" transform="scale(0.015625)"/>
      <path id="DejaVuSans-Oblique-79" d="M 1588 -325 
Q 1188 -997 936 -1164 
Q 684 -1331 294 -1331 
L -159 -1331 
L -63 -850 
L 269 -850 
Q 509 -850 678 -719 
Q 847 -588 1056 -206 
L 1234 128 
L 459 3500 
L 1069 3500 
L 1650 819 
L 3256 3500 
L 3859 3500 
L 1588 -325 
z
" transform="scale(0.015625)"/>
      <path id="DejaVuSans-2212" d="M 678 2272 
L 4684 2272 
L 4684 1741 
L 678 1741 
L 678 2272 
z
" transform="scale(0.015625)"/>
      <path id="DejaVuSans-31" d="M 794 531 
L 1825 531 
L 1825 4091 
L 703 3866 
L 703 4441 
L 1819 4666 
L 2450 4666 
L 2450 531 
L 3481 531 
L 3481 0 
L 794 0 
L 794 531 
z
" transform="scale(0.015625)"/>
      <path id="DejaVuSans-2f" d="M 1625 4666 
L 2156 4666 
L 531 -594 
L 0 -594 
L 1625 4666 
z
" transform="scale(0.015625)"/>
      <path id="DejaVuSans-32" d="M 1228 531 
L 3431 531 
L 3431 0 
L 469 0 
L 469 531 
Q 828 903 1448 1529 
Q 2069 2156 2228 2338 
Q 2531 2678 2651 2914 
Q 2772 3150 2772 3378 
Q 2772 3750 2511 3984 
Q 2250 4219 1831 4219 
Q 1534 4219 1204 4116 
Q 875 4013 500 3803 
L 500 4441 
Q 881 4594 1212 4672 
Q 1544 4750 1819 4750 
Q 2544 4750 2975 4387 
Q 3406 4025 3406 3419 
Q 3406 3131 3298 2873 
Q 3191 2616 2906 2266 
Q 2828 2175 2409 1742 
Q 1991 1309 1228 531 
z
" transform="scale(0.015625)"/>
      <path id="DejaVuSans-Oblique-67" d="M 3816 3500 
L 3219 434 
Q 3047 -456 2561 -893 
Q 2075 -1331 1253 -1331 
Q 950 -1331 690 -1286 
Q 431 -1241 206 -1147 
L 313 -588 
Q 525 -725 762 -790 
Q 1000 -856 1269 -856 
Q 1816 -856 2167 -557 
Q 2519 -259 2631 300 
L 2681 563 
Q 2441 288 2122 144 
Q 1803 0 1434 0 
Q 903 0 598 351 
Q 294 703 294 1319 
Q 294 1803 478 2267 
Q 663 2731 997 3091 
Q 1219 3328 1514 3456 
Q 1809 3584 2131 3584 
Q 2484 3584 2746 3420 
Q 3009 3256 3138 2956 
L 3238 3500 
L 3816 3500 
z
M 2950 2216 
Q 2950 2641 2750 2872 
Q 2550 3103 2181 3103 
Q 1953 3103 1747 3012 
Q 1541 2922 1394 2759 
Q 1156 2491 1023 2127 
Q 891 1763 891 1375 
Q 891 944 1092 712 
Q 1294 481 1672 481 
Q 2219 481 2584 976 
Q 2950 1472 2950 2216 
z
" transform="scale(0.015625)"/>
     </defs>
     <use xlink:href="#DejaVuSans-76" transform="translate(0 0.765625)"/>
     <use xlink:href="#DejaVuSans-65" transform="translate(59.179688 0.765625)"/>
     <use xlink:href="#DejaVuSans-72" transform="translate(120.703125 0.765625)"/>
     <use xlink:href="#DejaVuSans-74" transform="translate(161.816406 0.765625)"/>
     <use xlink:href="#DejaVuSans-69" transform="translate(201.025391 0.765625)"/>
     <use xlink:href="#DejaVuSans-63" transform="translate(228.808594 0.765625)"/>
     <use xlink:href="#DejaVuSans-61" transform="translate(283.789062 0.765625)"/>
     <use xlink:href="#DejaVuSans-6c" transform="translate(345.068359 0.765625)"/>
     <use xlink:href="#DejaVuSans-20" transform="translate(372.851562 0.765625)"/>
     <use xlink:href="#DejaVuSans-64" transform="translate(404.638672 0.765625)"/>
     <use xlink:href="#DejaVuSans-69" transform="translate(468.115234 0.765625)"/>
     <use xlink:href="#DejaVuSans-73" transform="translate(495.898438 0.765625)"/>
     <use xlink:href="#DejaVuSans-74" transform="translate(547.998047 0.765625)"/>
     <use xlink:href="#DejaVuSans-61" transform="translate(587.207031 0.765625)"/>
     <use xlink:href="#DejaVuSans-6e" transform="translate(648.486328 0.765625)"/>
     <use xlink:href="#DejaVuSans-63" transform="translate(711.865234 0.765625)"/>
     <use xlink:href="#DejaVuSans-65" transform="translate(766.845703 0.765625)"/>
     <use xlink:href="#DejaVuSans-20" transform="translate(828.369141 0.765625)"/>
     <use xlink:href="#DejaVuSans-Oblique-73" transform="translate(860.15625 0.765625)"/>
     <use xlink:href="#DejaVuSans-Oblique-79" transform="translate(912.255859 -15.640625) scale(0.7)"/>
     <use xlink:href="#DejaVuSans-3d" transform="translate(975.898438 0.765625)"/>
     <use xlink:href="#DejaVuSans-2212" transform="translate(1098.652344 0.765625)"/>
     <use xlink:href="#DejaVuSans-31" transform="translate(1201.923828 0.765625)"/>
     <use xlink:href="#DejaVuSans-2f" transform="translate(1265.546875 0.765625)"/>
     <use xlink:href="#DejaVuSans-32" transform="translate(1295.613281 0.765625)"/>
     <use xlink:href="#DejaVuSans-Oblique-67" transform="translate(1359.236328 0.765625)"/>
     <use xlink:href="#DejaVuSans-Oblique-74" transform="translate(1422.712891 0.765625)"/>
     <use xlink:href="#DejaVuSans-32" transform="translate(1468.562396 39.046875) scale(0.7)"/>
    </g>
   </g>
  </g>
 </g>
 <defs>
  <clipPath id="pf8976dce0b">
   <rect x="57.6" y="41.472" width="357.12" height="266.112"/>
  </clipPath>
 </defs>
</svg>
